<svg width="41" height="41" viewBox="0 0 41 41" fill="none" xmlns="http://www.w3.org/2000/svg">
<path d="M13.6372 29.8869L12.6235 29.56C12.0203 29.3655 11.7132 28.6682 11.9577 28.0616C12.7581 26.0758 13.4106 24.3016 13.9736 22.5462C13.5297 22.5231 13.0741 22.497 12.605 22.468C12.0884 22.436 11.6692 22.0178 11.6151 21.4815L11.4905 20.2448C11.4213 19.5573 11.9686 18.9732 12.6303 19.0221C13.4416 19.0822 14.213 19.1335 14.9531 19.1755C15.5149 17.0271 16.0032 14.7322 16.5158 11.968C16.6417 11.2893 17.3248 10.8896 17.9442 11.1373L19.0584 11.5828C19.5417 11.776 19.8208 12.3061 19.7168 12.8344C19.2349 15.2806 18.7722 17.3542 18.2594 19.3045C19.8379 19.3331 21.3194 19.3061 22.8229 19.218C22.3192 17.2929 21.8631 15.2444 21.3883 12.8344C21.2842 12.3061 21.5634 11.776 22.0466 11.5828L23.1608 11.1373C23.7802 10.8896 24.4634 11.2893 24.5892 11.968C25.083 14.6303 25.554 16.8571 26.09 18.9372C26.9341 18.8432 27.808 18.7311 28.7293 18.5999C29.3549 18.5108 29.9218 19.0004 29.9461 19.6579L29.9868 20.7627C30.0078 21.334 29.6058 21.8286 29.0614 21.9001C28.3488 21.9936 27.6666 22.0785 27.0072 22.1547C27.5982 24.0389 28.2874 25.928 29.1474 28.0616C29.3919 28.6682 29.0847 29.3655 28.4815 29.56L27.4678 29.8869C26.9437 30.056 26.3811 29.7794 26.174 29.25C25.1909 26.7377 24.4174 24.5966 23.7554 22.4739C21.5841 22.6434 19.5444 22.7049 17.2896 22.6655C16.6409 24.7258 15.8846 26.8133 14.931 29.25C14.7239 29.7794 14.1613 30.056 13.6372 29.8869Z" fill="#631007"/>
<path d="M37.6131 19.4587C41.3465 30.3079 32.4768 38.2892 27.5754 40.9236C35.3238 34.3674 32.242 24.4881 31.9779 19.4587C31.7515 15.1477 35.676 15.0579 37.6131 19.4587Z" fill="#8F2916"/>
<path d="M6.68934 32.9125C-2.65478 26.4809 -0.208932 14.6773 2.18201 9.57942C-0.198181 19.5571 8.05556 25.6072 11.2106 29.4817C13.915 32.8026 10.8188 35.264 6.68934 32.9125Z" fill="#8F2916"/>
<path d="M4.78184 11.8988C7.80511 0.821952 19.5564 -0.548179 25.0541 0.151367C15.0217 1.007 12.008 10.9081 9.40372 15.1873C7.17144 18.8552 3.90225 16.6386 4.78184 11.8988Z" fill="#8F2916"/>
<path d="M26.3816 38.2777C17.0843 44.7797 7.21974 38.1234 3.44959 33.9825C11.6733 39.9058 20.2221 34.2981 24.914 32.7281C28.9356 31.3825 30.0427 35.224 26.3816 38.2777Z" fill="#8F2916"/>
<path d="M24.4015 3.10306C35.6741 3.05653 40.1641 14.2178 41 19.8043C37.4631 10.1901 27.3023 9.92615 22.5567 8.53427C18.4891 7.34124 19.6906 3.52938 24.4015 3.10306Z" fill="#8F2916"/>
</svg>
