<svg width="203" height="93" viewBox="0 0 203 93" fill="none" xmlns="http://www.w3.org/2000/svg">
<rect width="185" height="64" transform="translate(7 13)" fill="white"/>
<mask id="mask0_2545_9640" style="mask-type:luminance" maskUnits="userSpaceOnUse" x="3" y="61" width="197" height="32">
<path d="M86.7041 92.9802C62.9616 92.7662 20.0675 90.7952 11.7497 83.3653C8.11006 80.1131 5.17295 71.493 3.21191 61.346C5.09764 69.8402 7.83756 77.4069 11.4277 80.4876C16.5607 84.8933 34.1833 87.2368 53.8947 88.4537L56.7386 91.9318C67.5397 92.6086 78.3209 92.9039 86.7041 92.9802ZM190.642 83.285C190.642 83.283 190.652 83.2801 190.652 83.2771C190.652 83.2801 190.642 83.282 190.642 83.285ZM190.82 83.1185C190.82 83.1166 190.82 83.1136 190.82 83.1116C190.82 83.1146 190.82 83.1166 190.82 83.1185ZM192.763 80.6303C192.763 80.6303 192.763 80.6303 192.763 80.6293V80.6303ZM192.782 80.5877C192.782 80.5867 192.782 80.5857 192.782 80.5857V80.5877ZM192.842 80.5035C192.842 80.5005 192.842 80.4975 192.842 80.4956C192.842 80.4985 192.842 80.5005 192.842 80.5035ZM193 80.229C193 80.226 193.01 80.2221 193.01 80.2181C193.01 80.2221 193 80.225 193 80.229ZM193.05 80.1408C193.06 80.1349 193.06 80.1279 193.07 80.122C193.06 80.1289 193.06 80.1339 193.05 80.1408ZM193.139 80.0031C193.139 79.9971 193.139 79.9922 193.139 79.9862C193.139 79.9912 193.139 79.9981 193.139 80.0031ZM193.189 79.9169C193.189 79.908 193.199 79.899 193.199 79.8901C193.189 79.899 193.189 79.908 193.189 79.9169ZM193.228 79.8306C193.238 79.8188 193.248 79.8069 193.248 79.796C193.248 79.8079 193.238 79.8188 193.228 79.8306ZM193.278 79.7494C195.666 75.4726 197.638 68.8393 199.085 61.3757C199.085 61.3648 199.095 61.3539 199.095 61.342C197.648 68.8185 195.676 75.4666 193.278 79.7494Z" fill="white"/>
</mask>
<g mask="url(#mask0_2545_9640)">
<path d="M86.7041 92.9802C62.9616 92.7662 20.0675 90.7952 11.7497 83.3653C8.11006 80.1131 5.17295 71.493 3.21191 61.346C5.09764 69.8402 7.83756 77.4069 11.4277 80.4876C16.5607 84.8933 34.1833 87.2368 53.8947 88.4537L56.7386 91.9318C67.5397 92.6086 78.3209 92.9039 86.7041 92.9802ZM190.642 83.285C190.642 83.283 190.652 83.2801 190.652 83.2771C190.652 83.2801 190.642 83.282 190.642 83.285ZM190.82 83.1185C190.82 83.1166 190.82 83.1136 190.82 83.1116C190.82 83.1146 190.82 83.1166 190.82 83.1185ZM192.763 80.6303C192.763 80.6303 192.763 80.6303 192.763 80.6293V80.6303ZM192.782 80.5877C192.782 80.5867 192.782 80.5857 192.782 80.5857V80.5877ZM192.842 80.5035C192.842 80.5005 192.842 80.4975 192.842 80.4956C192.842 80.4985 192.842 80.5005 192.842 80.5035ZM193 80.229C193 80.226 193.01 80.2221 193.01 80.2181C193.01 80.2221 193 80.225 193 80.229ZM193.05 80.1408C193.06 80.1349 193.06 80.1279 193.07 80.122C193.06 80.1289 193.06 80.1339 193.05 80.1408ZM193.139 80.0031C193.139 79.9971 193.139 79.9922 193.139 79.9862C193.139 79.9912 193.139 79.9981 193.139 80.0031ZM193.189 79.9169C193.189 79.908 193.199 79.899 193.199 79.8901C193.189 79.899 193.189 79.908 193.189 79.9169ZM193.228 79.8306C193.238 79.8188 193.248 79.8069 193.248 79.796C193.248 79.8079 193.238 79.8188 193.228 79.8306ZM193.278 79.7494C195.666 75.4726 197.638 68.8393 199.085 61.3757C199.085 61.3648 199.095 61.3539 199.095 61.342C197.648 68.8185 195.676 75.4666 193.278 79.7494Z" fill="url(#paint0_linear_2545_9640)"/>
</g>
<mask id="mask1_2545_9640" style="mask-type:luminance" maskUnits="userSpaceOnUse" x="0" y="0" width="202" height="88">
<path d="M52.2272 87.3433C30.2476 85.8817 16.1982 83.2785 12.0701 79.7359C1.80112 70.9227 -2.50639 22.1158 4.10406 13.8217C10.8176 5.39888 58.0043 0.991255 101.149 0.991255C144.294 0.991255 191.482 5.39888 198.19 13.8217C201.758 18.2928 202.144 34.54 200.142 49.9468L191.075 28.3368C190.847 23.398 190.045 19.4026 188.588 17.392V17.391C188.578 17.3811 188.568 17.3692 188.558 17.3583C188.558 17.3474 188.549 17.3375 188.539 17.3266C188.539 17.3256 188.539 17.3246 188.539 17.3227C188.529 17.3147 188.519 17.3058 188.519 17.2969C188.519 17.2949 188.509 17.2929 188.509 17.2909C188.509 17.281 188.499 17.2721 188.489 17.2622C188.489 17.2602 188.489 17.2582 188.489 17.2563C188.479 17.2493 188.469 17.2414 188.469 17.2345C188.469 17.2315 188.459 17.2275 188.459 17.2255C188.459 17.2176 188.449 17.2097 188.44 17.2027C188.44 17.2008 188.44 17.1978 188.44 17.1958C188.43 17.1869 188.42 17.18 188.42 17.172C188.42 17.1681 188.41 17.1651 188.41 17.1611C188.4 17.1552 188.4 17.1492 188.39 17.1433C188.39 17.1403 188.39 17.1373 188.39 17.1334C188.38 17.1255 188.37 17.1175 188.37 17.1096C188.36 17.1066 188.36 17.1027 188.36 17.0997C188.35 17.0938 188.35 17.0888 188.34 17.0828C188.34 17.0789 188.34 17.0769 188.34 17.0739C188.331 17.065 188.321 17.0571 188.311 17.0492C188.311 17.0462 188.311 17.0442 188.311 17.0422C188.301 17.0353 188.301 17.0293 188.291 17.0224C188.291 17.0194 188.291 17.0174 188.281 17.0145C188.281 17.0065 188.271 16.9976 188.261 16.9887C184.268 12.5533 165.48 9.69554 143.61 8.14376C139.765 7.86432 135.822 7.6364 131.858 7.44217C131.858 7.44416 131.858 7.44413 131.858 7.44513C126.626 7.19046 121.334 7.00318 116.142 6.87931C116.142 6.87832 116.142 6.87832 116.142 6.87733C113.972 6.82679 111.821 6.78714 109.701 6.7584C106.797 6.71876 103.934 6.69898 101.149 6.69898C66.6848 6.69898 20.5782 9.73218 14.0361 16.9887C14.0282 16.9976 14.0203 17.0066 14.0123 17.0155C14.0113 17.0175 14.0093 17.0194 14.0084 17.0204C14.0004 17.0293 13.9925 17.0373 13.9855 17.0472C13.9845 17.0472 13.9846 17.0472 13.9846 17.0472C13.9766 17.0561 13.9677 17.066 13.9598 17.0759C13.9598 17.0769 13.9588 17.0769 13.9588 17.0779C10.5599 21.0564 10.4212 35.1384 12.5844 47.8698C13.6913 54.4119 15.4115 60.5933 17.6084 64.8701C17.6124 64.877 17.6163 64.884 17.6192 64.8919C18.7063 67.0046 19.9102 68.6505 21.2153 69.6404C21.2292 69.6513 21.243 69.6612 21.2569 69.6711C21.2589 69.6731 21.2619 69.6751 21.2639 69.6771C21.2688 69.681 21.2748 69.685 21.2797 69.688C21.2827 69.691 21.2866 69.6929 21.2896 69.6959C21.2946 69.6999 21.2996 69.7028 21.3035 69.7058C21.3095 69.7098 21.3134 69.7138 21.3184 69.7167C21.3213 69.7197 21.3253 69.7217 21.3283 69.7237C21.3372 69.7306 21.3461 69.7366 21.3541 69.7425C21.357 69.7445 21.358 69.7455 21.36 69.7464C21.3669 69.7514 21.3749 69.7574 21.3818 69.7623C21.3848 69.7643 21.3858 69.7653 21.3877 69.7663C21.3957 69.7722 21.4036 69.7782 21.4115 69.7831C21.4125 69.7841 21.4135 69.7851 21.4155 69.7861C21.4343 69.799 21.4532 69.8118 21.473 69.8257C21.4829 69.8327 21.4928 69.8396 21.5027 69.8455C21.5037 69.8465 21.5037 69.8465 21.5037 69.8465C21.5839 69.901 21.6672 69.9545 21.7534 70.0081C21.7851 70.0279 21.8178 70.0477 21.8505 70.0675L21.8535 70.0695C21.8634 70.0754 21.8723 70.0804 21.8822 70.0863C21.8842 70.0873 21.8852 70.0883 21.8862 70.0893C21.908 70.1022 21.9298 70.1141 21.9516 70.127C21.9526 70.128 21.9556 70.1299 21.9565 70.1299C21.9655 70.1349 21.9734 70.1398 21.9823 70.1448C21.9853 70.1468 21.9883 70.1488 21.9923 70.1507C22.0002 70.1557 22.0061 70.1587 22.0131 70.1626C22.018 70.1656 22.0209 70.1676 22.0249 70.1706C22.0318 70.1735 22.0388 70.1775 22.0447 70.1815C22.0536 70.1864 22.0615 70.1904 22.0704 70.1953C22.0754 70.1983 22.0804 70.2013 22.0853 70.2043C22.0923 70.2082 22.0982 70.2112 22.1052 70.2151C22.1082 70.2171 22.1121 70.2191 22.1151 70.2211C22.123 70.2251 22.13 70.229 22.1369 70.233C22.1399 70.234 22.1408 70.235 22.1438 70.237C22.4242 70.3916 22.7275 70.5431 23.0555 70.6908L52.2272 87.3433Z" fill="white"/>
</mask>
<g mask="url(#mask1_2545_9640)">
<path d="M52.2272 87.3433C30.2476 85.8817 16.1982 83.2785 12.0701 79.7359C1.80112 70.9227 -2.50639 22.1158 4.10406 13.8217C10.8176 5.39888 58.0043 0.991255 101.149 0.991255C144.294 0.991255 191.482 5.39888 198.19 13.8217C201.758 18.2928 202.144 34.54 200.142 49.9468L191.075 28.3368C190.847 23.398 190.045 19.4026 188.588 17.392V17.391C188.578 17.3811 188.568 17.3692 188.558 17.3583C188.558 17.3474 188.549 17.3375 188.539 17.3266C188.539 17.3256 188.539 17.3246 188.539 17.3227C188.529 17.3147 188.519 17.3058 188.519 17.2969C188.519 17.2949 188.509 17.2929 188.509 17.2909C188.509 17.281 188.499 17.2721 188.489 17.2622C188.489 17.2602 188.489 17.2582 188.489 17.2563C188.479 17.2493 188.469 17.2414 188.469 17.2345C188.469 17.2315 188.459 17.2275 188.459 17.2255C188.459 17.2176 188.449 17.2097 188.44 17.2027C188.44 17.2008 188.44 17.1978 188.44 17.1958C188.43 17.1869 188.42 17.18 188.42 17.172C188.42 17.1681 188.41 17.1651 188.41 17.1611C188.4 17.1552 188.4 17.1492 188.39 17.1433C188.39 17.1403 188.39 17.1373 188.39 17.1334C188.38 17.1255 188.37 17.1175 188.37 17.1096C188.36 17.1066 188.36 17.1027 188.36 17.0997C188.35 17.0938 188.35 17.0888 188.34 17.0828C188.34 17.0789 188.34 17.0769 188.34 17.0739C188.331 17.065 188.321 17.0571 188.311 17.0492C188.311 17.0462 188.311 17.0442 188.311 17.0422C188.301 17.0353 188.301 17.0293 188.291 17.0224C188.291 17.0194 188.291 17.0174 188.281 17.0145C188.281 17.0065 188.271 16.9976 188.261 16.9887C184.268 12.5533 165.48 9.69554 143.61 8.14376C139.765 7.86432 135.822 7.6364 131.858 7.44217C131.858 7.44416 131.858 7.44413 131.858 7.44513C126.626 7.19046 121.334 7.00318 116.142 6.87931C116.142 6.87832 116.142 6.87832 116.142 6.87733C113.972 6.82679 111.821 6.78714 109.701 6.7584C106.797 6.71876 103.934 6.69898 101.149 6.69898C66.6848 6.69898 20.5782 9.73218 14.0361 16.9887C14.0282 16.9976 14.0203 17.0066 14.0123 17.0155C14.0113 17.0175 14.0093 17.0194 14.0084 17.0204C14.0004 17.0293 13.9925 17.0373 13.9855 17.0472C13.9845 17.0472 13.9846 17.0472 13.9846 17.0472C13.9766 17.0561 13.9677 17.066 13.9598 17.0759C13.9598 17.0769 13.9588 17.0769 13.9588 17.0779C10.5599 21.0564 10.4212 35.1384 12.5844 47.8698C13.6913 54.4119 15.4115 60.5933 17.6084 64.8701C17.6124 64.877 17.6163 64.884 17.6192 64.8919C18.7063 67.0046 19.9102 68.6505 21.2153 69.6404C21.2292 69.6513 21.243 69.6612 21.2569 69.6711C21.2589 69.6731 21.2619 69.6751 21.2639 69.6771C21.2688 69.681 21.2748 69.685 21.2797 69.688C21.2827 69.691 21.2866 69.6929 21.2896 69.6959C21.2946 69.6999 21.2996 69.7028 21.3035 69.7058C21.3095 69.7098 21.3134 69.7138 21.3184 69.7167C21.3213 69.7197 21.3253 69.7217 21.3283 69.7237C21.3372 69.7306 21.3461 69.7366 21.3541 69.7425C21.357 69.7445 21.358 69.7455 21.36 69.7464C21.3669 69.7514 21.3749 69.7574 21.3818 69.7623C21.3848 69.7643 21.3858 69.7653 21.3877 69.7663C21.3957 69.7722 21.4036 69.7782 21.4115 69.7831C21.4125 69.7841 21.4135 69.7851 21.4155 69.7861C21.4343 69.799 21.4532 69.8118 21.473 69.8257C21.4829 69.8327 21.4928 69.8396 21.5027 69.8455C21.5037 69.8465 21.5037 69.8465 21.5037 69.8465C21.5839 69.901 21.6672 69.9545 21.7534 70.0081C21.7851 70.0279 21.8178 70.0477 21.8505 70.0675L21.8535 70.0695C21.8634 70.0754 21.8723 70.0804 21.8822 70.0863C21.8842 70.0873 21.8852 70.0883 21.8862 70.0893C21.908 70.1022 21.9298 70.1141 21.9516 70.127C21.9526 70.128 21.9556 70.1299 21.9565 70.1299C21.9655 70.1349 21.9734 70.1398 21.9823 70.1448C21.9853 70.1468 21.9883 70.1488 21.9923 70.1507C22.0002 70.1557 22.0061 70.1587 22.0131 70.1626C22.018 70.1656 22.0209 70.1676 22.0249 70.1706C22.0318 70.1735 22.0388 70.1775 22.0447 70.1815C22.0536 70.1864 22.0615 70.1904 22.0704 70.1953C22.0754 70.1983 22.0804 70.2013 22.0853 70.2043C22.0923 70.2082 22.0982 70.2112 22.1052 70.2151C22.1082 70.2171 22.1121 70.2191 22.1151 70.2211C22.123 70.2251 22.13 70.229 22.1369 70.233C22.1399 70.234 22.1408 70.235 22.1438 70.237C22.4242 70.3916 22.7275 70.5431 23.0555 70.6908L52.2272 87.3433Z" fill="url(#paint1_linear_2545_9640)"/>
</g>
<mask id="mask2_2545_9640" style="mask-type:luminance" maskUnits="userSpaceOnUse" x="0" y="0" width="202" height="88">
<path d="M52.2272 87.3433C30.2476 85.8817 16.1982 83.2785 12.0701 79.7359C1.80112 70.9227 -2.50639 22.1158 4.10406 13.8217C10.8176 5.39888 58.0043 0.991255 101.149 0.991255C144.294 0.991255 191.482 5.39888 198.19 13.8217C201.758 18.2928 202.144 34.54 200.142 49.9468L191.075 28.3368C190.847 23.398 190.045 19.4026 188.588 17.392V17.391C188.578 17.3811 188.568 17.3692 188.558 17.3583C188.558 17.3474 188.549 17.3375 188.539 17.3266C188.539 17.3256 188.539 17.3246 188.539 17.3227C188.529 17.3147 188.519 17.3058 188.519 17.2969C188.519 17.2949 188.509 17.2929 188.509 17.2909C188.509 17.281 188.499 17.2721 188.489 17.2622C188.489 17.2602 188.489 17.2582 188.489 17.2563C188.479 17.2493 188.469 17.2414 188.469 17.2345C188.469 17.2315 188.459 17.2275 188.459 17.2255C188.459 17.2176 188.449 17.2097 188.44 17.2027C188.44 17.2008 188.44 17.1978 188.44 17.1958C188.43 17.1869 188.42 17.18 188.42 17.172C188.42 17.1681 188.41 17.1651 188.41 17.1611C188.4 17.1552 188.4 17.1492 188.39 17.1433C188.39 17.1403 188.39 17.1373 188.39 17.1334C188.38 17.1255 188.37 17.1175 188.37 17.1096C188.36 17.1066 188.36 17.1027 188.36 17.0997C188.35 17.0938 188.35 17.0888 188.34 17.0828C188.34 17.0789 188.34 17.0769 188.34 17.0739C188.331 17.065 188.321 17.0571 188.311 17.0492C188.311 17.0462 188.311 17.0442 188.311 17.0422C188.301 17.0353 188.301 17.0293 188.291 17.0224C188.291 17.0194 188.291 17.0174 188.281 17.0145C188.281 17.0065 188.271 16.9976 188.261 16.9887C184.268 12.5533 165.48 9.69554 143.61 8.14376C139.765 7.86432 135.822 7.6364 131.858 7.44217C131.858 7.44416 131.858 7.44413 131.858 7.44513C126.626 7.19046 121.334 7.00318 116.142 6.87931C116.142 6.87832 116.142 6.87832 116.142 6.87733C113.972 6.82679 111.821 6.78714 109.701 6.7584C106.797 6.71876 103.934 6.69898 101.149 6.69898C66.6848 6.69898 20.5782 9.73218 14.0361 16.9887C14.0282 16.9976 14.0203 17.0066 14.0123 17.0155C14.0113 17.0175 14.0093 17.0194 14.0084 17.0204C14.0004 17.0293 13.9925 17.0373 13.9855 17.0472C13.9845 17.0472 13.9846 17.0472 13.9846 17.0472C13.9766 17.0561 13.9677 17.066 13.9598 17.0759C13.9598 17.0769 13.9588 17.0769 13.9588 17.0779C10.5599 21.0564 10.4212 35.1384 12.5844 47.8698C13.6913 54.4119 15.4115 60.5933 17.6084 64.8701C17.6124 64.877 17.6163 64.884 17.6192 64.8919C18.7063 67.0046 19.9102 68.6505 21.2153 69.6404C21.2292 69.6513 21.243 69.6612 21.2569 69.6711C21.2589 69.6731 21.2619 69.6751 21.2639 69.6771C21.2688 69.681 21.2748 69.685 21.2797 69.688C21.2827 69.691 21.2866 69.6929 21.2896 69.6959C21.2946 69.6999 21.2996 69.7028 21.3035 69.7058C21.3095 69.7098 21.3134 69.7138 21.3184 69.7167C21.3213 69.7197 21.3253 69.7217 21.3283 69.7237C21.3372 69.7306 21.3461 69.7366 21.3541 69.7425C21.357 69.7445 21.358 69.7455 21.36 69.7464C21.3669 69.7514 21.3749 69.7574 21.3818 69.7623C21.3848 69.7643 21.3858 69.7653 21.3877 69.7663C21.3957 69.7722 21.4036 69.7782 21.4115 69.7831C21.4125 69.7841 21.4135 69.7851 21.4155 69.7861C21.4343 69.799 21.4532 69.8118 21.473 69.8257C21.4829 69.8327 21.4928 69.8396 21.5027 69.8455C21.5037 69.8465 21.5037 69.8465 21.5037 69.8465C21.5839 69.901 21.6672 69.9545 21.7534 70.0081C21.7851 70.0279 21.8178 70.0477 21.8505 70.0675L21.8535 70.0695C21.8634 70.0754 21.8723 70.0804 21.8822 70.0863C21.8842 70.0873 21.8852 70.0883 21.8862 70.0893C21.908 70.1022 21.9298 70.1141 21.9516 70.127C21.9526 70.128 21.9556 70.1299 21.9565 70.1299C21.9655 70.1349 21.9734 70.1398 21.9823 70.1448C21.9853 70.1468 21.9883 70.1488 21.9923 70.1507C22.0002 70.1557 22.0061 70.1587 22.0131 70.1626C22.018 70.1656 22.0209 70.1676 22.0249 70.1706C22.0318 70.1735 22.0388 70.1775 22.0447 70.1815C22.0536 70.1864 22.0615 70.1904 22.0704 70.1953C22.0754 70.1983 22.0804 70.2013 22.0853 70.2043C22.0923 70.2082 22.0982 70.2112 22.1052 70.2151C22.1082 70.2171 22.1121 70.2191 22.1151 70.2211C22.123 70.2251 22.13 70.229 22.1369 70.233C22.1399 70.234 22.1408 70.235 22.1438 70.237C22.4242 70.3916 22.7275 70.5431 23.0555 70.6908L52.2272 87.3433Z" fill="white"/>
</mask>
<g mask="url(#mask2_2545_9640)">
<path d="M52.2272 87.3433C30.2476 85.8817 16.1982 83.2785 12.0701 79.7359C1.80112 70.9227 -2.50639 22.1158 4.10406 13.8217C10.8176 5.39888 58.0043 0.991255 101.149 0.991255C144.294 0.991255 191.482 5.39888 198.19 13.8217C201.758 18.2928 202.144 34.54 200.142 49.9468L191.075 28.3368C190.847 23.398 190.045 19.4026 188.588 17.392V17.391C188.578 17.3811 188.568 17.3692 188.558 17.3583C188.558 17.3474 188.549 17.3375 188.539 17.3266C188.539 17.3256 188.539 17.3246 188.539 17.3227C188.529 17.3147 188.519 17.3058 188.519 17.2969C188.519 17.2949 188.509 17.2929 188.509 17.2909C188.509 17.281 188.499 17.2721 188.489 17.2622C188.489 17.2602 188.489 17.2582 188.489 17.2563C188.479 17.2493 188.469 17.2414 188.469 17.2345C188.469 17.2315 188.459 17.2275 188.459 17.2255C188.459 17.2176 188.449 17.2097 188.44 17.2027C188.44 17.2008 188.44 17.1978 188.44 17.1958C188.43 17.1869 188.42 17.18 188.42 17.172C188.42 17.1681 188.41 17.1651 188.41 17.1611C188.4 17.1552 188.4 17.1492 188.39 17.1433C188.39 17.1403 188.39 17.1373 188.39 17.1334C188.38 17.1255 188.37 17.1175 188.37 17.1096C188.36 17.1066 188.36 17.1027 188.36 17.0997C188.35 17.0938 188.35 17.0888 188.34 17.0828C188.34 17.0789 188.34 17.0769 188.34 17.0739C188.331 17.065 188.321 17.0571 188.311 17.0492C188.311 17.0462 188.311 17.0442 188.311 17.0422C188.301 17.0353 188.301 17.0293 188.291 17.0224C188.291 17.0194 188.291 17.0174 188.281 17.0145C188.281 17.0065 188.271 16.9976 188.261 16.9887C184.268 12.5533 165.48 9.69554 143.61 8.14376C139.765 7.86432 135.822 7.6364 131.858 7.44217C131.858 7.44416 131.858 7.44413 131.858 7.44513C126.626 7.19046 121.334 7.00318 116.142 6.87931C116.142 6.87832 116.142 6.87832 116.142 6.87733C113.972 6.82679 111.821 6.78714 109.701 6.7584C106.797 6.71876 103.934 6.69898 101.149 6.69898C66.6848 6.69898 20.5782 9.73218 14.0361 16.9887C14.0282 16.9976 14.0203 17.0066 14.0123 17.0155C14.0113 17.0175 14.0093 17.0194 14.0084 17.0204C14.0004 17.0293 13.9925 17.0373 13.9855 17.0472C13.9845 17.0472 13.9846 17.0472 13.9846 17.0472C13.9766 17.0561 13.9677 17.066 13.9598 17.0759C13.9598 17.0769 13.9588 17.0769 13.9588 17.0779C10.5599 21.0564 10.4212 35.1384 12.5844 47.8698C13.6913 54.4119 15.4115 60.5933 17.6084 64.8701C17.6124 64.877 17.6163 64.884 17.6192 64.8919C18.7063 67.0046 19.9102 68.6505 21.2153 69.6404C21.2292 69.6513 21.243 69.6612 21.2569 69.6711C21.2589 69.6731 21.2619 69.6751 21.2639 69.6771C21.2688 69.681 21.2748 69.685 21.2797 69.688C21.2827 69.691 21.2866 69.6929 21.2896 69.6959C21.2946 69.6999 21.2996 69.7028 21.3035 69.7058C21.3095 69.7098 21.3134 69.7138 21.3184 69.7167C21.3213 69.7197 21.3253 69.7217 21.3283 69.7237C21.3372 69.7306 21.3461 69.7366 21.3541 69.7425C21.357 69.7445 21.358 69.7455 21.36 69.7464C21.3669 69.7514 21.3749 69.7574 21.3818 69.7623C21.3848 69.7643 21.3858 69.7653 21.3877 69.7663C21.3957 69.7722 21.4036 69.7782 21.4115 69.7831C21.4125 69.7841 21.4135 69.7851 21.4155 69.7861C21.4343 69.799 21.4532 69.8118 21.473 69.8257C21.4829 69.8327 21.4928 69.8396 21.5027 69.8455C21.5037 69.8465 21.5037 69.8465 21.5037 69.8465C21.5839 69.901 21.6672 69.9545 21.7534 70.0081C21.7851 70.0279 21.8178 70.0477 21.8505 70.0675L21.8535 70.0695C21.8634 70.0754 21.8723 70.0804 21.8822 70.0863C21.8842 70.0873 21.8852 70.0883 21.8862 70.0893C21.908 70.1022 21.9298 70.1141 21.9516 70.127C21.9526 70.128 21.9556 70.1299 21.9565 70.1299C21.9655 70.1349 21.9734 70.1398 21.9823 70.1448C21.9853 70.1468 21.9883 70.1488 21.9923 70.1507C22.0002 70.1557 22.0061 70.1587 22.0131 70.1626C22.018 70.1656 22.0209 70.1676 22.0249 70.1706C22.0318 70.1735 22.0388 70.1775 22.0447 70.1815C22.0536 70.1864 22.0615 70.1904 22.0704 70.1953C22.0754 70.1983 22.0804 70.2013 22.0853 70.2043C22.0923 70.2082 22.0982 70.2112 22.1052 70.2151C22.1082 70.2171 22.1121 70.2191 22.1151 70.2211C22.123 70.2251 22.13 70.229 22.1369 70.233C22.1399 70.234 22.1408 70.235 22.1438 70.237C22.4242 70.3916 22.7275 70.5431 23.0555 70.6908L52.2272 87.3433Z" fill="url(#paint2_linear_2545_9640)"/>
</g>
<mask id="mask3_2545_9640" style="mask-type:luminance" maskUnits="userSpaceOnUse" x="0" y="0" width="203" height="89">
<path d="M53.8915 88.4539C34.1801 87.237 16.5574 84.8935 11.4244 80.4878C7.83433 77.4071 5.09441 69.8404 3.20869 61.3462C2.15137 56.5818 1.36363 51.5241 0.845374 46.8063C-0.617229 33.4675 -0.417031 17.9051 3.32965 13.2042C11.6524 2.75982 70.9551 9.98919e-05 101.149 9.98919e-05C131.342 9.98919e-05 190.649 2.75982 198.963 13.2042C202.718 17.9051 202.916 33.4675 201.45 46.8063C200.935 51.5231 200.142 56.5788 199.091 61.3422C199.091 61.3541 199.081 61.365 199.081 61.3759C199.716 58.1019 200.251 54.6664 200.667 51.2011L200.142 49.9466C202.143 34.5397 201.757 18.2925 198.19 13.8215C191.481 5.39865 144.293 0.991023 101.149 0.991023C58.0038 0.991023 10.817 5.39865 4.10352 13.8215C-2.50693 22.1155 1.80058 70.9224 12.0695 79.7357C16.1977 83.2783 30.247 85.8814 52.2267 87.343L53.6338 88.1447L53.8915 88.4539Z" fill="white"/>
</mask>
<g mask="url(#mask3_2545_9640)">
<path d="M53.8915 88.4539C34.1801 87.237 16.5574 84.8935 11.4244 80.4878C7.83433 77.4071 5.09441 69.8404 3.20869 61.3462C2.15137 56.5818 1.36363 51.5241 0.845374 46.8063C-0.617229 33.4675 -0.417031 17.9051 3.32965 13.2042C11.6524 2.75982 70.9551 9.98919e-05 101.149 9.98919e-05C131.342 9.98919e-05 190.649 2.75982 198.963 13.2042C202.718 17.9051 202.916 33.4675 201.45 46.8063C200.935 51.5231 200.142 56.5788 199.091 61.3422C199.091 61.3541 199.081 61.365 199.081 61.3759C199.716 58.1019 200.251 54.6664 200.667 51.2011L200.142 49.9466C202.143 34.5397 201.757 18.2925 198.19 13.8215C191.481 5.39865 144.293 0.991023 101.149 0.991023C58.0038 0.991023 10.817 5.39865 4.10352 13.8215C-2.50693 22.1155 1.80058 70.9224 12.0695 79.7357C16.1977 83.2783 30.247 85.8814 52.2267 87.343L53.6338 88.1447L53.8915 88.4539Z" fill="url(#paint3_linear_2545_9640)"/>
</g>
<path d="M86.711 92.9807C86.7011 92.9807 86.7012 92.9807 86.7012 92.9807H86.711ZM190.768 83.1686C190.768 83.1606 190.778 83.1557 190.788 83.1477C190.778 83.1547 190.768 83.1616 190.768 83.1686ZM190.817 83.1121C190.827 83.1051 190.837 83.0982 190.847 83.0903C190.837 83.0972 190.827 83.1051 190.817 83.1121ZM190.847 83.0833C190.857 83.0764 190.867 83.0675 190.877 83.0605C190.867 83.0685 190.857 83.0754 190.847 83.0833ZM193.116 80.0333C193.116 80.0224 193.126 80.0144 193.136 80.0035C193.126 80.0134 193.116 80.0233 193.116 80.0333ZM193.136 79.9867C193.146 79.9778 193.146 79.9698 193.156 79.9619C193.146 79.9698 193.146 79.9788 193.136 79.9867ZM193.196 79.8906C193.196 79.8846 193.206 79.8807 193.206 79.8747C193.206 79.8797 193.196 79.8856 193.196 79.8906Z" fill="#EBDACC"/>
<mask id="mask4_2545_9640" style="mask-type:luminance" maskUnits="userSpaceOnUse" x="53" y="61" width="147" height="32">
<path d="M111.199 93C106.541 93 102.994 92.9257 101.151 92.8177C99.3075 92.9257 95.7601 93 91.1027 93C89.7947 93 88.3975 92.994 86.921 92.9821C86.8516 92.9812 86.7822 92.9802 86.7128 92.9802H86.703C78.3198 92.9039 67.5385 92.6086 56.7374 91.9318L53.8936 88.4536C69.9861 89.4465 87.466 89.6883 100.675 89.6883H100.784H101.517H101.626C131.007 89.6883 181.554 88.4903 190.879 80.4876C194.456 77.4108 197.201 69.857 199.084 61.3757C197.637 68.8393 195.665 75.4726 193.277 79.7494C193.267 79.7633 193.257 79.7771 193.257 79.791C193.257 79.793 193.257 79.794 193.247 79.7959C193.247 79.8068 193.237 79.8187 193.227 79.8306C193.227 79.8346 193.227 79.8395 193.227 79.8435C193.217 79.8534 193.217 79.8643 193.207 79.8742C193.207 79.8802 193.197 79.8841 193.197 79.8901C193.197 79.899 193.188 79.9079 193.188 79.9168C193.178 79.9238 193.178 79.9307 193.168 79.9376C193.168 79.9456 193.158 79.9535 193.158 79.9614C193.148 79.9694 193.148 79.9773 193.138 79.9862C193.138 79.9921 193.138 79.9971 193.138 80.003C193.128 80.0139 193.118 80.0219 193.118 80.0328C193.108 80.0387 193.108 80.0437 193.108 80.0496C193.098 80.0585 193.098 80.0684 193.088 80.0774C193.088 80.0833 193.079 80.0893 193.079 80.0952C193.079 80.1041 193.069 80.113 193.069 80.122C193.059 80.1279 193.059 80.1348 193.049 80.1408C193.049 80.1517 193.039 80.1606 193.039 80.1715C193.029 80.1755 193.029 80.1794 193.029 80.1834C193.019 80.1953 193.019 80.2072 193.009 80.2181C193.009 80.222 192.999 80.226 192.999 80.229C192.989 80.2428 192.989 80.2557 192.979 80.2696C192.979 80.2706 192.979 80.2716 192.979 80.2726C192.93 80.3479 192.89 80.4222 192.841 80.4955C192.841 80.4975 192.841 80.5005 192.841 80.5035C192.831 80.5163 192.821 80.5292 192.811 80.5421C192.801 80.557 192.791 80.5708 192.781 80.5857C192.781 80.5857 192.781 80.5867 192.781 80.5877C192.771 80.6016 192.771 80.6154 192.761 80.6293C192.761 80.6303 192.761 80.6303 192.761 80.6303C192.752 80.6452 192.742 80.659 192.732 80.6729V80.6739C192.256 81.431 191.771 82.0949 191.265 82.6557C191.146 82.7846 191.027 82.9084 190.908 83.0254C190.908 83.0273 190.908 83.0283 190.908 83.0303C190.898 83.0382 190.889 83.0472 190.879 83.0551C190.879 83.0571 190.879 83.0581 190.879 83.06C190.869 83.067 190.859 83.0759 190.849 83.0828C190.849 83.0858 190.849 83.0878 190.849 83.0898C190.839 83.0977 190.829 83.1046 190.819 83.1116C190.819 83.1136 190.819 83.1165 190.819 83.1185C190.809 83.1255 190.799 83.1324 190.799 83.1393C190.79 83.1413 190.79 83.1453 190.79 83.1472C190.78 83.1552 190.77 83.1601 190.77 83.1681C190.76 83.17 190.76 83.173 190.76 83.175C190.75 83.1819 190.74 83.1889 190.74 83.1948C190.73 83.1978 190.73 83.2008 190.73 83.2037C190.72 83.2097 190.71 83.2166 190.71 83.2225C190.7 83.2255 190.7 83.2285 190.7 83.2315C190.69 83.2374 190.69 83.2434 190.681 83.2493C190.681 83.2523 190.671 83.2553 190.671 83.2582C190.661 83.2652 190.661 83.2711 190.651 83.2771C190.651 83.28 190.641 83.283 190.641 83.285C190.631 83.2919 190.631 83.2979 190.621 83.3038C190.621 83.3068 190.611 83.3098 190.611 83.3127C190.601 83.3177 190.601 83.3236 190.591 83.3296C190.591 83.3325 190.581 83.3355 190.581 83.3385C190.572 83.3474 190.562 83.3563 190.552 83.3653C181.693 91.2808 133.584 93 111.199 93Z" fill="white"/>
</mask>
<g mask="url(#mask4_2545_9640)">
<path d="M111.199 93C106.541 93 102.994 92.9257 101.151 92.8177C99.3075 92.9257 95.7601 93 91.1027 93C89.7947 93 88.3975 92.994 86.921 92.9821C86.8516 92.9812 86.7822 92.9802 86.7128 92.9802H86.703C78.3198 92.9039 67.5385 92.6086 56.7374 91.9318L53.8936 88.4536C69.9861 89.4465 87.466 89.6883 100.675 89.6883H100.784H101.517H101.626C131.007 89.6883 181.554 88.4903 190.879 80.4876C194.456 77.4108 197.201 69.857 199.084 61.3757C197.637 68.8393 195.665 75.4726 193.277 79.7494C193.267 79.7633 193.257 79.7771 193.257 79.791C193.257 79.793 193.257 79.794 193.247 79.7959C193.247 79.8068 193.237 79.8187 193.227 79.8306C193.227 79.8346 193.227 79.8395 193.227 79.8435C193.217 79.8534 193.217 79.8643 193.207 79.8742C193.207 79.8802 193.197 79.8841 193.197 79.8901C193.197 79.899 193.188 79.9079 193.188 79.9168C193.178 79.9238 193.178 79.9307 193.168 79.9376C193.168 79.9456 193.158 79.9535 193.158 79.9614C193.148 79.9694 193.148 79.9773 193.138 79.9862C193.138 79.9921 193.138 79.9971 193.138 80.003C193.128 80.0139 193.118 80.0219 193.118 80.0328C193.108 80.0387 193.108 80.0437 193.108 80.0496C193.098 80.0585 193.098 80.0684 193.088 80.0774C193.088 80.0833 193.079 80.0893 193.079 80.0952C193.079 80.1041 193.069 80.113 193.069 80.122C193.059 80.1279 193.059 80.1348 193.049 80.1408C193.049 80.1517 193.039 80.1606 193.039 80.1715C193.029 80.1755 193.029 80.1794 193.029 80.1834C193.019 80.1953 193.019 80.2072 193.009 80.2181C193.009 80.222 192.999 80.226 192.999 80.229C192.989 80.2428 192.989 80.2557 192.979 80.2696C192.979 80.2706 192.979 80.2716 192.979 80.2726C192.93 80.3479 192.89 80.4222 192.841 80.4955C192.841 80.4975 192.841 80.5005 192.841 80.5035C192.831 80.5163 192.821 80.5292 192.811 80.5421C192.801 80.557 192.791 80.5708 192.781 80.5857C192.781 80.5857 192.781 80.5867 192.781 80.5877C192.771 80.6016 192.771 80.6154 192.761 80.6293C192.761 80.6303 192.761 80.6303 192.761 80.6303C192.752 80.6452 192.742 80.659 192.732 80.6729V80.6739C192.256 81.431 191.771 82.0949 191.265 82.6557C191.146 82.7846 191.027 82.9084 190.908 83.0254C190.908 83.0273 190.908 83.0283 190.908 83.0303C190.898 83.0382 190.889 83.0472 190.879 83.0551C190.879 83.0571 190.879 83.0581 190.879 83.06C190.869 83.067 190.859 83.0759 190.849 83.0828C190.849 83.0858 190.849 83.0878 190.849 83.0898C190.839 83.0977 190.829 83.1046 190.819 83.1116C190.819 83.1136 190.819 83.1165 190.819 83.1185C190.809 83.1255 190.799 83.1324 190.799 83.1393C190.79 83.1413 190.79 83.1453 190.79 83.1472C190.78 83.1552 190.77 83.1601 190.77 83.1681C190.76 83.17 190.76 83.173 190.76 83.175C190.75 83.1819 190.74 83.1889 190.74 83.1948C190.73 83.1978 190.73 83.2008 190.73 83.2037C190.72 83.2097 190.71 83.2166 190.71 83.2225C190.7 83.2255 190.7 83.2285 190.7 83.2315C190.69 83.2374 190.69 83.2434 190.681 83.2493C190.681 83.2523 190.671 83.2553 190.671 83.2582C190.661 83.2652 190.661 83.2711 190.651 83.2771C190.651 83.28 190.641 83.283 190.641 83.285C190.631 83.2919 190.631 83.2979 190.621 83.3038C190.621 83.3068 190.611 83.3098 190.611 83.3127C190.601 83.3177 190.601 83.3236 190.591 83.3296C190.591 83.3325 190.581 83.3355 190.581 83.3385C190.572 83.3474 190.562 83.3563 190.552 83.3653C181.693 91.2808 133.584 93 111.199 93Z" fill="url(#paint4_linear_2545_9640)"/>
</g>
<mask id="mask5_2545_9640" style="mask-type:luminance" maskUnits="userSpaceOnUse" x="23" y="28" width="178" height="61">
<path d="M101.632 88.6978H100.661C81.8829 88.6978 65.592 88.231 52.2245 87.3432L23.0527 70.6907C36.4956 76.7472 89.4238 76.8206 100.413 76.8206C100.681 76.8206 100.928 76.8206 101.146 76.8206C101.364 76.8206 101.612 76.8206 101.88 76.8206C112.086 76.8206 158.541 76.7581 175.832 71.8848C178.171 71.2288 179.974 70.4846 181.084 69.6423C181.51 69.3203 181.917 68.9269 182.323 68.471C188.219 61.811 191.707 41.6458 191.073 28.3367L200.14 49.9467C198.425 63.1181 194.957 75.6741 190.23 79.7359C183.591 85.4327 151.307 88.6987 101.632 88.6978Z" fill="white"/>
</mask>
<g mask="url(#mask5_2545_9640)">
<path d="M101.632 88.6978H100.661C81.8829 88.6978 65.592 88.231 52.2245 87.3432L23.0527 70.6907C36.4956 76.7472 89.4238 76.8206 100.413 76.8206C100.681 76.8206 100.928 76.8206 101.146 76.8206C101.364 76.8206 101.612 76.8206 101.88 76.8206C112.086 76.8206 158.541 76.7581 175.832 71.8848C178.171 71.2288 179.974 70.4846 181.084 69.6423C181.51 69.3203 181.917 68.9269 182.323 68.471C188.219 61.811 191.707 41.6458 191.073 28.3367L200.14 49.9467C198.425 63.1181 194.957 75.6741 190.23 79.7359C183.591 85.4327 151.307 88.6987 101.632 88.6978Z" fill="url(#paint5_linear_2545_9640)"/>
</g>
<mask id="mask6_2545_9640" style="mask-type:luminance" maskUnits="userSpaceOnUse" x="13" y="17" width="176" height="1">
<path d="M188.47 17.234C188.47 17.2311 188.461 17.2281 188.461 17.2251C188.461 17.2271 188.47 17.2311 188.47 17.234ZM188.342 17.0824C188.342 17.0785 188.342 17.0755 188.342 17.0735C188.342 17.0765 188.342 17.0785 188.342 17.0824ZM188.312 17.0487C188.312 17.0468 188.312 17.0438 188.312 17.0418C188.312 17.0438 188.312 17.0458 188.312 17.0487ZM13.9857 17.0468C13.9857 17.0468 13.9857 17.0468 13.9867 17.0468H13.9857Z" fill="white"/>
</mask>
<g mask="url(#mask6_2545_9640)">
<path d="M188.47 17.234C188.47 17.2311 188.461 17.2281 188.461 17.2251C188.461 17.2271 188.47 17.2311 188.47 17.234ZM188.342 17.0824C188.342 17.0785 188.342 17.0755 188.342 17.0735C188.342 17.0765 188.342 17.0785 188.342 17.0824ZM188.312 17.0487C188.312 17.0468 188.312 17.0438 188.312 17.0418C188.312 17.0438 188.312 17.0458 188.312 17.0487ZM13.9857 17.0468C13.9857 17.0468 13.9857 17.0468 13.9867 17.0468H13.9857Z" fill="url(#paint6_linear_2545_9640)"/>
</g>
<mask id="mask7_2545_9640" style="mask-type:luminance" maskUnits="userSpaceOnUse" x="11" y="6" width="181" height="28">
<path d="M191.116 33.7256C190.948 28.4192 190.046 24.1444 188.262 22.3468C184.428 18.4693 166.957 15.9167 146.217 14.469C145.563 12.2662 144.979 10.1803 144.454 8.20535C144.166 8.18454 143.889 8.16476 143.611 8.14395C165.481 9.69573 184.269 12.5535 188.262 16.9889C188.272 16.9978 188.282 17.0067 188.282 17.0147C188.292 17.0176 188.292 17.0196 188.292 17.0226C188.302 17.0295 188.302 17.0355 188.312 17.0424C188.312 17.0444 188.312 17.0474 188.312 17.0494C188.322 17.0573 188.332 17.0652 188.342 17.0741C188.342 17.0761 188.342 17.0791 188.342 17.083C188.352 17.088 188.352 17.094 188.361 17.0999C188.361 17.1029 188.361 17.1068 188.371 17.1098C188.371 17.1177 188.381 17.1256 188.391 17.1336C188.391 17.1375 188.391 17.1405 188.391 17.1435C188.401 17.1494 188.401 17.1554 188.411 17.1613C188.411 17.1653 188.421 17.1683 188.421 17.1722C188.421 17.1802 188.431 17.1871 188.441 17.196C188.441 17.198 188.441 17.201 188.441 17.2029C188.451 17.2099 188.461 17.2178 188.461 17.2257C188.461 17.2287 188.47 17.2317 188.47 17.2347C188.47 17.2416 188.48 17.2495 188.49 17.2564C188.49 17.2584 188.49 17.2604 188.49 17.2624C188.5 17.2723 188.51 17.2812 188.51 17.2911C188.51 17.2931 188.52 17.2951 188.52 17.2971C188.52 17.306 188.53 17.3149 188.54 17.3229C188.54 17.3248 188.54 17.3258 188.54 17.3268C188.55 17.3377 188.56 17.3476 188.56 17.3585C188.57 17.3694 188.579 17.3803 188.589 17.3912V17.3922C190.542 20.0935 191.314 26.3828 191.116 33.7256ZM11.1824 33.7256C10.9803 26.0826 11.8236 19.5802 13.96 17.0781C13.96 17.0771 13.961 17.0771 13.961 17.0761C13.9699 17.0662 13.9778 17.0563 13.9857 17.0474H13.9867C13.9936 17.0385 14.0016 17.0295 14.0095 17.0206C14.0105 17.0196 14.0125 17.0176 14.0135 17.0157C14.0214 17.0067 14.0294 16.9978 14.0373 16.9889C20.5794 9.73237 66.686 6.69917 101.15 6.69917C90.1907 6.69917 78.0519 7.00633 66.3789 7.66034C70.7488 9.26564 74.7422 11.1583 78.3492 13.3542C49.0476 14.3085 19.204 17.1286 14.0373 22.3468C12.2576 24.1444 11.3538 28.4192 11.1824 33.7256ZM131.681 13.6495C126.845 13.4364 121.96 13.2749 117.144 13.1649C116.936 11.0364 116.609 8.93963 116.143 6.8795C121.335 7.00337 126.627 7.19065 131.859 7.44532C131.829 9.51536 131.76 11.5854 131.681 13.6495Z" fill="white"/>
</mask>
<g mask="url(#mask7_2545_9640)">
<path d="M191.116 33.7256C190.948 28.4192 190.046 24.1444 188.262 22.3468C184.428 18.4693 166.957 15.9167 146.217 14.469C145.563 12.2662 144.979 10.1803 144.454 8.20535C144.166 8.18454 143.889 8.16476 143.611 8.14395C165.481 9.69573 184.269 12.5535 188.262 16.9889C188.272 16.9978 188.282 17.0067 188.282 17.0147C188.292 17.0176 188.292 17.0196 188.292 17.0226C188.302 17.0295 188.302 17.0355 188.312 17.0424C188.312 17.0444 188.312 17.0474 188.312 17.0494C188.322 17.0573 188.332 17.0652 188.342 17.0741C188.342 17.0761 188.342 17.0791 188.342 17.083C188.352 17.088 188.352 17.094 188.361 17.0999C188.361 17.1029 188.361 17.1068 188.371 17.1098C188.371 17.1177 188.381 17.1256 188.391 17.1336C188.391 17.1375 188.391 17.1405 188.391 17.1435C188.401 17.1494 188.401 17.1554 188.411 17.1613C188.411 17.1653 188.421 17.1683 188.421 17.1722C188.421 17.1802 188.431 17.1871 188.441 17.196C188.441 17.198 188.441 17.201 188.441 17.2029C188.451 17.2099 188.461 17.2178 188.461 17.2257C188.461 17.2287 188.47 17.2317 188.47 17.2347C188.47 17.2416 188.48 17.2495 188.49 17.2564C188.49 17.2584 188.49 17.2604 188.49 17.2624C188.5 17.2723 188.51 17.2812 188.51 17.2911C188.51 17.2931 188.52 17.2951 188.52 17.2971C188.52 17.306 188.53 17.3149 188.54 17.3229C188.54 17.3248 188.54 17.3258 188.54 17.3268C188.55 17.3377 188.56 17.3476 188.56 17.3585C188.57 17.3694 188.579 17.3803 188.589 17.3912V17.3922C190.542 20.0935 191.314 26.3828 191.116 33.7256ZM11.1824 33.7256C10.9803 26.0826 11.8236 19.5802 13.96 17.0781C13.96 17.0771 13.961 17.0771 13.961 17.0761C13.9699 17.0662 13.9778 17.0563 13.9857 17.0474H13.9867C13.9936 17.0385 14.0016 17.0295 14.0095 17.0206C14.0105 17.0196 14.0125 17.0176 14.0135 17.0157C14.0214 17.0067 14.0294 16.9978 14.0373 16.9889C20.5794 9.73237 66.686 6.69917 101.15 6.69917C90.1907 6.69917 78.0519 7.00633 66.3789 7.66034C70.7488 9.26564 74.7422 11.1583 78.3492 13.3542C49.0476 14.3085 19.204 17.1286 14.0373 22.3468C12.2576 24.1444 11.3538 28.4192 11.1824 33.7256ZM131.681 13.6495C126.845 13.4364 121.96 13.2749 117.144 13.1649C116.936 11.0364 116.609 8.93963 116.143 6.8795C121.335 7.00337 126.627 7.19065 131.859 7.44532C131.829 9.51536 131.76 11.5854 131.681 13.6495Z" fill="url(#paint7_linear_2545_9640)"/>
</g>
<mask id="mask8_2545_9640" style="mask-type:luminance" maskUnits="userSpaceOnUse" x="12" y="47" width="11" height="24">
<path d="M22.1405 70.2363C22.1375 70.2343 22.1366 70.2334 22.1336 70.2324C22.1356 70.2334 22.1385 70.2353 22.1405 70.2363ZM22.1117 70.2205C22.1087 70.2185 22.1048 70.2165 22.1019 70.2145C22.1058 70.2165 22.1087 70.2185 22.1117 70.2205ZM22.082 70.2036C22.0771 70.2006 22.0721 70.1977 22.0671 70.1947C22.0711 70.1977 22.0771 70.2006 22.082 70.2036ZM22.0414 70.1808C22.0354 70.1769 22.0285 70.1729 22.0215 70.1699C22.0275 70.1729 22.0354 70.1769 22.0414 70.1808ZM22.0097 70.162C22.0028 70.158 21.9968 70.1551 21.9889 70.1501C21.9959 70.1541 22.0038 70.159 22.0097 70.162ZM21.979 70.1442C21.97 70.1392 21.9621 70.1343 21.9532 70.1293C21.9621 70.1352 21.97 70.1392 21.979 70.1442ZM21.8472 70.0669C21.8145 70.047 21.7818 70.0272 21.7501 70.0074C21.7828 70.0272 21.8135 70.047 21.8472 70.0669ZM21.7501 70.0074C21.6639 69.9539 21.5806 69.9004 21.5003 69.8459C21.5806 69.9004 21.6649 69.9539 21.7501 70.0074ZM21.315 69.7161C21.3101 69.7131 21.3062 69.7091 21.3002 69.7052C21.3052 69.7091 21.3101 69.7131 21.315 69.7161ZM17.6051 64.8695C15.4082 60.5926 13.6879 54.4113 12.5811 47.8692C13.6919 54.4093 15.4102 60.5917 17.6051 64.8695Z" fill="white"/>
</mask>
<g mask="url(#mask8_2545_9640)">
<path d="M22.1405 70.2363C22.1375 70.2343 22.1366 70.2334 22.1336 70.2324C22.1356 70.2334 22.1385 70.2353 22.1405 70.2363ZM22.1117 70.2205C22.1087 70.2185 22.1048 70.2165 22.1019 70.2145C22.1058 70.2165 22.1087 70.2185 22.1117 70.2205ZM22.082 70.2036C22.0771 70.2006 22.0721 70.1977 22.0671 70.1947C22.0711 70.1977 22.0771 70.2006 22.082 70.2036ZM22.0414 70.1808C22.0354 70.1769 22.0285 70.1729 22.0215 70.1699C22.0275 70.1729 22.0354 70.1769 22.0414 70.1808ZM22.0097 70.162C22.0028 70.158 21.9968 70.1551 21.9889 70.1501C21.9959 70.1541 22.0038 70.159 22.0097 70.162ZM21.979 70.1442C21.97 70.1392 21.9621 70.1343 21.9532 70.1293C21.9621 70.1352 21.97 70.1392 21.979 70.1442ZM21.8472 70.0669C21.8145 70.047 21.7818 70.0272 21.7501 70.0074C21.7828 70.0272 21.8135 70.047 21.8472 70.0669ZM21.7501 70.0074C21.6639 69.9539 21.5806 69.9004 21.5003 69.8459C21.5806 69.9004 21.6649 69.9539 21.7501 70.0074ZM21.315 69.7161C21.3101 69.7131 21.3062 69.7091 21.3002 69.7052C21.3052 69.7091 21.3101 69.7131 21.315 69.7161ZM17.6051 64.8695C15.4082 60.5926 13.6879 54.4113 12.5811 47.8692C13.6919 54.4093 15.4102 60.5917 17.6051 64.8695Z" fill="url(#paint8_linear_2545_9640)"/>
</g>
<mask id="mask9_2545_9640" style="mask-type:luminance" maskUnits="userSpaceOnUse" x="109" y="6" width="8" height="1">
<path d="M116.14 6.87939C113.97 6.82787 111.83 6.78821 109.699 6.75848C111.82 6.78722 113.97 6.82687 116.14 6.87741C116.14 6.8784 116.14 6.8784 116.14 6.87939Z" fill="white"/>
</mask>
<g mask="url(#mask9_2545_9640)">
<path d="M116.14 6.87939C113.97 6.82787 111.83 6.78821 109.699 6.75848C111.82 6.78722 113.97 6.82687 116.14 6.87741C116.14 6.8784 116.14 6.8784 116.14 6.87939Z" fill="url(#paint9_linear_2545_9640)"/>
</g>
<mask id="mask10_2545_9640" style="mask-type:luminance" maskUnits="userSpaceOnUse" x="66" y="6" width="52" height="8">
<path d="M78.3473 13.354C74.7403 11.1581 70.7469 9.26543 66.377 7.66014C78.05 7.00613 90.1888 6.69897 101.148 6.69897C103.933 6.69897 106.797 6.71875 109.7 6.75839C111.831 6.78812 113.971 6.82778 116.141 6.8793C116.607 8.93943 116.934 11.0362 117.142 13.1647C111.672 13.0389 106.281 12.9774 101.148 12.9774C93.9047 12.9774 86.1458 13.0993 78.3473 13.354Z" fill="white"/>
</mask>
<g mask="url(#mask10_2545_9640)">
<path d="M78.3473 13.354C74.7403 11.1581 70.7469 9.26543 66.377 7.66014C78.05 7.00613 90.1888 6.69897 101.148 6.69897C103.933 6.69897 106.797 6.71875 109.7 6.75839C111.831 6.78812 113.971 6.82778 116.141 6.8793C116.607 8.93943 116.934 11.0362 117.142 13.1647C111.672 13.0389 106.281 12.9774 101.148 12.9774C93.9047 12.9774 86.1458 13.0993 78.3473 13.354Z" fill="url(#paint10_linear_2545_9640)"/>
</g>
<mask id="mask11_2545_9640" style="mask-type:luminance" maskUnits="userSpaceOnUse" x="175" y="68" width="8" height="4">
<path d="M175.834 71.885C178.173 71.228 179.966 70.4839 181.086 69.6406C181.502 69.3185 181.918 68.9261 182.325 68.4713C181.918 68.9271 181.512 69.3205 181.086 69.6426C179.976 70.4848 178.173 71.229 175.834 71.885Z" fill="white"/>
</mask>
<g mask="url(#mask11_2545_9640)">
<path d="M175.834 71.885C178.173 71.228 179.966 70.4839 181.086 69.6406C181.502 69.3185 181.918 68.9261 182.325 68.4713C181.918 68.9271 181.512 69.3205 181.086 69.6426C179.976 70.4848 178.173 71.229 175.834 71.885Z" fill="url(#paint11_linear_2545_9640)"/>
</g>
<mask id="mask12_2545_9640" style="mask-type:luminance" maskUnits="userSpaceOnUse" x="131" y="7" width="13" height="2">
<path d="M143.61 8.1438C139.765 7.87129 135.821 7.6384 131.857 7.44517C131.857 7.44418 131.857 7.4442 131.857 7.44222C135.821 7.63644 139.765 7.86436 143.61 8.1438Z" fill="white"/>
</mask>
<g mask="url(#mask12_2545_9640)">
<path d="M143.61 8.1438C139.765 7.87129 135.821 7.6384 131.857 7.44517C131.857 7.44418 131.857 7.4442 131.857 7.44222C135.821 7.63644 139.765 7.86436 143.61 8.1438Z" fill="url(#paint12_linear_2545_9640)"/>
</g>
<mask id="mask13_2545_9640" style="mask-type:luminance" maskUnits="userSpaceOnUse" x="131" y="7" width="16" height="8">
<path d="M146.214 14.469C141.498 14.139 136.613 13.8665 131.678 13.6495C131.757 11.5854 131.826 9.51536 131.856 7.44532C135.82 7.63855 139.764 7.87144 143.608 8.14395C143.886 8.16476 144.163 8.18454 144.451 8.20535C144.976 10.1803 145.56 12.2662 146.214 14.469Z" fill="white"/>
</mask>
<g mask="url(#mask13_2545_9640)">
<path d="M146.214 14.469C141.498 14.139 136.613 13.8665 131.678 13.6495C131.757 11.5854 131.826 9.51536 131.856 7.44532C135.82 7.63855 139.764 7.87144 143.608 8.14395C143.886 8.16476 144.163 8.18454 144.451 8.20535C144.976 10.1803 145.56 12.2662 146.214 14.469Z" fill="url(#paint13_linear_2545_9640)"/>
</g>
<defs>
<linearGradient id="paint0_linear_2545_9640" x1="101.469" y1="42.79" x2="103.283" y2="95.9934" gradientUnits="userSpaceOnUse">
<stop stop-color="#7C3B0E"/>
<stop offset="1" stop-color="#6B2B0C"/>
</linearGradient>
<linearGradient id="paint1_linear_2545_9640" x1="78.8831" y1="1.11314" x2="132.087" y2="94.8238" gradientUnits="userSpaceOnUse">
<stop stop-color="#FFE6BF"/>
<stop offset="1" stop-color="#FABD6E"/>
</linearGradient>
<linearGradient id="paint2_linear_2545_9640" x1="78.8831" y1="1.11314" x2="132.087" y2="94.8238" gradientUnits="userSpaceOnUse">
<stop stop-color="#FFE6BF"/>
<stop offset="1" stop-color="#FABD6E"/>
</linearGradient>
<linearGradient id="paint3_linear_2545_9640" x1="100.049" y1="-0.307086" x2="103.134" y2="90.2011" gradientUnits="userSpaceOnUse">
<stop stop-color="#7C3B0E"/>
<stop offset="1" stop-color="#6B2B0C"/>
</linearGradient>
<linearGradient id="paint4_linear_2545_9640" x1="101.468" y1="42.7899" x2="103.282" y2="95.9934" gradientUnits="userSpaceOnUse">
<stop stop-color="#72320B"/>
<stop offset="1" stop-color="#63250A"/>
</linearGradient>
<linearGradient id="paint5_linear_2545_9640" x1="78.8804" y1="1.11305" x2="132.084" y2="94.8237" gradientUnits="userSpaceOnUse">
<stop stop-color="#EBC599"/>
<stop offset="1" stop-color="#E6A258"/>
</linearGradient>
<linearGradient id="paint6_linear_2545_9640" x1="78.8843" y1="1.11247" x2="132.089" y2="94.8239" gradientUnits="userSpaceOnUse">
<stop stop-color="#B87543"/>
<stop offset="1" stop-color="#B56026"/>
</linearGradient>
<linearGradient id="paint7_linear_2545_9640" x1="112.07" y1="78.1348" x2="93.9328" y2="5.13113" gradientUnits="userSpaceOnUse">
<stop stop-color="#A82D06"/>
<stop offset="1" stop-color="#5E1211"/>
</linearGradient>
<linearGradient id="paint8_linear_2545_9640" x1="78.8796" y1="1.11244" x2="132.083" y2="94.8231" gradientUnits="userSpaceOnUse">
<stop stop-color="#EBC69B"/>
<stop offset="1" stop-color="#E6A259"/>
</linearGradient>
<linearGradient id="paint9_linear_2545_9640" x1="78.8815" y1="1.1122" x2="132.099" y2="94.8314" gradientUnits="userSpaceOnUse">
<stop stop-color="#EBC69B"/>
<stop offset="1" stop-color="#E6A259"/>
</linearGradient>
<linearGradient id="paint10_linear_2545_9640" x1="112.068" y1="78.1345" x2="93.9309" y2="5.13093" gradientUnits="userSpaceOnUse">
<stop stop-color="#9B2705"/>
<stop offset="1" stop-color="#570F0E"/>
</linearGradient>
<linearGradient id="paint11_linear_2545_9640" x1="78.8821" y1="1.11339" x2="132.085" y2="94.824" gradientUnits="userSpaceOnUse">
<stop stop-color="#D8A97C"/>
<stop offset="1" stop-color="#D48B48"/>
</linearGradient>
<linearGradient id="paint12_linear_2545_9640" x1="78.8828" y1="1.11312" x2="132.087" y2="94.8242" gradientUnits="userSpaceOnUse">
<stop stop-color="#EBC69B"/>
<stop offset="1" stop-color="#E6A259"/>
</linearGradient>
<linearGradient id="paint13_linear_2545_9640" x1="112.067" y1="78.1349" x2="93.9298" y2="5.13117" gradientUnits="userSpaceOnUse">
<stop stop-color="#9B2705"/>
<stop offset="1" stop-color="#570F0E"/>
</linearGradient>
</defs>
</svg>
