<svg width="165" height="91" viewBox="0 0 165 91" fill="none" xmlns="http://www.w3.org/2000/svg">
<g filter="url(#filter0_d_312_440)">
<mask id="mask0_312_440" style="mask-type:luminance" maskUnits="userSpaceOnUse" x="16" y="16" width="133" height="59">
<path d="M62.335 74.4512C53.9143 74.1547 44.4451 73.5561 36.8884 72.4583C41.9884 71.4884 47.0834 69.5169 51.9069 66.699C59.2602 67.4461 67.6718 67.7761 74.2147 67.8827C69.8168 70.709 65.6089 72.9022 62.335 74.4512ZM106.196 74.3105C106.697 72.2556 106.967 69.9516 107.086 67.4589C113.509 67.1118 120.091 66.534 125.145 65.6152C124.79 68.4069 124.047 70.8972 123.099 73.0879C117.738 73.6712 111.831 74.0609 106.196 74.3105ZM127.149 72.5929C127.615 70.2189 127.984 67.6409 128.335 64.9333C130.613 64.3573 132.344 63.6778 133.278 62.8759C134.75 61.6125 136.011 58.8032 137.001 55.2668C138.188 55.4422 141.949 55.4623 144.287 56.3713C143.787 55.9603 143.169 55.6736 142.473 55.5701C144.709 55.9019 146.126 58.1206 145.48 60.2858C144.327 64.1503 142.893 67.1959 141.237 68.6164C139.165 70.3949 133.829 71.6778 127.149 72.5929ZM137.087 54.9539C139.477 46.1721 140.219 33.1605 138.418 28.0436C139.782 26.097 141.359 24.2875 143.19 22.6557C138.655 20.6884 130.565 19.2192 121.05 18.192C121.003 19.1936 120.992 20.328 121.014 21.5743C117.083 21.0416 112.719 20.6166 108.185 20.2914C108.492 19.2308 108.84 18.1914 109.235 17.1783C105.759 16.9469 102.213 16.7636 98.6852 16.6254C99.0554 17.574 99.3824 18.6286 99.6448 19.8007C94.484 19.5736 89.3232 19.4652 84.5308 19.4652C83.2906 19.4652 82.0241 19.4725 80.7406 19.4871C80.7917 18.4356 80.8143 17.3762 80.8064 16.3082C78.3477 16.3192 75.8203 16.3526 73.2533 16.4111C73.1364 17.5521 72.9489 18.6377 72.6944 19.6722C54.1871 20.3109 34.6776 22.4566 31.4056 26.5622C30.382 27.8457 29.831 30.7933 29.6837 34.494C27.4741 33.9149 19.0491 31.0605 17.9676 25.6775C17.9664 25.6787 17.965 25.6793 17.9638 25.6806C17.6539 26.298 17.391 27.0718 17.1737 27.9748C17.5026 26.6091 17.935 25.5387 18.4778 24.8574C23.2844 18.8259 57.17 16.3045 82.496 16.3045C107.821 16.3045 141.706 18.8259 146.514 24.8574C148.984 27.9565 149.172 39.1025 147.73 49.4795C147.73 49.4795 147.73 49.4795 147.73 49.4789C144.224 54.0497 138.698 54.6227 137.087 54.9539ZM29.6977 39.2493C25.4477 39.1701 21.475 38.8833 18.1105 38.5442C17.5918 38.0833 17.1642 37.5682 16.8609 36.9964C17.4967 36.7499 18.1462 36.6859 18.8643 36.6859C19.2524 36.6859 19.6603 36.7048 20.097 36.7237C20.5334 36.7419 20.9991 36.7608 21.5017 36.7608C23.4561 36.7608 25.9756 36.4795 29.5698 34.8203C29.6057 34.8136 29.6398 34.8069 29.6727 34.8002C29.6258 36.1976 29.6356 37.696 29.6977 39.2493ZM16.3557 36.7279C16.3579 36.1927 16.7817 35.7568 17.3159 35.7324C20.4873 35.5893 25.628 35.2946 25.631 34.8952C25.6304 35.0432 24.9253 35.1765 23.8769 35.2934C22.5824 35.4377 20.7646 35.5564 19.1014 35.6447C18.4718 35.6782 17.8644 35.7075 17.3159 35.7324C17.5278 35.7653 17.8151 35.7854 18.1624 35.7939C17.4441 35.9401 16.9123 36.1434 16.6162 36.4491C16.5831 36.3589 16.5529 36.2676 16.5258 36.1745C16.419 36.3328 16.3564 36.5233 16.3557 36.7279Z" fill="white"/>
</mask>
<g mask="url(#mask0_312_440)">
<path d="M62.335 74.4512C53.9143 74.1547 44.4451 73.5561 36.8884 72.4583C41.9884 71.4884 47.0834 69.5169 51.9069 66.699C59.2602 67.4461 67.6718 67.7761 74.2147 67.8827C69.8168 70.709 65.6089 72.9022 62.335 74.4512ZM106.196 74.3105C106.697 72.2556 106.967 69.9516 107.086 67.4589C113.509 67.1118 120.091 66.534 125.145 65.6152C124.79 68.4069 124.047 70.8972 123.099 73.0879C117.738 73.6712 111.831 74.0609 106.196 74.3105ZM127.149 72.5929C127.615 70.2189 127.984 67.6409 128.335 64.9333C130.613 64.3573 132.344 63.6778 133.278 62.8759C134.75 61.6125 136.011 58.8032 137.001 55.2668C138.188 55.4422 141.949 55.4623 144.287 56.3713C143.787 55.9603 143.169 55.6736 142.473 55.5701C144.709 55.9019 146.126 58.1206 145.48 60.2858C144.327 64.1503 142.893 67.1959 141.237 68.6164C139.165 70.3949 133.829 71.6778 127.149 72.5929ZM137.087 54.9539C139.477 46.1721 140.219 33.1605 138.418 28.0436C139.782 26.097 141.359 24.2875 143.19 22.6557C138.655 20.6884 130.565 19.2192 121.05 18.192C121.003 19.1936 120.992 20.328 121.014 21.5743C117.083 21.0416 112.719 20.6166 108.185 20.2914C108.492 19.2308 108.84 18.1914 109.235 17.1783C105.759 16.9469 102.213 16.7636 98.6852 16.6254C99.0554 17.574 99.3824 18.6286 99.6448 19.8007C94.484 19.5736 89.3232 19.4652 84.5308 19.4652C83.2906 19.4652 82.0241 19.4725 80.7406 19.4871C80.7917 18.4356 80.8143 17.3762 80.8064 16.3082C78.3477 16.3192 75.8203 16.3526 73.2533 16.4111C73.1364 17.5521 72.9489 18.6377 72.6944 19.6722C54.1871 20.3109 34.6776 22.4566 31.4056 26.5622C30.382 27.8457 29.831 30.7933 29.6837 34.494C27.4741 33.9149 19.0491 31.0605 17.9676 25.6775C17.9664 25.6787 17.965 25.6793 17.9638 25.6806C17.6539 26.298 17.391 27.0718 17.1737 27.9748C17.5026 26.6091 17.935 25.5387 18.4778 24.8574C23.2844 18.8259 57.17 16.3045 82.496 16.3045C107.821 16.3045 141.706 18.8259 146.514 24.8574C148.984 27.9565 149.172 39.1025 147.73 49.4795C147.73 49.4795 147.73 49.4795 147.73 49.4789C144.224 54.0497 138.698 54.6227 137.087 54.9539ZM29.6977 39.2493C25.4477 39.1701 21.475 38.8833 18.1105 38.5442C17.5918 38.0833 17.1642 37.5682 16.8609 36.9964C17.4967 36.7499 18.1462 36.6859 18.8643 36.6859C19.2524 36.6859 19.6603 36.7048 20.097 36.7237C20.5334 36.7419 20.9991 36.7608 21.5017 36.7608C23.4561 36.7608 25.9756 36.4795 29.5698 34.8203C29.6057 34.8136 29.6398 34.8069 29.6727 34.8002C29.6258 36.1976 29.6356 37.696 29.6977 39.2493ZM16.3557 36.7279C16.3579 36.1927 16.7817 35.7568 17.3159 35.7324C20.4873 35.5893 25.628 35.2946 25.631 34.8952C25.6304 35.0432 24.9253 35.1765 23.8769 35.2934C22.5824 35.4377 20.7646 35.5564 19.1014 35.6447C18.4718 35.6782 17.8644 35.7075 17.3159 35.7324C17.5278 35.7653 17.8151 35.7854 18.1624 35.7939C17.4441 35.9401 16.9123 36.1434 16.6162 36.4491C16.5831 36.3589 16.5529 36.2676 16.5258 36.1745C16.419 36.3328 16.3564 36.5233 16.3557 36.7279Z" fill="url(#paint0_linear_312_440)"/>
</g>
<mask id="mask1_312_440" style="mask-type:luminance" maskUnits="userSpaceOnUse" x="29" y="19" width="111" height="49">
<path d="M74.213 67.8826C67.6701 67.776 59.2585 67.446 51.9052 66.6989C67.194 57.7674 79.7178 40.3506 80.7389 19.487C82.0224 19.4724 83.2889 19.4651 84.5291 19.4651C89.3216 19.4651 94.4824 19.5735 99.6432 19.8006C100.675 24.4219 100.687 30.8565 98.2208 39.6918C94.7436 52.1524 84.0067 61.5881 74.213 67.8826ZM107.084 67.4588C107.725 53.9808 103.932 35.0065 108.183 20.2913C112.717 20.6165 117.081 21.0415 121.012 21.5742C121.158 30.0376 122.788 43.7207 124.942 56.8431C125.467 60.0373 125.481 62.9623 125.143 65.6151C120.09 66.5339 113.508 67.1117 107.084 67.4588ZM128.334 64.9332C129.883 52.989 131.068 38.5313 138.416 28.0435C140.218 33.1605 139.475 46.172 137.086 54.9538C136.85 55.0019 136.698 55.0451 136.649 55.095C136.572 55.1718 136.708 55.2241 136.999 55.2667C136.009 58.8031 134.748 61.6124 133.277 62.8758C132.343 63.6777 130.611 64.3572 128.334 64.9332ZM31.9933 39.2711C31.2206 39.2711 30.4528 39.2632 29.696 39.2492C29.6339 37.6959 29.6241 36.1975 29.671 34.8001C30.1222 34.7076 30.2945 34.6309 30.0656 34.5852C29.9761 34.5676 29.8464 34.5371 29.682 34.4939C29.8293 30.7932 30.3804 27.8456 31.4039 26.5621C34.676 22.4565 54.1854 20.3108 72.6927 19.6721C68.7362 35.7482 48.7531 39.2717 31.9933 39.2711Z" fill="white"/>
</mask>
<g mask="url(#mask1_312_440)">
<path d="M74.213 67.8826C67.6701 67.776 59.2585 67.446 51.9052 66.6989C67.194 57.7674 79.7178 40.3506 80.7389 19.487C82.0224 19.4724 83.2889 19.4651 84.5291 19.4651C89.3216 19.4651 94.4824 19.5735 99.6432 19.8006C100.675 24.4219 100.687 30.8565 98.2208 39.6918C94.7436 52.1524 84.0067 61.5881 74.213 67.8826ZM107.084 67.4588C107.725 53.9808 103.932 35.0065 108.183 20.2913C112.717 20.6165 117.081 21.0415 121.012 21.5742C121.158 30.0376 122.788 43.7207 124.942 56.8431C125.467 60.0373 125.481 62.9623 125.143 65.6151C120.09 66.5339 113.508 67.1117 107.084 67.4588ZM128.334 64.9332C129.883 52.989 131.068 38.5313 138.416 28.0435C140.218 33.1605 139.475 46.172 137.086 54.9538C136.85 55.0019 136.698 55.0451 136.649 55.095C136.572 55.1718 136.708 55.2241 136.999 55.2667C136.009 58.8031 134.748 61.6124 133.277 62.8758C132.343 63.6777 130.611 64.3572 128.334 64.9332ZM31.9933 39.2711C31.2206 39.2711 30.4528 39.2632 29.696 39.2492C29.6339 37.6959 29.6241 36.1975 29.671 34.8001C30.1222 34.7076 30.2945 34.6309 30.0656 34.5852C29.9761 34.5676 29.8464 34.5371 29.682 34.4939C29.8293 30.7932 30.3804 27.8456 31.4039 26.5621C34.676 22.4565 54.1854 20.3108 72.6927 19.6721C68.7362 35.7482 48.7531 39.2717 31.9933 39.2711Z" fill="url(#paint1_linear_312_440)"/>
</g>
<mask id="mask2_312_440" style="mask-type:luminance" maskUnits="userSpaceOnUse" x="16" y="16" width="133" height="59">
<path d="M141.683 55.2515C142.016 55.0518 143.015 54.8423 144.252 54.614C145.896 54.3096 147.184 53.0029 147.447 51.3511C149.182 40.4791 149.13 28.1433 146.51 24.8572C141.702 18.8258 107.818 16.3044 82.4921 16.3044C57.1661 16.3044 23.2806 18.8258 18.4739 24.8572C17.9312 25.5386 17.4988 26.609 17.1699 27.9747C16.5255 30.6476 18.3262 33.3029 21.0326 33.79C23.1418 34.1693 25.0396 34.5024 25.562 34.8166C26.2951 35.2562 20.6877 35.5801 17.3121 35.7323C16.7779 35.7567 16.3541 36.1926 16.3519 36.7278C16.35 37.3616 16.3562 38.0089 16.3707 38.6665C16.394 39.6985 17.1442 40.5746 18.1598 40.7573C19.1304 40.9321 19.9725 41.0879 20.2176 41.2347C20.2932 41.2803 20.2356 41.3236 20.0815 41.3631C18.0306 41.8977 16.6109 43.7578 16.824 45.8664C17.8137 55.6515 20.3013 65.6565 23.75 68.6162C30.7509 74.6246 75.0195 74.9783 82.3856 74.5899C82.4599 74.5856 82.5238 74.5856 82.5981 74.5899C89.9642 74.9783 134.233 74.6246 141.234 68.6162C142.889 67.1957 144.323 64.1502 145.476 60.2857C146.122 58.1205 144.705 55.9018 142.469 55.5699C141.827 55.4744 141.489 55.3678 141.683 55.2515Z" fill="white"/>
</mask>
<g mask="url(#mask2_312_440)">
<mask id="mask3_312_440" style="mask-type:luminance" maskUnits="userSpaceOnUse" x="121" y="18" width="23" height="56">
<path d="M123.096 73.0878C124.044 70.8971 124.788 68.4068 125.143 65.6151C126.292 65.4057 127.362 65.1792 128.333 64.9332C127.982 67.6409 127.612 70.2188 127.147 72.5928C125.843 72.7718 124.488 72.9362 123.096 73.0878ZM138.415 28.0435C138.199 27.4286 137.946 26.9281 137.654 26.5621C135.898 24.358 129.46 22.7183 121.011 21.5743C120.99 20.3279 121.001 19.1936 121.047 18.192C130.563 19.2191 138.652 20.6883 143.187 22.6556C141.356 24.2874 139.779 26.097 138.415 28.0435Z" fill="white"/>
</mask>
<g mask="url(#mask3_312_440)">
<path d="M123.073 73.1105V72.9888H123.134V72.8061H123.195V72.6843H123.256V72.5626H123.317V72.3799H123.378V72.1972H123.439V72.0755H123.5V71.8928H123.561V71.7101H123.621V71.5884H123.682V71.4057H123.743V71.223H123.804V71.0404H123.865V70.8577H123.926V70.675H123.987V70.4924H124.048V70.2488H124.109V70.0662H124.169V69.8835H124.23V69.7009H124.291V69.5182H124.352V69.2746H124.413V68.9702H124.474V68.7267H124.535V68.4831H124.596V68.2396H124.656V67.996H124.717V67.7525H124.778V67.448H124.839V67.0827H124.9V66.7174H124.961V66.4129H125.022V66.0476H125.083V65.5605H125.387V65.4996H125.692V65.4388H125.996V65.3779H126.3V65.317H126.605V65.2561H126.909V65.1952H127.153V65.1343H127.457V65.0734H127.701V65.0125H128.005V64.9517H128.249V64.8908H128.371V65.1343H128.31V65.6214H128.249V66.0476H128.188V66.4738H128.127V66.9H128.066V67.3263H128.005V67.7525H127.944V68.1787H127.884V68.6049H127.823V69.0311H127.762V69.3964H127.701V69.7617H127.64V70.1271H127.579V70.4924H127.518V70.8577H127.457V71.223H127.396V71.5884H127.336V71.9537H127.275V72.2581H127.214V72.5626H127.153V72.6234H126.909V72.6843H126.483V72.7452H125.996V72.8061H125.448V72.867H124.961V72.9279H124.474V72.9888H123.987V73.0496H123.439V73.1105H123.073ZM138.356 28.054V27.9323H138.295V27.7496H138.234V27.6278H138.173V27.5061H138.113V27.3843H138.052V27.2016H137.991V27.1407H137.93V27.019H137.869V26.8972H137.808V26.8363H137.747V26.7145H137.686V26.6536H137.625V26.5319H137.565V26.471H137.504V26.4101H137.443V26.3492H137.382V26.2883H137.321V26.2274H137.26V26.1665H137.199V26.1057H137.077V26.0448H137.017V25.9839H136.956V25.923H136.895V25.8621H136.773V25.8012H136.712V25.7403H136.651V25.6794H136.529V25.6186H136.408V25.5577H136.347V25.4968H136.225V25.4359H136.164V25.375H136.042V25.3141H135.921V25.2532H135.799V25.1923H135.677V25.1315H135.555V25.0706H135.434V25.0097H135.312V24.9488H135.19V24.8879H135.068V24.827H134.946V24.7661H134.764V24.7052H134.642V24.6444H134.52V24.5835H134.338V24.5226H134.155V24.4617H134.033V24.4008H133.85V24.3399H133.729V24.279H133.546V24.2182H133.363V24.1573H133.181V24.0964H132.998V24.0355H132.815V23.9746H132.633V23.9137H132.389V23.8528H132.207V23.7919H132.024V23.7311H131.78V23.6702H131.598V23.6093H131.354V23.5484H131.111V23.4875H130.928V23.4266H130.684V23.3657H130.441V23.3048H130.197V23.244H129.954V23.1831H129.71V23.1222H129.467V23.0613H129.162V23.0004H128.858V22.9395H128.614V22.8786H128.31V22.8177H128.066V22.7569H127.762V22.696H127.457V22.6351H127.153V22.5742H126.848V22.5133H126.483V22.4524H126.179V22.3915H125.813V22.3306H125.509V22.2698H125.144V22.2089H124.778V22.148H124.413V22.0871H124.048V22.0262H123.621V21.9653H123.256V21.9044H122.83V21.8436H122.465V21.7827H122.038V21.7218H121.612V21.6609H121.186V21.6H121.003V19.8343H120.942V19.7734H121.003V18.1903H121.612V18.2512H122.16V18.3121H122.647V18.373H123.195V18.4339H123.682V18.4948H124.23V18.5556H124.717V18.6165H125.144V18.6774H125.631V18.7383H126.057V18.7992H126.544V18.8601H126.97V18.921H127.457V18.9819H127.884V19.0427H128.31V19.1036H128.675V19.1645H129.04V19.2254H129.467V19.2863H129.832V19.3472H130.258V19.4081H130.623V19.469H130.989V19.5298H131.354V19.5907H131.719V19.6516H132.024V19.7125H132.389V19.7734H132.694V19.8343H133.059V19.8952H133.363V19.9561H133.729V20.0169H134.033V20.0778H134.338V20.1387H134.642V20.1996H134.886V20.2605H135.19V20.3214H135.494V20.3823H135.738V20.4431H136.042V20.504H136.347V20.5649H136.59V20.6258H136.895V20.6867H137.138V20.7476H137.382V20.8085H137.565V20.8694H137.808V20.9302H138.052V20.9911H138.295V21.052H138.539V21.1129H138.782V21.1738H139.026V21.2347H139.269V21.2956H139.452V21.3565H139.635V21.4173H139.878V21.4782H140.061V21.5391H140.244V21.6H140.426V21.6609H140.67V21.7218H140.852V21.7827H141.035V21.8436H141.218V21.9044H141.4V21.9653H141.583V22.0262H141.766V22.0871H141.888V22.148H142.07V22.2089H142.253V22.2698H142.436V22.3306H142.557V22.3915H142.679V22.4524H142.862V22.5133H142.984V22.5742H143.166V22.6351H143.227V22.696H143.166V22.7569H143.105V22.8177H143.044V22.8786H142.984V22.9395H142.923V23.0004H142.862V23.0613H142.801V23.1222H142.679V23.1831H142.618V23.244H142.557V23.3048H142.496V23.3657H142.436V23.4266H142.375V23.4875H142.314V23.5484H142.253V23.6093H142.192V23.6702H142.131V23.7311H142.07V23.7919H142.009V23.8528H141.948V23.9137H141.888V23.9746H141.827V24.0355H141.766V24.0964H141.705V24.1573H141.644V24.2182H141.583V24.279H141.522V24.3399H141.461V24.4617H141.4V24.5226H141.34V24.5835H141.279V24.6444H141.218V24.7052H141.157V24.7661H141.096V24.827H141.035V24.8879H140.974V24.9488H140.913V25.0097H140.852V25.0706H140.792V25.1315H140.731V25.1923H140.67V25.2532H140.609V25.375H140.548V25.4359H140.487V25.4968H140.426V25.5577H140.365V25.6186H140.304V25.7403H140.244V25.8012H140.183V25.8621H140.122V25.923H140.061V25.9839H140V26.1057H139.939V26.1665H139.878V26.2274H139.817V26.2883H139.757V26.3492H139.696V26.471H139.635V26.5319H139.574V26.5928H139.513V26.6536H139.452V26.7754H139.391V26.8363H139.33V26.8972H139.269V27.019H139.209V27.0798H139.148V27.1407H139.087V27.2625H139.026V27.3234H138.965V27.3843H138.904V27.5061H138.843V27.5669H138.782V27.6278H138.721V27.7496H138.661V27.8105H138.6V27.8714H138.539V27.9932H138.478V28.054" fill="url(#paint2_linear_312_440)"/>
</g>
</g>
<mask id="mask4_312_440" style="mask-type:luminance" maskUnits="userSpaceOnUse" x="16" y="16" width="133" height="59">
<path d="M141.683 55.2515C142.016 55.0518 143.015 54.8423 144.252 54.614C145.896 54.3096 147.184 53.0029 147.447 51.3511C149.182 40.4791 149.13 28.1433 146.51 24.8572C141.702 18.8258 107.818 16.3044 82.4921 16.3044C57.1661 16.3044 23.2806 18.8258 18.4739 24.8572C17.9312 25.5386 17.4988 26.609 17.1699 27.9747C16.5255 30.6476 18.3262 33.3029 21.0326 33.79C23.1418 34.1693 25.0396 34.5024 25.562 34.8166C26.2951 35.2562 20.6877 35.5801 17.3121 35.7323C16.7779 35.7567 16.3541 36.1926 16.3519 36.7278C16.35 37.3616 16.3562 38.0089 16.3707 38.6665C16.394 39.6985 17.1442 40.5746 18.1598 40.7573C19.1304 40.9321 19.9725 41.0879 20.2176 41.2347C20.2932 41.2803 20.2356 41.3236 20.0815 41.3631C18.0306 41.8977 16.6109 43.7578 16.824 45.8664C17.8137 55.6515 20.3013 65.6565 23.75 68.6162C30.7509 74.6246 75.0195 74.9783 82.3856 74.5899C82.4599 74.5856 82.5238 74.5856 82.5981 74.5899C89.9642 74.9783 134.233 74.6246 141.234 68.6162C142.889 67.1957 144.323 64.1502 145.476 60.2857C146.122 58.1205 144.705 55.9018 142.469 55.5699C141.827 55.4744 141.489 55.3678 141.683 55.2515Z" fill="white"/>
</mask>
<g mask="url(#mask4_312_440)">
<mask id="mask5_312_440" style="mask-type:luminance" maskUnits="userSpaceOnUse" x="121" y="21" width="18" height="45">
<path d="M125.141 65.6152C125.478 62.9623 125.464 60.0373 124.94 56.8432C122.786 43.7208 121.155 30.0376 121.01 21.5743C129.458 22.7183 135.896 24.358 137.653 26.5622C137.944 26.9281 138.198 27.4286 138.414 28.0435C131.065 38.5314 129.881 52.989 128.331 64.9332C127.36 65.1792 126.29 65.4057 125.141 65.6152Z" fill="white"/>
</mask>
<g mask="url(#mask5_312_440)">
<path d="M125.081 65.6212V65.5603H125.142V65.0732H125.203V64.3426H125.264V63.5511H125.325V60.7502H125.264V59.6543H125.203V58.9236H125.142V58.3756H125.081V57.8277H125.021V57.3406H124.96V56.9752H124.899V56.6099H124.838V56.2446H124.777V55.8793H124.716V55.5139H124.655V55.0877H124.594V54.7224H124.533V54.3571H124.473V53.9309H124.412V53.5656H124.351V53.2002H124.29V52.774H124.229V52.4087H124.168V51.9825H124.107V51.6172H124.046V51.191H123.985V50.7647H123.925V50.3994H123.864V49.9732H123.803V49.547H123.742V49.1208H123.681V48.6946H123.62V48.2684H123.559V47.8422H123.498V47.416H123.437V46.9897H123.377V46.5635H123.316V46.1373H123.255V45.7111H123.194V45.224H123.133V44.7978H123.072V44.3716H123.011V43.8845H122.95V43.3974H122.889V42.9712H122.829V42.4841H122.768V41.997H122.707V41.5099H122.646V41.0228H122.585V40.5357H122.524V40.0486H122.463V39.5615H122.402V39.0135H122.341V38.5264H122.281V37.9784H122.22V37.4913H122.159V36.9434H122.098V36.3954H122.037V35.7865H121.976V35.2385H121.915V34.6905H121.854V34.0817H121.793V33.4728H121.733V32.8639H121.672V32.1942H121.611V31.5244H121.55V30.8546H121.489V30.124H121.428V29.3934H121.367V28.6627H121.306V27.8103H121.246V26.9579H121.185V25.9228H121.124V24.8268H121.063V23.4264H121.002V21.5389H121.246V21.5998H121.672V21.6607H122.098V21.7216H122.524V21.7825H122.889V21.8433H123.316V21.9042H123.681V21.9651H124.107V22.026H124.473V22.0869H124.838V22.1478H125.203V22.2087H125.568V22.2696H125.873V22.3304H126.238V22.3913H126.543V22.4522H126.908V22.5131H127.212V22.574H127.517V22.6349H127.821V22.6958H128.126V22.7567H128.369V22.8175H128.674V22.8784H128.917V22.9393H129.222V23.0002H129.526V23.0611H129.77V23.122H130.013V23.1829H130.257V23.2438H130.5V23.3046H130.744V23.3655H130.987V23.4264H131.17V23.4873H131.414V23.5482H131.657V23.6091H131.84V23.67H132.083V23.7309H132.266V23.7917H132.449V23.8526H132.692V23.9135H132.875V23.9744H133.058V24.0353H133.24V24.0962H133.423V24.1571H133.606V24.2179H133.788V24.2788H133.91V24.3397H134.093V24.4006H134.214V24.4615H134.397V24.5224H134.58V24.5833H134.702V24.6442H134.823V24.705H135.006V24.7659H135.128V24.8268H135.25V24.8877H135.371V24.9486H135.493V25.0095H135.615V25.0704H135.737V25.1313H135.858V25.1921H135.98V25.253H136.102V25.3139H136.224V25.3748H136.285V25.4357H136.406V25.4966H136.467V25.5575H136.589V25.6184H136.711V25.6792H136.772V25.7401H136.833V25.801H136.954V25.8619H137.015V25.9228H137.076V25.9837H137.137V26.0446H137.259V26.1054H137.32V26.1663H137.381V26.2272H137.441V26.2881H137.502V26.349H137.563V26.4099H137.624V26.4708H137.685V26.5925H137.746V26.6534H137.807V26.7752H137.868V26.8361H137.929V26.9579H137.989V27.0796H138.05V27.1405H138.111V27.3232H138.172V27.445H138.233V27.5667H138.294V27.6885H138.355V27.8712H138.416V28.1756H138.355V28.2365H138.294V28.3583H138.233V28.4192H138.172V28.48H138.111V28.6018H138.05V28.6627H137.989V28.7845H137.929V28.9063H137.868V28.9671H137.807V29.0889H137.746V29.1498H137.685V29.2716H137.624V29.3934H137.563V29.4542H137.502V29.576H137.441V29.6369H137.381V29.7587H137.32V29.8196H137.259V29.9413H137.198V30.0631H137.137V30.124H137.076V30.2458H137.015V30.3675H136.954V30.4893H136.893V30.5502H136.833V30.672H136.772V30.7938H136.711V30.9155H136.65V31.0373H136.589V31.0982H136.528V31.22H136.467V31.3417H136.406V31.4635H136.346V31.5244H136.285V31.6462H136.224V31.768H136.163V31.8897H136.102V32.0115H136.041V32.0724H135.98V32.1942H135.919V32.3159H135.858V32.4377H135.798V32.5595H135.737V32.7421H135.676V32.8639H135.615V32.9857H135.554V33.1075H135.493V33.2292H135.432V33.351H135.371V33.4728H135.31V33.5946H135.25V33.7163H135.189V33.8381H135.128V33.9599H135.067V34.0817H135.006V34.2034H134.945V34.3252H134.884V34.5079H134.823V34.6297H134.762V34.8123H134.702V34.9341H134.641V35.0559H134.58V35.2385H134.519V35.3603H134.458V35.543H134.397V35.6647H134.336V35.7865H134.275V35.9692H134.214V36.0909H134.154V36.2736H134.093V36.3954H134.032V36.5172H133.971V36.6998H133.91V36.8825H133.849V37.0651H133.788V37.1869H133.727V37.3696H133.666V37.5522H133.606V37.7349H133.545V37.9176H133.484V38.0393H133.423V38.222H133.362V38.4047H133.301V38.5873H133.24V38.7091H133.179V38.8918H133.118V39.1353H133.058V39.318H132.997V39.5006H132.936V39.6833H132.875V39.8659H132.814V40.1095H132.753V40.2922H132.692V40.4748H132.631V40.6575H132.571V40.8401H132.51V41.0837H132.449V41.2664H132.388V41.5099H132.327V41.6926H132.266V41.9361H132.205V42.1797H132.144V42.3623H132.083V42.6059H132.023V42.8494H131.962V43.0321H131.901V43.2756H131.84V43.5192H131.779V43.7627H131.718V44.0063H131.657V44.2498H131.596V44.5543H131.535V44.7978H131.475V45.0414H131.414V45.2849H131.353V45.5893H131.292V45.8329H131.231V46.0764H131.17V46.3809H131.109V46.6853H131.048V46.9897H130.987V47.2942H130.927V47.5986H130.866V47.9031H130.805V48.2075H130.744V48.5119H130.683V48.8164H130.622V49.1817H130.561V49.4861H130.5V49.8514H130.439V50.1559H130.379V50.5212H130.318V50.8256H130.257V51.2518H130.196V51.6172H130.135V51.9825H130.074V52.3478H130.013V52.774H129.952V53.1393H129.891V53.5656H129.831V53.9309H129.77V54.3571H129.709V54.7833H129.648V55.2095H129.587V55.6357H129.526V56.1228H129.465V56.549H129.404V56.9752H129.343V57.4623H129.283V57.8885H129.222V58.3756H129.161V58.8627H129.1V59.3498H129.039V59.8369H128.978V60.324H128.917V60.8111H128.856V61.2982H128.796V61.7853H128.735V62.2724H128.674V62.7595H128.613V63.2466H128.552V63.7337H128.491V64.2208H128.43V64.647H128.369V64.9515H128.308V65.0123H128.065V65.0732H127.76V65.1341H127.517V65.195H127.212V65.2559H126.969V65.3168H126.664V65.3777H126.36V65.4386H126.056V65.4994H125.751V65.5603H125.447V65.6212" fill="url(#paint3_linear_312_440)"/>
</g>
</g>
<mask id="mask6_312_440" style="mask-type:luminance" maskUnits="userSpaceOnUse" x="16" y="16" width="133" height="59">
<path d="M141.683 55.2515C142.016 55.0518 143.015 54.8423 144.252 54.614C145.896 54.3096 147.184 53.0029 147.447 51.3511C149.182 40.4791 149.13 28.1433 146.51 24.8572C141.702 18.8258 107.818 16.3044 82.4921 16.3044C57.1661 16.3044 23.2806 18.8258 18.4739 24.8572C17.9312 25.5386 17.4988 26.609 17.1699 27.9747C16.5255 30.6476 18.3262 33.3029 21.0326 33.79C23.1418 34.1693 25.0396 34.5024 25.562 34.8166C26.2951 35.2562 20.6877 35.5801 17.3121 35.7323C16.7779 35.7567 16.3541 36.1926 16.3519 36.7278C16.35 37.3616 16.3562 38.0089 16.3707 38.6665C16.394 39.6985 17.1442 40.5746 18.1598 40.7573C19.1304 40.9321 19.9725 41.0879 20.2176 41.2347C20.2932 41.2803 20.2356 41.3236 20.0815 41.3631C18.0306 41.8977 16.6109 43.7578 16.824 45.8664C17.8137 55.6515 20.3013 65.6565 23.75 68.6162C30.7509 74.6246 75.0195 74.9783 82.3856 74.5899C82.4599 74.5856 82.5238 74.5856 82.5981 74.5899C89.9642 74.9783 134.233 74.6246 141.234 68.6162C142.889 67.1957 144.323 64.1502 145.476 60.2857C146.122 58.1205 144.705 55.9018 142.469 55.5699C141.827 55.4744 141.489 55.3678 141.683 55.2515Z" fill="white"/>
</mask>
<g mask="url(#mask6_312_440)">
<mask id="mask7_312_440" style="mask-type:luminance" maskUnits="userSpaceOnUse" x="62" y="16" width="48" height="59">
<path d="M89.0966 74.6996C86.1241 74.6996 83.8384 74.6551 82.5999 74.59C82.5628 74.5876 82.5287 74.5863 82.494 74.5863C82.4593 74.5863 82.4246 74.5876 82.3874 74.59C81.1484 74.6551 78.8657 74.6996 75.8908 74.6996C72.2077 74.6996 67.4658 74.6314 62.333 74.4512C65.6069 72.9022 69.8148 70.709 74.2127 67.8827C75.9809 67.9113 77.6126 67.9235 79.0502 67.9235C81.591 67.9235 83.523 67.8845 84.5288 67.8279C85.5347 67.8845 87.4684 67.9235 90.008 67.9235C94.423 67.9241 100.674 67.8059 107.084 67.4589C106.965 69.9516 106.695 72.2556 106.194 74.3105C99.725 74.5973 93.6138 74.6996 89.0966 74.6996ZM108.183 20.2914C105.38 20.0905 102.51 19.9273 99.6428 19.8007C99.3804 18.6286 99.0534 17.574 98.6832 16.6254C102.211 16.7636 105.757 16.9469 109.233 17.1783C108.838 18.1914 108.49 19.2308 108.183 20.2914Z" fill="white"/>
</mask>
<g mask="url(#mask7_312_440)">
<path d="M74.1217 74.7543V74.6934H69.1289V74.6326H66.3281V74.5717H64.1362V74.5108H62.3096V74.389H62.4313V74.3281H62.5531V74.2672H62.6749V74.2063H62.7967V74.1455H62.9184V74.0846H63.0402V74.0237H63.2229V73.9628H63.3447V73.9019H63.4664V73.841H63.5882V73.7801H63.71V73.7193H63.8317V73.6584H63.9535V73.5975H64.0753V73.5366H64.1971V73.4757H64.3188V73.4148H64.4406V73.3539H64.5624V73.293H64.6842V73.2322H64.8059V73.1713H64.9277V73.1104H65.0495V73.0495H65.1713V72.9886H65.293V72.9277H65.4148V72.8668H65.5366V72.8059H65.5975V72.7451H65.7193V72.6842H65.841V72.6233H65.9628V72.5624H66.0846V72.5015H66.2063V72.4406H66.3281V72.3797H66.4499V72.3188H66.5717V72.258H66.6934V72.1971H66.8152V72.1362H66.8761V72.0753H66.9979V72.0144H67.1197V71.9535H67.2414V71.8926H67.3632V71.8318H67.485V71.7709H67.6068V71.71H67.7285V71.6491H67.7894V71.5882H67.9112V71.5273H68.033V71.4664H68.1547V71.4055H68.2765V71.3447H68.3374V71.2838H68.4592V71.2229H68.5809V71.162H68.7027V71.1011H68.8245V71.0402H68.8854V70.9793H69.0072V70.9184H69.1289V70.8576H69.2507V70.7967H69.3725V70.7358H69.4334V70.6749H69.5551V70.614H69.6769V70.5531H69.7987V70.4922H69.8596V70.4313H69.9814V70.3705H70.1031V70.3096H70.164V70.2487H70.2858V70.1878H70.4076V70.1269H70.5293V70.066H70.5902V70.0051H70.712V69.9442H70.8338V69.8834H70.9555V69.8225H71.0164V69.7616H71.1382V69.7007H71.26V69.6398H71.3209V69.5789H71.4426V69.518H71.5644V69.4572H71.6253V69.3963H71.7471V69.3354H71.8689V69.2745H71.9297V69.2136H72.0515V69.1527H72.1733V69.0918H72.2342V69.0309H72.356V68.9701H72.4777V68.9092H72.5386V68.8483H72.6604V68.7874H72.7213V68.7265H72.843V68.6656H72.9648V68.6047H73.0257V68.5438H73.1475V68.483H73.2084V68.4221H73.3301V68.3612H73.4519V68.3003H73.5128V68.2394H73.6346V68.1785H73.6955V68.1176H73.8172V68.0567H73.939V67.9959H73.9999V67.935H74.1217V67.8741H83.2548V67.8132H85.812V67.8741H95.2495V67.8132H98.0503V67.7523H100.181V67.6914H101.947V67.6305H103.408V67.5696H104.87V67.5088H106.087V67.4479H107.123V67.935H107.062V68.8483H107.001V69.5789H106.94V70.1269H106.879V70.7358H106.818V71.2229H106.757V71.6491H106.696V72.0753H106.635V72.4406H106.575V72.8059H106.514V73.1104H106.453V73.4148H106.392V73.7193H106.331V74.0237H106.27V74.2672H106.209V74.3281H105.783V74.389H104.322V74.4499H102.678V74.5108H100.851V74.5717H98.6592V74.6326H95.8584V74.6934H90.9265V74.7543H87.3342V74.6934H83.681V74.6326H81.3064V74.6934H77.6531V74.7543H74.1217ZM107.731 20.3212V20.2603H106.757V20.1994H105.844V20.1386H104.87V20.0777H103.896V20.0168H102.739V19.9559H101.521V19.895H100.364V19.8341H99.6334V19.7732H99.5725V19.5297H99.5116V19.2861H99.4507V19.0426H99.3899V18.8599H99.329V18.6164H99.2681V18.3728H99.2072V18.1902H99.1463V18.0075H99.0854V17.8248H99.0245V17.6422H98.9636V17.4595H98.9028V17.2769H98.8419V17.0942H98.781V16.9115H98.7201V16.7289H98.6592V16.6071H99.7552V16.668H101.034V16.7289H102.373V16.7898H103.652V16.8507H104.809V16.9115H105.844V16.9724H106.879V17.0333H107.914V17.0942H108.888V17.1551H109.254V17.3377H109.193V17.4595H109.132V17.6422H109.071V17.8248H109.01V18.0075H108.949V18.1902H108.888V18.3728H108.827V18.5555H108.766V18.7382H108.706V18.9208H108.645V19.1035H108.584V19.2861H108.523V19.4688H108.462V19.6515H108.401V19.8341H108.34V20.0168H108.279V20.1994H108.218V20.3212" fill="url(#paint4_linear_312_440)"/>
</g>
</g>
<mask id="mask8_312_440" style="mask-type:luminance" maskUnits="userSpaceOnUse" x="16" y="16" width="133" height="59">
<path d="M141.683 55.2515C142.016 55.0518 143.015 54.8423 144.252 54.614C145.896 54.3096 147.184 53.0029 147.447 51.3511C149.182 40.4791 149.13 28.1433 146.51 24.8572C141.702 18.8258 107.818 16.3044 82.4921 16.3044C57.1661 16.3044 23.2806 18.8258 18.4739 24.8572C17.9312 25.5386 17.4988 26.609 17.1699 27.9747C16.5255 30.6476 18.3262 33.3029 21.0326 33.79C23.1418 34.1693 25.0396 34.5024 25.562 34.8166C26.2951 35.2562 20.6877 35.5801 17.3121 35.7323C16.7779 35.7567 16.3541 36.1926 16.3519 36.7278C16.35 37.3616 16.3562 38.0089 16.3707 38.6665C16.394 39.6985 17.1442 40.5746 18.1598 40.7573C19.1304 40.9321 19.9725 41.0879 20.2176 41.2347C20.2932 41.2803 20.2356 41.3236 20.0815 41.3631C18.0306 41.8977 16.6109 43.7578 16.824 45.8664C17.8137 55.6515 20.3013 65.6565 23.75 68.6162C30.7509 74.6246 75.0195 74.9783 82.3856 74.5899C82.4599 74.5856 82.5238 74.5856 82.5981 74.5899C89.9642 74.9783 134.233 74.6246 141.234 68.6162C142.889 67.1957 144.323 64.1502 145.476 60.2857C146.122 58.1205 144.705 55.9018 142.469 55.5699C141.827 55.4744 141.489 55.3678 141.683 55.2515Z" fill="white"/>
</mask>
<g mask="url(#mask8_312_440)">
<mask id="mask9_312_440" style="mask-type:luminance" maskUnits="userSpaceOnUse" x="74" y="19" width="35" height="49">
<path d="M90.0073 67.9235C87.4677 67.9235 85.5339 67.8845 84.528 67.8279C83.5222 67.8845 81.5902 67.9235 79.0494 67.9235C77.6119 67.9235 75.9801 67.9113 74.2119 67.8827C84.0056 61.5881 94.7425 52.1525 98.2197 39.6919C100.686 30.8566 100.674 24.422 99.642 19.8007C102.509 19.9273 105.379 20.0905 108.182 20.2914C103.931 35.0066 107.724 53.9809 107.083 67.4589C100.673 67.8059 94.4222 67.9241 90.0073 67.9235Z" fill="white"/>
</mask>
<g mask="url(#mask9_312_440)">
<path d="M74.1826 67.935V67.8132H74.3044V67.7523H74.3653V67.6914H74.4871V67.6306H74.5479V67.5697H74.6697V67.5088H74.7306V67.4479H74.8524V67.387H74.9133V67.3261H75.035V67.2652H75.1568V67.2044H75.2177V67.1435H75.3395V67.0826H75.4004V67.0217H75.5221V66.9608H75.583V66.8999H75.7048V66.839H75.7657V66.7781H75.8875V66.7173H75.9483V66.6564H76.0701V66.5955H76.131V66.5346H76.1919V66.4737H76.3137V66.4128H76.3746V66.3519H76.4963V66.291H76.5572V66.2302H76.679V66.1693H76.7399V66.1084H76.8008V66.0475H76.9225V65.9866H76.9834V65.9257H77.1052V65.8648H77.1661V65.8039H77.2879V65.7431H77.3487V65.6822H77.4705V65.6213H77.5314V65.5604H77.5923V65.4995H77.7141V65.4386H77.775V65.3777H77.8967V65.3169H77.9576V65.256H78.0185V65.1951H78.1403V65.1342H78.2012V65.0733H78.3229V65.0124H78.3838V64.9515H78.4447V64.8906H78.5665V64.8298H78.6274V64.7689H78.6883V64.708H78.81V64.6471H78.8709V64.5862H78.9318V64.5253H79.0536V64.4644H79.1145V64.4035H79.1754V64.3427H79.2971V64.2818H79.358V64.2209H79.4798V64.16H79.5407V64.0991H79.6016V64.0382H79.7233V63.9773H79.7842V63.9164H79.8451V63.8556H79.9669V63.7947H80.0278V63.7338H80.0887V63.6729H80.1496V63.612H80.2713V63.5511H80.3322V63.4902H80.3931V63.4293H80.454V63.3685H80.5758V63.3076H80.6367V63.2467H80.6975V63.1858H80.8193V63.1249H80.8802V63.064H80.9411V63.0031H81.002V62.9423H81.1238V62.8814H81.1846V62.8205H81.2455V62.7596H81.3673V62.6987H81.4282V62.6378H81.4891V62.5769H81.55V62.516H81.6717V62.4552H81.7326V62.3943H81.7935V62.3334H81.8544V62.2725H81.9153V62.2116H82.0371V62.1507H82.0979V62.0898H82.1588V62.0289H82.2197V61.9681H82.2806V61.9072H82.4024V61.8463H82.4633V61.7854H82.5242V61.7245H82.585V61.6636H82.6459V61.6027H82.7677V61.5418H82.8286V61.481H82.8895V61.4201H82.9504V61.3592H83.0113V61.2983H83.133V61.2374H83.1939V61.1765H83.2548V61.1156H83.3157V61.0547H83.3766V60.9939H83.4984V60.933H83.5592V60.8721H83.6201V60.8112H83.681V60.7503H83.7419V60.6894H83.8028V60.6285H83.8637V60.5677H83.9246V60.5068H84.0463V60.4459H84.1072V60.385H84.1681V60.3241H84.229V60.2632H84.2899V60.2023H84.3508V60.1414H84.4117V60.0806H84.4725V60.0197H84.5334V59.9588H84.6552V59.8979H84.7161V59.837H84.777V59.7761H84.8379V59.7152H84.8988V59.6543H84.9596V59.5935H85.0205V59.5326H85.0814V59.4717H85.2032V59.4108H85.2641V59.3499H85.325V59.289H85.3859V59.2281H85.4467V59.1672H85.5076V59.1064H85.5685V59.0455H85.6294V58.9846H85.6903V58.9237H85.7512V58.8628H85.8121V58.8019H85.873V58.741H85.9338V58.6802H85.9947V58.6193H86.0556V58.5584H86.1165V58.4975H86.1774V58.4366H86.2383V58.3757H86.2992V58.3148H86.36V58.2539H86.4209V58.1931H86.4818V58.1322H86.6036V58.0713H86.6645V58.0104H86.7254V57.9495H86.7863V57.8886H86.8471V57.8277H86.908V57.7668H86.9689V57.706H87.0298V57.6451H87.0907V57.5842H87.1516V57.5233H87.2125V57.4624H87.2734V57.3406H87.3342V57.2797H87.3951V57.2189H87.456V57.158H87.5169V57.0971H87.5778V57.0362H87.6387V56.9753H87.6996V56.9144H87.7605V56.8535H87.8213V56.7926H87.8822V56.7318H87.9431V56.6709H88.004V56.61H88.0649V56.5491H88.1258V56.4882H88.1867V56.4273H88.2476V56.3664H88.3084V56.3056H88.3693V56.2447H88.4302V56.1838H88.4911V56.1229H88.552V56.062H88.6129V55.9402H88.6738V55.8793H88.7346V55.8185H88.7955V55.7576H88.8564V55.6967H88.9173V55.6358H88.9782V55.5749H89.0391V55.514H89.1V55.3922H89.1609V55.3314H89.2217V55.2705H89.2826V55.2096H89.3435V55.1487H89.4044V55.0878H89.4653V55.0269H89.5262V54.9051H89.5871V54.8443H89.648V54.7834H89.7088V54.7225H89.7697V54.6616H89.8306V54.6007H89.8915V54.5398H89.9524V54.4789H90.0133V54.3572H90.0742V54.2963H90.1351V54.2354H90.1959V54.1745H90.2568V54.1136H90.3177V53.9918H90.3786V53.931H90.4395V53.8701H90.5004V53.8092H90.5613V53.6874H90.6221V53.6265H90.683V53.5656H90.7439V53.5047H90.8048V53.383H90.8657V53.3221H90.9266V53.2612H90.9875V53.2003H91.0484V53.0785H91.1092V53.0176H91.1701V52.9568H91.231V52.8959H91.2919V52.7741H91.3528V52.7132H91.4137V52.6523H91.4746V52.5914H91.5355V52.5305H91.5963V52.4088H91.6572V52.3479H91.7181V52.287H91.779V52.1652H91.8399V52.1043H91.9008V51.9826H91.9617V51.9217H92.0226V51.8608H92.0834V51.739H92.1443V51.6781H92.2052V51.5564H92.2661V51.4955H92.327V51.4346H92.3879V51.3128H92.4488V51.2519H92.5097V51.191H92.5705V51.0693H92.6314V51.0084H92.6923V50.8866H92.7532V50.8257H92.8141V50.7648H92.875V50.643H92.9359V50.5822H92.9967V50.4604H93.0576V50.3995H93.1185V50.2777H93.1794V50.2168H93.2403V50.0951H93.3012V50.0342H93.3621V49.9124H93.423V49.8515H93.4838V49.7297H93.5447V49.6689H93.6056V49.5471H93.6665V49.4253H93.7274V49.3644H93.7883V49.2426H93.8492V49.1818H93.9101V49.06H93.9709V48.9991H94.0318V48.8773H94.0927V48.8164H94.1536V48.6947H94.2145V48.5729H94.2754V48.512H94.3363V48.3902H94.3972V48.3293H94.458V48.2076H94.5189V48.0858H94.5798V47.964H94.6407V47.8422H94.7016V47.7814H94.7625V47.6596H94.8234V47.5378H94.8842V47.416H94.9451V47.2943H95.006V47.2334H95.0669V47.1116H95.1278V46.9898H95.1887V46.868H95.2496V46.8072H95.3105V46.6854H95.3713V46.5636H95.4322V46.4418H95.4931V46.3201H95.554V46.1983H95.6149V46.0765H95.6758V45.9547H95.7367V45.833H95.7976V45.7112H95.8584V45.5894H95.9193V45.4676H95.9802V45.3459H96.0411V45.2241H96.102V45.1023H96.1629V44.9805H96.2238V44.8588H96.2847V44.6761H96.3455V44.5543H96.4064V44.4326H96.4673V44.3108H96.5282V44.189H96.5891V44.0672H96.65V43.8846H96.7109V43.7628H96.7718V43.5801H96.8326V43.4584H96.8935V43.2757H96.9544V43.1539H97.0153V42.9713H97.0762V42.8495H97.1371V42.6668H97.198V42.5451H97.2588V42.3624H97.3197V42.2406H97.3806V42.058H97.4415V41.9362H97.5024V41.7535H97.5633V41.5709H97.6242V41.3882H97.6851V41.2055H97.7459V41.0229H97.8068V40.8402H97.8677V40.6576H97.9286V40.4749H97.9895V40.2922H98.0504V40.0487H98.1113V39.866H98.1722V39.6225H98.233V39.3789H98.2939V39.1963H98.3548V38.9527H98.4157V38.7092H98.4766V38.4656H98.5375V38.2221H98.5984V37.9785H98.6593V37.735H98.7201V37.4914H98.781V37.2479H98.8419V37.0043H98.9028V36.7608H98.9637V36.5172H99.0246V36.2128H99.0855V35.9084H99.1464V35.6039H99.2072V35.2995H99.2681V34.9951H99.329V34.6906H99.3899V34.3862H99.4508V34.0817H99.5117V33.7773H99.5726V33.412H99.6334V33.0467H99.6943V32.6205H99.7552V32.1942H99.8161V31.768H99.877V31.3418H99.9379V30.9156H99.9988V30.3067H100.06V29.5761H100.121V28.8454H100.181V28.1757H100.242V24.5225H100.181V23.4265H100.121V22.8785H100.06V22.3914H99.9988V21.8434H99.9379V21.4172H99.877V21.0519H99.8161V20.6866H99.7552V20.3212H99.6943V20.0777H99.6334V19.7733H100.425V19.8342H101.582V19.895H102.739V19.9559H103.956V20.0168H104.931V20.0777H105.905V20.1386H106.818V20.1995H107.792V20.2604H108.219V20.3821H108.158V20.6257H108.097V20.8083H108.036V21.0519H107.975V21.2954H107.914V21.539H107.853V21.7825H107.792V22.087H107.731V22.3305H107.671V22.5741H107.61V22.8176H107.549V23.0612H107.488V23.4265H107.427V23.7309H107.366V24.0354H107.305V24.4007H107.244V24.7051H107.183V25.0704H107.123V25.3749H107.062V25.6793H107.001V26.0446H106.94V26.5317H106.879V26.9579H106.818V27.445H106.757V27.9321H106.696V28.3584H106.635V28.8454H106.575V29.5152H106.514V30.2459H106.453V30.9765H106.392V31.7071H106.331V32.864H106.27V34.2644H106.209V37.1261H106.148V39.0136H106.209V42.1797H106.27V44.0063H106.331V45.4068H106.392V46.6854H106.453V47.9031H106.514V49.06H106.575V50.156H106.635V51.191H106.696V52.287H106.757V53.3221H106.818V54.4181H106.879V55.514H106.94V56.6709H107.001V58.0713H107.062V59.4108H107.123V61.481H107.183V66.4737H107.123V67.5088H106.148V67.5697H104.931V67.6306H103.469V67.6914H102.008V67.7523H100.242V67.8132H98.1113V67.8741H95.3105V67.935H85.7512V67.8741H83.3157V67.935" fill="url(#paint5_linear_312_440)"/>
</g>
</g>
<mask id="mask10_312_440" style="mask-type:luminance" maskUnits="userSpaceOnUse" x="16" y="16" width="133" height="59">
<path d="M141.683 55.2515C142.016 55.0518 143.015 54.8423 144.252 54.614C145.896 54.3096 147.184 53.0029 147.447 51.3511C149.182 40.4791 149.13 28.1433 146.51 24.8572C141.702 18.8258 107.818 16.3044 82.4921 16.3044C57.1661 16.3044 23.2806 18.8258 18.4739 24.8572C17.9312 25.5386 17.4988 26.609 17.1699 27.9747C16.5255 30.6476 18.3262 33.3029 21.0326 33.79C23.1418 34.1693 25.0396 34.5024 25.562 34.8166C26.2951 35.2562 20.6877 35.5801 17.3121 35.7323C16.7779 35.7567 16.3541 36.1926 16.3519 36.7278C16.35 37.3616 16.3562 38.0089 16.3707 38.6665C16.394 39.6985 17.1442 40.5746 18.1598 40.7573C19.1304 40.9321 19.9725 41.0879 20.2176 41.2347C20.2932 41.2803 20.2356 41.3236 20.0815 41.3631C18.0306 41.8977 16.6109 43.7578 16.824 45.8664C17.8137 55.6515 20.3013 65.6565 23.75 68.6162C30.7509 74.6246 75.0195 74.9783 82.3856 74.5899C82.4599 74.5856 82.5238 74.5856 82.5981 74.5899C89.9642 74.9783 134.233 74.6246 141.234 68.6162C142.889 67.1957 144.323 64.1502 145.476 60.2857C146.122 58.1205 144.705 55.9018 142.469 55.5699C141.827 55.4744 141.489 55.3678 141.683 55.2515Z" fill="white"/>
</mask>
<g mask="url(#mask10_312_440)">
<mask id="mask11_312_440" style="mask-type:luminance" maskUnits="userSpaceOnUse" x="16" y="16" width="65" height="57">
<path d="M36.8842 72.4583C30.6543 71.5535 25.7218 70.309 23.7497 68.6163C20.3009 65.6566 17.8133 55.6516 16.8236 45.8665C16.8096 45.7264 16.8027 45.5876 16.8027 45.45C16.802 43.8499 17.7364 42.4409 19.1443 41.72C19.6449 41.7584 20.1668 41.7767 20.6691 41.7767C22.7749 41.7767 24.5321 41.4558 22.8844 40.9663C21.0774 40.4292 19.3362 39.6377 18.1063 38.5442C21.4708 38.8833 25.4435 39.1701 29.6935 39.2492C30.0673 48.6064 32.3518 59.9338 35.7791 62.8759C37.937 64.7281 44.3648 65.933 51.9027 66.699C47.0792 69.5168 41.9841 71.4884 36.8842 72.4583ZM72.6901 19.6722C72.9446 18.6377 73.1322 17.5521 73.2491 16.4111C75.8161 16.3526 78.3435 16.3191 80.8021 16.3082C80.8101 17.3761 80.7875 18.4356 80.7364 19.4871C78.1121 19.5169 75.4124 19.5784 72.6901 19.6722Z" fill="white"/>
</mask>
<g mask="url(#mask11_312_440)">
<path d="M36.7356 72.5016V72.4407H36.3703V72.3798H35.9441V72.3189H35.5788V72.258H35.1526V72.1972H34.7872V72.1363H34.4219V72.0754H34.1175V72.0145H33.7522V71.9536H33.4477V71.8927H33.0824V71.8318H32.778V71.7709H32.4735V71.7101H32.1691V71.6492H31.8647V71.5883H31.5602V71.5274H31.3167V71.4665H31.0122V71.4056H30.7078V71.3447H30.4643V71.2838H30.2207V71.223H29.9772V71.1621H29.7336V71.1012H29.4901V71.0403H29.2465V70.9794H29.003V70.9185H28.8203V70.8576H28.5768V70.7967H28.3941V70.7359H28.2114V70.675H27.9679V70.6141H27.7852V70.5532H27.6026V70.4923H27.4199V70.4314H27.2372V70.3705H27.0546V70.3096H26.8719V70.2488H26.6893V70.1879H26.5675V70.127H26.3848V70.0661H26.263V70.0052H26.0804V69.9443H25.9586V69.8834H25.7759V69.8226H25.6542V69.7617H25.5324V69.7008H25.4106V69.6399H25.2889V69.579H25.1671V69.5181H25.0453V69.4572H24.9235V69.3963H24.8018V69.3355H24.68V69.2746H24.5582V69.2137H24.4973V69.1528H24.3755V69.0919H24.3147V69.031H24.1929V68.9701H24.132V68.9092H24.0102V68.8484H23.9493V68.7875H23.8276V68.7266H23.7667V68.6657H23.7058V68.6048H23.6449V68.5439H23.584V68.483H23.5231V68.4221H23.4622V68.3613H23.4013V68.3004H23.3405V68.2395H23.2796V68.1786H23.2187V68.1177H23.1578V68.0568H23.0969V67.9959H23.036V67.9351H22.9751V67.8133H22.9143V67.7524H22.8534V67.6915H22.7925V67.5697H22.7316V67.5088H22.6707V67.448H22.6098V67.3871H22.5489V67.2653H22.488V67.2044H22.4272V67.0826H22.3663V67.0217H22.3054V66.9H22.2445V66.8391H22.1836V66.7173H22.1227V66.5955H22.0618V66.5346H22.0009V66.4129H21.9401V66.352H21.8792V66.2302H21.8183V66.1084H21.7574V65.9867H21.6965V65.8649H21.6356V65.7431H21.5747V65.6213H21.5138V65.4996H21.453V65.4387H21.3921V65.3169H21.3312V65.1951H21.2703V65.0125H21.2094V64.8907H21.1485V64.7689H21.0876V64.6471H21.0267V64.5254H20.9659V64.3427H20.905V64.2209H20.8441V64.0992H20.7832V63.9165H20.7223V63.7947H20.6614V63.6121H20.6005V63.4903H20.5397V63.3076H20.4788V63.1859H20.4179V63.0032H20.357V62.8814H20.2961V62.6988H20.2352V62.5161H20.1743V62.3334H20.1134V62.1508H20.0526V61.9681H19.9917V61.8463H19.9308V61.6637H19.8699V61.481H19.809V61.2984H19.7481V61.0548H19.6872V60.8721H19.6263V60.6895H19.5655V60.5068H19.5046V60.2633H19.4437V60.0806H19.3828V59.8979H19.3219V59.6544H19.261V59.4717H19.2001V59.2282H19.1392V58.9846H19.0784V58.7411H19.0175V58.5584H18.9566V58.3149H18.8957V58.0713H18.8348V57.8278H18.7739V57.5842H18.713V57.3407H18.6522V57.0971H18.5913V56.7927H18.5304V56.5492H18.4695V56.3056H18.4086V56.0012H18.3477V55.6967H18.2868V55.4532H18.2259V55.1487H18.1651V54.8443H18.1042V54.5399H18.0433V54.2354H17.9824V53.931H17.9215V53.5657H17.8606V53.2612H17.7997V52.9568H17.7388V52.5915H17.678V52.2262H17.6171V51.8608H17.5562V51.4955H17.4953V51.1302H17.4344V50.704H17.3735V50.2778H17.3126V49.8516H17.2517V49.4862H17.1909V48.9991H17.13V48.512H17.0691V48.025H17.0082V47.5379H16.9473V47.0508H16.8864V46.5028H16.8255V45.8939H16.7646V45.0415H16.8255V44.6762H16.8864V44.3717H16.9473V44.1891H17.0082V44.0064H17.0691V43.8846H17.13V43.702H17.1909V43.5802H17.2517V43.4584H17.3126V43.3975H17.3735V43.2758H17.4344V43.154H17.4953V43.0931H17.5562V42.9713H17.6171V42.9104H17.678V42.8495H17.7388V42.7887H17.7997V42.7278H17.8606V42.606H17.9215V42.5451H17.9824V42.4842H18.0433V42.4233H18.1042V42.3624H18.1651V42.3016H18.2868V42.2407H18.3477V42.1798H18.4086V42.1189H18.4695V42.058H18.5913V41.9971H18.6522V41.9362H18.7739V41.8753H18.8348V41.8145H18.9566V41.7536H19.0784V41.6927H19.809V41.7536H21.5747V41.6927H22.3054V41.6318H22.7925V41.5709H23.0969V41.51H23.2796V41.4491H23.4013V41.3883H23.4622V41.2665H23.4013V41.2056H23.3405V41.1447H23.1578V41.0838H23.036V41.0229H22.8534V40.962H22.6098V40.9012H22.4272V40.8403H22.2445V40.7794H22.1227V40.7185H21.9401V40.6576H21.7574V40.5967H21.5747V40.5358H21.453V40.4749H21.2703V40.4141H21.1485V40.3532H21.0267V40.2923H20.8441V40.2314H20.7223V40.1705H20.6005V40.1096H20.4179V40.0487H20.2961V39.9878H20.1743V39.927H20.0526V39.8661H19.9917V39.8052H19.8699V39.7443H19.7481V39.6834H19.6263V39.6225H19.5655V39.5616H19.4437V39.5007H19.3219V39.4399H19.2001V39.379H19.0784V39.3181H19.0175V39.2572H18.9566V39.1963H18.8348V39.1354H18.7739V39.0745H18.6522V39.0137H18.5913V38.9528H18.5304V38.8919H18.4086V38.831H18.3477V38.7701H18.2868V38.7092H18.1651V38.6483H18.1042V38.5266H18.5913V38.5874H19.2001V38.6483H19.9308V38.7092H20.6005V38.7701H21.3921V38.831H22.1836V38.8919H23.036V38.9528H23.9493V39.0137H25.1062V39.0745H26.263V39.1354H27.8461V39.1963H29.7336V40.0487H29.7945V41.0838H29.8554V41.9362H29.9163V42.7278H29.9772V43.3366H30.038V44.0064H30.0989V44.6153H30.1598V45.1024H30.2207V45.5895H30.2816V46.1374H30.3425V46.5637H30.4034V46.9899H30.4643V47.4161H30.5251V47.8423H30.586V48.2685H30.6469V48.6338H30.7078V48.9991H30.7687V49.3645H30.8296V49.7298H30.8905V50.0951H30.9514V50.3995H31.0122V50.704H31.0731V51.0084H31.134V51.3129H31.1949V51.6173H31.2558V51.9217H31.3167V52.2262H31.3776V52.4697H31.4385V52.7741H31.4993V53.0177H31.5602V53.3221H31.6211V53.5657H31.682V53.8092H31.7429V54.0528H31.8038V54.2354H31.8647V54.479H31.9256V54.7225H31.9864V54.9661H32.0473V55.2096H32.1082V55.3923H32.1691V55.575H32.23V55.8185H32.2909V56.0012H32.3518V56.2447H32.4126V56.4274H32.4735V56.61H32.5344V56.7927H32.5953V56.9754H32.6562V57.158H32.7171V57.3407H32.778V57.5233H32.8389V57.706H32.8997V57.8887H32.9606V58.0104H33.0215V58.1931H33.0824V58.3149H33.1433V58.4975H33.2042V58.6193H33.2651V58.802H33.326V58.9238H33.3868V59.1064H33.4477V59.2282H33.5086V59.4108H33.5695V59.5326H33.6304V59.6544H33.6913V59.7762H33.7522V59.8979H33.8131V60.0197H33.8739V60.1415H33.9348V60.2633H33.9957V60.385H34.0566V60.5068H34.1175V60.6286H34.1784V60.7504H34.2393V60.8113H34.3001V60.933H34.361V61.0548H34.4219V61.1766H34.4828V61.2375H34.5437V61.3592H34.6046V61.4201H34.6655V61.5419H34.7264V61.6028H34.7872V61.7246H34.8481V61.7854H34.909V61.8463H34.9699V61.9681H35.0308V62.029H35.0917V62.0899H35.1526V62.2117H35.2135V62.2725H35.2743V62.3334H35.3352V62.3943H35.3961V62.4552H35.457V62.5161H35.5179V62.577H35.5788V62.6379H35.6397V62.6988H35.7006V62.7596H35.7614V62.8205H35.8223V62.8814H35.8832V62.9423H35.9441V63.0032H36.005V63.0641H36.1268V63.125H36.2485V63.1859H36.3094V63.2467H36.4312V63.3076H36.553V63.3685H36.6139V63.4294H36.7356V63.4903H36.8574V63.5512H36.9792V63.6121H37.101V63.6729H37.2227V63.7338H37.4054V63.7947H37.5272V63.8556H37.6489V63.9165H37.7707V63.9774H37.9534V64.0383H38.0752V64.0992H38.1969V64.16H38.3796V64.2209H38.6231V64.2818H38.8058V64.3427H38.9885V64.4036H39.1711V64.4645H39.3538V64.5254H39.5364V64.5863H39.7191V64.6471H39.9018V64.708H40.1453V64.7689H40.3889V64.8298H40.6324V64.8907H40.876V64.9516H41.1195V65.0125H41.3631V65.0734H41.6066V65.1342H41.8502V65.1951H42.1546V65.256H42.459V65.3169H42.7635V65.3778H43.0679V65.4387H43.3723V65.4996H43.6768V65.5605H43.9812V65.6213H44.3465V65.6822H44.7119V65.7431H45.0772V65.804H45.4425V65.8649H45.8687V65.9258H46.234V65.9867H46.5994V66.0475H47.0256V66.1084H47.5127V66.1693H47.9389V66.2302H48.426V66.2911H48.8522V66.352H49.3393V66.4129H49.8873V66.4738H50.4352V66.5346H50.9223V66.5955H51.5312V66.6564H51.9574V66.7173H51.8965V66.7782H51.7748V66.8391H51.7139V66.9H51.5921V66.9609H51.4703V67.0217H51.4094V67.0826H51.2877V67.1435H51.1659V67.2044H51.0441V67.2653H50.9832V67.3262H50.8615V67.3871H50.7397V67.448H50.6179V67.5088H50.4961V67.5697H50.3744V67.6306H50.2526V67.6915H50.1308V67.7524H50.009V67.8133H49.8873V67.8742H49.7655V67.9351H49.6437V67.9959H49.5219V68.0568H49.4002V68.1177H49.2784V68.1786H49.1566V68.2395H49.0957V68.3004H48.974V68.3613H48.8522V68.4221H48.7304V68.483H48.6086V68.5439H48.4869V68.6048H48.3651V68.6657H48.2433V68.7266H48.1215V68.7875H47.9389V68.8484H47.8171V68.9092H47.6953V68.9701H47.5127V69.031H47.3909V69.0919H47.2691V69.1528H47.0865V69.2137H46.9647V69.2746H46.8429V69.3355H46.6602V69.3963H46.5385V69.4572H46.4167V69.5181H46.2949V69.579H46.1123V69.6399H45.9905V69.7008H45.8687V69.7617H45.686V69.8226H45.5643V69.8834H45.4425V69.9443H45.2598V70.0052H45.1381V70.0661H45.0163V70.127H44.8336V70.1879H44.7119V70.2488H44.5901V70.3096H44.4074V70.3705H44.2248V70.4314H44.0421V70.4923H43.8594V70.5532H43.6768V70.6141H43.4941V70.675H43.3114V70.7359H43.1288V70.7967H42.9461V70.8576H42.7635V70.9185H42.5808V70.9794H42.3981V71.0403H42.2155V71.1012H42.0328V71.1621H41.8502V71.223H41.6675V71.2838H41.4848V71.3447H41.3631V71.4056H41.1804V71.4665H40.9977V71.5274H40.8151V71.5883H40.5715V71.6492H40.328V71.7101H40.0844V71.7709H39.8409V71.8318H39.5973V71.8927H39.3538V71.9536H39.1102V72.0145H38.9276V72.0754H38.684V72.1363H38.4405V72.1972H38.1969V72.258H37.9534V72.3189H37.6489V72.3798H37.3445V72.4407H36.9792V72.5016H36.7356ZM72.6591 19.7124V19.5298H72.7199V19.2253H72.7808V18.9818H72.8417V18.6773H72.9026V18.3729H72.9635V18.0076H73.0244V17.6423H73.0853V17.216H73.1462V16.7898H73.207V16.3636H75.7643V16.3027H80.8179V18.9209H80.757V19.5298H78.1998V19.5906H75.5208V19.6515H73.3288V19.7124" fill="url(#paint6_linear_312_440)"/>
</g>
</g>
<mask id="mask12_312_440" style="mask-type:luminance" maskUnits="userSpaceOnUse" x="16" y="16" width="133" height="59">
<path d="M141.683 55.2515C142.016 55.0518 143.015 54.8423 144.252 54.614C145.896 54.3096 147.184 53.0029 147.447 51.3511C149.182 40.4791 149.13 28.1433 146.51 24.8572C141.702 18.8258 107.818 16.3044 82.4921 16.3044C57.1661 16.3044 23.2806 18.8258 18.4739 24.8572C17.9312 25.5386 17.4988 26.609 17.1699 27.9747C16.5255 30.6476 18.3262 33.3029 21.0326 33.79C23.1418 34.1693 25.0396 34.5024 25.562 34.8166C26.2951 35.2562 20.6877 35.5801 17.3121 35.7323C16.7779 35.7567 16.3541 36.1926 16.3519 36.7278C16.35 37.3616 16.3562 38.0089 16.3707 38.6665C16.394 39.6985 17.1442 40.5746 18.1598 40.7573C19.1304 40.9321 19.9725 41.0879 20.2176 41.2347C20.2932 41.2803 20.2356 41.3236 20.0815 41.3631C18.0306 41.8977 16.6109 43.7578 16.824 45.8664C17.8137 55.6515 20.3013 65.6565 23.75 68.6162C30.7509 74.6246 75.0195 74.9783 82.3856 74.5899C82.4599 74.5856 82.5238 74.5856 82.5981 74.5899C89.9642 74.9783 134.233 74.6246 141.234 68.6162C142.889 67.1957 144.323 64.1502 145.476 60.2857C146.122 58.1205 144.705 55.9018 142.469 55.5699C141.827 55.4744 141.489 55.3678 141.683 55.2515Z" fill="white"/>
</mask>
<g mask="url(#mask12_312_440)">
<mask id="mask13_312_440" style="mask-type:luminance" maskUnits="userSpaceOnUse" x="29" y="19" width="52" height="48">
<path d="M51.9035 66.6989C44.3657 65.933 37.9379 64.728 35.78 62.8758C32.3527 59.9337 30.0682 48.6063 29.6943 39.2492C30.4512 39.2632 31.2189 39.2711 31.9916 39.2711C48.7514 39.2717 68.7346 35.7482 72.691 19.6721C75.4133 19.5784 78.113 19.5169 80.7373 19.487C79.7162 40.3506 67.1923 57.7674 51.9035 66.6989Z" fill="white"/>
</mask>
<g mask="url(#mask13_312_440)">
<path d="M51.4714 66.7172V66.6563H50.8626V66.5954H50.3755V66.5346H49.8275V66.4737H49.2795V66.4128H48.7924V66.3519H48.3662V66.291H47.8791V66.2301H47.4529V66.1692H47.0267V66.1084H46.5396V66.0475H46.1742V65.9866H45.8089V65.9257H45.3827V65.8648H45.0174V65.8039H44.6521V65.743H44.2867V65.6821H43.9214V65.6213H43.617V65.5604H43.3126V65.4995H43.0081V65.4386H42.7037V65.3777H42.3992V65.3168H42.0948V65.2559H41.7904V65.195H41.5468V65.1342H41.3033V65.0733H41.0597V65.0124H40.8162V64.9515H40.5726V64.8906H40.3291V64.8297H40.0855V64.7688H39.842V64.7079H39.6593V64.6471H39.4767V64.5862H39.294V64.5253H39.1113V64.4644H38.9287V64.4035H38.746V64.3426H38.5634V64.2817H38.3198V64.2209H38.1371V64.16H38.0154V64.0991H37.8936V64.0382H37.7109V63.9773H37.5892V63.9164H37.4674V63.8555H37.3456V63.7946H37.1629V63.7338H37.0412V63.6729H36.9194V63.612H36.7976V63.5511H36.6759V63.4902H36.5541V63.4293H36.4932V63.3684H36.3714V63.3075H36.2496V63.2467H36.1888V63.1858H36.067V63.1249H35.9452V63.064H35.8843V63.0031H35.8234V62.9422H35.7625V62.8813H35.7017V62.8204H35.6408V62.7596H35.5799V62.6987H35.519V62.6378H35.4581V62.5769H35.3972V62.516H35.3363V62.4551H35.2754V62.3942H35.2146V62.3333H35.1537V62.2725H35.0928V62.1507H35.0319V62.0898H34.971V62.0289H34.9101V61.9071H34.8492V61.8463H34.7883V61.7854H34.7275V61.6636H34.6666V61.6027H34.6057V61.4809H34.5448V61.42H34.4839V61.2983H34.423V61.1765H34.3621V61.1156H34.3013V60.9938H34.2404V60.8721H34.1795V60.8112H34.1186V60.6894H34.0577V60.5676H33.9968V60.4458H33.9359V60.3241H33.875V60.2023H33.8142V60.0805H33.7533V59.9587H33.6924V59.837H33.6315V59.7152H33.5706V59.5934H33.5097V59.4717H33.4488V59.289H33.3879V59.1672H33.3271V58.9846H33.2662V58.8628H33.2053V58.6801H33.1444V58.5583H33.0835V58.3757H33.0226V58.2539H32.9617V58.0712H32.9008V57.9495H32.84V57.7668H32.7791V57.5842H32.7182V57.4015H32.6573V57.2188H32.5964V57.0362H32.5355V56.8535H32.4746V56.6708H32.4138V56.4882H32.3529V56.3055H32.292V56.062H32.2311V55.8793H32.1702V55.6358H32.1093V55.4531H32.0484V55.2704H31.9875V55.0269H31.9267V54.7833H31.8658V54.5398H31.8049V54.2962H31.744V54.1136H31.6831V53.87H31.6222V53.6265H31.5613V53.3829H31.5004V53.0785H31.4396V52.835H31.3787V52.5305H31.3178V52.287H31.2569V51.9825H31.196V51.6781H31.1351V51.3737H31.0742V51.0692H31.0133V50.7648H30.9525V50.4604H30.8916V50.1559H30.8307V49.7906H30.7698V49.4253H30.7089V49.0599H30.648V48.6946H30.5871V48.3293H30.5262V47.9031H30.4654V47.4769H30.4045V47.0507H30.3436V46.6245H30.2827V46.1983H30.2218V45.6503H30.1609V45.1632H30.1V44.6761H30.0392V44.0063H29.9783V43.3974H29.9174V42.7886H29.8565V41.9362H29.7956V41.1446H29.7347V40.1095H29.6738V39.1962H30.2827V39.2571H33.6924V39.1962H36.0061V39.1353H37.4674V39.0745H38.5634V39.0136H39.4767V38.9527H40.2682V38.8918H40.9988V38.8309H41.6686V38.77H42.2775V38.7091H42.8863V38.6482H43.4343V38.5874H43.9214V38.5265H44.4085V38.4656H44.8956V38.4047H45.2609V38.3438H45.6871V38.2829H46.1134V38.222H46.5396V38.1611H46.844V38.1003H47.2093V38.0394H47.5747V37.9785H47.94V37.9176H48.2444V37.8567H48.5488V37.7958H48.9142V37.7349H49.2186V37.6741H49.523V37.6132H49.8275V37.5523H50.071V37.4914H50.3146V37.4305H50.619V37.3696H50.8626V37.3087H51.167V37.2478H51.4105V37.187H51.6541V37.1261H51.8976V37.0652H52.1412V37.0043H52.3847V36.9434H52.6283V36.8825H52.8109V36.8216H53.0545V36.7607H53.2372V36.6999H53.4807V36.639H53.6634V36.5781H53.9069V36.5172H54.0896V36.4563H54.3331V36.3954H54.5158V36.3345H54.6984V36.2736H54.8811V36.2128H55.0638V36.1519H55.2464V36.091H55.4291V36.0301H55.6118V35.9692H55.7944V35.9083H55.9771V35.8474H56.1597V35.7866H56.3424V35.7257H56.4642V35.6648H56.6468V35.6039H56.8295V35.543H57.0122V35.4821H57.1339V35.4212H57.3166V35.3603H57.4384V35.2995H57.621V35.2386H57.7428V35.1777H57.9255V35.1168H58.0472V35.0559H58.2299V34.995H58.3517V34.9341H58.5343V34.8732H58.6561V34.8124H58.7779V34.7515H58.8997V34.6906H59.0823V34.6297H59.2041V34.5688H59.3259V34.5079H59.4476V34.447H59.5694V34.3861H59.7521V34.3253H59.8739V34.2644H59.9956V34.2035H60.1174V34.1426H60.2392V34.0817H60.361V34.0208H60.4827V33.9599H60.6045V33.899H60.7263V33.8382H60.8481V33.7773H60.9698V33.7164H61.0916V33.6555H61.2134V33.5946H61.2743V33.5337H61.396V33.4728H61.5178V33.4119H61.6396V33.3511H61.7614V33.2902H61.8222V33.2293H61.944V33.1684H62.0658V33.1075H62.1876V33.0466H62.2485V32.9857H62.3702V32.9249H62.492V32.864H62.5529V32.8031H62.6747V32.7422H62.7964V32.6813H62.8573V32.6204H62.9791V32.5595H63.04V32.4986H63.1618V32.4378H63.2835V32.3769H63.3444V32.316H63.4662V32.2551H63.5271V32.1942H63.6489V32.1333H63.7097V32.0724H63.8315V32.0115H63.8924V31.9507H64.0142V31.8898H64.0751V31.8289H64.136V31.768H64.2577V31.7071H64.3186V31.6462H64.4404V31.5853H64.5013V31.5244H64.5622V31.4636H64.6839V31.4027H64.7448V31.3418H64.8666V31.2809H64.9275V31.22H64.9884V31.1591H65.0493V31.0982H65.171V31.0374H65.2319V30.9765H65.2928V30.9156H65.3537V30.8547H65.4755V30.7938H65.5364V30.7329H65.5972V30.672H65.6581V30.6111H65.7799V30.5503H65.8408V30.4894H65.9017V30.4285H65.9626V30.3676H66.0235V30.3067H66.1452V30.2458H66.2061V30.1849H66.267V30.124H66.3279V30.0632H66.3888V30.0023H66.4497V29.9414H66.5106V29.8805H66.5714V29.8196H66.6323V29.7587H66.6932V29.6978H66.815V29.6369H66.8759V29.5761H66.9368V29.5152H66.9977V29.4543H67.0585V29.3934H67.1194V29.3325H67.1803V29.2716H67.2412V29.2107H67.3021V29.1498H67.363V29.089H67.4239V29.0281H67.4848V28.9672H67.5456V28.9063H67.6065V28.8454H67.6674V28.7845H67.7283V28.7236H67.7892V28.6628H67.8501V28.6019H67.911V28.4801H67.9718V28.4192H68.0327V28.3583H68.0936V28.2974H68.1545V28.2365H68.2154V28.1757H68.2763V28.1148H68.3372V27.993H68.3981V27.9321H68.4589V27.8712H68.5198V27.8103H68.5807V27.7494H68.6416V27.6277H68.7025V27.5668H68.7634V27.5059H68.8243V27.445H68.8852V27.3841H68.946V27.2623H69.0069V27.2015H69.0678V27.1406H69.1287V27.0188H69.1896V26.9579H69.2505V26.897H69.3114V26.7752H69.3723V26.7144H69.4331V26.5926H69.494V26.5317H69.5549V26.4708H69.6158V26.349H69.6767V26.2882H69.7376V26.1664H69.7985V26.1055H69.8593V25.9837H69.9202V25.9228H69.9811V25.8011H70.042V25.7402H70.1029V25.6184H70.1638V25.4966H70.2247V25.4357H70.2856V25.314H70.3464V25.2531H70.4073V25.1313H70.4682V25.0095H70.5291V24.9486H70.59V24.8269H70.6509V24.7051H70.7118V24.5833H70.7727V24.4615H70.8335V24.3398H70.8944V24.218H70.9553V24.1571H71.0162V24.0353H71.0771V23.9136H71.138V23.7918H71.1989V23.67H71.2598V23.4873H71.3206V23.3656H71.3815V23.2438H71.4424V23.122H71.5033V22.9394H71.5642V22.8176H71.6251V22.6958H71.686V22.574H71.7469V22.3914H71.8077V22.2087H71.8686V22.0869H71.9295V21.9043H71.9904V21.7216H72.0513V21.539H72.1122V21.4172H72.1731V21.2345H72.2339V21.0519H72.2948V20.8692H72.3557V20.6256H72.4166V20.443H72.4775V20.1994H72.5384V20.0168H72.5993V19.7732H72.6602V19.6515H73.269V19.5906H75.461V19.5297H78.14V19.4688H80.7582V20.3821H80.6973V21.0519H80.6364V21.7216H80.5755V22.3305H80.5146V23.0002H80.4537V23.5482H80.3928V23.9136H80.3319V24.3398H80.2711V24.7051H80.2102V25.1313H80.1493V25.4966H80.0884V25.9228H80.0275V26.2882H79.9666V26.7144H79.9057V27.0797H79.8448V27.3841H79.784V27.6886H79.7231V27.9321H79.6622V28.2365H79.6013V28.4801H79.5404V28.7236H79.4795V29.0281H79.4186V29.2716H79.3577V29.5761H79.2969V29.8196H79.236V30.124H79.1751V30.3676H79.1142V30.672H79.0533V30.9156H78.9924V31.0982H78.9315V31.3418H78.8706V31.5244H78.8098V31.768H78.7489V31.9507H78.688V32.1333H78.6271V32.3769H78.5662V32.5595H78.5053V32.7422H78.4444V32.9857H78.3836V33.1684H78.3227V33.4119H78.2618V33.5946H78.2009V33.7773H78.14V34.0208H78.0791V34.2035H78.0182V34.447H77.9573V34.5688H77.8965V34.7515H77.8356V34.9341H77.7747V35.1168H77.7138V35.2386H77.6529V35.4212H77.592V35.6039H77.5311V35.7257H77.4702V35.9083H77.4094V36.091H77.3485V36.2736H77.2876V36.3954H77.2267V36.5781H77.1658V36.7607H77.1049V36.9434H77.044V37.0652H76.9831V37.2478H76.9223V37.4305H76.8614V37.5523H76.8005V37.7349H76.7396V37.9176H76.6787V38.0394H76.6178V38.1611H76.5569V38.3438H76.496V38.4656H76.4352V38.5874H76.3743V38.77H76.3134V38.8918H76.2525V39.0136H76.1916V39.1353H76.1307V39.318H76.0698V39.4398H76.009V39.5616H75.9481V39.6833H75.8872V39.866H75.8263V39.9878H75.7654V40.1095H75.7045V40.2313H75.6436V40.414H75.5827V40.5357H75.5219V40.6575H75.461V40.8402H75.4001V40.962H75.3392V41.0837H75.2783V41.2055H75.2174V41.3273H75.1565V41.4491H75.0956V41.5708H75.0348V41.6926H74.9739V41.8144H74.913V41.9362H74.8521V42.0579H74.7912V42.1797H74.7303V42.3015H74.6694V42.4233H74.6085V42.545H74.5477V42.6668H74.4868V42.7886H74.4259V42.8495H74.365V42.9712H74.3041V43.093H74.2432V43.2148H74.1823V43.3366H74.1215V43.4583H74.0606V43.5801H73.9997V43.7019H73.9388V43.8237H73.8779V43.9454H73.817V44.0672H73.7561V44.189H73.6952V44.3108H73.6344V44.4325H73.5735V44.4934H73.5126V44.6152H73.4517V44.737H73.3908V44.7978H73.3299V44.9196H73.269V45.0414H73.2081V45.1023H73.1473V45.2241H73.0864V45.3458H73.0255V45.4067H72.9646V45.5285H72.9037V45.6503H72.8428V45.772H72.7819V45.8329H72.721V45.9547H72.6602V46.0765H72.5993V46.1374H72.5384V46.2591H72.4775V46.3809H72.4166V46.4418H72.3557V46.5636H72.2948V46.6854H72.2339V46.7462H72.1731V46.868H72.1122V46.9898H72.0513V47.0507H71.9904V47.1724H71.9295V47.2942H71.8686V47.3551H71.8077V47.4769H71.7469V47.5987H71.686V47.6595H71.6251V47.7813H71.5642V47.8422H71.5033V47.964H71.4424V48.0249H71.3815V48.0858H71.3206V48.2075H71.2598V48.2684H71.1989V48.3902H71.138V48.4511H71.0771V48.5729H71.0162V48.6337H70.9553V48.7555H70.8944V48.8164H70.8335V48.9382H70.7727V48.9991H70.7118V49.1208H70.6509V49.1817H70.59V49.2426H70.5291V49.3644H70.4682V49.4253H70.4073V49.547H70.3464V49.6079H70.2856V49.7297H70.2247V49.7906H70.1638V49.9124H70.1029V49.9733H70.042V50.095H69.9811V50.1559H69.9202V50.2777H69.8593V50.3386H69.7985V50.4604H69.7376V50.5212H69.6767V50.5821H69.6158V50.7039H69.5549V50.7648H69.494V50.8257H69.4331V50.9475H69.3723V51.0083H69.3114V51.0692H69.2505V51.1301H69.1896V51.2519H69.1287V51.3128H69.0678V51.3737H69.0069V51.4954H68.946V51.5563H68.8852V51.6172H68.8243V51.6781H68.7634V51.7999H68.7025V51.8608H68.6416V51.9216H68.5807V52.0434H68.5198V52.1043H68.4589V52.1652H68.3981V52.2261H68.3372V52.3479H68.2763V52.4087H68.2154V52.4696H68.1545V52.5914H68.0936V52.6523H68.0327V52.7132H67.9718V52.835H67.911V52.8958H67.8501V52.9567H67.7892V53.0176H67.7283V53.1394H67.6674V53.2003H67.6065V53.2612H67.5456V53.3829H67.4848V53.4438H67.4239V53.5047H67.363V53.5656H67.3021V53.6265H67.2412V53.6874H67.1803V53.7483H67.1194V53.87H67.0585V53.9309H66.9977V53.9918H66.9368V54.0527H66.8759V54.1136H66.815V54.1745H66.7541V54.2962H66.6932V54.3571H66.6323V54.418H66.5714V54.4789H66.5106V54.5398H66.4497V54.6007H66.3888V54.6616H66.3279V54.7833H66.267V54.8442H66.2061V54.9051H66.1452V54.966H66.0843V55.0269H66.0235V55.0878H65.9626V55.1487H65.9017V55.2704H65.8408V55.3313H65.7799V55.3922H65.719V55.4531H65.6581V55.514H65.5972V55.5749H65.5364V55.6358H65.4755V55.7575H65.4146V55.8184H65.3537V55.8793H65.2928V55.9402H65.2319V56.0011H65.171V56.062H65.1102V56.1229H65.0493V56.1837H64.9884V56.2446H64.9275V56.3055H64.8666V56.3664H64.8057V56.4273H64.7448V56.4882H64.6839V56.5491H64.6231V56.61H64.5622V56.6708H64.5013V56.7317H64.4404V56.7926H64.3795V56.8535H64.3186V56.9753H64.2577V57.0362H64.1968V57.0971H64.136V57.1579H64.0751V57.2188H64.0142V57.2797H63.9533V57.3406H63.8924V57.4015H63.8315V57.4624H63.7706V57.5233H63.7097V57.5842H63.6489V57.645H63.588V57.7059H63.5271V57.7668H63.4662V57.8277H63.4053V57.8886H63.3444V57.9495H63.2835V58.0104H63.2226V58.0712H63.1618V58.1321H63.1009V58.193H63.04V58.2539H62.9791V58.3148H62.9182V58.3757H62.8573V58.4366H62.7964V58.4975H62.7356V58.5583H62.6747V58.6192H62.6138V58.6801H62.5529V58.741H62.492V58.8019H62.4311V58.8628H62.3093V58.9237H62.2485V58.9846H62.1876V59.0454H62.1267V59.1063H62.0658V59.1672H62.0049V59.2281H61.944V59.289H61.8831V59.3499H61.8222V59.4108H61.7005V59.4717H61.6396V59.5325H61.5787V59.5934H61.5178V59.6543H61.4569V59.7152H61.396V59.7761H61.3351V59.837H61.2743V59.8979H61.2134V59.9587H61.1525V60.0196H61.0307V60.0805H60.9698V60.1414H60.9089V60.2023H60.8481V60.2632H60.7872V60.3241H60.7263V60.385H60.6654V60.4458H60.6045V60.5067H60.5436V60.5676H60.4827V60.6285H60.361V60.6894H60.3001V60.7503H60.2392V60.8112H60.1783V60.8721H60.1174V60.9329H60.0565V60.9938H59.9347V61.0547H59.8739V61.1156H59.813V61.1765H59.7521V61.2374H59.6303V61.2983H59.5694V61.3592H59.5085V61.42H59.4476V61.4809H59.3868V61.5418H59.265V61.6027H59.2041V61.6636H59.1432V61.7245H59.0823V61.7854H58.9605V61.8463H58.8997V61.9071H58.8388V61.968H58.7779V62.0289H58.6561V62.0898H58.5952V62.1507H58.5343V62.2116H58.4735V62.2725H58.3517V62.3333H58.2908V62.3942H58.2299V62.4551H58.169V62.516H58.0472V62.5769H57.9864V62.6378H57.9255V62.6987H57.8646V62.7596H57.7428V62.8204H57.6819V62.8813H57.621V62.9422H57.5601V63.0031H57.4384V63.064H57.3775V63.1249H57.3166V63.1858H57.1948V63.2467H57.1339V63.3075H57.0122V63.3684H56.9513V63.4293H56.8904V63.4902H56.7686V63.5511H56.7077V63.612H56.586V63.6729H56.5251V63.7338H56.4642V63.7946H56.3424V63.8555H56.2815V63.9164H56.1597V63.9773H56.0989V64.0382H56.038V64.0991H55.9162V64.16H55.8553V64.2209H55.7335V64.2817H55.6726V64.3426H55.6118V64.4035H55.49V64.4644H55.4291V64.5253H55.3073V64.5862H55.2464V64.6471H55.1855V64.7079H55.0638V64.7688H55.0029V64.8297H54.8811V64.8906H54.8202V64.9515H54.6984V65.0124H54.6376V65.0733H54.5158V65.1342H54.4549V65.195H54.3331V65.2559H54.2722V65.3168H54.1505V65.3777H54.0896V65.4386H53.9678V65.4995H53.846V65.5604H53.7851V65.6213H53.6634V65.6821H53.6025V65.743H53.4807V65.8039H53.4198V65.8648H53.298V65.9257H53.1763V65.9866H53.1154V66.0475H52.9936V66.1084H52.9327V66.1692H52.8109V66.2301H52.7501V66.291H52.6283V66.3519H52.5065V66.4128H52.4456V66.4737H52.3238V66.5346H52.2021V66.5954H52.1412V66.6563H52.0194V66.7172" fill="url(#paint7_linear_312_440)"/>
</g>
</g>
<mask id="mask14_312_440" style="mask-type:luminance" maskUnits="userSpaceOnUse" x="16" y="16" width="133" height="59">
<path d="M141.683 55.2515C142.016 55.0518 143.015 54.8423 144.252 54.614C145.896 54.3096 147.184 53.0029 147.447 51.3511C149.182 40.4791 149.13 28.1433 146.51 24.8572C141.702 18.8258 107.818 16.3044 82.4921 16.3044C57.1661 16.3044 23.2806 18.8258 18.4739 24.8572C17.9312 25.5386 17.4988 26.609 17.1699 27.9747C16.5255 30.6476 18.3262 33.3029 21.0326 33.79C23.1418 34.1693 25.0396 34.5024 25.562 34.8166C26.2951 35.2562 20.6877 35.5801 17.3121 35.7323C16.7779 35.7567 16.3541 36.1926 16.3519 36.7278C16.35 37.3616 16.3562 38.0089 16.3707 38.6665C16.394 39.6985 17.1442 40.5746 18.1598 40.7573C19.1304 40.9321 19.9725 41.0879 20.2176 41.2347C20.2932 41.2803 20.2356 41.3236 20.0815 41.3631C18.0306 41.8977 16.6109 43.7578 16.824 45.8664C17.8137 55.6515 20.3013 65.6565 23.75 68.6162C30.7509 74.6246 75.0195 74.9783 82.3856 74.5899C82.4599 74.5856 82.5238 74.5856 82.5981 74.5899C89.9642 74.9783 134.233 74.6246 141.234 68.6162C142.889 67.1957 144.323 64.1502 145.476 60.2857C146.122 58.1205 144.705 55.9018 142.469 55.5699C141.827 55.4744 141.489 55.3678 141.683 55.2515Z" fill="white"/>
</mask>
<g mask="url(#mask14_312_440)">
<mask id="mask15_312_440" style="mask-type:luminance" maskUnits="userSpaceOnUse" x="17" y="35" width="3" height="1">
<path d="M18.158 35.7937C17.8107 35.7852 17.5234 35.7651 17.3115 35.7322C17.86 35.7072 18.4674 35.678 19.097 35.6445C18.7569 35.6871 18.4424 35.7359 18.158 35.7937Z" fill="white"/>
</mask>
<g mask="url(#mask15_312_440)">
<path d="M17.9204 35.8474V35.7865H17.3115V35.7256H17.4333V35.6647H18.7119V35.6038H19.1381V35.6647H18.9555V35.7256H18.5902V35.7865H18.2248V35.8474" fill="url(#paint8_linear_312_440)"/>
</g>
</g>
<mask id="mask16_312_440" style="mask-type:luminance" maskUnits="userSpaceOnUse" x="16" y="16" width="133" height="59">
<path d="M141.683 55.2515C142.016 55.0518 143.015 54.8423 144.252 54.614C145.896 54.3096 147.184 53.0029 147.447 51.3511C149.182 40.4791 149.13 28.1433 146.51 24.8572C141.702 18.8258 107.818 16.3044 82.4921 16.3044C57.1661 16.3044 23.2806 18.8258 18.4739 24.8572C17.9312 25.5386 17.4988 26.609 17.1699 27.9747C16.5255 30.6476 18.3262 33.3029 21.0326 33.79C23.1418 34.1693 25.0396 34.5024 25.562 34.8166C26.2951 35.2562 20.6877 35.5801 17.3121 35.7323C16.7779 35.7567 16.3541 36.1926 16.3519 36.7278C16.35 37.3616 16.3562 38.0089 16.3707 38.6665C16.394 39.6985 17.1442 40.5746 18.1598 40.7573C19.1304 40.9321 19.9725 41.0879 20.2176 41.2347C20.2932 41.2803 20.2356 41.3236 20.0815 41.3631C18.0306 41.8977 16.6109 43.7578 16.824 45.8664C17.8137 55.6515 20.3013 65.6565 23.75 68.6162C30.7509 74.6246 75.0195 74.9783 82.3856 74.5899C82.4599 74.5856 82.5238 74.5856 82.5981 74.5899C89.9642 74.9783 134.233 74.6246 141.234 68.6162C142.889 67.1957 144.323 64.1502 145.476 60.2857C146.122 58.1205 144.705 55.9018 142.469 55.5699C141.827 55.4744 141.489 55.3678 141.683 55.2515Z" fill="white"/>
</mask>
<g mask="url(#mask16_312_440)">
<mask id="mask17_312_440" style="mask-type:luminance" maskUnits="userSpaceOnUse" x="17" y="25" width="13" height="11">
<path d="M23.8745 35.2933C24.923 35.1764 25.6281 35.0431 25.6287 34.8951C25.6293 34.8696 25.608 34.8434 25.5635 34.8166C25.0411 34.5024 23.1433 34.1694 21.0341 33.79C18.6978 33.3693 17.0362 31.3332 17.04 29.0646C17.0407 28.7054 17.0831 28.34 17.1713 27.9747C17.3887 27.0717 17.6515 26.2979 17.9615 25.6805C17.9626 25.6793 17.9641 25.6786 17.9652 25.6774C19.0467 31.0605 27.4717 33.9149 29.6813 34.4939C29.6795 34.5475 29.6771 34.601 29.6752 34.6546C27.6477 35.0047 25.6652 35.174 23.8745 35.2933ZM29.5675 34.8202C29.6022 34.8044 29.6369 34.7886 29.671 34.7722C29.671 34.7813 29.6704 34.791 29.6704 34.8002C29.6375 34.8069 29.6034 34.8135 29.5675 34.8202Z" fill="white"/>
</mask>
<g mask="url(#mask17_312_440)">
<path d="M23.8282 35.2994V35.2385H24.3152V35.1776H24.7415V35.1167H25.0459V35.0558H25.2894V34.9949H25.4721V34.9341H25.5939V34.8732H25.533V34.8123H25.4112V34.7514H25.2286V34.6905H25.0459V34.6296H24.8632V34.5687H24.6197V34.5078H24.3761V34.447H24.1326V34.3861H23.8282V34.3252H23.5237V34.2643H23.2193V34.2034H22.9148V34.1425H22.6104V34.0816H22.306V34.0207H21.9406V33.9599H21.6362V33.899H21.2709V33.8381H20.9056V33.7772H20.662V33.7163H20.4794V33.6554H20.2967V33.5945H20.114V33.5337H19.9923V33.4728H19.8705V33.4119H19.7487V33.351H19.6269V33.2901H19.5052V33.2292H19.3834V33.1683H19.2616V33.1074H19.2007V33.0466H19.079V32.9857H19.0181V32.9248H18.9572V32.8639H18.8354V32.803H18.7745V32.7421H18.7136V32.6812H18.6527V32.6203H18.5919V32.5595H18.531V32.4986H18.4701V32.4377H18.4092V32.3768H18.3483V32.3159H18.2874V32.255H18.2265V32.1941H18.1656V32.1332H18.1048V32.0724H18.0439V31.9506H17.983V31.8897H17.9221V31.8288H17.8612V31.707H17.8003V31.6461H17.7394V31.5244H17.6785V31.4026H17.6177V31.2808H17.5568V31.2199H17.4959V31.0982H17.435V30.9155H17.3741V30.7937H17.3132V30.6111H17.2523V30.4284H17.1915V30.1849H17.1306V30.0022H17.0697V29.3324H17.0088V28.7236H17.0697V28.1756H17.1306V27.8711H17.1915V27.6276H17.2523V27.4449H17.3132V27.2014H17.3741V27.0187H17.435V26.8361H17.4959V26.6534H17.5568V26.4707H17.6177V26.349H17.6785V26.1663H17.7394V26.0445H17.8003V25.8619H17.8612V25.7401H17.9221V25.6183H17.983V25.7401H18.0439V25.9836H18.1048V26.1663H18.1656V26.349H18.2265V26.5316H18.2874V26.7143H18.3483V26.8361H18.4092V26.9578H18.4701V27.0796H18.531V27.2014H18.5919V27.3232H18.6527V27.4449H18.7136V27.5667H18.7745V27.6885H18.8354V27.7494H18.8963V27.8711H18.9572V27.932H19.0181V28.0538H19.079V28.1147H19.1398V28.2365H19.2007V28.2974H19.2616V28.4191H19.3225V28.48H19.3834V28.5409H19.4443V28.6018H19.5052V28.7236H19.566V28.7845H19.6269V28.8453H19.6878V28.9062H19.7487V28.9671H19.8096V29.0889H19.8705V29.1498H19.9314V29.2107H19.9923V29.2715H20.0531V29.3324H20.114V29.3933H20.1749V29.4542H20.2358V29.5151H20.2967V29.576H20.3576V29.6369H20.4185V29.6978H20.4794V29.7586H20.5402V29.8195H20.662V29.8804H20.7229V29.9413H20.7838V30.0022H20.8447V30.0631H20.9056V30.124H20.9665V30.1849H21.0882V30.2457H21.1491V30.3066H21.21V30.3675H21.2709V30.4284H21.3318V30.4893H21.4536V30.5502H21.5144V30.6111H21.5753V30.672H21.6971V30.7328H21.758V30.7937H21.8189V30.8546H21.9406V30.9155H22.0015V30.9764H22.1233V31.0373H22.1842V31.0982H22.306V31.1591H22.3669V31.2199H22.4277V31.2808H22.5495V31.3417H22.6713V31.4026H22.7322V31.4635H22.854V31.5244H22.9148V31.5853H23.0366V31.6461H23.1584V31.707H23.2193V31.7679H23.3411V31.8288H23.4628V31.8897H23.5237V31.9506H23.6455V32.0115H23.7673V32.0724H23.889V32.1332H24.0108V32.1941H24.0717V32.255H24.1935V32.3159H24.3152V32.3768H24.437V32.4377H24.5588V32.4986H24.6806V32.5595H24.8023V32.6203H24.9241V32.6812H25.0459V32.7421H25.1677V32.803H25.2894V32.8639H25.4721V32.9248H25.5939V32.9857H25.7157V33.0466H25.8374V33.1074H25.9592V33.1683H26.1419V33.2292H26.2636V33.2901H26.3854V33.351H26.5681V33.4119H26.6898V33.4728H26.8725V33.5337H26.9943V33.5945H27.1769V33.6554H27.3596V33.7163H27.4814V33.7772H27.664V33.8381H27.8467V33.899H28.0294V33.9599H28.1511V34.0207H28.3338V34.0816H28.5165V34.1425H28.6991V34.2034H28.9427V34.2643H29.1253V34.3252H29.308V34.3861H29.5515V34.447H29.7342V34.6905H29.4907V34.7514H29.1253V34.8123H28.6991V34.8732H28.2729V34.9341H27.7858V34.9949H27.2987V35.0558H26.7507V35.1167H26.081V35.1776H25.4721V35.2385H24.6806V35.2994H23.8282ZM29.5515 34.8732V34.7514H29.6733V34.8123H29.6124V34.8732" fill="url(#paint9_linear_312_440)"/>
</g>
</g>
<mask id="mask18_312_440" style="mask-type:luminance" maskUnits="userSpaceOnUse" x="16" y="16" width="133" height="59">
<path d="M141.683 55.2515C142.016 55.0518 143.015 54.8423 144.252 54.614C145.896 54.3096 147.184 53.0029 147.447 51.3511C149.182 40.4791 149.13 28.1433 146.51 24.8572C141.702 18.8258 107.818 16.3044 82.4921 16.3044C57.1661 16.3044 23.2806 18.8258 18.4739 24.8572C17.9312 25.5386 17.4988 26.609 17.1699 27.9747C16.5255 30.6476 18.3262 33.3029 21.0326 33.79C23.1418 34.1693 25.0396 34.5024 25.562 34.8166C26.2951 35.2562 20.6877 35.5801 17.3121 35.7323C16.7779 35.7567 16.3541 36.1926 16.3519 36.7278C16.35 37.3616 16.3562 38.0089 16.3707 38.6665C16.394 39.6985 17.1442 40.5746 18.1598 40.7573C19.1304 40.9321 19.9725 41.0879 20.2176 41.2347C20.2932 41.2803 20.2356 41.3236 20.0815 41.3631C18.0306 41.8977 16.6109 43.7578 16.824 45.8664C17.8137 55.6515 20.3013 65.6565 23.75 68.6162C30.7509 74.6246 75.0195 74.9783 82.3856 74.5899C82.4599 74.5856 82.5238 74.5856 82.5981 74.5899C89.9642 74.9783 134.233 74.6246 141.234 68.6162C142.889 67.1957 144.323 64.1502 145.476 60.2857C146.122 58.1205 144.705 55.9018 142.469 55.5699C141.827 55.4744 141.489 55.3678 141.683 55.2515Z" fill="white"/>
</mask>
<g mask="url(#mask18_312_440)">
<mask id="mask19_312_440" style="mask-type:luminance" maskUnits="userSpaceOnUse" x="29" y="34" width="2" height="1">
<path d="M29.6719 34.8C29.6719 34.7909 29.6725 34.7812 29.6725 34.772C29.8028 34.7118 29.9337 34.6497 30.0664 34.5851C29.9367 34.6089 29.8064 34.632 29.6768 34.6545C29.6786 34.6009 29.681 34.5474 29.6828 34.4938C29.8472 34.537 29.9769 34.5675 30.0664 34.5851C30.2954 34.6308 30.123 34.7075 29.6719 34.8Z" fill="white"/>
</mask>
<g mask="url(#mask19_312_440)">
<path d="M29.6143 34.8123V34.7514H29.6751V34.447H29.7969V34.5079H30.0405V34.5688H30.2231V34.6297H30.1622V34.6905H30.1014V34.7514H29.9187V34.8123" fill="url(#paint10_linear_312_440)"/>
</g>
</g>
<mask id="mask20_312_440" style="mask-type:luminance" maskUnits="userSpaceOnUse" x="16" y="16" width="133" height="59">
<path d="M141.683 55.2515C142.016 55.0518 143.015 54.8423 144.252 54.614C145.896 54.3096 147.184 53.0029 147.447 51.3511C149.182 40.4791 149.13 28.1433 146.51 24.8572C141.702 18.8258 107.818 16.3044 82.4921 16.3044C57.1661 16.3044 23.2806 18.8258 18.4739 24.8572C17.9312 25.5386 17.4988 26.609 17.1699 27.9747C16.5255 30.6476 18.3262 33.3029 21.0326 33.79C23.1418 34.1693 25.0396 34.5024 25.562 34.8166C26.2951 35.2562 20.6877 35.5801 17.3121 35.7323C16.7779 35.7567 16.3541 36.1926 16.3519 36.7278C16.35 37.3616 16.3562 38.0089 16.3707 38.6665C16.394 39.6985 17.1442 40.5746 18.1598 40.7573C19.1304 40.9321 19.9725 41.0879 20.2176 41.2347C20.2932 41.2803 20.2356 41.3236 20.0815 41.3631C18.0306 41.8977 16.6109 43.7578 16.824 45.8664C17.8137 55.6515 20.3013 65.6565 23.75 68.6162C30.7509 74.6246 75.0195 74.9783 82.3856 74.5899C82.4599 74.5856 82.5238 74.5856 82.5981 74.5899C89.9642 74.9783 134.233 74.6246 141.234 68.6162C142.889 67.1957 144.323 64.1502 145.476 60.2857C146.122 58.1205 144.705 55.9018 142.469 55.5699C141.827 55.4744 141.489 55.3678 141.683 55.2515Z" fill="white"/>
</mask>
<g mask="url(#mask20_312_440)">
<path d="M16.3518 37.2332C17.4939 36.5988 18.6331 36.6609 20.0933 36.7236C22.3047 36.818 25.2529 36.9123 30.0635 34.5852C22.8582 35.9095 16.0961 34.8617 16.3518 37.2332Z" fill="#FF8C3B"/>
</g>
<mask id="mask21_312_440" style="mask-type:luminance" maskUnits="userSpaceOnUse" x="16" y="16" width="133" height="59">
<path d="M141.683 55.2515C142.016 55.0518 143.015 54.8423 144.252 54.614C145.896 54.3096 147.184 53.0029 147.447 51.3511C149.182 40.4791 149.13 28.1433 146.51 24.8572C141.702 18.8258 107.818 16.3044 82.4921 16.3044C57.1661 16.3044 23.2806 18.8258 18.4739 24.8572C17.9312 25.5386 17.4988 26.609 17.1699 27.9747C16.5255 30.6476 18.3262 33.3029 21.0326 33.79C23.1418 34.1693 25.0396 34.5024 25.562 34.8166C26.2951 35.2562 20.6877 35.5801 17.3121 35.7323C16.7779 35.7567 16.3541 36.1926 16.3519 36.7278C16.35 37.3616 16.3562 38.0089 16.3707 38.6665C16.394 39.6985 17.1442 40.5746 18.1598 40.7573C19.1304 40.9321 19.9725 41.0879 20.2176 41.2347C20.2932 41.2803 20.2356 41.3236 20.0815 41.3631C18.0306 41.8977 16.6109 43.7578 16.824 45.8664C17.8137 55.6515 20.3013 65.6565 23.75 68.6162C30.7509 74.6246 75.0195 74.9783 82.3856 74.5899C82.4599 74.5856 82.5238 74.5856 82.5981 74.5899C89.9642 74.9783 134.233 74.6246 141.234 68.6162C142.889 67.1957 144.323 64.1502 145.476 60.2857C146.122 58.1205 144.705 55.9018 142.469 55.5699C141.827 55.4744 141.489 55.3678 141.683 55.2515Z" fill="white"/>
</mask>
<g mask="url(#mask21_312_440)">
<mask id="mask22_312_440" style="mask-type:luminance" maskUnits="userSpaceOnUse" x="137" y="49" width="11" height="8">
<path d="M144.286 56.3714C141.948 55.4624 138.187 55.4423 137 55.2669C137.029 55.1634 137.058 55.0587 137.086 54.954C138.697 54.6227 144.223 54.0498 147.729 49.479C147.729 49.4796 147.73 49.4796 147.73 49.4796C147.642 50.1073 147.549 50.7314 147.45 51.3513C147.186 53.0031 145.899 54.3098 144.255 54.6142C143.018 54.8425 142.019 55.052 141.686 55.2517C141.649 55.2736 141.632 55.2949 141.632 55.3162C141.629 55.4076 141.95 55.4922 142.472 55.5701C143.168 55.6736 143.786 55.9604 144.286 56.3714Z" fill="white"/>
</mask>
<g mask="url(#mask22_312_440)">
<path d="M144.263 56.3665H144.324V56.4274H144.263V56.3665ZM144.081 56.3665V56.3056H143.898V56.2447H143.716V56.1838H143.472V56.1229H143.289V56.062H142.985V56.0012H142.741V55.9403H142.498V55.8794H142.193V55.8185H141.767V55.7576H141.402V55.6967H140.976V55.6358H140.428V55.5749H139.819V55.5141H139.149V55.4532H138.357V55.3923H137.566V55.3314H137.018V55.2705H136.957V55.1487H137.018V54.9661H137.079V54.9052H137.322V54.8443H137.627V54.7834H137.992V54.7225H138.297V54.6616H138.601V54.6008H138.905V54.5399H139.149V54.479H139.453V54.4181H139.697V54.3572H139.941V54.2963H140.123V54.2354H140.367V54.1745H140.549V54.1137H140.732V54.0528H140.976V53.9919H141.158V53.931H141.28V53.8701H141.463V53.8092H141.645V53.7483H141.828V53.6874H141.95V53.6266H142.132V53.5657H142.254V53.5048H142.437V53.4439H142.559V53.383H142.68V53.3221H142.802V53.2612H142.924V53.2003H143.046V53.1395H143.228V53.0786H143.289V53.0177H143.411V52.9568H143.533V52.8959H143.655V52.835H143.776V52.7741H143.898V52.7133H144.02V52.6524H144.081V52.5915H144.203V52.5306H144.263V52.4697H144.385V52.4088H144.446V52.3479H144.568V52.287H144.69V52.2262H144.751V52.1653H144.872V52.1044H144.933V52.0435H144.994V51.9826H145.116V51.9217H145.177V51.8608H145.238V51.7999H145.359V51.7391H145.42V51.6782H145.542V51.6173H145.603V51.5564H145.664V51.4955H145.725V51.4346H145.786V51.3737H145.907V51.3128H145.968V51.252H146.029V51.1911H146.09V51.1302H146.151V51.0693H146.212V51.0084H146.334V50.9475H146.395V50.8866H146.455V50.7649H146.516V50.704H146.577V50.6431H146.638V50.5822H146.699V50.5213H146.76V50.4604H146.821V50.3995H146.882V50.3387H146.943V50.2778H147.003V50.2169H147.064V50.156H147.125V50.0951H147.186V50.0342H147.247V49.9733H147.308V49.9124H147.369V49.7907H147.43V49.7298H147.491V49.6689H147.551V49.608H147.612V49.5471H147.673V49.4253H147.734V49.9124H147.673V50.2778H147.612V50.704H147.551V51.1302H147.491V51.4955H147.43V51.7391H147.369V51.9826H147.308V52.1044H147.247V52.287H147.186V52.4088H147.125V52.5306H147.064V52.6524H147.003V52.7741H146.943V52.835H146.882V52.9568H146.821V53.0786H146.76V53.1395H146.699V53.2003H146.638V53.2612H146.577V53.3221H146.516V53.4439H146.455V53.5048H146.395V53.5657H146.334V53.6266H146.212V53.6874H146.151V53.7483H146.09V53.8092H146.029V53.8701H145.968V53.931H145.847V53.9919H145.786V54.0528H145.664V54.1137H145.603V54.1745H145.481V54.2354H145.359V54.2963H145.238V54.3572H145.116V54.4181H144.994V54.479H144.811V54.5399H144.568V54.6008H144.385V54.6616H144.02V54.7225H143.716V54.7834H143.411V54.8443H143.107V54.9052H142.863V54.9661H142.559V55.027H142.376V55.0879H142.132V55.1487H141.95V55.2096H141.767V55.2705H141.706V55.3314H141.767V55.3923H141.889V55.4532H142.193V55.5141H142.559V55.5749H142.802V55.6358H142.985V55.6967H143.168V55.7576H143.35V55.8185H143.472V55.8794H143.594V55.9403H143.716V56.0012H143.837V56.062H143.959V56.1229H144.02V56.1838H144.142V56.2447H144.203V56.3056H144.263V56.3665" fill="url(#paint11_linear_312_440)"/>
</g>
</g>
<mask id="mask23_312_440" style="mask-type:luminance" maskUnits="userSpaceOnUse" x="16" y="16" width="133" height="59">
<path d="M141.683 55.2515C142.016 55.0518 143.015 54.8423 144.252 54.614C145.896 54.3096 147.184 53.0029 147.447 51.3511C149.182 40.4791 149.13 28.1433 146.51 24.8572C141.702 18.8258 107.818 16.3044 82.4921 16.3044C57.1661 16.3044 23.2806 18.8258 18.4739 24.8572C17.9312 25.5386 17.4988 26.609 17.1699 27.9747C16.5255 30.6476 18.3262 33.3029 21.0326 33.79C23.1418 34.1693 25.0396 34.5024 25.562 34.8166C26.2951 35.2562 20.6877 35.5801 17.3121 35.7323C16.7779 35.7567 16.3541 36.1926 16.3519 36.7278C16.35 37.3616 16.3562 38.0089 16.3707 38.6665C16.394 39.6985 17.1442 40.5746 18.1598 40.7573C19.1304 40.9321 19.9725 41.0879 20.2176 41.2347C20.2932 41.2803 20.2356 41.3236 20.0815 41.3631C18.0306 41.8977 16.6109 43.7578 16.824 45.8664C17.8137 55.6515 20.3013 65.6565 23.75 68.6162C30.7509 74.6246 75.0195 74.9783 82.3856 74.5899C82.4599 74.5856 82.5238 74.5856 82.5981 74.5899C89.9642 74.9783 134.233 74.6246 141.234 68.6162C142.889 67.1957 144.323 64.1502 145.476 60.2857C146.122 58.1205 144.705 55.9018 142.469 55.5699C141.827 55.4744 141.489 55.3678 141.683 55.2515Z" fill="white"/>
</mask>
<g mask="url(#mask23_312_440)">
<mask id="mask24_312_440" style="mask-type:luminance" maskUnits="userSpaceOnUse" x="136" y="54" width="2" height="2">
<path d="M136.998 55.2668C136.707 55.2242 136.571 55.1718 136.648 55.0951C136.698 55.0452 136.849 55.0019 137.085 54.9538C137.056 55.0586 137.027 55.1633 136.998 55.2668Z" fill="white"/>
</mask>
<g mask="url(#mask24_312_440)">
<path d="M136.713 55.2704V55.2096H136.591V55.0878H136.652V55.0269H136.773V54.966H137.017V54.9051H137.139V55.0269H137.078V55.2096H137.017V55.2704" fill="url(#paint12_linear_312_440)"/>
</g>
</g>
<mask id="mask25_312_440" style="mask-type:luminance" maskUnits="userSpaceOnUse" x="16" y="16" width="133" height="59">
<path d="M141.683 55.2515C142.016 55.0518 143.015 54.8423 144.252 54.614C145.896 54.3096 147.184 53.0029 147.447 51.3511C149.182 40.4791 149.13 28.1433 146.51 24.8572C141.702 18.8258 107.818 16.3044 82.4921 16.3044C57.1661 16.3044 23.2806 18.8258 18.4739 24.8572C17.9312 25.5386 17.4988 26.609 17.1699 27.9747C16.5255 30.6476 18.3262 33.3029 21.0326 33.79C23.1418 34.1693 25.0396 34.5024 25.562 34.8166C26.2951 35.2562 20.6877 35.5801 17.3121 35.7323C16.7779 35.7567 16.3541 36.1926 16.3519 36.7278C16.35 37.3616 16.3562 38.0089 16.3707 38.6665C16.394 39.6985 17.1442 40.5746 18.1598 40.7573C19.1304 40.9321 19.9725 41.0879 20.2176 41.2347C20.2932 41.2803 20.2356 41.3236 20.0815 41.3631C18.0306 41.8977 16.6109 43.7578 16.824 45.8664C17.8137 55.6515 20.3013 65.6565 23.75 68.6162C30.7509 74.6246 75.0195 74.9783 82.3856 74.5899C82.4599 74.5856 82.5238 74.5856 82.5981 74.5899C89.9642 74.9783 134.233 74.6246 141.234 68.6162C142.889 67.1957 144.323 64.1502 145.476 60.2857C146.122 58.1205 144.705 55.9018 142.469 55.5699C141.827 55.4744 141.489 55.3678 141.683 55.2515Z" fill="white"/>
</mask>
<g mask="url(#mask25_312_440)">
<path d="M138.902 55.43C143.069 56.6453 143.537 58.3885 143.701 61.5406C143.865 64.6934 142.25 67.507 142.25 67.507C142.25 67.507 147.391 59.8729 144.894 57.0167C144.157 55.6595 138.902 55.43 138.902 55.43Z" fill="#FF8C3B"/>
</g>
<mask id="mask26_312_440" style="mask-type:luminance" maskUnits="userSpaceOnUse" x="16" y="16" width="133" height="59">
<path d="M141.683 55.2515C142.016 55.0518 143.015 54.8423 144.252 54.614C145.896 54.3096 147.184 53.0029 147.447 51.3511C149.182 40.4791 149.13 28.1433 146.51 24.8572C141.702 18.8258 107.818 16.3044 82.4921 16.3044C57.1661 16.3044 23.2806 18.8258 18.4739 24.8572C17.9312 25.5386 17.4988 26.609 17.1699 27.9747C16.5255 30.6476 18.3262 33.3029 21.0326 33.79C23.1418 34.1693 25.0396 34.5024 25.562 34.8166C26.2951 35.2562 20.6877 35.5801 17.3121 35.7323C16.7779 35.7567 16.3541 36.1926 16.3519 36.7278C16.35 37.3616 16.3562 38.0089 16.3707 38.6665C16.394 39.6985 17.1442 40.5746 18.1598 40.7573C19.1304 40.9321 19.9725 41.0879 20.2176 41.2347C20.2932 41.2803 20.2356 41.3236 20.0815 41.3631C18.0306 41.8977 16.6109 43.7578 16.824 45.8664C17.8137 55.6515 20.3013 65.6565 23.75 68.6162C30.7509 74.6246 75.0195 74.9783 82.3856 74.5899C82.4599 74.5856 82.5238 74.5856 82.5981 74.5899C89.9642 74.9783 134.233 74.6246 141.234 68.6162C142.889 67.1957 144.323 64.1502 145.476 60.2857C146.122 58.1205 144.705 55.9018 142.469 55.5699C141.827 55.4744 141.489 55.3678 141.683 55.2515Z" fill="white"/>
</mask>
<g mask="url(#mask26_312_440)">
<mask id="mask27_312_440" style="mask-type:luminance" maskUnits="userSpaceOnUse" x="16" y="36" width="3" height="3">
<path d="M18.1071 38.5441C17.5061 38.4838 16.9251 38.4217 16.3649 38.359C16.358 37.9796 16.354 37.604 16.3525 37.2332C16.5205 37.1394 16.6886 37.0615 16.8575 36.9963C17.1608 37.5681 17.5884 38.0832 18.1071 38.5441Z" fill="white"/>
</mask>
<g mask="url(#mask27_312_440)">
<path d="M17.9219 38.5873V38.5264H17.3131V38.4655H16.7651V38.4046H16.3389V37.1869H16.3998V37.126H16.5215V37.0651H16.7042V37.0042H16.826V36.9433H16.8869V37.0042H16.9477V37.126H17.0086V37.1869H17.0695V37.3087H17.1304V37.3695H17.1913V37.4913H17.2522V37.5522H17.3131V37.674H17.3739V37.7349H17.4348V37.7957H17.4957V37.8566H17.5566V37.9175H17.6175V38.0393H17.6784V38.1002H17.7393V38.1611H17.8002V38.222H17.861V38.2828H17.9219V38.3437H17.9828V38.4046H18.0437V38.4655H18.1046V38.5264H18.1655V38.5873" fill="url(#paint13_linear_312_440)"/>
</g>
</g>
<mask id="mask28_312_440" style="mask-type:luminance" maskUnits="userSpaceOnUse" x="16" y="16" width="133" height="59">
<path d="M141.683 55.2515C142.016 55.0518 143.015 54.8423 144.252 54.614C145.896 54.3096 147.184 53.0029 147.447 51.3511C149.182 40.4791 149.13 28.1433 146.51 24.8572C141.702 18.8258 107.818 16.3044 82.4921 16.3044C57.1661 16.3044 23.2806 18.8258 18.4739 24.8572C17.9312 25.5386 17.4988 26.609 17.1699 27.9747C16.5255 30.6476 18.3262 33.3029 21.0326 33.79C23.1418 34.1693 25.0396 34.5024 25.562 34.8166C26.2951 35.2562 20.6877 35.5801 17.3121 35.7323C16.7779 35.7567 16.3541 36.1926 16.3519 36.7278C16.35 37.3616 16.3562 38.0089 16.3707 38.6665C16.394 39.6985 17.1442 40.5746 18.1598 40.7573C19.1304 40.9321 19.9725 41.0879 20.2176 41.2347C20.2932 41.2803 20.2356 41.3236 20.0815 41.3631C18.0306 41.8977 16.6109 43.7578 16.824 45.8664C17.8137 55.6515 20.3013 65.6565 23.75 68.6162C30.7509 74.6246 75.0195 74.9783 82.3856 74.5899C82.4599 74.5856 82.5238 74.5856 82.5981 74.5899C89.9642 74.9783 134.233 74.6246 141.234 68.6162C142.889 67.1957 144.323 64.1502 145.476 60.2857C146.122 58.1205 144.705 55.9018 142.469 55.5699C141.827 55.4744 141.489 55.3678 141.683 55.2515Z" fill="white"/>
</mask>
<g mask="url(#mask28_312_440)">
<mask id="mask29_312_440" style="mask-type:luminance" maskUnits="userSpaceOnUse" x="16" y="36" width="1" height="1">
<path d="M16.3525 36.9854C16.3525 36.9787 16.3525 36.9726 16.3525 36.9659C16.3525 36.8867 16.3525 36.807 16.3528 36.7278C16.3535 36.5232 16.416 36.3327 16.5228 36.1743C16.55 36.2675 16.5802 36.3588 16.6133 36.4489C16.466 36.6005 16.3771 36.7777 16.3525 36.9854Z" fill="white"/>
</mask>
<g mask="url(#mask29_312_440)">
<path d="M16.3389 37.0042V36.4562H16.3998V36.2736H16.4606V36.1518H16.5824V36.3345H16.6433V36.5171H16.5824V36.578H16.5215V36.6998H16.4606V36.8215H16.3998V37.0042" fill="url(#paint14_linear_312_440)"/>
</g>
</g>
<mask id="mask30_312_440" style="mask-type:luminance" maskUnits="userSpaceOnUse" x="16" y="16" width="133" height="59">
<path d="M141.683 55.2515C142.016 55.0518 143.015 54.8423 144.252 54.614C145.896 54.3096 147.184 53.0029 147.447 51.3511C149.182 40.4791 149.13 28.1433 146.51 24.8572C141.702 18.8258 107.818 16.3044 82.4921 16.3044C57.1661 16.3044 23.2806 18.8258 18.4739 24.8572C17.9312 25.5386 17.4988 26.609 17.1699 27.9747C16.5255 30.6476 18.3262 33.3029 21.0326 33.79C23.1418 34.1693 25.0396 34.5024 25.562 34.8166C26.2951 35.2562 20.6877 35.5801 17.3121 35.7323C16.7779 35.7567 16.3541 36.1926 16.3519 36.7278C16.35 37.3616 16.3562 38.0089 16.3707 38.6665C16.394 39.6985 17.1442 40.5746 18.1598 40.7573C19.1304 40.9321 19.9725 41.0879 20.2176 41.2347C20.2932 41.2803 20.2356 41.3236 20.0815 41.3631C18.0306 41.8977 16.6109 43.7578 16.824 45.8664C17.8137 55.6515 20.3013 65.6565 23.75 68.6162C30.7509 74.6246 75.0195 74.9783 82.3856 74.5899C82.4599 74.5856 82.5238 74.5856 82.5981 74.5899C89.9642 74.9783 134.233 74.6246 141.234 68.6162C142.889 67.1957 144.323 64.1502 145.476 60.2857C146.122 58.1205 144.705 55.9018 142.469 55.5699C141.827 55.4744 141.489 55.3678 141.683 55.2515Z" fill="white"/>
</mask>
<g mask="url(#mask30_312_440)">
<mask id="mask31_312_440" style="mask-type:luminance" maskUnits="userSpaceOnUse" x="16" y="38" width="8" height="4">
<path d="M20.6722 41.7766C20.1698 41.7766 19.648 41.7583 19.1474 41.72C19.4403 41.5696 19.754 41.4491 20.0842 41.3632C20.1924 41.3352 20.2531 41.3053 20.2533 41.2749C20.2533 41.2615 20.2426 41.2481 20.2203 41.2347C19.9752 41.088 19.1331 40.9321 18.1624 40.7574C17.1469 40.5747 16.3967 39.6985 16.3734 38.6665C16.3713 38.5636 16.3691 38.4613 16.3672 38.359C16.9273 38.4217 17.5084 38.4838 18.1094 38.5441C19.3393 39.6377 21.0805 40.4292 22.8875 40.9662C24.5351 41.4557 22.7779 41.7766 20.6722 41.7766Z" fill="white"/>
</mask>
<g mask="url(#mask31_312_440)">
<path d="M19.7495 41.8145V41.7536H19.1407V41.6927H19.2015V41.6318H19.3233V41.5709H19.4451V41.51H19.6278V41.4491H19.7495V41.3882H19.9322V41.3274H20.1757V41.2665H20.1148V41.2056H19.9931V41.1447H19.7495V41.0838H19.506V41.0229H19.2015V40.962H18.8971V40.9011H18.5927V40.8403H18.2273V40.7794H17.9838V40.7185H17.7402V40.6576H17.6185V40.5967H17.4967V40.5358H17.3749V40.4749H17.314V40.414H17.1923V40.3532H17.1314V40.2923H17.0705V40.2314H17.0096V40.1705H16.9487V40.1096H16.8878V40.0487H16.8269V39.9878H16.7661V39.8661H16.7052V39.8052H16.6443V39.6834H16.5834V39.5616H16.5225V39.4399H16.4616V39.2572H16.4007V38.9528H16.3398V38.3439H16.8269V38.4048H17.3749V38.4657H17.9838V38.5265H18.1665V38.5874H18.2273V38.6483H18.3491V38.7092H18.41V38.7701H18.4709V38.831H18.5927V38.8919H18.6536V38.9528H18.7144V39.0136H18.8362V39.0745H18.8971V39.1354H19.0189V39.1963H19.0798V39.2572H19.1407V39.3181H19.2624V39.379H19.3842V39.4399H19.506V39.5007H19.6278V39.5616H19.6886V39.6225H19.8104V39.6834H19.9322V39.7443H20.054V39.8052H20.1148V39.8661H20.2366V39.927H20.3584V39.9878H20.4802V40.0487H20.6628V40.1096H20.7846V40.1705H20.9064V40.2314H21.089V40.2923H21.2108V40.3532H21.3326V40.414H21.5153V40.4749H21.637V40.5358H21.8197V40.5967H22.0023V40.6576H22.185V40.7185H22.3068V40.7794H22.4894V40.8403H22.6721V40.9011H22.9157V40.962H23.0983V41.0229H23.2201V41.0838H23.4028V41.1447H23.4636V41.2056H23.5245V41.2665H23.5854V41.3274H23.5245V41.4491H23.4636V41.51H23.3419V41.5709H23.1592V41.6318H22.8548V41.6927H22.3677V41.7536H21.637V41.8145" fill="url(#paint15_linear_312_440)"/>
</g>
</g>
<mask id="mask32_312_440" style="mask-type:luminance" maskUnits="userSpaceOnUse" x="16" y="16" width="133" height="59">
<path d="M141.683 55.2515C142.016 55.0518 143.015 54.8423 144.252 54.614C145.896 54.3096 147.184 53.0029 147.447 51.3511C149.182 40.4791 149.13 28.1433 146.51 24.8572C141.702 18.8258 107.818 16.3044 82.4921 16.3044C57.1661 16.3044 23.2806 18.8258 18.4739 24.8572C17.9312 25.5386 17.4988 26.609 17.1699 27.9747C16.5255 30.6476 18.3262 33.3029 21.0326 33.79C23.1418 34.1693 25.0396 34.5024 25.562 34.8166C26.2951 35.2562 20.6877 35.5801 17.3121 35.7323C16.7779 35.7567 16.3541 36.1926 16.3519 36.7278C16.35 37.3616 16.3562 38.0089 16.3707 38.6665C16.394 39.6985 17.1442 40.5746 18.1598 40.7573C19.1304 40.9321 19.9725 41.0879 20.2176 41.2347C20.2932 41.2803 20.2356 41.3236 20.0815 41.3631C18.0306 41.8977 16.6109 43.7578 16.824 45.8664C17.8137 55.6515 20.3013 65.6565 23.75 68.6162C30.7509 74.6246 75.0195 74.9783 82.3856 74.5899C82.4599 74.5856 82.5238 74.5856 82.5981 74.5899C89.9642 74.9783 134.233 74.6246 141.234 68.6162C142.889 67.1957 144.323 64.1502 145.476 60.2857C146.122 58.1205 144.705 55.9018 142.469 55.5699C141.827 55.4744 141.489 55.3678 141.683 55.2515Z" fill="white"/>
</mask>
<g mask="url(#mask32_312_440)">
<path d="M16.353 37.2333C16.3528 37.1505 16.3525 37.0677 16.3525 36.9855C16.3771 36.7778 16.466 36.6007 16.6133 36.449C16.6822 36.6372 16.764 36.8193 16.858 36.9964C16.6891 37.0616 16.521 37.1395 16.353 37.2333Z" fill="#C25B24"/>
<path d="M23.3836 41.482C19.2561 42.9846 18.7352 43.6361 18.6703 48.649C18.6051 53.6624 19.9223 61.6003 19.9223 61.6003C19.9223 61.6003 14.5683 46.0448 15.61 43.2452C16.6517 40.445 20.8694 41.9971 23.3836 41.482Z" fill="#FF8C3B"/>
</g>
<path d="M72.8651 66.1412C51.336 64.5789 32.4111 61.8012 28.9387 50.1681L28.8809 50.2247C29.9446 56.0169 31.6263 61.0547 33.7488 62.8759C39.5867 67.8869 76.6578 68.1578 82.4957 67.8278C84.8575 67.9618 92.3302 67.9959 100.779 67.6592C96.7165 67.5575 87.802 67.2256 72.8651 66.1412Z" fill="#9D3325"/>
<path d="M82.495 74.2825L82.6186 74.2855C91.8905 74.772 134.464 74.0286 141.039 68.3849C142.539 67.0984 143.974 64.2671 145.188 60.1993C145.47 59.2537 145.329 58.2363 144.802 57.4076C144.274 56.5771 143.408 56.0169 142.428 55.8708C141.631 55.7527 141.386 55.6431 141.334 55.3843C141.322 55.3265 141.303 55.1268 141.53 54.9904C141.895 54.7712 142.823 54.569 144.2 54.3151C145.722 54.0332 146.908 52.8228 147.15 51.303C149.026 39.5494 148.642 28.0155 146.276 25.0467C141.86 19.5078 110.848 16.6089 82.4956 16.6089C54.1429 16.6089 23.1307 19.5078 18.7155 25.0467C18.2172 25.6726 17.7982 26.6815 17.4692 28.046C17.1833 29.2321 17.3976 30.4553 18.0728 31.4897C18.7576 32.5394 19.8571 33.2683 21.0898 33.4905L21.2998 33.5282C23.6987 33.9593 25.196 34.2394 25.7226 34.556C25.9723 34.7058 25.94 34.9189 25.9248 34.9816C25.8487 35.2824 25.7543 35.6569 17.3293 36.0362C16.9552 36.0532 16.6613 36.3577 16.6601 36.7291C16.6579 37.3599 16.6641 38.0053 16.6789 38.6604C16.6986 39.5451 17.3455 40.3013 18.217 40.4578C19.3731 40.666 20.0952 40.8043 20.3778 40.9741C20.4827 41.0369 20.5728 41.2 20.5552 41.3212C20.5202 41.5653 20.2595 41.6329 20.1611 41.6585C18.212 42.1663 16.9372 43.9229 17.1308 45.8354C18.2536 56.9412 20.931 65.7924 23.952 68.3849C30.5266 74.028 73.1014 74.7738 82.3733 74.2855L82.495 74.2825ZM89.0008 74.9991C86.0222 74.9991 83.7633 74.9559 82.5857 74.8938C82.523 74.8907 82.4695 74.8907 82.4061 74.8938C75.4486 75.2621 30.7068 74.9851 23.555 68.8477C19.7487 65.5805 17.3886 54.4424 16.5248 45.8969C16.324 43.9101 17.484 42.0707 19.3451 41.2926C18.9624 41.2104 18.4979 41.127 18.109 41.057C16.954 40.8493 16.0964 39.8471 16.07 38.6738C16.0553 38.0132 16.0491 37.3635 16.0512 36.7267C16.0536 36.0301 16.6028 35.4602 17.3015 35.4285C21.4835 35.2398 23.8089 35.0316 24.8215 34.8611C24.005 34.6327 22.5809 34.377 21.1921 34.1268L20.9821 34.0896C19.585 33.8382 18.339 33.0119 17.5629 31.8228C16.7954 30.6465 16.5514 29.254 16.877 27.9035C17.2271 26.4513 17.6854 25.3627 18.2394 24.6673C23.7036 17.8114 62.6598 16.0001 82.4956 16.0001C102.331 16.0001 141.287 17.8114 146.752 24.6673C149.601 28.2426 149.394 41.1087 147.751 51.3999C147.468 53.1729 146.086 54.5849 144.311 54.913C143.902 54.9885 143.141 55.1298 142.558 55.2753C143.696 55.4562 144.7 56.1125 145.316 57.0812C145.938 58.0579 146.104 59.2586 145.771 60.3728C144.506 64.6136 143.047 67.4643 141.436 68.8477C135.495 73.9458 103.613 74.9991 89.0008 74.9991Z" fill="#612601"/>
<path d="M106.306 20.3248C107.368 23.1701 120.67 22.4011 119.717 21.4848C118.765 20.5678 105.967 19.4164 106.306 20.3248Z" fill="#FF8D3B"/>
<path d="M120.721 21.6936C120.178 22.1131 122.277 23.0617 123.338 22.4754C124.401 21.8897 121.48 21.1085 120.721 21.6936Z" fill="#FF8D3B"/>
<path d="M125.583 22.6611C131.572 24.2332 136.229 32.4372 137.384 39.2084C137.384 27.4889 138.215 24.2801 125.583 22.6611Z" fill="#F77111"/>
<path d="M38.2539 20.6365C37.9062 21.8725 38.3404 24.2167 41.6392 25.2585C39.8966 22.658 38.2539 20.6365 38.2539 20.6365Z" fill="#FF8C3B"/>
<path d="M38.2539 20.6365C38.2539 20.6365 40.5591 21.4756 40.9689 22.3633C41.3786 23.251 41.6392 25.2585 41.6392 25.2585L38.2539 20.6365Z" fill="#A43723"/>
<path d="M105.546 62.6451C104.978 64.269 104.795 66.973 105.211 67.5891C105.627 68.2059 109.443 70.6414 109.443 70.6414C109.443 70.6414 110.741 65.8922 105.546 62.6451Z" fill="#591D05"/>
<path d="M105.546 62.6451C104.978 64.2684 104.795 66.973 105.211 67.5891C105.627 68.2059 109.443 70.6414 109.443 70.6414C106.013 68.125 105.546 62.6451 105.546 62.6451Z" fill="#9D3325"/>
</g>
<defs>
<filter id="filter0_d_312_440" x="0.821343" y="0.770623" width="163.357" height="89.4589" filterUnits="userSpaceOnUse" color-interpolation-filters="sRGB">
<feFlood flood-opacity="0" result="BackgroundImageFix"/>
<feColorMatrix in="SourceAlpha" type="matrix" values="0 0 0 0 0 0 0 0 0 0 0 0 0 0 0 0 0 0 127 0" result="hardAlpha"/>
<feOffset/>
<feGaussianBlur stdDeviation="7.61472"/>
<feComposite in2="hardAlpha" operator="out"/>
<feColorMatrix type="matrix" values="0 0 0 0 1 0 0 0 0 0.94902 0 0 0 0 0.647059 0 0 0 1 0"/>
<feBlend mode="normal" in2="BackgroundImageFix" result="effect1_dropShadow_312_440"/>
<feBlend mode="normal" in="SourceGraphic" in2="effect1_dropShadow_312_440" result="shape"/>
</filter>
<linearGradient id="paint0_linear_312_440" x1="82.496" y1="23.5684" x2="82.496" y2="72.3473" gradientUnits="userSpaceOnUse">
<stop stop-color="#F77111"/>
<stop offset="1" stop-color="#540D17"/>
</linearGradient>
<linearGradient id="paint1_linear_312_440" x1="84.5291" y1="71.9163" x2="84.5291" y2="22.623" gradientUnits="userSpaceOnUse">
<stop stop-color="#822330"/>
<stop offset="1" stop-color="#D15111"/>
</linearGradient>
<linearGradient id="paint2_linear_312_440" x1="82.4928" y1="23.5685" x2="82.4928" y2="72.3474" gradientUnits="userSpaceOnUse">
<stop stop-color="#E3610E"/>
<stop offset="1" stop-color="#4D0B13"/>
</linearGradient>
<linearGradient id="paint3_linear_312_440" x1="84.5263" y1="71.9163" x2="84.5263" y2="22.623" gradientUnits="userSpaceOnUse">
<stop stop-color="#781E27"/>
<stop offset="1" stop-color="#C0460E"/>
</linearGradient>
<linearGradient id="paint4_linear_312_440" x1="82.4943" y1="23.5683" x2="82.4943" y2="72.3473" gradientUnits="userSpaceOnUse">
<stop stop-color="#E3610E"/>
<stop offset="1" stop-color="#4D0B13"/>
</linearGradient>
<linearGradient id="paint5_linear_312_440" x1="84.5292" y1="71.9164" x2="84.5292" y2="22.6231" gradientUnits="userSpaceOnUse">
<stop stop-color="#781E27"/>
<stop offset="1" stop-color="#C0460E"/>
</linearGradient>
<linearGradient id="paint6_linear_312_440" x1="82.4929" y1="23.5684" x2="82.4929" y2="72.3474" gradientUnits="userSpaceOnUse">
<stop stop-color="#E3610E"/>
<stop offset="1" stop-color="#4D0B13"/>
</linearGradient>
<linearGradient id="paint7_linear_312_440" x1="84.5289" y1="71.9164" x2="84.5289" y2="22.6231" gradientUnits="userSpaceOnUse">
<stop stop-color="#781E27"/>
<stop offset="1" stop-color="#C0460E"/>
</linearGradient>
<linearGradient id="paint8_linear_312_440" x1="82.4918" y1="23.5682" x2="82.4918" y2="72.3472" gradientUnits="userSpaceOnUse">
<stop stop-color="#BC490A"/>
<stop offset="1" stop-color="#40090E"/>
</linearGradient>
<linearGradient id="paint9_linear_312_440" x1="82.4935" y1="23.5682" x2="82.4935" y2="72.3472" gradientUnits="userSpaceOnUse">
<stop stop-color="#BC490A"/>
<stop offset="1" stop-color="#40090E"/>
</linearGradient>
<linearGradient id="paint10_linear_312_440" x1="84.5302" y1="71.9163" x2="84.5302" y2="22.623" gradientUnits="userSpaceOnUse">
<stop stop-color="#63171D"/>
<stop offset="1" stop-color="#9F350A"/>
</linearGradient>
<linearGradient id="paint11_linear_312_440" x1="82.4941" y1="23.5684" x2="82.4941" y2="72.3473" gradientUnits="userSpaceOnUse">
<stop stop-color="#BC490A"/>
<stop offset="1" stop-color="#40090E"/>
</linearGradient>
<linearGradient id="paint12_linear_312_440" x1="84.528" y1="71.9164" x2="84.528" y2="22.6231" gradientUnits="userSpaceOnUse">
<stop stop-color="#63171D"/>
<stop offset="1" stop-color="#9F350A"/>
</linearGradient>
<linearGradient id="paint13_linear_312_440" x1="82.4934" y1="23.5682" x2="82.4934" y2="72.3472" gradientUnits="userSpaceOnUse">
<stop stop-color="#BC490A"/>
<stop offset="1" stop-color="#40090E"/>
</linearGradient>
<linearGradient id="paint14_linear_312_440" x1="82.4934" y1="23.5682" x2="82.4934" y2="72.3472" gradientUnits="userSpaceOnUse">
<stop stop-color="#BC490A"/>
<stop offset="1" stop-color="#40090E"/>
</linearGradient>
<linearGradient id="paint15_linear_312_440" x1="82.4943" y1="23.5684" x2="82.4943" y2="72.3474" gradientUnits="userSpaceOnUse">
<stop stop-color="#AD3F08"/>
<stop offset="1" stop-color="#3B070B"/>
</linearGradient>
</defs>
</svg>
