<svg width="41" height="40" viewBox="0 0 41 40" fill="none" xmlns="http://www.w3.org/2000/svg">
<mask id="mask0_1710_41042" style="mask-type:luminance" maskUnits="userSpaceOnUse" x="5" y="7" width="31" height="27">
<path d="M24.9313 33.8115C24.4441 32.7467 24.0134 31.5639 23.6872 30.2625C22.665 26.1705 18.6935 23.4075 13.465 23.4075C11.103 23.4075 8.4844 23.9721 5.76574 25.2327C5.34815 23.7216 5.16113 22.1117 5.16113 20.4875C5.16113 19.6562 5.2133 18.8275 5.32204 18.0137C7.39693 17.5008 8.68452 17.2733 8.68452 17.2733C7.7319 17.075 6.64878 16.8022 5.60916 16.4573C6.17899 13.9988 7.31865 11.7568 9.12384 10.0817C10.1722 9.10908 11.4075 8.12731 12.7647 7.29388C20.8946 11.3045 24.3092 19.7458 26.6538 27.2976C27.2149 29.1076 27.7543 30.6139 28.2676 31.8671C27.2454 32.6257 26.1275 33.2939 24.9313 33.8115ZM31.0254 29.4269C29.9075 27.3163 28.9201 24.2949 28.546 19.9972C28.1284 15.2298 28.0675 11.3432 27.9762 8.15167C28.9244 8.81894 29.7944 9.53406 30.5469 10.2327C32.9959 12.5076 35.0708 15.6726 35.5058 19.1246C35.0621 19.4043 34.7097 19.6057 34.5488 19.6901C34.3182 19.8106 34.3313 19.8502 34.5053 19.8502C34.6967 19.8502 35.0838 19.8045 35.5667 19.7658C35.5797 19.989 35.5884 20.2138 35.5884 20.4392C35.5884 23.8956 33.4135 26.9918 31.0254 29.4269Z" fill="white"/>
</mask>
<g mask="url(#mask0_1710_41042)">
<path d="M24.9313 33.8115C24.4441 32.7467 24.0134 31.5639 23.6872 30.2625C22.665 26.1705 18.6935 23.4075 13.465 23.4075C11.103 23.4075 8.4844 23.9721 5.76574 25.2327C5.34815 23.7216 5.16113 22.1117 5.16113 20.4875C5.16113 19.6562 5.2133 18.8275 5.32204 18.0137C7.39693 17.5008 8.68452 17.2733 8.68452 17.2733C7.7319 17.075 6.64878 16.8022 5.60916 16.4573C6.17899 13.9988 7.31865 11.7568 9.12384 10.0817C10.1722 9.10908 11.4075 8.12731 12.7647 7.29388C20.8946 11.3045 24.3092 19.7458 26.6538 27.2976C27.2149 29.1076 27.7543 30.6139 28.2676 31.8671C27.2454 32.6257 26.1275 33.2939 24.9313 33.8115ZM31.0254 29.4269C29.9075 27.3163 28.9201 24.2949 28.546 19.9972C28.1284 15.2298 28.0675 11.3432 27.9762 8.15167C28.9244 8.81894 29.7944 9.53406 30.5469 10.2327C32.9959 12.5076 35.0708 15.6726 35.5058 19.1246C35.0621 19.4043 34.7097 19.6057 34.5488 19.6901C34.3182 19.8106 34.3313 19.8502 34.5053 19.8502C34.6967 19.8502 35.0838 19.8045 35.5667 19.7658C35.5797 19.989 35.5884 20.2138 35.5884 20.4392C35.5884 23.8956 33.4135 26.9918 31.0254 29.4269Z" fill="url(#paint0_linear_1710_41042)"/>
</g>
<mask id="mask1_1710_41042" style="mask-type:luminance" maskUnits="userSpaceOnUse" x="0" y="2" width="41" height="36">
<path d="M27.2056 37.6018C26.4139 36.5644 25.6136 35.3029 24.9306 33.8118C26.1268 33.2941 27.2447 32.626 28.2669 31.8674C28.9847 33.623 29.6458 34.8831 30.2244 35.7875C29.3109 36.4373 28.3018 37.0594 27.2056 37.6018ZM33.6651 32.877C32.8561 32.1658 31.8991 31.0735 31.0248 29.4271C33.4128 26.9921 35.5878 23.8958 35.5878 20.4394C35.5878 20.2141 35.5791 19.9892 35.566 19.7661C35.8444 19.7439 36.1533 19.7243 36.4795 19.7165C36.4795 19.7904 36.5186 19.86 36.5839 19.8992C36.7405 19.9966 37.1668 20.0123 38.2543 20.0292C38.8937 20.0388 39.6201 20.0501 40.0333 20.1054C40.1334 20.1188 40.2117 20.2115 40.216 20.3194C40.216 20.4055 40.216 20.4925 40.216 20.579C40.216 24.4944 38.015 28.628 33.6651 32.877ZM2.38092 27.1434C2.21997 27.0825 2.03291 27.0086 1.84152 26.922C1.47613 26.7572 1.20646 26.4305 1.11946 26.0481C0.74972 24.4583 0.553976 22.7583 0.532227 20.9897C0.962863 20.0123 1.78065 18.9596 3.32485 18.535C4.05127 18.3363 4.72113 18.1631 5.32141 18.0139C5.21266 18.8278 5.1605 19.6564 5.1605 20.4877C5.1605 22.1119 5.34752 23.7218 5.7651 25.233C4.65154 25.7502 3.52058 26.3835 2.38092 27.1434ZM35.5051 19.1249C35.0701 15.6728 32.9953 12.5079 30.5463 10.2329C29.7938 9.53432 28.9238 8.8192 27.9755 8.15193C27.919 6.15751 27.8494 4.43454 27.6754 2.93775C30.5115 4.50892 32.7125 6.41851 33.639 7.27674C36.3272 9.77313 38.3239 12.7428 39.3722 15.7598C38.7458 16.9352 36.7535 18.3397 35.5051 19.1249ZM5.60853 16.4576C3.77288 15.849 2.07644 15.0156 1.4979 13.9655C2.36353 11.1751 3.76854 8.86096 5.68248 7.07838C6.19577 6.60251 6.8091 6.064 7.50942 5.50548C9.45381 5.91088 11.1981 6.52029 12.7641 7.29414C11.4069 8.12757 10.1715 9.10934 9.12321 10.082C7.31801 11.7571 6.17836 13.999 5.60853 16.4576Z" fill="white"/>
</mask>
<g mask="url(#mask1_1710_41042)">
<path d="M27.2056 37.6018C26.4139 36.5644 25.6136 35.3029 24.9306 33.8118C26.1268 33.2941 27.2447 32.626 28.2669 31.8674C28.9847 33.623 29.6458 34.8831 30.2244 35.7875C29.3109 36.4373 28.3018 37.0594 27.2056 37.6018ZM33.6651 32.877C32.8561 32.1658 31.8991 31.0735 31.0248 29.4271C33.4128 26.9921 35.5878 23.8958 35.5878 20.4394C35.5878 20.2141 35.5791 19.9892 35.566 19.7661C35.8444 19.7439 36.1533 19.7243 36.4795 19.7165C36.4795 19.7904 36.5186 19.86 36.5839 19.8992C36.7405 19.9966 37.1668 20.0123 38.2543 20.0292C38.8937 20.0388 39.6201 20.0501 40.0333 20.1054C40.1334 20.1188 40.2117 20.2115 40.216 20.3194C40.216 20.4055 40.216 20.4925 40.216 20.579C40.216 24.4944 38.015 28.628 33.6651 32.877ZM2.38092 27.1434C2.21997 27.0825 2.03291 27.0086 1.84152 26.922C1.47613 26.7572 1.20646 26.4305 1.11946 26.0481C0.74972 24.4583 0.553976 22.7583 0.532227 20.9897C0.962863 20.0123 1.78065 18.9596 3.32485 18.535C4.05127 18.3363 4.72113 18.1631 5.32141 18.0139C5.21266 18.8278 5.1605 19.6564 5.1605 20.4877C5.1605 22.1119 5.34752 23.7218 5.7651 25.233C4.65154 25.7502 3.52058 26.3835 2.38092 27.1434ZM35.5051 19.1249C35.0701 15.6728 32.9953 12.5079 30.5463 10.2329C29.7938 9.53432 28.9238 8.8192 27.9755 8.15193C27.919 6.15751 27.8494 4.43454 27.6754 2.93775C30.5115 4.50892 32.7125 6.41851 33.639 7.27674C36.3272 9.77313 38.3239 12.7428 39.3722 15.7598C38.7458 16.9352 36.7535 18.3397 35.5051 19.1249ZM5.60853 16.4576C3.77288 15.849 2.07644 15.0156 1.4979 13.9655C2.36353 11.1751 3.76854 8.86096 5.68248 7.07838C6.19577 6.60251 6.8091 6.064 7.50942 5.50548C9.45381 5.91088 11.1981 6.52029 12.7641 7.29414C11.4069 8.12757 10.1715 9.10934 9.12321 10.082C7.31801 11.7571 6.17836 13.999 5.60853 16.4576Z" fill="url(#paint1_linear_1710_41042)"/>
</g>
<mask id="mask2_1710_41042" style="mask-type:luminance" maskUnits="userSpaceOnUse" x="34" y="19" width="2" height="1">
<path d="M34.5071 19.8506C34.3331 19.8506 34.3201 19.811 34.5506 19.6905C34.7116 19.6061 35.0639 19.4047 35.5076 19.125C35.5337 19.3382 35.5555 19.5513 35.5685 19.7662C35.0857 19.8049 34.6985 19.8506 34.5071 19.8506Z" fill="white"/>
</mask>
<g mask="url(#mask2_1710_41042)">
<path d="M34.5071 19.8506C34.3331 19.8506 34.3201 19.811 34.5506 19.6905C34.7116 19.6061 35.0639 19.4047 35.5076 19.125C35.5337 19.3382 35.5555 19.5513 35.5685 19.7662C35.0857 19.8049 34.6985 19.8506 34.5071 19.8506Z" fill="url(#paint2_linear_1710_41042)"/>
</g>
<mask id="mask3_1710_41042" style="mask-type:luminance" maskUnits="userSpaceOnUse" x="35" y="15" width="5" height="5">
<path d="M35.5629 19.7664C35.5498 19.5515 35.5281 19.3383 35.502 19.1252C36.7504 18.34 38.7426 16.9355 39.369 15.7601C39.5212 16.2038 39.6561 16.6484 39.7692 17.0929C39.917 17.6893 39.6126 18.3183 39.0428 18.5888C37.8117 19.1739 36.646 19.501 36.6329 19.5045C36.5503 19.5275 36.4894 19.598 36.4763 19.6837C36.4763 19.695 36.4763 19.7059 36.4763 19.7168C36.1501 19.7246 35.8413 19.7442 35.5629 19.7664Z" fill="white"/>
</mask>
<g mask="url(#mask3_1710_41042)">
<path d="M35.5629 19.7664C35.5498 19.5515 35.5281 19.3383 35.502 19.1252C36.7504 18.34 38.7426 16.9355 39.369 15.7601C39.5212 16.2038 39.6561 16.6484 39.7692 17.0929C39.917 17.6893 39.6126 18.3183 39.0428 18.5888C37.8117 19.1739 36.646 19.501 36.6329 19.5045C36.5503 19.5275 36.4894 19.598 36.4763 19.6837C36.4763 19.695 36.4763 19.7059 36.4763 19.7168C36.1501 19.7246 35.8413 19.7442 35.5629 19.7664Z" fill="url(#paint3_linear_1710_41042)"/>
</g>
<mask id="mask4_1710_41042" style="mask-type:luminance" maskUnits="userSpaceOnUse" x="5" y="23" width="20" height="12">
<path d="M19.7147 34.9351C15.691 34.9351 11.7153 33.3604 9.04446 30.8806C7.42196 29.3707 6.36058 27.4041 5.76465 25.2331C8.48331 23.9725 11.1019 23.4079 13.4639 23.4079C18.6924 23.4079 22.6639 26.171 23.6861 30.2629C24.0123 31.5644 24.443 32.7471 24.9302 33.8119C23.3164 34.511 21.5634 34.9351 19.7147 34.9351Z" fill="white"/>
</mask>
<g mask="url(#mask4_1710_41042)">
<path d="M19.7147 34.9351C15.691 34.9351 11.7153 33.3604 9.04446 30.8806C7.42196 29.3707 6.36058 27.4041 5.76465 25.2331C8.48331 23.9725 11.1019 23.4079 13.4639 23.4079C18.6924 23.4079 22.6639 26.171 23.6861 30.2629C24.0123 31.5644 24.443 32.7471 24.9302 33.8119C23.3164 34.511 21.5634 34.9351 19.7147 34.9351Z" fill="url(#paint4_linear_1710_41042)"/>
</g>
<mask id="mask5_1710_41042" style="mask-type:luminance" maskUnits="userSpaceOnUse" x="2" y="25" width="26" height="15">
<path d="M19.5058 39.478C14.3555 39.478 9.14876 37.5006 5.58622 34.1882C4.23342 32.9367 3.13288 31.3864 2.30641 29.5812C2.01497 28.9435 2.27595 28.1675 2.90668 27.8147L3.03285 27.743C3.11114 27.6999 3.15029 27.6142 3.14159 27.5268C3.13289 27.4393 3.06766 27.3671 2.98501 27.3436C2.98066 27.3428 2.72835 27.2727 2.38037 27.1436C3.52003 26.3836 4.65099 25.7503 5.76455 25.2331C6.36048 27.4041 7.42187 29.3707 9.04437 30.8805C11.7152 33.3604 15.6909 34.935 19.7146 34.935C21.5633 34.935 23.3163 34.5109 24.9301 33.8119C25.613 35.303 26.4134 36.5645 27.205 37.6019C24.9736 38.7055 22.381 39.478 19.5058 39.478Z" fill="white"/>
</mask>
<g mask="url(#mask5_1710_41042)">
<path d="M19.5058 39.478C14.3555 39.478 9.14876 37.5006 5.58622 34.1882C4.23342 32.9367 3.13288 31.3864 2.30641 29.5812C2.01497 28.9435 2.27595 28.1675 2.90668 27.8147L3.03285 27.743C3.11114 27.6999 3.15029 27.6142 3.14159 27.5268C3.13289 27.4393 3.06766 27.3671 2.98501 27.3436C2.98066 27.3428 2.72835 27.2727 2.38037 27.1436C3.52003 26.3836 4.65099 25.7503 5.76455 25.2331C6.36048 27.4041 7.42187 29.3707 9.04437 30.8805C11.7152 33.3604 15.6909 34.935 19.7146 34.935C21.5633 34.935 23.3163 34.5109 24.9301 33.8119C25.613 35.303 26.4134 36.5645 27.205 37.6019C24.9736 38.7055 22.381 39.478 19.5058 39.478Z" fill="url(#paint5_linear_1710_41042)"/>
</g>
<path d="M3.20321 17.0749C2.90307 17.1245 2.37671 17.1628 1.83733 17.1902C1.75903 17.1941 1.68508 17.2076 1.61113 17.2228C1.47628 17.2624 1.35013 17.305 1.23268 17.3546C0.771598 17.5856 0.441043 18.0384 0.397544 18.5791C0.340996 19.262 0.310547 19.9502 0.310547 20.6405C0.310547 20.9298 0.323596 21.2181 0.332296 21.5061C0.693335 20.4112 1.5024 19.0362 3.32499 18.5351C6.54389 17.6521 8.68403 17.2737 8.68403 17.2737C6.77879 17.2232 4.72131 17.3211 3.20321 17.0749Z" fill="#FF8C3B"/>
<mask id="mask6_1710_41042" style="mask-type:luminance" maskUnits="userSpaceOnUse" x="5" y="16" width="4" height="2">
<path d="M8.68401 17.2737C8.67966 17.2737 8.67096 17.2737 8.66226 17.2732C8.65791 17.2732 8.6579 17.2732 8.65355 17.2732C8.6492 17.2728 8.64486 17.2728 8.64051 17.2728C8.63616 17.2724 8.63178 17.2724 8.62743 17.2724C8.62308 17.2724 8.61873 17.2724 8.61438 17.272C8.61003 17.272 8.61003 17.272 8.60568 17.272C8.60133 17.2715 8.59265 17.2715 8.5883 17.2715H8.58393C8.57523 17.2711 8.5709 17.2711 8.56655 17.2711C8.5622 17.2706 8.56219 17.2706 8.55784 17.2706C8.54914 17.2706 8.54479 17.2702 8.5361 17.2702C8.5274 17.2702 8.52305 17.2698 8.51435 17.2698H8.51001C7.4878 17.2472 6.43513 17.2628 5.44336 17.2415C5.49121 16.9783 5.54775 16.7165 5.60865 16.4576C6.64826 16.8026 7.73139 17.0753 8.68401 17.2737Z" fill="white"/>
</mask>
<g mask="url(#mask6_1710_41042)">
<path d="M8.68401 17.2737C8.67966 17.2737 8.67096 17.2737 8.66226 17.2732C8.65791 17.2732 8.6579 17.2732 8.65355 17.2732C8.6492 17.2728 8.64486 17.2728 8.64051 17.2728C8.63616 17.2724 8.63178 17.2724 8.62743 17.2724C8.62308 17.2724 8.61873 17.2724 8.61438 17.272C8.61003 17.272 8.61003 17.272 8.60568 17.272C8.60133 17.2715 8.59265 17.2715 8.5883 17.2715H8.58393C8.57523 17.2711 8.5709 17.2711 8.56655 17.2711C8.5622 17.2706 8.56219 17.2706 8.55784 17.2706C8.54914 17.2706 8.54479 17.2702 8.5361 17.2702C8.5274 17.2702 8.52305 17.2698 8.51435 17.2698H8.51001C7.4878 17.2472 6.43513 17.2628 5.44336 17.2415C5.49121 16.9783 5.54775 16.7165 5.60865 16.4576C6.64826 16.8026 7.73139 17.0753 8.68401 17.2737Z" fill="url(#paint6_linear_1710_41042)"/>
</g>
<mask id="mask7_1710_41042" style="mask-type:luminance" maskUnits="userSpaceOnUse" x="1" y="13" width="5" height="5">
<path d="M5.44322 17.2415C4.79509 17.2275 4.17739 17.1984 3.62061 17.1323C3.64671 17.0888 3.65976 17.0361 3.65107 16.9831C3.63802 16.8974 3.57709 16.8274 3.49444 16.8043C3.49009 16.8026 2.82457 16.6168 2.0242 16.2788C1.42827 16.0283 1.10639 15.3706 1.27168 14.749C1.34128 14.4837 1.41524 14.2227 1.49788 13.9656C2.07641 15.0156 3.77286 15.8491 5.6085 16.4576C5.54761 16.7164 5.49107 16.9783 5.44322 17.2415Z" fill="white"/>
</mask>
<g mask="url(#mask7_1710_41042)">
<path d="M5.44322 17.2415C4.79509 17.2275 4.17739 17.1984 3.62061 17.1323C3.64671 17.0888 3.65976 17.0361 3.65107 16.9831C3.63802 16.8974 3.57709 16.8274 3.49444 16.8043C3.49009 16.8026 2.82457 16.6168 2.0242 16.2788C1.42827 16.0283 1.10639 15.3706 1.27168 14.749C1.34128 14.4837 1.41524 14.2227 1.49788 13.9656C2.07641 15.0156 3.77286 15.8491 5.6085 16.4576C5.54761 16.7164 5.49107 16.9783 5.44322 17.2415Z" fill="url(#paint7_linear_1710_41042)"/>
</g>
<path d="M8.55764 17.2706C8.55329 17.2706 8.54459 17.2702 8.53589 17.2702C8.54459 17.2702 8.54894 17.2706 8.55764 17.2706ZM8.50981 17.2698C6.82206 17.2324 5.03427 17.2998 3.61621 17.1336C3.62056 17.1332 3.62054 17.1327 3.62054 17.1323C4.17733 17.1984 4.79502 17.2276 5.44315 17.2415C6.43492 17.2628 7.48759 17.2472 8.50981 17.2698Z" fill="#C25B24"/>
<path d="M2.35845 16.8813C2.1888 16.8274 2.03222 16.7652 1.88867 16.6943C2.05397 16.7635 2.21055 16.8257 2.35845 16.8813Z" fill="#C2A69B"/>
<path d="M36.7881 19.9997C39.4633 20.3991 39.3023 20.7927 39.3545 22.0694C39.4024 23.1978 38.9543 26.7094 37.8843 28.2053C39.8156 25.2744 40.7812 21.7101 40.2723 19.981C38.7586 19.7605 37.5667 19.7635 36.7881 19.9997Z" fill="#FF8C3B"/>
<path d="M19.5062 0.521336C13.6295 0.521336 8.32271 4.62979 5.68235 7.07833C3.59441 9.02489 2.10674 11.6057 1.27157 14.7489C1.10627 15.3705 1.42816 16.0282 2.02409 16.2787C2.82446 16.6167 3.48998 16.8025 3.49433 16.8042C3.57698 16.8272 3.6379 16.8973 3.65095 16.983C3.664 17.0682 3.62486 17.1526 3.55092 17.1983C3.47697 17.2444 3.33776 17.3301 1.84576 17.4075C1.19763 17.441 0.66693 17.9526 0.610382 18.5972C0.558183 19.2671 0.52776 19.9548 0.52776 20.6403C0.52776 22.5343 0.727837 24.3538 1.11932 26.0481C1.20632 26.4304 1.476 26.7571 1.84138 26.922C2.43732 27.1917 2.97673 27.3422 2.98543 27.3435C3.06808 27.367 3.13331 27.4392 3.14201 27.5266C3.15071 27.614 3.11156 27.6997 3.03326 27.7428L2.9071 27.8146C2.27637 28.1673 2.01539 28.9434 2.30683 29.581C3.1333 31.3862 4.23384 32.9365 5.58664 34.188C9.14918 37.5004 14.356 39.4779 19.5062 39.4779C25.3524 39.4779 30.0111 36.2877 32.8951 33.6112C37.7539 29.1043 40.2159 24.7196 40.2159 20.579C40.2159 20.4924 40.2159 20.4054 40.2159 20.3193C40.2115 20.2114 40.1332 20.1188 40.0332 20.1053C39.6199 20.0501 38.8935 20.0387 38.2541 20.0292C37.1667 20.0122 36.7403 19.9966 36.5838 19.8991C36.5098 19.8539 36.4663 19.7695 36.4794 19.6834C36.4924 19.5977 36.5533 19.5272 36.636 19.5041C36.649 19.5007 37.8148 19.1736 39.0458 18.5885C39.6156 18.3179 39.9201 17.689 39.7722 17.0926C38.8979 13.6262 36.7186 10.1402 33.6389 7.27669C31.9294 5.69203 25.8614 0.521336 19.5062 0.521336ZM19.5062 39.9128C14.2472 39.9128 8.9317 37.8919 5.29086 34.5068C3.8989 33.2162 2.75923 31.6198 1.91101 29.762C1.57172 29.019 1.79792 28.1356 2.41995 27.6206C2.21116 27.547 1.9458 27.4457 1.66306 27.3182C1.17587 27.0981 0.814842 26.6597 0.693046 26.146C0.297209 24.4199 0.0927734 22.5673 0.0927734 20.6403C0.0927734 19.9426 0.123222 19.2432 0.179771 18.5611C0.249369 17.7007 0.958388 17.0178 1.82401 16.973C2.0937 16.959 2.31117 16.9451 2.49386 16.9312C2.29812 16.8603 2.08501 16.7764 1.85447 16.6798C1.05844 16.3453 0.627781 15.467 0.849624 14.6371C1.70655 11.4134 3.23334 8.76303 5.38652 6.75948C8.07474 4.26701 13.4816 0.0867958 19.5062 0.0867958C25.844 0.0867958 31.7076 4.89209 33.9347 6.95784C37.0797 9.87834 39.2981 13.4396 40.1941 16.9865C40.3942 17.7833 39.9897 18.6224 39.2328 18.9817C38.7065 19.2314 38.1976 19.4337 37.78 19.5855C37.9453 19.589 38.1106 19.5916 38.2628 19.5942C38.9458 19.6046 39.6548 19.6155 40.0941 19.6742C40.4073 19.7164 40.6422 19.9839 40.6509 20.3106C40.6509 20.3998 40.6509 20.4894 40.6509 20.579C40.6509 24.9054 38.2106 29.2726 33.1865 33.93C30.2504 36.6596 25.4916 39.9128 19.5062 39.9128Z" fill="#612601"/>
<mask id="mask8_1710_41042" style="mask-type:luminance" maskUnits="userSpaceOnUse" x="12" y="5" width="20" height="27">
<path d="M28.2685 31.8672C27.7552 30.614 27.2159 29.1076 26.6547 27.2977C24.3102 19.7459 20.8955 11.3045 12.7656 7.29394C14.871 6.0016 17.2721 5.0642 19.7167 5.0642C22.6094 5.0642 25.5542 6.45137 27.9771 8.15174C28.0685 11.3432 28.1293 15.2298 28.5469 19.9973C28.921 24.295 29.9084 27.3164 31.0263 29.4269C30.6827 29.7797 30.3304 30.119 29.9824 30.443C29.4473 30.9411 28.8731 31.42 28.2685 31.8672Z" fill="white"/>
</mask>
<g mask="url(#mask8_1710_41042)">
<path d="M28.2685 31.8672C27.7552 30.614 27.2159 29.1076 26.6547 27.2977C24.3102 19.7459 20.8955 11.3045 12.7656 7.29394C14.871 6.0016 17.2721 5.0642 19.7167 5.0642C22.6094 5.0642 25.5542 6.45137 27.9771 8.15174C28.0685 11.3432 28.1293 15.2298 28.5469 19.9973C28.921 24.295 29.9084 27.3164 31.0263 29.4269C30.6827 29.7797 30.3304 30.119 29.9824 30.443C29.4473 30.9411 28.8731 31.42 28.2685 31.8672Z" fill="url(#paint8_linear_1710_41042)"/>
</g>
<mask id="mask9_1710_41042" style="mask-type:luminance" maskUnits="userSpaceOnUse" x="7" y="0" width="27" height="36">
<path d="M30.2228 35.7876C29.6442 34.8833 28.9831 33.6231 28.2653 31.8675C28.87 31.4203 29.4442 30.9414 29.9792 30.4434C30.3272 30.1193 30.6795 29.78 31.0232 29.4272C31.8975 31.0737 32.8545 32.1659 33.6635 32.8771C33.4112 33.1216 33.1546 33.3665 32.8936 33.6114C32.1237 34.3239 31.2319 35.0725 30.2228 35.7876ZM27.9739 8.15204C25.551 6.45168 22.6062 5.06451 19.7135 5.06451C17.2689 5.06451 14.8678 6.00191 12.7624 7.29425C11.1965 6.52041 9.4522 5.911 7.50781 5.50559C10.4048 3.18842 14.7721 0.521503 19.5047 0.521503C22.4191 0.521503 25.2726 1.60855 27.6738 2.93787C27.8478 4.43465 27.9174 6.15763 27.9739 8.15204Z" fill="white"/>
</mask>
<g mask="url(#mask9_1710_41042)">
<path d="M30.2228 35.7876C29.6442 34.8833 28.9831 33.6231 28.2653 31.8675C28.87 31.4203 29.4442 30.9414 29.9792 30.4434C30.3272 30.1193 30.6795 29.78 31.0232 29.4272C31.8975 31.0737 32.8545 32.1659 33.6635 32.8771C33.4112 33.1216 33.1546 33.3665 32.8936 33.6114C32.1237 34.3239 31.2319 35.0725 30.2228 35.7876ZM27.9739 8.15204C25.551 6.45168 22.6062 5.06451 19.7135 5.06451C17.2689 5.06451 14.8678 6.00191 12.7624 7.29425C11.1965 6.52041 9.4522 5.911 7.50781 5.50559C10.4048 3.18842 14.7721 0.521503 19.5047 0.521503C22.4191 0.521503 25.2726 1.60855 27.6738 2.93787C27.8478 4.43465 27.9174 6.15763 27.9739 8.15204Z" fill="url(#paint9_linear_1710_41042)"/>
</g>
<path d="M30.3413 35.9651C30.3021 35.9077 30.263 35.8485 30.2238 35.7876C31.233 35.0725 32.1247 34.3239 32.8947 33.6114C33.1557 33.3665 33.4123 33.1216 33.6646 32.8771C33.7211 32.9263 33.7777 32.9737 33.8299 33.0194C33.5689 33.2747 33.3035 33.5252 33.0382 33.771C32.203 34.5462 31.3026 35.2887 30.3413 35.9651ZM7.50888 5.50561C7.41753 5.48603 7.32182 5.46689 7.23047 5.44862C10.606 2.72039 14.995 0.304474 19.5058 0.304474C22.2767 0.304474 25.0867 1.26883 27.64 2.65862C27.6531 2.75083 27.6618 2.84436 27.6748 2.93789C25.2737 1.60857 22.4202 0.521523 19.5058 0.521523C14.7731 0.521523 10.4059 3.18844 7.50888 5.50561Z" fill="#592101"/>
<path d="M9.04458 30.8803C11.7154 33.3602 15.6912 34.9348 19.7148 34.9348C23.7428 34.9348 27.3096 32.9234 29.9805 30.4431C30.7417 29.7354 31.5116 28.9551 32.225 28.116C30.9374 29.0903 29.3323 30.0673 27.3314 30.9134C19.9845 34.027 7.52648 31.7107 5.16016 20.4876C5.16016 24.4447 6.28676 28.3191 9.04458 30.8803Z" fill="#9D3325"/>
<path d="M11.0982 8.194C9.78018 9.82477 17.7752 6.10607 17.1271 5.48578C16.4833 4.86549 12.4249 6.54627 11.0982 8.194Z" fill="#FF8C3B"/>
<path opacity="0.4" d="M20.0928 9.83691C19.044 9.83691 18.1423 10.2513 17.2002 10.9405C16.286 11.6093 15.2562 12.5967 13.9569 13.8426L13.9219 13.8762L11.3428 16.2587V21.6433C11.3428 23.4811 11.3427 24.9367 11.4959 26.0759C11.6535 27.2483 11.9857 28.1973 12.734 28.9457C13.4824 29.694 14.4313 30.0261 15.6038 30.1838C16.743 30.3369 18.1986 30.3369 20.0363 30.3369H20.1492C21.987 30.3369 23.4426 30.3369 24.5818 30.1838C25.7542 30.0261 26.7032 29.694 27.4516 28.9457C28.1999 28.1973 28.532 27.2483 28.6897 26.0759C28.8428 24.9367 28.8428 23.4811 28.8428 21.6434V16.2587L26.2637 13.8762L26.2287 13.8426C24.9293 12.5967 23.8996 11.6093 22.9854 10.9405C22.0433 10.2513 21.1416 9.83691 20.0928 9.83691Z" fill="#631007"/>
<path fill-rule="evenodd" clip-rule="evenodd" d="M18.8428 25.0869C18.8428 24.3965 19.4004 23.8369 20.0883 23.8369C20.7705 23.8369 21.3428 24.3986 21.3428 25.0869C21.3428 25.7752 20.7705 26.3369 20.0883 26.3369C19.4004 26.3369 18.8428 25.7773 18.8428 25.0869Z" fill="#631007"/>
<path fill-rule="evenodd" clip-rule="evenodd" d="M18.2335 12.3529C17.4261 12.9435 16.4815 13.8464 15.128 15.1442L10.7849 19.3087C10.3862 19.6909 9.75322 19.6776 9.37098 19.279C8.98874 18.8804 9.00203 18.2473 9.40066 17.8651L13.7958 13.6508C15.0849 12.4146 16.1248 11.4174 17.0526 10.7387C18.0174 10.0328 18.9705 9.58691 20.0928 9.58691C21.2151 9.58691 22.1682 10.0328 23.133 10.7387C24.0607 11.4174 25.1006 12.4146 26.3898 13.6508L30.7849 17.8651C31.1835 18.2473 31.1968 18.8804 30.8146 19.279C30.4324 19.6776 29.7993 19.6909 29.4007 19.3087L25.0575 15.1442C23.7041 13.8464 22.7595 12.9435 21.9521 12.3529C21.1694 11.7802 20.6273 11.5869 20.0928 11.5869C19.5583 11.5869 19.0162 11.7802 18.2335 12.3529Z" fill="#631007"/>
<defs>
<linearGradient id="paint0_linear_1710_41042" x1="20.3726" y1="38.5885" x2="20.3726" y2="-0.566411" gradientUnits="userSpaceOnUse">
<stop stop-color="#822330"/>
<stop offset="1" stop-color="#D15111"/>
</linearGradient>
<linearGradient id="paint1_linear_1710_41042" x1="20.372" y1="5.06614" x2="20.372" y2="38.8261" gradientUnits="userSpaceOnUse">
<stop stop-color="#F77111"/>
<stop offset="1" stop-color="#540D17"/>
</linearGradient>
<linearGradient id="paint2_linear_1710_41042" x1="20.3742" y1="38.5889" x2="20.3742" y2="-0.565937" gradientUnits="userSpaceOnUse">
<stop stop-color="#63171D"/>
<stop offset="1" stop-color="#9F350A"/>
</linearGradient>
<linearGradient id="paint3_linear_1710_41042" x1="20.3688" y1="5.06645" x2="20.3688" y2="38.8263" gradientUnits="userSpaceOnUse">
<stop stop-color="#BC490A"/>
<stop offset="1" stop-color="#40090E"/>
</linearGradient>
<linearGradient id="paint4_linear_1710_41042" x1="20.3715" y1="38.5889" x2="20.3715" y2="-0.566001" gradientUnits="userSpaceOnUse">
<stop stop-color="#781E27"/>
<stop offset="1" stop-color="#C0460E"/>
</linearGradient>
<linearGradient id="paint5_linear_1710_41042" x1="20.3714" y1="5.06623" x2="20.3714" y2="38.8262" gradientUnits="userSpaceOnUse">
<stop stop-color="#E3610E"/>
<stop offset="1" stop-color="#4D0B13"/>
</linearGradient>
<linearGradient id="paint6_linear_1710_41042" x1="20.3721" y1="38.5889" x2="20.3721" y2="-0.566073" gradientUnits="userSpaceOnUse">
<stop stop-color="#63171D"/>
<stop offset="1" stop-color="#9F350A"/>
</linearGradient>
<linearGradient id="paint7_linear_1710_41042" x1="20.372" y1="5.06622" x2="20.372" y2="38.8261" gradientUnits="userSpaceOnUse">
<stop stop-color="#BC490A"/>
<stop offset="1" stop-color="#40090E"/>
</linearGradient>
<linearGradient id="paint8_linear_1710_41042" x1="20.3735" y1="38.5886" x2="20.3735" y2="-0.566345" gradientUnits="userSpaceOnUse">
<stop stop-color="#781E27"/>
<stop offset="1" stop-color="#C0460E"/>
</linearGradient>
<linearGradient id="paint9_linear_1710_41042" x1="20.3704" y1="5.06624" x2="20.3704" y2="38.8262" gradientUnits="userSpaceOnUse">
<stop stop-color="#E3610E"/>
<stop offset="1" stop-color="#4D0B13"/>
</linearGradient>
</defs>
</svg>
