<svg width="41" height="40" viewBox="0 0 41 40" fill="none" xmlns="http://www.w3.org/2000/svg">
<mask id="mask0_1716_41373" style="mask-type:luminance" maskUnits="userSpaceOnUse" x="5" y="7" width="31" height="27">
<path d="M25.1637 33.8115C24.6765 32.7467 24.2458 31.5639 23.9196 30.2625C22.8974 26.1705 18.926 23.4075 13.6974 23.4075C11.3354 23.4075 8.71682 23.9721 5.99816 25.2327C5.58057 23.7216 5.39355 22.1117 5.39355 20.4875C5.39355 19.6562 5.44572 18.8275 5.55447 18.0137C7.62935 17.5008 8.91694 17.2733 8.91694 17.2733C7.96432 17.075 6.8812 16.8022 5.84158 16.4573C6.41141 13.9988 7.55107 11.7568 9.35626 10.0817C10.4046 9.10908 11.6399 8.12731 12.9971 7.29388C21.127 11.3045 24.5416 19.7458 26.8862 27.2976C27.4473 29.1076 27.9867 30.6139 28.5 31.8671C27.4778 32.6257 26.3599 33.2939 25.1637 33.8115ZM31.2578 29.4269C30.1399 27.3163 29.1525 24.2949 28.7784 19.9972C28.3608 15.2298 28.2999 11.3432 28.2086 8.15167C29.1569 8.81894 30.0268 9.53406 30.7793 10.2327C33.2283 12.5076 35.3032 15.6726 35.7382 19.1246C35.2945 19.4043 34.9422 19.6057 34.7812 19.6901C34.5507 19.8106 34.5637 19.8502 34.7377 19.8502C34.9291 19.8502 35.3163 19.8045 35.7991 19.7658C35.8121 19.989 35.8208 20.2138 35.8208 20.4392C35.8208 23.8956 33.6459 26.9918 31.2578 29.4269Z" fill="white"/>
</mask>
<g mask="url(#mask0_1716_41373)">
<path d="M25.1637 33.8115C24.6765 32.7467 24.2458 31.5639 23.9196 30.2625C22.8974 26.1705 18.926 23.4075 13.6974 23.4075C11.3354 23.4075 8.71682 23.9721 5.99816 25.2327C5.58057 23.7216 5.39355 22.1117 5.39355 20.4875C5.39355 19.6562 5.44572 18.8275 5.55447 18.0137C7.62935 17.5008 8.91694 17.2733 8.91694 17.2733C7.96432 17.075 6.8812 16.8022 5.84158 16.4573C6.41141 13.9988 7.55107 11.7568 9.35626 10.0817C10.4046 9.10908 11.6399 8.12731 12.9971 7.29388C21.127 11.3045 24.5416 19.7458 26.8862 27.2976C27.4473 29.1076 27.9867 30.6139 28.5 31.8671C27.4778 32.6257 26.3599 33.2939 25.1637 33.8115ZM31.2578 29.4269C30.1399 27.3163 29.1525 24.2949 28.7784 19.9972C28.3608 15.2298 28.2999 11.3432 28.2086 8.15167C29.1569 8.81894 30.0268 9.53406 30.7793 10.2327C33.2283 12.5076 35.3032 15.6726 35.7382 19.1246C35.2945 19.4043 34.9422 19.6057 34.7812 19.6901C34.5507 19.8106 34.5637 19.8502 34.7377 19.8502C34.9291 19.8502 35.3163 19.8045 35.7991 19.7658C35.8121 19.989 35.8208 20.2138 35.8208 20.4392C35.8208 23.8956 33.6459 26.9918 31.2578 29.4269Z" fill="url(#paint0_linear_1716_41373)"/>
</g>
<mask id="mask1_1716_41373" style="mask-type:luminance" maskUnits="userSpaceOnUse" x="0" y="2" width="41" height="36">
<path d="M27.438 37.6018C26.6463 36.5644 25.846 35.3029 25.163 33.8118C26.3593 33.2941 27.4771 32.626 28.4994 31.8674C29.2171 33.623 29.8783 34.8831 30.4568 35.7875C29.5433 36.4373 28.5342 37.0594 27.438 37.6018ZM33.8976 32.877C33.0885 32.1658 32.1315 31.0735 31.2572 29.4271C33.6453 26.9921 35.8202 23.8958 35.8202 20.4394C35.8202 20.2141 35.8115 19.9892 35.7985 19.7661C36.0769 19.7439 36.3857 19.7243 36.7119 19.7165C36.7119 19.7904 36.7511 19.86 36.8163 19.8992C36.9729 19.9966 37.3992 20.0123 38.4867 20.0292C39.1261 20.0388 39.8525 20.0501 40.2657 20.1054C40.3658 20.1188 40.4441 20.2115 40.4484 20.3194C40.4484 20.4055 40.4484 20.4925 40.4484 20.579C40.4484 24.4944 38.2474 28.628 33.8976 32.877ZM2.61334 27.1434C2.4524 27.0825 2.26533 27.0086 2.07394 26.922C1.70855 26.7572 1.43888 26.4305 1.35188 26.0481C0.982142 24.4583 0.786398 22.7583 0.764648 20.9897C1.19528 20.0123 2.01307 18.9596 3.55727 18.535C4.2837 18.3363 4.95355 18.1631 5.55383 18.0139C5.44508 18.8278 5.39292 19.6564 5.39292 20.4877C5.39292 22.1119 5.57994 23.7218 5.99753 25.233C4.88396 25.7502 3.753 26.3835 2.61334 27.1434ZM35.7376 19.1249C35.3026 15.6728 33.2277 12.5079 30.7787 10.2329C30.0262 9.53432 29.1562 8.8192 28.208 8.15193C28.1514 6.15751 28.0818 4.43454 27.9078 2.93775C30.7439 4.50892 32.9449 6.41851 33.8714 7.27674C36.5597 9.77313 38.5563 12.7428 39.6046 15.7598C38.9782 16.9352 36.986 18.3397 35.7376 19.1249ZM5.84095 16.4576C4.00531 15.849 2.30886 15.0156 1.73033 13.9655C2.59595 11.1751 4.00096 8.86096 5.9149 7.07838C6.42819 6.60251 7.04152 6.064 7.74185 5.50548C9.68624 5.91088 11.4305 6.52029 12.9965 7.29414C11.6393 8.12757 10.4039 9.10934 9.35563 10.082C7.55044 11.7571 6.41078 13.999 5.84095 16.4576Z" fill="white"/>
</mask>
<g mask="url(#mask1_1716_41373)">
<path d="M27.438 37.6018C26.6463 36.5644 25.846 35.3029 25.163 33.8118C26.3593 33.2941 27.4771 32.626 28.4994 31.8674C29.2171 33.623 29.8783 34.8831 30.4568 35.7875C29.5433 36.4373 28.5342 37.0594 27.438 37.6018ZM33.8976 32.877C33.0885 32.1658 32.1315 31.0735 31.2572 29.4271C33.6453 26.9921 35.8202 23.8958 35.8202 20.4394C35.8202 20.2141 35.8115 19.9892 35.7985 19.7661C36.0769 19.7439 36.3857 19.7243 36.7119 19.7165C36.7119 19.7904 36.7511 19.86 36.8163 19.8992C36.9729 19.9966 37.3992 20.0123 38.4867 20.0292C39.1261 20.0388 39.8525 20.0501 40.2657 20.1054C40.3658 20.1188 40.4441 20.2115 40.4484 20.3194C40.4484 20.4055 40.4484 20.4925 40.4484 20.579C40.4484 24.4944 38.2474 28.628 33.8976 32.877ZM2.61334 27.1434C2.4524 27.0825 2.26533 27.0086 2.07394 26.922C1.70855 26.7572 1.43888 26.4305 1.35188 26.0481C0.982142 24.4583 0.786398 22.7583 0.764648 20.9897C1.19528 20.0123 2.01307 18.9596 3.55727 18.535C4.2837 18.3363 4.95355 18.1631 5.55383 18.0139C5.44508 18.8278 5.39292 19.6564 5.39292 20.4877C5.39292 22.1119 5.57994 23.7218 5.99753 25.233C4.88396 25.7502 3.753 26.3835 2.61334 27.1434ZM35.7376 19.1249C35.3026 15.6728 33.2277 12.5079 30.7787 10.2329C30.0262 9.53432 29.1562 8.8192 28.208 8.15193C28.1514 6.15751 28.0818 4.43454 27.9078 2.93775C30.7439 4.50892 32.9449 6.41851 33.8714 7.27674C36.5597 9.77313 38.5563 12.7428 39.6046 15.7598C38.9782 16.9352 36.986 18.3397 35.7376 19.1249ZM5.84095 16.4576C4.00531 15.849 2.30886 15.0156 1.73033 13.9655C2.59595 11.1751 4.00096 8.86096 5.9149 7.07838C6.42819 6.60251 7.04152 6.064 7.74185 5.50548C9.68624 5.91088 11.4305 6.52029 12.9965 7.29414C11.6393 8.12757 10.4039 9.10934 9.35563 10.082C7.55044 11.7571 6.41078 13.999 5.84095 16.4576Z" fill="url(#paint1_linear_1716_41373)"/>
</g>
<mask id="mask2_1716_41373" style="mask-type:luminance" maskUnits="userSpaceOnUse" x="34" y="19" width="2" height="1">
<path d="M34.7395 19.8506C34.5655 19.8506 34.5525 19.811 34.783 19.6905C34.944 19.6061 35.2963 19.4047 35.74 19.125C35.7661 19.3382 35.7879 19.5513 35.8009 19.7662C35.3181 19.8049 34.9309 19.8506 34.7395 19.8506Z" fill="white"/>
</mask>
<g mask="url(#mask2_1716_41373)">
<path d="M34.7395 19.8506C34.5655 19.8506 34.5525 19.811 34.783 19.6905C34.944 19.6061 35.2963 19.4047 35.74 19.125C35.7661 19.3382 35.7879 19.5513 35.8009 19.7662C35.3181 19.8049 34.9309 19.8506 34.7395 19.8506Z" fill="url(#paint2_linear_1716_41373)"/>
</g>
<mask id="mask3_1716_41373" style="mask-type:luminance" maskUnits="userSpaceOnUse" x="35" y="15" width="6" height="5">
<path d="M35.7953 19.7664C35.7822 19.5515 35.7605 19.3383 35.7344 19.1252C36.9828 18.34 38.975 16.9355 39.6014 15.7601C39.7537 16.2038 39.8885 16.6484 40.0016 17.0929C40.1495 17.6893 39.845 18.3183 39.2752 18.5888C38.0442 19.1739 36.8784 19.501 36.8653 19.5045C36.7827 19.5275 36.7218 19.598 36.7088 19.6837C36.7088 19.695 36.7088 19.7059 36.7088 19.7168C36.3825 19.7246 36.0737 19.7442 35.7953 19.7664Z" fill="white"/>
</mask>
<g mask="url(#mask3_1716_41373)">
<path d="M35.7953 19.7664C35.7822 19.5515 35.7605 19.3383 35.7344 19.1252C36.9828 18.34 38.975 16.9355 39.6014 15.7601C39.7537 16.2038 39.8885 16.6484 40.0016 17.0929C40.1495 17.6893 39.845 18.3183 39.2752 18.5888C38.0442 19.1739 36.8784 19.501 36.8653 19.5045C36.7827 19.5275 36.7218 19.598 36.7088 19.6837C36.7088 19.695 36.7088 19.7059 36.7088 19.7168C36.3825 19.7246 36.0737 19.7442 35.7953 19.7664Z" fill="url(#paint3_linear_1716_41373)"/>
</g>
<mask id="mask4_1716_41373" style="mask-type:luminance" maskUnits="userSpaceOnUse" x="5" y="23" width="21" height="12">
<path d="M19.9471 34.9351C15.9235 34.9351 11.9477 33.3604 9.27688 30.8806C7.65439 29.3707 6.593 27.4041 5.99707 25.2331C8.71573 23.9725 11.3344 23.4079 13.6963 23.4079C18.9249 23.4079 22.8963 26.171 23.9185 30.2629C24.2447 31.5644 24.6754 32.7471 25.1626 33.8119C23.5488 34.511 21.7958 34.9351 19.9471 34.9351Z" fill="white"/>
</mask>
<g mask="url(#mask4_1716_41373)">
<path d="M19.9471 34.9351C15.9235 34.9351 11.9477 33.3604 9.27688 30.8806C7.65439 29.3707 6.593 27.4041 5.99707 25.2331C8.71573 23.9725 11.3344 23.4079 13.6963 23.4079C18.9249 23.4079 22.8963 26.171 23.9185 30.2629C24.2447 31.5644 24.6754 32.7471 25.1626 33.8119C23.5488 34.511 21.7958 34.9351 19.9471 34.9351Z" fill="url(#paint4_linear_1716_41373)"/>
</g>
<mask id="mask5_1716_41373" style="mask-type:luminance" maskUnits="userSpaceOnUse" x="2" y="25" width="26" height="15">
<path d="M19.7382 39.478C14.588 39.478 9.38118 37.5006 5.81865 34.1882C4.46584 32.9367 3.36531 31.3864 2.53883 29.5812C2.24739 28.9435 2.50837 28.1675 3.1391 27.8147L3.26527 27.743C3.34356 27.6999 3.38271 27.6142 3.37401 27.5268C3.36531 27.4393 3.30008 27.3671 3.21744 27.3436C3.21309 27.3428 2.96078 27.2727 2.61279 27.1436C3.75245 26.3836 4.88341 25.7503 5.99697 25.2331C6.5929 27.4041 7.65429 29.3707 9.27679 30.8805C11.9476 33.3604 15.9234 34.935 19.947 34.935C21.7957 34.935 23.5487 34.5109 25.1625 33.8119C25.8454 35.303 26.6458 36.5645 27.4375 37.6019C25.206 38.7055 22.6135 39.478 19.7382 39.478Z" fill="white"/>
</mask>
<g mask="url(#mask5_1716_41373)">
<path d="M19.7382 39.478C14.588 39.478 9.38118 37.5006 5.81865 34.1882C4.46584 32.9367 3.36531 31.3864 2.53883 29.5812C2.24739 28.9435 2.50837 28.1675 3.1391 27.8147L3.26527 27.743C3.34356 27.6999 3.38271 27.6142 3.37401 27.5268C3.36531 27.4393 3.30008 27.3671 3.21744 27.3436C3.21309 27.3428 2.96078 27.2727 2.61279 27.1436C3.75245 26.3836 4.88341 25.7503 5.99697 25.2331C6.5929 27.4041 7.65429 29.3707 9.27679 30.8805C11.9476 33.3604 15.9234 34.935 19.947 34.935C21.7957 34.935 23.5487 34.5109 25.1625 33.8119C25.8454 35.303 26.6458 36.5645 27.4375 37.6019C25.206 38.7055 22.6135 39.478 19.7382 39.478Z" fill="url(#paint5_linear_1716_41373)"/>
</g>
<path d="M3.43563 17.0749C3.13549 17.1245 2.60914 17.1628 2.06975 17.1902C1.99146 17.1941 1.9175 17.2076 1.84355 17.2228C1.70871 17.2624 1.58255 17.305 1.46511 17.3546C1.00402 17.5856 0.673465 18.0384 0.629966 18.5791C0.573418 19.262 0.542969 19.9502 0.542969 20.6405C0.542969 20.9298 0.556018 21.2181 0.564718 21.5061C0.925757 20.4112 1.73482 19.0362 3.55742 18.5351C6.77631 17.6521 8.91646 17.2737 8.91646 17.2737C7.01122 17.2232 4.95373 17.3211 3.43563 17.0749Z" fill="#FF8C3B"/>
<mask id="mask6_1716_41373" style="mask-type:luminance" maskUnits="userSpaceOnUse" x="5" y="16" width="4" height="2">
<path d="M8.91643 17.2737C8.91208 17.2737 8.90338 17.2737 8.89468 17.2732C8.89033 17.2732 8.89032 17.2732 8.88597 17.2732C8.88162 17.2728 8.87728 17.2728 8.87293 17.2728C8.86858 17.2724 8.8642 17.2724 8.85985 17.2724C8.8555 17.2724 8.85116 17.2724 8.84681 17.272C8.84246 17.272 8.84245 17.272 8.8381 17.272C8.83375 17.2715 8.82507 17.2715 8.82072 17.2715H8.81635C8.80765 17.2711 8.80332 17.2711 8.79897 17.2711C8.79462 17.2706 8.79462 17.2706 8.79027 17.2706C8.78157 17.2706 8.77722 17.2702 8.76852 17.2702C8.75982 17.2702 8.75547 17.2698 8.74677 17.2698H8.74243C7.72022 17.2472 6.66755 17.2628 5.67578 17.2415C5.72363 16.9783 5.78017 16.7165 5.84107 16.4576C6.88068 16.8026 7.96381 17.0753 8.91643 17.2737Z" fill="white"/>
</mask>
<g mask="url(#mask6_1716_41373)">
<path d="M8.91643 17.2737C8.91208 17.2737 8.90338 17.2737 8.89468 17.2732C8.89033 17.2732 8.89032 17.2732 8.88597 17.2732C8.88162 17.2728 8.87728 17.2728 8.87293 17.2728C8.86858 17.2724 8.8642 17.2724 8.85985 17.2724C8.8555 17.2724 8.85116 17.2724 8.84681 17.272C8.84246 17.272 8.84245 17.272 8.8381 17.272C8.83375 17.2715 8.82507 17.2715 8.82072 17.2715H8.81635C8.80765 17.2711 8.80332 17.2711 8.79897 17.2711C8.79462 17.2706 8.79462 17.2706 8.79027 17.2706C8.78157 17.2706 8.77722 17.2702 8.76852 17.2702C8.75982 17.2702 8.75547 17.2698 8.74677 17.2698H8.74243C7.72022 17.2472 6.66755 17.2628 5.67578 17.2415C5.72363 16.9783 5.78017 16.7165 5.84107 16.4576C6.88068 16.8026 7.96381 17.0753 8.91643 17.2737Z" fill="url(#paint6_linear_1716_41373)"/>
</g>
<mask id="mask7_1716_41373" style="mask-type:luminance" maskUnits="userSpaceOnUse" x="1" y="13" width="5" height="5">
<path d="M5.67564 17.2415C5.02751 17.2275 4.40981 17.1984 3.85303 17.1323C3.87913 17.0888 3.89219 17.0361 3.88349 16.9831C3.87044 16.8974 3.80951 16.8274 3.72687 16.8043C3.72252 16.8026 3.057 16.6168 2.25662 16.2788C1.66069 16.0283 1.33881 15.3706 1.5041 14.749C1.5737 14.4837 1.64766 14.2227 1.7303 13.9656C2.30884 15.0156 4.00528 15.8491 5.84093 16.4576C5.78003 16.7164 5.72349 16.9783 5.67564 17.2415Z" fill="white"/>
</mask>
<g mask="url(#mask7_1716_41373)">
<path d="M5.67564 17.2415C5.02751 17.2275 4.40981 17.1984 3.85303 17.1323C3.87913 17.0888 3.89219 17.0361 3.88349 16.9831C3.87044 16.8974 3.80951 16.8274 3.72687 16.8043C3.72252 16.8026 3.057 16.6168 2.25662 16.2788C1.66069 16.0283 1.33881 15.3706 1.5041 14.749C1.5737 14.4837 1.64766 14.2227 1.7303 13.9656C2.30884 15.0156 4.00528 15.8491 5.84093 16.4576C5.78003 16.7164 5.72349 16.9783 5.67564 17.2415Z" fill="url(#paint7_linear_1716_41373)"/>
</g>
<path d="M8.79006 17.2706C8.78571 17.2706 8.77701 17.2702 8.76831 17.2702C8.77701 17.2702 8.78136 17.2706 8.79006 17.2706ZM8.74223 17.2698C7.05448 17.2324 5.26669 17.2998 3.84863 17.1336C3.85298 17.1332 3.85297 17.1327 3.85297 17.1323C4.40975 17.1984 5.02745 17.2276 5.67558 17.2415C6.66734 17.2628 7.72001 17.2472 8.74223 17.2698Z" fill="#C25B24"/>
<path d="M2.59087 16.8813C2.42123 16.8274 2.26464 16.7652 2.12109 16.6943C2.28639 16.7635 2.44298 16.8257 2.59087 16.8813Z" fill="#C2A69B"/>
<path d="M37.0205 19.9997C39.6957 20.3991 39.5347 20.7927 39.5869 22.0694C39.6348 23.1978 39.1867 26.7094 38.1167 28.2053C40.048 25.2744 41.0137 21.7101 40.5047 19.981C38.991 19.7605 37.7991 19.7635 37.0205 19.9997Z" fill="#FF8C3B"/>
<path d="M19.7386 0.521336C13.862 0.521336 8.55514 4.62979 5.91477 7.07833C3.82684 9.02489 2.33917 11.6057 1.50399 14.7489C1.3387 15.3705 1.66058 16.0282 2.25651 16.2787C3.05688 16.6167 3.7224 16.8025 3.72675 16.8042C3.8094 16.8272 3.87033 16.8973 3.88338 16.983C3.89642 17.0682 3.85728 17.1526 3.78334 17.1983C3.70939 17.2444 3.57018 17.3301 2.07818 17.4075C1.43005 17.441 0.899352 17.9526 0.842804 18.5972C0.790605 19.2671 0.760182 19.9548 0.760182 20.6403C0.760182 22.5343 0.960258 24.3538 1.35175 26.0481C1.43874 26.4304 1.70842 26.7571 2.07381 26.922C2.66974 27.1917 3.20915 27.3422 3.21785 27.3435C3.3005 27.367 3.36573 27.4392 3.37443 27.5266C3.38313 27.614 3.34398 27.6997 3.26569 27.7428L3.13952 27.8146C2.50879 28.1673 2.24781 28.9434 2.53925 29.581C3.36572 31.3862 4.46626 32.9365 5.81906 34.188C9.3816 37.5004 14.5884 39.4779 19.7386 39.4779C25.5848 39.4779 30.2435 36.2877 33.1275 33.6112C37.9863 29.1043 40.4483 24.7196 40.4483 20.579C40.4483 20.4924 40.4483 20.4054 40.4483 20.3193C40.444 20.2114 40.3657 20.1188 40.2656 20.1053C39.8524 20.0501 39.126 20.0387 38.4865 20.0292C37.3991 20.0122 36.9728 19.9966 36.8162 19.8991C36.7422 19.8539 36.6988 19.7695 36.7118 19.6834C36.7249 19.5977 36.7857 19.5272 36.8684 19.5041C36.8814 19.5007 38.0472 19.1736 39.2782 18.5885C39.8481 18.3179 40.1525 17.689 40.0046 17.0926C39.1303 13.6262 36.951 10.1402 33.8713 7.27669C32.1618 5.69203 26.0938 0.521336 19.7386 0.521336ZM19.7386 39.9128C14.4796 39.9128 9.16412 37.8919 5.52328 34.5068C4.13133 33.2162 2.99165 31.6198 2.14343 29.762C1.80414 29.019 2.03034 28.1356 2.65237 27.6206C2.44358 27.547 2.17822 27.4457 1.89548 27.3182C1.40829 27.0981 1.04726 26.6597 0.925468 26.146C0.52963 24.4199 0.325195 22.5673 0.325195 20.6403C0.325195 19.9426 0.355644 19.2432 0.412193 18.5611C0.48179 17.7007 1.19081 17.0178 2.05643 16.973C2.32612 16.959 2.54359 16.9451 2.72629 16.9312C2.53054 16.8603 2.31743 16.7764 2.08689 16.6798C1.29087 16.3453 0.860203 15.467 1.08205 14.6371C1.93897 11.4134 3.46576 8.76303 5.61895 6.75948C8.30716 4.26701 13.7141 0.0867958 19.7386 0.0867958C26.0764 0.0867958 31.94 4.89209 34.1671 6.95784C37.3121 9.87834 39.5305 13.4396 40.4266 16.9865C40.6267 17.7833 40.2221 18.6224 39.4653 18.9817C38.9389 19.2314 38.43 19.4337 38.0124 19.5855C38.1777 19.589 38.343 19.5916 38.4952 19.5942C39.1782 19.6046 39.8872 19.6155 40.3265 19.6742C40.6397 19.7164 40.8746 19.9839 40.8833 20.3106C40.8833 20.3998 40.8833 20.4894 40.8833 20.579C40.8833 24.9054 38.443 29.2726 33.4189 33.93C30.4828 36.6596 25.724 39.9128 19.7386 39.9128Z" fill="#612601"/>
<mask id="mask8_1716_41373" style="mask-type:luminance" maskUnits="userSpaceOnUse" x="12" y="5" width="20" height="27">
<path d="M28.5009 31.8672C27.9876 30.614 27.4483 29.1076 26.8872 27.2977C24.5426 19.7459 21.1279 11.3045 12.998 7.29394C15.1034 6.0016 17.5045 5.0642 19.9491 5.0642C22.8418 5.0642 25.7867 6.45137 28.2095 8.15174C28.3009 11.3432 28.3618 15.2298 28.7793 19.9973C29.1534 24.295 30.1408 27.3164 31.2588 29.4269C30.9151 29.7797 30.5628 30.119 30.2148 30.443C29.6798 30.9411 29.1056 31.42 28.5009 31.8672Z" fill="white"/>
</mask>
<g mask="url(#mask8_1716_41373)">
<path d="M28.5009 31.8672C27.9876 30.614 27.4483 29.1076 26.8872 27.2977C24.5426 19.7459 21.1279 11.3045 12.998 7.29394C15.1034 6.0016 17.5045 5.0642 19.9491 5.0642C22.8418 5.0642 25.7867 6.45137 28.2095 8.15174C28.3009 11.3432 28.3618 15.2298 28.7793 19.9973C29.1534 24.295 30.1408 27.3164 31.2588 29.4269C30.9151 29.7797 30.5628 30.119 30.2148 30.443C29.6798 30.9411 29.1056 31.42 28.5009 31.8672Z" fill="url(#paint8_linear_1716_41373)"/>
</g>
<mask id="mask9_1716_41373" style="mask-type:luminance" maskUnits="userSpaceOnUse" x="7" y="0" width="27" height="36">
<path d="M30.4552 35.7876C29.8767 34.8833 29.2155 33.6231 28.4977 31.8675C29.1024 31.4203 29.6766 30.9414 30.2116 30.4434C30.5596 30.1193 30.9119 29.78 31.2556 29.4272C32.1299 31.0737 33.0869 32.1659 33.896 32.8771C33.6437 33.1216 33.387 33.3665 33.126 33.6114C32.3561 34.3239 31.4644 35.0725 30.4552 35.7876ZM28.2063 8.15204C25.7835 6.45168 22.8386 5.06451 19.9459 5.06451C17.5013 5.06451 15.1002 6.00191 12.9949 7.29425C11.4289 6.52041 9.68462 5.911 7.74023 5.50559C10.6372 3.18842 15.0045 0.521503 19.7371 0.521503C22.6516 0.521503 25.5051 1.60855 27.9062 2.93787C28.0802 4.43465 28.1498 6.15763 28.2063 8.15204Z" fill="white"/>
</mask>
<g mask="url(#mask9_1716_41373)">
<path d="M30.4552 35.7876C29.8767 34.8833 29.2155 33.6231 28.4977 31.8675C29.1024 31.4203 29.6766 30.9414 30.2116 30.4434C30.5596 30.1193 30.9119 29.78 31.2556 29.4272C32.1299 31.0737 33.0869 32.1659 33.896 32.8771C33.6437 33.1216 33.387 33.3665 33.126 33.6114C32.3561 34.3239 31.4644 35.0725 30.4552 35.7876ZM28.2063 8.15204C25.7835 6.45168 22.8386 5.06451 19.9459 5.06451C17.5013 5.06451 15.1002 6.00191 12.9949 7.29425C11.4289 6.52041 9.68462 5.911 7.74023 5.50559C10.6372 3.18842 15.0045 0.521503 19.7371 0.521503C22.6516 0.521503 25.5051 1.60855 27.9062 2.93787C28.0802 4.43465 28.1498 6.15763 28.2063 8.15204Z" fill="url(#paint9_linear_1716_41373)"/>
</g>
<path d="M30.5737 35.9651C30.5346 35.9077 30.4954 35.8485 30.4563 35.7876C31.4654 35.0725 32.3572 34.3239 33.1271 33.6114C33.3881 33.3665 33.6447 33.1216 33.897 32.8771C33.9536 32.9263 34.0101 32.9737 34.0623 33.0194C33.8013 33.2747 33.536 33.5252 33.2706 33.771C32.4355 34.5462 31.535 35.2887 30.5737 35.9651ZM7.7413 5.50561C7.64995 5.48603 7.55424 5.46689 7.46289 5.44862C10.8384 2.72039 15.2274 0.304474 19.7382 0.304474C22.5091 0.304474 25.3191 1.26883 27.8725 2.65862C27.8855 2.75083 27.8942 2.84436 27.9073 2.93789C25.5061 1.60857 22.6526 0.521523 19.7382 0.521523C15.0056 0.521523 10.6383 3.18844 7.7413 5.50561Z" fill="#592101"/>
<path d="M9.277 30.8803C11.9478 33.3602 15.9236 34.9348 19.9472 34.9348C23.9752 34.9348 27.5421 32.9234 30.2129 30.4431C30.9741 29.7354 31.744 28.9551 32.4574 28.116C31.1698 29.0903 29.5647 30.0673 27.5638 30.9134C20.2169 34.027 7.7589 31.7107 5.39258 20.4876C5.39258 24.4447 6.51918 28.3191 9.277 30.8803Z" fill="#9D3325"/>
<path d="M11.3306 8.194C10.0126 9.82477 18.0076 6.10607 17.3595 5.48578C16.7157 4.86549 12.6573 6.54627 11.3306 8.194Z" fill="#FF8C3B"/>
<g clip-path="url(#clip0_1716_41373)">
<path opacity="0.4" d="M28.8902 26C29.6395 26 30.2355 25.5285 30.7707 24.8691C31.8661 23.5194 30.0675 22.4408 29.3816 21.9126C28.6842 21.3756 27.9056 21.0714 27.1162 21M26.1162 19C27.4969 19 28.6162 17.8807 28.6162 16.5C28.6162 15.1193 27.4969 14 26.1162 14" stroke="#631007" stroke-width="1.5" stroke-linecap="round"/>
<path opacity="0.4" d="M11.3422 26C10.5929 26 9.99688 25.5285 9.46176 24.8691C8.3663 23.5194 10.1649 22.4408 10.8509 21.9126C11.5482 21.3756 12.3268 21.0714 13.1162 21M13.6162 19C12.2355 19 11.1162 17.8807 11.1162 16.5C11.1162 15.1193 12.2355 14 13.6162 14" stroke="#631007" stroke-width="1.5" stroke-linecap="round"/>
<path d="M16.2 23.1112C15.1782 23.743 12.4992 25.0331 14.1309 26.6474C14.928 27.436 15.8157 28 16.9318 28H23.3006C24.4167 28 25.3044 27.436 26.1015 26.6474C27.7332 25.0331 25.0542 23.743 24.0324 23.1112C21.6363 21.6296 18.5961 21.6296 16.2 23.1112Z" stroke="#631007" stroke-width="1.5" stroke-linecap="round" stroke-linejoin="round"/>
<path d="M23.6162 15.5C23.6162 17.433 22.0492 19 20.1162 19C18.1832 19 16.6162 17.433 16.6162 15.5C16.6162 13.567 18.1832 12 20.1162 12C22.0492 12 23.6162 13.567 23.6162 15.5Z" stroke="#631007" stroke-width="1.5"/>
</g>
<defs>
<linearGradient id="paint0_linear_1716_41373" x1="20.605" y1="38.5885" x2="20.605" y2="-0.566411" gradientUnits="userSpaceOnUse">
<stop stop-color="#822330"/>
<stop offset="1" stop-color="#D15111"/>
</linearGradient>
<linearGradient id="paint1_linear_1716_41373" x1="20.6044" y1="5.06614" x2="20.6044" y2="38.8261" gradientUnits="userSpaceOnUse">
<stop stop-color="#F77111"/>
<stop offset="1" stop-color="#540D17"/>
</linearGradient>
<linearGradient id="paint2_linear_1716_41373" x1="20.6066" y1="38.5889" x2="20.6066" y2="-0.565937" gradientUnits="userSpaceOnUse">
<stop stop-color="#63171D"/>
<stop offset="1" stop-color="#9F350A"/>
</linearGradient>
<linearGradient id="paint3_linear_1716_41373" x1="20.6013" y1="5.06645" x2="20.6013" y2="38.8263" gradientUnits="userSpaceOnUse">
<stop stop-color="#BC490A"/>
<stop offset="1" stop-color="#40090E"/>
</linearGradient>
<linearGradient id="paint4_linear_1716_41373" x1="20.6039" y1="38.5889" x2="20.6039" y2="-0.566001" gradientUnits="userSpaceOnUse">
<stop stop-color="#781E27"/>
<stop offset="1" stop-color="#C0460E"/>
</linearGradient>
<linearGradient id="paint5_linear_1716_41373" x1="20.6038" y1="5.06623" x2="20.6038" y2="38.8262" gradientUnits="userSpaceOnUse">
<stop stop-color="#E3610E"/>
<stop offset="1" stop-color="#4D0B13"/>
</linearGradient>
<linearGradient id="paint6_linear_1716_41373" x1="20.6045" y1="38.5889" x2="20.6045" y2="-0.566073" gradientUnits="userSpaceOnUse">
<stop stop-color="#63171D"/>
<stop offset="1" stop-color="#9F350A"/>
</linearGradient>
<linearGradient id="paint7_linear_1716_41373" x1="20.6044" y1="5.06622" x2="20.6044" y2="38.8261" gradientUnits="userSpaceOnUse">
<stop stop-color="#BC490A"/>
<stop offset="1" stop-color="#40090E"/>
</linearGradient>
<linearGradient id="paint8_linear_1716_41373" x1="20.606" y1="38.5886" x2="20.606" y2="-0.566345" gradientUnits="userSpaceOnUse">
<stop stop-color="#781E27"/>
<stop offset="1" stop-color="#C0460E"/>
</linearGradient>
<linearGradient id="paint9_linear_1716_41373" x1="20.6028" y1="5.06624" x2="20.6028" y2="38.8262" gradientUnits="userSpaceOnUse">
<stop stop-color="#E3610E"/>
<stop offset="1" stop-color="#4D0B13"/>
</linearGradient>
<clipPath id="clip0_1716_41373">
<rect width="24" height="24" fill="white" transform="translate(8.11621 8)"/>
</clipPath>
</defs>
</svg>
