<svg width="42" height="40" viewBox="0 0 42 40" fill="none" xmlns="http://www.w3.org/2000/svg">
<mask id="mask0_1710_41264" style="mask-type:luminance" maskUnits="userSpaceOnUse" x="5" y="7" width="32" height="27">
<path d="M25.6051 33.8115C25.1179 32.7467 24.6872 31.5639 24.361 30.2625C23.3388 26.1705 19.3674 23.4075 14.1388 23.4075C11.7768 23.4075 9.15823 23.9721 6.43957 25.2327C6.02198 23.7216 5.83496 22.1117 5.83496 20.4875C5.83496 19.6562 5.88713 18.8275 5.99587 18.0137C8.07076 17.5008 9.35835 17.2733 9.35835 17.2733C8.40573 17.075 7.32261 16.8022 6.28299 16.4573C6.85282 13.9988 7.99248 11.7568 9.79767 10.0817C10.846 9.10908 12.0814 8.12731 13.4385 7.29388C21.5684 11.3045 24.983 19.7458 27.3276 27.2976C27.8888 29.1076 28.4281 30.6139 28.9414 31.8671C27.9192 32.6257 26.8013 33.2939 25.6051 33.8115ZM31.6992 29.4269C30.5813 27.3163 29.5939 24.2949 29.2198 19.9972C28.8022 15.2298 28.7413 11.3432 28.65 8.15167C29.5983 8.81894 30.4682 9.53406 31.2207 10.2327C33.6697 12.5076 35.7446 15.6726 36.1796 19.1246C35.7359 19.4043 35.3836 19.6057 35.2226 19.6901C34.9921 19.8106 35.0051 19.8502 35.1791 19.8502C35.3705 19.8502 35.7577 19.8045 36.2405 19.7658C36.2536 19.989 36.2623 20.2138 36.2623 20.4392C36.2623 23.8956 34.0873 26.9918 31.6992 29.4269Z" fill="white"/>
</mask>
<g mask="url(#mask0_1710_41264)">
<path d="M25.6051 33.8115C25.1179 32.7467 24.6872 31.5639 24.361 30.2625C23.3388 26.1705 19.3674 23.4075 14.1388 23.4075C11.7768 23.4075 9.15823 23.9721 6.43957 25.2327C6.02198 23.7216 5.83496 22.1117 5.83496 20.4875C5.83496 19.6562 5.88713 18.8275 5.99587 18.0137C8.07076 17.5008 9.35835 17.2733 9.35835 17.2733C8.40573 17.075 7.32261 16.8022 6.28299 16.4573C6.85282 13.9988 7.99248 11.7568 9.79767 10.0817C10.846 9.10908 12.0814 8.12731 13.4385 7.29388C21.5684 11.3045 24.983 19.7458 27.3276 27.2976C27.8888 29.1076 28.4281 30.6139 28.9414 31.8671C27.9192 32.6257 26.8013 33.2939 25.6051 33.8115ZM31.6992 29.4269C30.5813 27.3163 29.5939 24.2949 29.2198 19.9972C28.8022 15.2298 28.7413 11.3432 28.65 8.15167C29.5983 8.81894 30.4682 9.53406 31.2207 10.2327C33.6697 12.5076 35.7446 15.6726 36.1796 19.1246C35.7359 19.4043 35.3836 19.6057 35.2226 19.6901C34.9921 19.8106 35.0051 19.8502 35.1791 19.8502C35.3705 19.8502 35.7577 19.8045 36.2405 19.7658C36.2536 19.989 36.2623 20.2138 36.2623 20.4392C36.2623 23.8956 34.0873 26.9918 31.6992 29.4269Z" fill="url(#paint0_linear_1710_41264)"/>
</g>
<mask id="mask1_1710_41264" style="mask-type:luminance" maskUnits="userSpaceOnUse" x="1" y="2" width="40" height="36">
<path d="M27.8794 37.6018C27.0878 36.5644 26.2874 35.3029 25.6045 33.8118C26.8007 33.2941 27.9186 32.626 28.9408 31.8674C29.6585 33.623 30.3197 34.8831 30.8982 35.7875C29.9847 36.4373 28.9756 37.0594 27.8794 37.6018ZM34.339 32.877C33.5299 32.1658 32.5729 31.0735 31.6986 29.4271C34.0867 26.9921 36.2616 23.8958 36.2616 20.4394C36.2616 20.2141 36.2529 19.9892 36.2399 19.7661C36.5183 19.7439 36.8271 19.7243 37.1533 19.7165C37.1533 19.7904 37.1925 19.86 37.2577 19.8992C37.4143 19.9966 37.8406 20.0123 38.9281 20.0292C39.5675 20.0388 40.2939 20.0501 40.7071 20.1054C40.8072 20.1188 40.8855 20.2115 40.8899 20.3194C40.8899 20.4055 40.8899 20.4925 40.8899 20.579C40.8899 24.4944 38.6888 28.628 34.339 32.877ZM3.05475 27.1434C2.8938 27.0825 2.70674 27.0086 2.51535 26.922C2.14996 26.7572 1.88028 26.4305 1.79329 26.0481C1.42355 24.4583 1.2278 22.7583 1.20605 20.9897C1.63669 20.0123 2.45447 18.9596 3.99868 18.535C4.7251 18.3363 5.39496 18.1631 5.99524 18.0139C5.88649 18.8278 5.83433 19.6564 5.83433 20.4877C5.83433 22.1119 6.02135 23.7218 6.43893 25.233C5.32537 25.7502 4.19441 26.3835 3.05475 27.1434ZM36.179 19.1249C35.744 15.6728 33.6691 12.5079 31.2201 10.2329C30.4676 9.53432 29.5976 8.8192 28.6494 8.15193C28.5928 6.15751 28.5232 4.43454 28.3492 2.93775C31.1853 4.50892 33.3863 6.41851 34.3128 7.27674C37.0011 9.77313 38.9977 12.7428 40.046 15.7598C39.4196 16.9352 37.4274 18.3397 36.179 19.1249ZM6.28235 16.4576C4.44671 15.849 2.75026 15.0156 2.17173 13.9655C3.03736 11.1751 4.44237 8.86096 6.35631 7.07838C6.86959 6.60251 7.48292 6.064 8.18325 5.50548C10.1276 5.91088 11.8719 6.52029 13.4379 7.29414C12.0807 8.12757 10.8454 9.10934 9.79704 10.082C7.99184 11.7571 6.85219 13.999 6.28235 16.4576Z" fill="white"/>
</mask>
<g mask="url(#mask1_1710_41264)">
<path d="M27.8794 37.6018C27.0878 36.5644 26.2874 35.3029 25.6045 33.8118C26.8007 33.2941 27.9186 32.626 28.9408 31.8674C29.6585 33.623 30.3197 34.8831 30.8982 35.7875C29.9847 36.4373 28.9756 37.0594 27.8794 37.6018ZM34.339 32.877C33.5299 32.1658 32.5729 31.0735 31.6986 29.4271C34.0867 26.9921 36.2616 23.8958 36.2616 20.4394C36.2616 20.2141 36.2529 19.9892 36.2399 19.7661C36.5183 19.7439 36.8271 19.7243 37.1533 19.7165C37.1533 19.7904 37.1925 19.86 37.2577 19.8992C37.4143 19.9966 37.8406 20.0123 38.9281 20.0292C39.5675 20.0388 40.2939 20.0501 40.7071 20.1054C40.8072 20.1188 40.8855 20.2115 40.8899 20.3194C40.8899 20.4055 40.8899 20.4925 40.8899 20.579C40.8899 24.4944 38.6888 28.628 34.339 32.877ZM3.05475 27.1434C2.8938 27.0825 2.70674 27.0086 2.51535 26.922C2.14996 26.7572 1.88028 26.4305 1.79329 26.0481C1.42355 24.4583 1.2278 22.7583 1.20605 20.9897C1.63669 20.0123 2.45447 18.9596 3.99868 18.535C4.7251 18.3363 5.39496 18.1631 5.99524 18.0139C5.88649 18.8278 5.83433 19.6564 5.83433 20.4877C5.83433 22.1119 6.02135 23.7218 6.43893 25.233C5.32537 25.7502 4.19441 26.3835 3.05475 27.1434ZM36.179 19.1249C35.744 15.6728 33.6691 12.5079 31.2201 10.2329C30.4676 9.53432 29.5976 8.8192 28.6494 8.15193C28.5928 6.15751 28.5232 4.43454 28.3492 2.93775C31.1853 4.50892 33.3863 6.41851 34.3128 7.27674C37.0011 9.77313 38.9977 12.7428 40.046 15.7598C39.4196 16.9352 37.4274 18.3397 36.179 19.1249ZM6.28235 16.4576C4.44671 15.849 2.75026 15.0156 2.17173 13.9655C3.03736 11.1751 4.44237 8.86096 6.35631 7.07838C6.86959 6.60251 7.48292 6.064 8.18325 5.50548C10.1276 5.91088 11.8719 6.52029 13.4379 7.29414C12.0807 8.12757 10.8454 9.10934 9.79704 10.082C7.99184 11.7571 6.85219 13.999 6.28235 16.4576Z" fill="url(#paint1_linear_1710_41264)"/>
</g>
<mask id="mask2_1710_41264" style="mask-type:luminance" maskUnits="userSpaceOnUse" x="35" y="19" width="2" height="1">
<path d="M35.1809 19.8506C35.007 19.8506 34.9939 19.811 35.2244 19.6905C35.3854 19.6061 35.7377 19.4047 36.1814 19.125C36.2075 19.3382 36.2293 19.5513 36.2423 19.7662C35.7595 19.8049 35.3723 19.8506 35.1809 19.8506Z" fill="white"/>
</mask>
<g mask="url(#mask2_1710_41264)">
<path d="M35.1809 19.8506C35.007 19.8506 34.9939 19.811 35.2244 19.6905C35.3854 19.6061 35.7377 19.4047 36.1814 19.125C36.2075 19.3382 36.2293 19.5513 36.2423 19.7662C35.7595 19.8049 35.3723 19.8506 35.1809 19.8506Z" fill="url(#paint2_linear_1710_41264)"/>
</g>
<mask id="mask3_1710_41264" style="mask-type:luminance" maskUnits="userSpaceOnUse" x="36" y="15" width="5" height="5">
<path d="M36.2367 19.7664C36.2236 19.5515 36.2019 19.3383 36.1758 19.1252C37.4242 18.34 39.4164 16.9355 40.0428 15.7601C40.1951 16.2038 40.3299 16.6484 40.443 17.0929C40.5909 17.6893 40.2864 18.3183 39.7166 18.5888C38.4856 19.1739 37.3198 19.501 37.3067 19.5045C37.2241 19.5275 37.1632 19.598 37.1502 19.6837C37.1502 19.695 37.1502 19.7059 37.1502 19.7168C36.8239 19.7246 36.5151 19.7442 36.2367 19.7664Z" fill="white"/>
</mask>
<g mask="url(#mask3_1710_41264)">
<path d="M36.2367 19.7664C36.2236 19.5515 36.2019 19.3383 36.1758 19.1252C37.4242 18.34 39.4164 16.9355 40.0428 15.7601C40.1951 16.2038 40.3299 16.6484 40.443 17.0929C40.5909 17.6893 40.2864 18.3183 39.7166 18.5888C38.4856 19.1739 37.3198 19.501 37.3067 19.5045C37.2241 19.5275 37.1632 19.598 37.1502 19.6837C37.1502 19.695 37.1502 19.7059 37.1502 19.7168C36.8239 19.7246 36.5151 19.7442 36.2367 19.7664Z" fill="url(#paint3_linear_1710_41264)"/>
</g>
<mask id="mask4_1710_41264" style="mask-type:luminance" maskUnits="userSpaceOnUse" x="6" y="23" width="20" height="12">
<path d="M20.3885 34.9351C16.3649 34.9351 12.3891 33.3604 9.71829 30.8806C8.09579 29.3707 7.03441 27.4041 6.43848 25.2331C9.15714 23.9725 11.7758 23.4079 14.1377 23.4079C19.3663 23.4079 23.3377 26.171 24.3599 30.2629C24.6862 31.5644 25.1168 32.7471 25.604 33.8119C23.9902 34.511 22.2372 34.9351 20.3885 34.9351Z" fill="white"/>
</mask>
<g mask="url(#mask4_1710_41264)">
<path d="M20.3885 34.9351C16.3649 34.9351 12.3891 33.3604 9.71829 30.8806C8.09579 29.3707 7.03441 27.4041 6.43848 25.2331C9.15714 23.9725 11.7758 23.4079 14.1377 23.4079C19.3663 23.4079 23.3377 26.171 24.3599 30.2629C24.6862 31.5644 25.1168 32.7471 25.604 33.8119C23.9902 34.511 22.2372 34.9351 20.3885 34.9351Z" fill="url(#paint4_linear_1710_41264)"/>
</g>
<mask id="mask5_1710_41264" style="mask-type:luminance" maskUnits="userSpaceOnUse" x="2" y="25" width="26" height="15">
<path d="M20.1796 39.478C15.0294 39.478 9.82259 37.5006 6.26005 34.1882C4.90724 32.9367 3.80671 31.3864 2.98024 29.5812C2.6888 28.9435 2.94978 28.1675 3.58051 27.8147L3.70667 27.743C3.78497 27.6999 3.82412 27.6142 3.81542 27.5268C3.80672 27.4393 3.74149 27.3671 3.65884 27.3436C3.65449 27.3428 3.40218 27.2727 3.05419 27.1436C4.19386 26.3836 5.32481 25.7503 6.43838 25.2331C7.03431 27.4041 8.09569 29.3707 9.71819 30.8805C12.389 33.3604 16.3648 34.935 20.3884 34.935C22.2371 34.935 23.9901 34.5109 25.6039 33.8119C26.2868 35.303 27.0872 36.5645 27.8789 37.6019C25.6474 38.7055 23.0549 39.478 20.1796 39.478Z" fill="white"/>
</mask>
<g mask="url(#mask5_1710_41264)">
<path d="M20.1796 39.478C15.0294 39.478 9.82259 37.5006 6.26005 34.1882C4.90724 32.9367 3.80671 31.3864 2.98024 29.5812C2.6888 28.9435 2.94978 28.1675 3.58051 27.8147L3.70667 27.743C3.78497 27.6999 3.82412 27.6142 3.81542 27.5268C3.80672 27.4393 3.74149 27.3671 3.65884 27.3436C3.65449 27.3428 3.40218 27.2727 3.05419 27.1436C4.19386 26.3836 5.32481 25.7503 6.43838 25.2331C7.03431 27.4041 8.09569 29.3707 9.71819 30.8805C12.389 33.3604 16.3648 34.935 20.3884 34.935C22.2371 34.935 23.9901 34.5109 25.6039 33.8119C26.2868 35.303 27.0872 36.5645 27.8789 37.6019C25.6474 38.7055 23.0549 39.478 20.1796 39.478Z" fill="url(#paint5_linear_1710_41264)"/>
</g>
<path d="M3.87703 17.0749C3.57689 17.1245 3.05054 17.1628 2.51116 17.1902C2.43286 17.1941 2.35891 17.2076 2.28496 17.2228C2.15011 17.2624 2.02396 17.305 1.90651 17.3546C1.44543 17.5856 1.11487 18.0384 1.07137 18.5791C1.01482 19.262 0.984375 19.9502 0.984375 20.6405C0.984375 20.9298 0.997425 21.2181 1.00612 21.5061C1.36716 20.4112 2.17623 19.0362 3.99882 18.5351C7.21772 17.6521 9.35786 17.2737 9.35786 17.2737C7.45262 17.2232 5.39514 17.3211 3.87703 17.0749Z" fill="#FF8C3B"/>
<mask id="mask6_1710_41264" style="mask-type:luminance" maskUnits="userSpaceOnUse" x="6" y="16" width="4" height="2">
<path d="M9.35784 17.2737C9.35349 17.2737 9.34479 17.2737 9.33609 17.2732C9.33174 17.2732 9.33173 17.2732 9.32738 17.2732C9.32303 17.2728 9.31869 17.2728 9.31434 17.2728C9.30999 17.2724 9.3056 17.2724 9.30125 17.2724C9.2969 17.2724 9.29256 17.2724 9.28821 17.272C9.28386 17.272 9.28385 17.272 9.2795 17.272C9.27515 17.2715 9.26648 17.2715 9.26213 17.2715H9.25775C9.24905 17.2711 9.24473 17.2711 9.24038 17.2711C9.23603 17.2706 9.23602 17.2706 9.23167 17.2706C9.22297 17.2706 9.21862 17.2702 9.20992 17.2702C9.20122 17.2702 9.19687 17.2698 9.18817 17.2698H9.18384C8.16162 17.2472 7.10896 17.2628 6.11719 17.2415C6.16504 16.9783 6.22158 16.7165 6.28247 16.4576C7.32209 16.8026 8.40522 17.0753 9.35784 17.2737Z" fill="white"/>
</mask>
<g mask="url(#mask6_1710_41264)">
<path d="M9.35784 17.2737C9.35349 17.2737 9.34479 17.2737 9.33609 17.2732C9.33174 17.2732 9.33173 17.2732 9.32738 17.2732C9.32303 17.2728 9.31869 17.2728 9.31434 17.2728C9.30999 17.2724 9.3056 17.2724 9.30125 17.2724C9.2969 17.2724 9.29256 17.2724 9.28821 17.272C9.28386 17.272 9.28385 17.272 9.2795 17.272C9.27515 17.2715 9.26648 17.2715 9.26213 17.2715H9.25775C9.24905 17.2711 9.24473 17.2711 9.24038 17.2711C9.23603 17.2706 9.23602 17.2706 9.23167 17.2706C9.22297 17.2706 9.21862 17.2702 9.20992 17.2702C9.20122 17.2702 9.19687 17.2698 9.18817 17.2698H9.18384C8.16162 17.2472 7.10896 17.2628 6.11719 17.2415C6.16504 16.9783 6.22158 16.7165 6.28247 16.4576C7.32209 16.8026 8.40522 17.0753 9.35784 17.2737Z" fill="url(#paint6_linear_1710_41264)"/>
</g>
<mask id="mask7_1710_41264" style="mask-type:luminance" maskUnits="userSpaceOnUse" x="1" y="13" width="6" height="5">
<path d="M6.11705 17.2415C5.46892 17.2275 4.85122 17.1984 4.29444 17.1323C4.32053 17.0888 4.33359 17.0361 4.32489 16.9831C4.31184 16.8974 4.25092 16.8274 4.16827 16.8043C4.16392 16.8026 3.4984 16.6168 2.69803 16.2788C2.1021 16.0283 1.78021 15.3706 1.94551 14.749C2.01511 14.4837 2.08906 14.2227 2.17171 13.9656C2.75024 15.0156 4.44669 15.8491 6.28233 16.4576C6.22143 16.7164 6.16489 16.9783 6.11705 17.2415Z" fill="white"/>
</mask>
<g mask="url(#mask7_1710_41264)">
<path d="M6.11705 17.2415C5.46892 17.2275 4.85122 17.1984 4.29444 17.1323C4.32053 17.0888 4.33359 17.0361 4.32489 16.9831C4.31184 16.8974 4.25092 16.8274 4.16827 16.8043C4.16392 16.8026 3.4984 16.6168 2.69803 16.2788C2.1021 16.0283 1.78021 15.3706 1.94551 14.749C2.01511 14.4837 2.08906 14.2227 2.17171 13.9656C2.75024 15.0156 4.44669 15.8491 6.28233 16.4576C6.22143 16.7164 6.16489 16.9783 6.11705 17.2415Z" fill="url(#paint7_linear_1710_41264)"/>
</g>
<path d="M9.23147 17.2706C9.22712 17.2706 9.21842 17.2702 9.20972 17.2702C9.21842 17.2702 9.22277 17.2706 9.23147 17.2706ZM9.18364 17.2698C7.49589 17.2324 5.70809 17.2998 4.29004 17.1336C4.29439 17.1332 4.29437 17.1327 4.29437 17.1323C4.85115 17.1984 5.46885 17.2276 6.11698 17.2415C7.10875 17.2628 8.16142 17.2472 9.18364 17.2698Z" fill="#C25B24"/>
<path d="M3.03228 16.8813C2.86263 16.8274 2.70605 16.7652 2.5625 16.6943C2.72779 16.7635 2.88438 16.8257 3.03228 16.8813Z" fill="#C2A69B"/>
<path d="M37.4619 19.9997C40.1371 20.3991 39.9761 20.7927 40.0283 22.0694C40.0762 23.1978 39.6282 26.7094 38.5581 28.2053C40.4894 25.2744 41.4551 21.7101 40.9461 19.981C39.4324 19.7605 38.2405 19.7635 37.4619 19.9997Z" fill="#FF8C3B"/>
<path d="M20.18 0.521336C14.3034 0.521336 8.99654 4.62979 6.35618 7.07833C4.26824 9.02489 2.78057 11.6057 1.9454 14.7489C1.7801 15.3705 2.10198 16.0282 2.69792 16.2787C3.49829 16.6167 4.16381 16.8025 4.16816 16.8042C4.25081 16.8272 4.31173 16.8973 4.32478 16.983C4.33783 17.0682 4.29869 17.1526 4.22474 17.1983C4.1508 17.2444 4.01159 17.3301 2.51959 17.4075C1.87146 17.441 1.34076 17.9526 1.28421 18.5972C1.23201 19.2671 1.20159 19.9548 1.20159 20.6403C1.20159 22.5343 1.40166 24.3538 1.79315 26.0481C1.88015 26.4304 2.14982 26.7571 2.51521 26.922C3.11114 27.1917 3.65056 27.3422 3.65926 27.3435C3.74191 27.367 3.80714 27.4392 3.81584 27.5266C3.82454 27.614 3.78539 27.6997 3.70709 27.7428L3.58093 27.8146C2.9502 28.1673 2.68922 28.9434 2.98066 29.581C3.80713 31.3862 4.90766 32.9365 6.26047 34.188C9.82301 37.5004 15.0298 39.4779 20.18 39.4779C26.0263 39.4779 30.6849 36.2877 33.5689 33.6112C38.4277 29.1043 40.8897 24.7196 40.8897 20.579C40.8897 20.4924 40.8897 20.4054 40.8897 20.3193C40.8854 20.2114 40.8071 20.1188 40.707 20.1053C40.2938 20.0501 39.5674 20.0387 38.9279 20.0292C37.8405 20.0122 37.4142 19.9966 37.2576 19.8991C37.1836 19.8539 37.1402 19.7695 37.1532 19.6834C37.1663 19.5977 37.2271 19.5272 37.3098 19.5041C37.3228 19.5007 38.4886 19.1736 39.7196 18.5885C40.2895 18.3179 40.5939 17.689 40.446 17.0926C39.5717 13.6262 37.3924 10.1402 34.3127 7.27669C32.6032 5.69203 26.5352 0.521336 20.18 0.521336ZM20.18 39.9128C14.921 39.9128 9.60552 37.8919 5.96469 34.5068C4.57273 33.2162 3.43306 31.6198 2.58484 29.762C2.24555 29.019 2.47175 28.1356 3.09378 27.6206C2.88499 27.547 2.61963 27.4457 2.33689 27.3182C1.8497 27.0981 1.48867 26.6597 1.36687 26.146C0.971037 24.4199 0.766602 22.5673 0.766602 20.6403C0.766602 19.9426 0.797051 19.2432 0.853599 18.5611C0.923197 17.7007 1.63222 17.0178 2.49784 16.973C2.76753 16.959 2.985 16.9451 3.16769 16.9312C2.97195 16.8603 2.75884 16.7764 2.5283 16.6798C1.73227 16.3453 1.30161 15.467 1.52345 14.6371C2.38038 11.4134 3.90717 8.76303 6.06035 6.75948C8.74857 4.26701 14.1555 0.0867958 20.18 0.0867958C26.5178 0.0867958 32.3814 4.89209 34.6085 6.95784C37.7535 9.87834 39.9719 13.4396 40.868 16.9865C41.0681 17.7833 40.6635 18.6224 39.9067 18.9817C39.3803 19.2314 38.8714 19.4337 38.4538 19.5855C38.6191 19.589 38.7844 19.5916 38.9367 19.5942C39.6196 19.6046 40.3286 19.6155 40.7679 19.6742C41.0811 19.7164 41.316 19.9839 41.3247 20.3106C41.3247 20.3998 41.3247 20.4894 41.3247 20.579C41.3247 24.9054 38.8844 29.2726 33.8604 33.93C30.9242 36.6596 26.1654 39.9128 20.18 39.9128Z" fill="#612601"/>
<mask id="mask8_1710_41264" style="mask-type:luminance" maskUnits="userSpaceOnUse" x="13" y="5" width="19" height="27">
<path d="M28.9423 31.8672C28.4291 30.614 27.8897 29.1076 27.3286 27.2977C24.984 19.7459 21.5693 11.3045 13.4395 7.29394C15.5448 6.0016 17.9459 5.0642 20.3905 5.0642C23.2832 5.0642 26.2281 6.45137 28.6509 8.15174C28.7423 11.3432 28.8032 15.2298 29.2207 19.9973C29.5948 24.295 30.5823 27.3164 31.7002 29.4269C31.3565 29.7797 31.0042 30.119 30.6562 30.443C30.1212 30.9411 29.547 31.42 28.9423 31.8672Z" fill="white"/>
</mask>
<g mask="url(#mask8_1710_41264)">
<path d="M28.9423 31.8672C28.4291 30.614 27.8897 29.1076 27.3286 27.2977C24.984 19.7459 21.5693 11.3045 13.4395 7.29394C15.5448 6.0016 17.9459 5.0642 20.3905 5.0642C23.2832 5.0642 26.2281 6.45137 28.6509 8.15174C28.7423 11.3432 28.8032 15.2298 29.2207 19.9973C29.5948 24.295 30.5823 27.3164 31.7002 29.4269C31.3565 29.7797 31.0042 30.119 30.6562 30.443C30.1212 30.9411 29.547 31.42 28.9423 31.8672Z" fill="url(#paint8_linear_1710_41264)"/>
</g>
<mask id="mask9_1710_41264" style="mask-type:luminance" maskUnits="userSpaceOnUse" x="8" y="0" width="27" height="36">
<path d="M30.8966 35.7876C30.3181 34.8833 29.6569 33.6231 28.9392 31.8675C29.5438 31.4203 30.118 30.9414 30.653 30.4434C31.001 30.1193 31.3533 29.78 31.697 29.4272C32.5713 31.0737 33.5283 32.1659 34.3374 32.8771C34.0851 33.1216 33.8284 33.3665 33.5674 33.6114C32.7975 34.3239 31.9058 35.0725 30.8966 35.7876ZM28.6477 8.15204C26.2249 6.45168 23.28 5.06451 20.3873 5.06451C17.9427 5.06451 15.5416 6.00191 13.4363 7.29425C11.8703 6.52041 10.126 5.911 8.18164 5.50559C11.0786 3.18842 15.4459 0.521503 20.1786 0.521503C23.093 0.521503 25.9465 1.60855 28.3476 2.93787C28.5216 4.43465 28.5912 6.15763 28.6477 8.15204Z" fill="white"/>
</mask>
<g mask="url(#mask9_1710_41264)">
<path d="M30.8966 35.7876C30.3181 34.8833 29.6569 33.6231 28.9392 31.8675C29.5438 31.4203 30.118 30.9414 30.653 30.4434C31.001 30.1193 31.3533 29.78 31.697 29.4272C32.5713 31.0737 33.5283 32.1659 34.3374 32.8771C34.0851 33.1216 33.8284 33.3665 33.5674 33.6114C32.7975 34.3239 31.9058 35.0725 30.8966 35.7876ZM28.6477 8.15204C26.2249 6.45168 23.28 5.06451 20.3873 5.06451C17.9427 5.06451 15.5416 6.00191 13.4363 7.29425C11.8703 6.52041 10.126 5.911 8.18164 5.50559C11.0786 3.18842 15.4459 0.521503 20.1786 0.521503C23.093 0.521503 25.9465 1.60855 28.3476 2.93787C28.5216 4.43465 28.5912 6.15763 28.6477 8.15204Z" fill="url(#paint9_linear_1710_41264)"/>
</g>
<path d="M31.0151 35.9651C30.976 35.9077 30.9368 35.8485 30.8977 35.7876C31.9068 35.0725 32.7986 34.3239 33.5685 33.6114C33.8295 33.3665 34.0861 33.1216 34.3384 32.8771C34.395 32.9263 34.4515 32.9737 34.5037 33.0194C34.2427 33.2747 33.9774 33.5252 33.712 33.771C32.8769 34.5462 31.9764 35.2887 31.0151 35.9651ZM8.18271 5.50561C8.09136 5.48603 7.99564 5.46689 7.9043 5.44862C11.2798 2.72039 15.6688 0.304474 20.1796 0.304474C22.9505 0.304474 25.7605 1.26883 28.3139 2.65862C28.3269 2.75083 28.3356 2.84436 28.3487 2.93789C25.9475 1.60857 23.094 0.521523 20.1796 0.521523C15.447 0.521523 11.0797 3.18844 8.18271 5.50561Z" fill="#592101"/>
<path d="M9.7184 30.8803C12.3892 33.3602 16.365 34.9348 20.3886 34.9348C24.4166 34.9348 27.9835 32.9234 30.6543 30.4431C31.4155 29.7354 32.1854 28.9551 32.8988 28.116C31.6112 29.0903 30.0061 30.0673 28.0052 30.9134C20.6583 34.027 8.20031 31.7107 5.83398 20.4876C5.83398 24.4447 6.96059 28.3191 9.7184 30.8803Z" fill="#9D3325"/>
<path d="M11.772 8.194C10.454 9.82477 18.449 6.10607 17.8009 5.48578C17.1571 4.86549 13.0987 6.54627 11.772 8.194Z" fill="#FF8C3B"/>
<path opacity="0.4" d="M10.0166 20.0869C10.0166 26.024 14.8295 30.8369 20.7666 30.8369C26.7037 30.8369 31.5166 26.024 31.5166 20.0869C31.5166 14.1499 26.7037 9.33691 20.7666 9.33691C14.8295 9.33691 10.0166 14.1499 10.0166 20.0869Z" fill="#631007"/>
<path fill-rule="evenodd" clip-rule="evenodd" d="M20.4485 19.1142C20.6955 19.1474 21.0373 19.2363 21.3273 19.5263C21.6173 19.8163 21.7062 20.158 21.7394 20.4051C21.7669 20.6097 21.7667 20.8477 21.7666 21.0475C21.7666 21.0609 21.7666 21.074 21.7666 21.0869V25.0869C21.7666 25.6392 21.3189 26.0869 20.7666 26.0869C20.2143 26.0869 19.7666 25.6392 19.7666 25.0869V21.0869C19.2143 21.0869 18.7666 20.6392 18.7666 20.0869C18.7666 19.5346 19.2143 19.0869 19.7666 19.0869C19.7795 19.0869 19.7927 19.0869 19.806 19.0869C20.0059 19.0868 20.2438 19.0866 20.4485 19.1142Z" fill="#631007"/>
<path fill-rule="evenodd" clip-rule="evenodd" d="M19.7666 16.0869C19.7666 15.5346 20.2123 15.0869 20.7621 15.0869H20.7711C21.3209 15.0869 21.7666 15.5346 21.7666 16.0869C21.7666 16.6392 21.3209 17.0869 20.7711 17.0869H20.7621C20.2123 17.0869 19.7666 16.6392 19.7666 16.0869Z" fill="#631007"/>
<defs>
<linearGradient id="paint0_linear_1710_41264" x1="21.0464" y1="38.5885" x2="21.0464" y2="-0.566411" gradientUnits="userSpaceOnUse">
<stop stop-color="#822330"/>
<stop offset="1" stop-color="#D15111"/>
</linearGradient>
<linearGradient id="paint1_linear_1710_41264" x1="21.0458" y1="5.06614" x2="21.0458" y2="38.8261" gradientUnits="userSpaceOnUse">
<stop stop-color="#F77111"/>
<stop offset="1" stop-color="#540D17"/>
</linearGradient>
<linearGradient id="paint2_linear_1710_41264" x1="21.048" y1="38.5889" x2="21.048" y2="-0.565937" gradientUnits="userSpaceOnUse">
<stop stop-color="#63171D"/>
<stop offset="1" stop-color="#9F350A"/>
</linearGradient>
<linearGradient id="paint3_linear_1710_41264" x1="21.0427" y1="5.06645" x2="21.0427" y2="38.8263" gradientUnits="userSpaceOnUse">
<stop stop-color="#BC490A"/>
<stop offset="1" stop-color="#40090E"/>
</linearGradient>
<linearGradient id="paint4_linear_1710_41264" x1="21.0453" y1="38.5889" x2="21.0453" y2="-0.566001" gradientUnits="userSpaceOnUse">
<stop stop-color="#781E27"/>
<stop offset="1" stop-color="#C0460E"/>
</linearGradient>
<linearGradient id="paint5_linear_1710_41264" x1="21.0452" y1="5.06623" x2="21.0452" y2="38.8262" gradientUnits="userSpaceOnUse">
<stop stop-color="#E3610E"/>
<stop offset="1" stop-color="#4D0B13"/>
</linearGradient>
<linearGradient id="paint6_linear_1710_41264" x1="21.0459" y1="38.5889" x2="21.0459" y2="-0.566073" gradientUnits="userSpaceOnUse">
<stop stop-color="#63171D"/>
<stop offset="1" stop-color="#9F350A"/>
</linearGradient>
<linearGradient id="paint7_linear_1710_41264" x1="21.0458" y1="5.06622" x2="21.0458" y2="38.8261" gradientUnits="userSpaceOnUse">
<stop stop-color="#BC490A"/>
<stop offset="1" stop-color="#40090E"/>
</linearGradient>
<linearGradient id="paint8_linear_1710_41264" x1="21.0474" y1="38.5886" x2="21.0474" y2="-0.566345" gradientUnits="userSpaceOnUse">
<stop stop-color="#781E27"/>
<stop offset="1" stop-color="#C0460E"/>
</linearGradient>
<linearGradient id="paint9_linear_1710_41264" x1="21.0442" y1="5.06624" x2="21.0442" y2="38.8262" gradientUnits="userSpaceOnUse">
<stop stop-color="#E3610E"/>
<stop offset="1" stop-color="#4D0B13"/>
</linearGradient>
</defs>
</svg>
