<svg width="42" height="40" viewBox="0 0 42 40" fill="none" xmlns="http://www.w3.org/2000/svg">
<mask id="mask0_1710_41115" style="mask-type:luminance" maskUnits="userSpaceOnUse" x="5" y="7" width="32" height="27">
<path d="M25.4889 33.8115C25.0017 32.7467 24.571 31.5639 24.2448 30.2625C23.2226 26.1705 19.2511 23.4075 14.0226 23.4075C11.6606 23.4075 9.04202 23.9721 6.32336 25.2327C5.90577 23.7216 5.71875 22.1117 5.71875 20.4875C5.71875 19.6562 5.77091 18.8275 5.87966 18.0137C7.95455 17.5008 9.24214 17.2733 9.24214 17.2733C8.28952 17.075 7.20639 16.8022 6.16678 16.4573C6.73661 13.9988 7.87627 11.7568 9.68146 10.0817C10.7298 9.10908 11.9651 8.12731 13.3223 7.29388C21.4522 11.3045 24.8668 19.7458 27.2114 27.2976C27.7725 29.1076 28.3119 30.6139 28.8252 31.8671C27.803 32.6257 26.6851 33.2939 25.4889 33.8115ZM31.583 29.4269C30.4651 27.3163 29.4777 24.2949 29.1036 19.9972C28.686 15.2298 28.6251 11.3432 28.5338 8.15167C29.4821 8.81894 30.352 9.53406 31.1045 10.2327C33.5535 12.5076 35.6284 15.6726 36.0634 19.1246C35.6197 19.4043 35.2674 19.6057 35.1064 19.6901C34.8759 19.8106 34.8889 19.8502 35.0629 19.8502C35.2543 19.8502 35.6415 19.8045 36.1243 19.7658C36.1373 19.989 36.146 20.2138 36.146 20.4392C36.146 23.8956 33.9711 26.9918 31.583 29.4269Z" fill="white"/>
</mask>
<g mask="url(#mask0_1710_41115)">
<path d="M25.4889 33.8115C25.0017 32.7467 24.571 31.5639 24.2448 30.2625C23.2226 26.1705 19.2511 23.4075 14.0226 23.4075C11.6606 23.4075 9.04202 23.9721 6.32336 25.2327C5.90577 23.7216 5.71875 22.1117 5.71875 20.4875C5.71875 19.6562 5.77091 18.8275 5.87966 18.0137C7.95455 17.5008 9.24214 17.2733 9.24214 17.2733C8.28952 17.075 7.20639 16.8022 6.16678 16.4573C6.73661 13.9988 7.87627 11.7568 9.68146 10.0817C10.7298 9.10908 11.9651 8.12731 13.3223 7.29388C21.4522 11.3045 24.8668 19.7458 27.2114 27.2976C27.7725 29.1076 28.3119 30.6139 28.8252 31.8671C27.803 32.6257 26.6851 33.2939 25.4889 33.8115ZM31.583 29.4269C30.4651 27.3163 29.4777 24.2949 29.1036 19.9972C28.686 15.2298 28.6251 11.3432 28.5338 8.15167C29.4821 8.81894 30.352 9.53406 31.1045 10.2327C33.5535 12.5076 35.6284 15.6726 36.0634 19.1246C35.6197 19.4043 35.2674 19.6057 35.1064 19.6901C34.8759 19.8106 34.8889 19.8502 35.0629 19.8502C35.2543 19.8502 35.6415 19.8045 36.1243 19.7658C36.1373 19.989 36.146 20.2138 36.146 20.4392C36.146 23.8956 33.9711 26.9918 31.583 29.4269Z" fill="url(#paint0_linear_1710_41115)"/>
</g>
<mask id="mask1_1710_41115" style="mask-type:luminance" maskUnits="userSpaceOnUse" x="1" y="2" width="40" height="36">
<path d="M27.7632 37.6018C26.9715 36.5644 26.1712 35.3029 25.4882 33.8118C26.6845 33.2941 27.8023 32.626 28.8246 31.8674C29.5423 33.623 30.2035 34.8831 30.782 35.7875C29.8685 36.4373 28.8594 37.0594 27.7632 37.6018ZM34.2228 32.877C33.4137 32.1658 32.4567 31.0735 31.5824 29.4271C33.9705 26.9921 36.1454 23.8958 36.1454 20.4394C36.1454 20.2141 36.1367 19.9892 36.1237 19.7661C36.4021 19.7439 36.7109 19.7243 37.0371 19.7165C37.0371 19.7904 37.0763 19.86 37.1415 19.8992C37.2981 19.9966 37.7244 20.0123 38.8119 20.0292C39.4513 20.0388 40.1777 20.0501 40.5909 20.1054C40.691 20.1188 40.7693 20.2115 40.7736 20.3194C40.7736 20.4055 40.7736 20.4925 40.7736 20.579C40.7736 24.4944 38.5726 28.628 34.2228 32.877ZM2.93854 27.1434C2.77759 27.0825 2.59053 27.0086 2.39914 26.922C2.03375 26.7572 1.76407 26.4305 1.67708 26.0481C1.30734 24.4583 1.11159 22.7583 1.08984 20.9897C1.52048 20.0123 2.33826 18.9596 3.88246 18.535C4.60889 18.3363 5.27875 18.1631 5.87903 18.0139C5.77028 18.8278 5.71812 19.6564 5.71812 20.4877C5.71812 22.1119 5.90513 23.7218 6.32272 25.233C5.20916 25.7502 4.0782 26.3835 2.93854 27.1434ZM36.0627 19.1249C35.6278 15.6728 33.5529 12.5079 31.1039 10.2329C30.3514 9.53432 29.4814 8.8192 28.5331 8.15193C28.4766 6.15751 28.407 4.43454 28.233 2.93775C31.0691 4.50892 33.2701 6.41851 34.1966 7.27674C36.8849 9.77313 38.8815 12.7428 39.9298 15.7598C39.3034 16.9352 37.3112 18.3397 36.0627 19.1249ZM6.16614 16.4576C4.3305 15.849 2.63405 15.0156 2.05552 13.9655C2.92114 11.1751 4.32616 8.86096 6.2401 7.07838C6.75338 6.60251 7.36671 6.064 8.06704 5.50548C10.0114 5.91088 11.7557 6.52029 13.3217 7.29414C11.9645 8.12757 10.7291 9.10934 9.68082 10.082C7.87563 11.7571 6.73598 13.999 6.16614 16.4576Z" fill="white"/>
</mask>
<g mask="url(#mask1_1710_41115)">
<path d="M27.7632 37.6018C26.9715 36.5644 26.1712 35.3029 25.4882 33.8118C26.6845 33.2941 27.8023 32.626 28.8246 31.8674C29.5423 33.623 30.2035 34.8831 30.782 35.7875C29.8685 36.4373 28.8594 37.0594 27.7632 37.6018ZM34.2228 32.877C33.4137 32.1658 32.4567 31.0735 31.5824 29.4271C33.9705 26.9921 36.1454 23.8958 36.1454 20.4394C36.1454 20.2141 36.1367 19.9892 36.1237 19.7661C36.4021 19.7439 36.7109 19.7243 37.0371 19.7165C37.0371 19.7904 37.0763 19.86 37.1415 19.8992C37.2981 19.9966 37.7244 20.0123 38.8119 20.0292C39.4513 20.0388 40.1777 20.0501 40.5909 20.1054C40.691 20.1188 40.7693 20.2115 40.7736 20.3194C40.7736 20.4055 40.7736 20.4925 40.7736 20.579C40.7736 24.4944 38.5726 28.628 34.2228 32.877ZM2.93854 27.1434C2.77759 27.0825 2.59053 27.0086 2.39914 26.922C2.03375 26.7572 1.76407 26.4305 1.67708 26.0481C1.30734 24.4583 1.11159 22.7583 1.08984 20.9897C1.52048 20.0123 2.33826 18.9596 3.88246 18.535C4.60889 18.3363 5.27875 18.1631 5.87903 18.0139C5.77028 18.8278 5.71812 19.6564 5.71812 20.4877C5.71812 22.1119 5.90513 23.7218 6.32272 25.233C5.20916 25.7502 4.0782 26.3835 2.93854 27.1434ZM36.0627 19.1249C35.6278 15.6728 33.5529 12.5079 31.1039 10.2329C30.3514 9.53432 29.4814 8.8192 28.5331 8.15193C28.4766 6.15751 28.407 4.43454 28.233 2.93775C31.0691 4.50892 33.2701 6.41851 34.1966 7.27674C36.8849 9.77313 38.8815 12.7428 39.9298 15.7598C39.3034 16.9352 37.3112 18.3397 36.0627 19.1249ZM6.16614 16.4576C4.3305 15.849 2.63405 15.0156 2.05552 13.9655C2.92114 11.1751 4.32616 8.86096 6.2401 7.07838C6.75338 6.60251 7.36671 6.064 8.06704 5.50548C10.0114 5.91088 11.7557 6.52029 13.3217 7.29414C11.9645 8.12757 10.7291 9.10934 9.68082 10.082C7.87563 11.7571 6.73598 13.999 6.16614 16.4576Z" fill="url(#paint1_linear_1710_41115)"/>
</g>
<mask id="mask2_1710_41115" style="mask-type:luminance" maskUnits="userSpaceOnUse" x="34" y="19" width="3" height="1">
<path d="M35.0647 19.8506C34.8907 19.8506 34.8777 19.811 35.1082 19.6905C35.2692 19.6061 35.6215 19.4047 36.0652 19.125C36.0913 19.3382 36.1131 19.5513 36.1261 19.7662C35.6433 19.8049 35.2561 19.8506 35.0647 19.8506Z" fill="white"/>
</mask>
<g mask="url(#mask2_1710_41115)">
<path d="M35.0647 19.8506C34.8907 19.8506 34.8777 19.811 35.1082 19.6905C35.2692 19.6061 35.6215 19.4047 36.0652 19.125C36.0913 19.3382 36.1131 19.5513 36.1261 19.7662C35.6433 19.8049 35.2561 19.8506 35.0647 19.8506Z" fill="url(#paint2_linear_1710_41115)"/>
</g>
<mask id="mask3_1710_41115" style="mask-type:luminance" maskUnits="userSpaceOnUse" x="36" y="15" width="5" height="5">
<path d="M36.1205 19.7664C36.1074 19.5515 36.0857 19.3383 36.0596 19.1252C37.308 18.34 39.3002 16.9355 39.9266 15.7601C40.0789 16.2038 40.2137 16.6484 40.3268 17.0929C40.4747 17.6893 40.1702 18.3183 39.6004 18.5888C38.3694 19.1739 37.2036 19.501 37.1905 19.5045C37.1079 19.5275 37.047 19.598 37.034 19.6837C37.034 19.695 37.034 19.7059 37.034 19.7168C36.7077 19.7246 36.3989 19.7442 36.1205 19.7664Z" fill="white"/>
</mask>
<g mask="url(#mask3_1710_41115)">
<path d="M36.1205 19.7664C36.1074 19.5515 36.0857 19.3383 36.0596 19.1252C37.308 18.34 39.3002 16.9355 39.9266 15.7601C40.0789 16.2038 40.2137 16.6484 40.3268 17.0929C40.4747 17.6893 40.1702 18.3183 39.6004 18.5888C38.3694 19.1739 37.2036 19.501 37.1905 19.5045C37.1079 19.5275 37.047 19.598 37.034 19.6837C37.034 19.695 37.034 19.7059 37.034 19.7168C36.7077 19.7246 36.3989 19.7442 36.1205 19.7664Z" fill="url(#paint3_linear_1710_41115)"/>
</g>
<mask id="mask4_1710_41115" style="mask-type:luminance" maskUnits="userSpaceOnUse" x="6" y="23" width="20" height="12">
<path d="M20.2723 34.9351C16.2487 34.9351 12.2729 33.3604 9.60208 30.8806C7.97958 29.3707 6.9182 27.4041 6.32227 25.2331C9.04093 23.9725 11.6595 23.4079 14.0215 23.4079C19.2501 23.4079 23.2215 26.171 24.2437 30.2629C24.5699 31.5644 25.0006 32.7471 25.4878 33.8119C23.874 34.511 22.121 34.9351 20.2723 34.9351Z" fill="white"/>
</mask>
<g mask="url(#mask4_1710_41115)">
<path d="M20.2723 34.9351C16.2487 34.9351 12.2729 33.3604 9.60208 30.8806C7.97958 29.3707 6.9182 27.4041 6.32227 25.2331C9.04093 23.9725 11.6595 23.4079 14.0215 23.4079C19.2501 23.4079 23.2215 26.171 24.2437 30.2629C24.5699 31.5644 25.0006 32.7471 25.4878 33.8119C23.874 34.511 22.121 34.9351 20.2723 34.9351Z" fill="url(#paint4_linear_1710_41115)"/>
</g>
<mask id="mask5_1710_41115" style="mask-type:luminance" maskUnits="userSpaceOnUse" x="2" y="25" width="26" height="15">
<path d="M20.0634 39.478C14.9132 39.478 9.70638 37.5006 6.14384 34.1882C4.79103 32.9367 3.6905 31.3864 2.86403 29.5812C2.57259 28.9435 2.83357 28.1675 3.4643 27.8147L3.59046 27.743C3.66876 27.6999 3.70791 27.6142 3.69921 27.5268C3.69051 27.4393 3.62528 27.3671 3.54263 27.3436C3.53828 27.3428 3.28597 27.2727 2.93798 27.1436C4.07765 26.3836 5.2086 25.7503 6.32217 25.2331C6.9181 27.4041 7.97948 29.3707 9.60198 30.8805C12.2728 33.3604 16.2486 34.935 20.2722 34.935C22.1209 34.935 23.8739 34.5109 25.4877 33.8119C26.1706 35.303 26.971 36.5645 27.7627 37.6019C25.5312 38.7055 22.9387 39.478 20.0634 39.478Z" fill="white"/>
</mask>
<g mask="url(#mask5_1710_41115)">
<path d="M20.0634 39.478C14.9132 39.478 9.70638 37.5006 6.14384 34.1882C4.79103 32.9367 3.6905 31.3864 2.86403 29.5812C2.57259 28.9435 2.83357 28.1675 3.4643 27.8147L3.59046 27.743C3.66876 27.6999 3.70791 27.6142 3.69921 27.5268C3.69051 27.4393 3.62528 27.3671 3.54263 27.3436C3.53828 27.3428 3.28597 27.2727 2.93798 27.1436C4.07765 26.3836 5.2086 25.7503 6.32217 25.2331C6.9181 27.4041 7.97948 29.3707 9.60198 30.8805C12.2728 33.3604 16.2486 34.935 20.2722 34.935C22.1209 34.935 23.8739 34.5109 25.4877 33.8119C26.1706 35.303 26.971 36.5645 27.7627 37.6019C25.5312 38.7055 22.9387 39.478 20.0634 39.478Z" fill="url(#paint5_linear_1710_41115)"/>
</g>
<path d="M3.76082 17.0749C3.46068 17.1245 2.93433 17.1628 2.39495 17.1902C2.31665 17.1941 2.2427 17.2076 2.16875 17.2228C2.0339 17.2624 1.90775 17.305 1.7903 17.3546C1.32922 17.5856 0.99866 18.0384 0.955161 18.5791C0.898613 19.262 0.868164 19.9502 0.868164 20.6405C0.868164 20.9298 0.881214 21.2181 0.889913 21.5061C1.25095 20.4112 2.06002 19.0362 3.88261 18.5351C7.10151 17.6521 9.24165 17.2737 9.24165 17.2737C7.33641 17.2232 5.27893 17.3211 3.76082 17.0749Z" fill="#FF8C3B"/>
<mask id="mask6_1710_41115" style="mask-type:luminance" maskUnits="userSpaceOnUse" x="6" y="16" width="4" height="2">
<path d="M9.24162 17.2737C9.23727 17.2737 9.22857 17.2737 9.21988 17.2732C9.21553 17.2732 9.21552 17.2732 9.21117 17.2732C9.20682 17.2728 9.20248 17.2728 9.19813 17.2728C9.19378 17.2724 9.18939 17.2724 9.18504 17.2724C9.18069 17.2724 9.17635 17.2724 9.172 17.272C9.16765 17.272 9.16764 17.272 9.16329 17.272C9.15894 17.2715 9.15027 17.2715 9.14592 17.2715H9.14154C9.13284 17.2711 9.12852 17.2711 9.12417 17.2711C9.11982 17.2706 9.11981 17.2706 9.11546 17.2706C9.10676 17.2706 9.10241 17.2702 9.09371 17.2702C9.08501 17.2702 9.08066 17.2698 9.07196 17.2698H9.06763C8.04541 17.2472 6.99275 17.2628 6.00098 17.2415C6.04883 16.9783 6.10536 16.7165 6.16626 16.4576C7.20588 16.8026 8.289 17.0753 9.24162 17.2737Z" fill="white"/>
</mask>
<g mask="url(#mask6_1710_41115)">
<path d="M9.24162 17.2737C9.23727 17.2737 9.22857 17.2737 9.21988 17.2732C9.21553 17.2732 9.21552 17.2732 9.21117 17.2732C9.20682 17.2728 9.20248 17.2728 9.19813 17.2728C9.19378 17.2724 9.18939 17.2724 9.18504 17.2724C9.18069 17.2724 9.17635 17.2724 9.172 17.272C9.16765 17.272 9.16764 17.272 9.16329 17.272C9.15894 17.2715 9.15027 17.2715 9.14592 17.2715H9.14154C9.13284 17.2711 9.12852 17.2711 9.12417 17.2711C9.11982 17.2706 9.11981 17.2706 9.11546 17.2706C9.10676 17.2706 9.10241 17.2702 9.09371 17.2702C9.08501 17.2702 9.08066 17.2698 9.07196 17.2698H9.06763C8.04541 17.2472 6.99275 17.2628 6.00098 17.2415C6.04883 16.9783 6.10536 16.7165 6.16626 16.4576C7.20588 16.8026 8.289 17.0753 9.24162 17.2737Z" fill="url(#paint6_linear_1710_41115)"/>
</g>
<mask id="mask7_1710_41115" style="mask-type:luminance" maskUnits="userSpaceOnUse" x="1" y="13" width="6" height="5">
<path d="M6.00083 17.2415C5.3527 17.2275 4.73501 17.1984 4.17822 17.1323C4.20432 17.0888 4.21738 17.0361 4.20868 16.9831C4.19563 16.8974 4.13471 16.8274 4.05206 16.8043C4.04771 16.8026 3.38219 16.6168 2.58182 16.2788C1.98588 16.0283 1.664 15.3706 1.8293 14.749C1.8989 14.4837 1.97285 14.2227 2.0555 13.9656C2.63403 15.0156 4.33048 15.8491 6.16612 16.4576C6.10522 16.7164 6.04868 16.9783 6.00083 17.2415Z" fill="white"/>
</mask>
<g mask="url(#mask7_1710_41115)">
<path d="M6.00083 17.2415C5.3527 17.2275 4.73501 17.1984 4.17822 17.1323C4.20432 17.0888 4.21738 17.0361 4.20868 16.9831C4.19563 16.8974 4.13471 16.8274 4.05206 16.8043C4.04771 16.8026 3.38219 16.6168 2.58182 16.2788C1.98588 16.0283 1.664 15.3706 1.8293 14.749C1.8989 14.4837 1.97285 14.2227 2.0555 13.9656C2.63403 15.0156 4.33048 15.8491 6.16612 16.4576C6.10522 16.7164 6.04868 16.9783 6.00083 17.2415Z" fill="url(#paint7_linear_1710_41115)"/>
</g>
<path d="M9.11526 17.2706C9.11091 17.2706 9.10221 17.2702 9.09351 17.2702C9.10221 17.2702 9.10656 17.2706 9.11526 17.2706ZM9.06742 17.2698C7.37968 17.2324 5.59188 17.2998 4.17383 17.1336C4.17818 17.1332 4.17816 17.1327 4.17816 17.1323C4.73494 17.1984 5.35264 17.2276 6.00077 17.2415C6.99254 17.2628 8.04521 17.2472 9.06742 17.2698Z" fill="#C25B24"/>
<path d="M2.91607 16.8813C2.74642 16.8274 2.58983 16.7652 2.44629 16.6943C2.61158 16.7635 2.76817 16.8257 2.91607 16.8813Z" fill="#C2A69B"/>
<path d="M37.3457 19.9997C40.0209 20.3991 39.8599 20.7927 39.9121 22.0694C39.96 23.1978 39.5119 26.7094 38.4419 28.2053C40.3732 25.2744 41.3389 21.7101 40.8299 19.981C39.3162 19.7605 38.1243 19.7635 37.3457 19.9997Z" fill="#FF8C3B"/>
<path d="M20.0638 0.521336C14.1872 0.521336 8.88033 4.62979 6.23997 7.07833C4.15203 9.02489 2.66436 11.6057 1.82919 14.7489C1.66389 15.3705 1.98577 16.0282 2.5817 16.2787C3.38208 16.6167 4.0476 16.8025 4.05195 16.8042C4.1346 16.8272 4.19552 16.8973 4.20857 16.983C4.22162 17.0682 4.18248 17.1526 4.10853 17.1983C4.03458 17.2444 3.89538 17.3301 2.40338 17.4075C1.75525 17.441 1.22455 17.9526 1.168 18.5972C1.1158 19.2671 1.08538 19.9548 1.08538 20.6403C1.08538 22.5343 1.28545 24.3538 1.67694 26.0481C1.76394 26.4304 2.03361 26.7571 2.399 26.922C2.99493 27.1917 3.53435 27.3422 3.54305 27.3435C3.6257 27.367 3.69093 27.4392 3.69963 27.5266C3.70833 27.614 3.66918 27.6997 3.59088 27.7428L3.46472 27.8146C2.83399 28.1673 2.573 28.9434 2.86445 29.581C3.69092 31.3862 4.79145 32.9365 6.14426 34.188C9.7068 37.5004 14.9136 39.4779 20.0638 39.4779C25.91 39.4779 30.5687 36.2877 33.4527 33.6112C38.3115 29.1043 40.7735 24.7196 40.7735 20.579C40.7735 20.4924 40.7735 20.4054 40.7735 20.3193C40.7692 20.2114 40.6908 20.1188 40.5908 20.1053C40.1776 20.0501 39.4512 20.0387 38.8117 20.0292C37.7243 20.0122 37.298 19.9966 37.1414 19.8991C37.0674 19.8539 37.0239 19.7695 37.037 19.6834C37.05 19.5977 37.1109 19.5272 37.1936 19.5041C37.2066 19.5007 38.3724 19.1736 39.6034 18.5885C40.1733 18.3179 40.4777 17.689 40.3298 17.0926C39.4555 13.6262 37.2762 10.1402 34.1965 7.27669C32.487 5.69203 26.419 0.521336 20.0638 0.521336ZM20.0638 39.9128C14.8048 39.9128 9.48931 37.8919 5.84848 34.5068C4.45652 33.2162 3.31685 31.6198 2.46863 29.762C2.12934 29.019 2.35554 28.1356 2.97757 27.6206C2.76877 27.547 2.50342 27.4457 2.22067 27.3182C1.73349 27.0981 1.37246 26.6597 1.25066 26.146C0.854826 24.4199 0.650391 22.5673 0.650391 20.6403C0.650391 19.9426 0.68084 19.2432 0.737388 18.5611C0.806986 17.7007 1.516 17.0178 2.38163 16.973C2.65132 16.959 2.86879 16.9451 3.05148 16.9312C2.85574 16.8603 2.64263 16.7764 2.41209 16.6798C1.61606 16.3453 1.1854 15.467 1.40724 14.6371C2.26416 11.4134 3.79096 8.76303 5.94414 6.75948C8.63236 4.26701 14.0393 0.0867958 20.0638 0.0867958C26.4016 0.0867958 32.2652 4.89209 34.4923 6.95784C37.6373 9.87834 39.8557 13.4396 40.7518 16.9865C40.9519 17.7833 40.5473 18.6224 39.7905 18.9817C39.2641 19.2314 38.7552 19.4337 38.3376 19.5855C38.5029 19.589 38.6682 19.5916 38.8204 19.5942C39.5034 19.6046 40.2124 19.6155 40.6517 19.6742C40.9649 19.7164 41.1998 19.9839 41.2085 20.3106C41.2085 20.3998 41.2085 20.4894 41.2085 20.579C41.2085 24.9054 38.7682 29.2726 33.7441 33.93C30.808 36.6596 26.0492 39.9128 20.0638 39.9128Z" fill="#612601"/>
<mask id="mask8_1710_41115" style="mask-type:luminance" maskUnits="userSpaceOnUse" x="13" y="5" width="19" height="27">
<path d="M28.8261 31.8672C28.3128 30.614 27.7735 29.1076 27.2123 27.2977C24.8678 19.7459 21.4531 11.3045 13.3232 7.29394C15.4286 6.0016 17.8297 5.0642 20.2743 5.0642C23.167 5.0642 26.1118 6.45137 28.5347 8.15174C28.6261 11.3432 28.687 15.2298 29.1045 19.9973C29.4786 24.295 30.466 27.3164 31.584 29.4269C31.2403 29.7797 30.888 30.119 30.54 30.443C30.005 30.9411 29.4308 31.42 28.8261 31.8672Z" fill="white"/>
</mask>
<g mask="url(#mask8_1710_41115)">
<path d="M28.8261 31.8672C28.3128 30.614 27.7735 29.1076 27.2123 27.2977C24.8678 19.7459 21.4531 11.3045 13.3232 7.29394C15.4286 6.0016 17.8297 5.0642 20.2743 5.0642C23.167 5.0642 26.1118 6.45137 28.5347 8.15174C28.6261 11.3432 28.687 15.2298 29.1045 19.9973C29.4786 24.295 30.466 27.3164 31.584 29.4269C31.2403 29.7797 30.888 30.119 30.54 30.443C30.005 30.9411 29.4308 31.42 28.8261 31.8672Z" fill="url(#paint8_linear_1710_41115)"/>
</g>
<mask id="mask9_1710_41115" style="mask-type:luminance" maskUnits="userSpaceOnUse" x="8" y="0" width="27" height="36">
<path d="M30.7804 35.7876C30.2019 34.8833 29.5407 33.6231 28.8229 31.8675C29.4276 31.4203 30.0018 30.9414 30.5368 30.4434C30.8848 30.1193 31.2371 29.78 31.5808 29.4272C32.4551 31.0737 33.4121 32.1659 34.2212 32.8771C33.9689 33.1216 33.7122 33.3665 33.4512 33.6114C32.6813 34.3239 31.7896 35.0725 30.7804 35.7876ZM28.5315 8.15204C26.1087 6.45168 23.1638 5.06451 20.2711 5.06451C17.8265 5.06451 15.4254 6.00191 13.3201 7.29425C11.7541 6.52041 10.0098 5.911 8.06543 5.50559C10.9624 3.18842 15.3297 0.521503 20.0623 0.521503C22.9768 0.521503 25.8303 1.60855 28.2314 2.93787C28.4054 4.43465 28.475 6.15763 28.5315 8.15204Z" fill="white"/>
</mask>
<g mask="url(#mask9_1710_41115)">
<path d="M30.7804 35.7876C30.2019 34.8833 29.5407 33.6231 28.8229 31.8675C29.4276 31.4203 30.0018 30.9414 30.5368 30.4434C30.8848 30.1193 31.2371 29.78 31.5808 29.4272C32.4551 31.0737 33.4121 32.1659 34.2212 32.8771C33.9689 33.1216 33.7122 33.3665 33.4512 33.6114C32.6813 34.3239 31.7896 35.0725 30.7804 35.7876ZM28.5315 8.15204C26.1087 6.45168 23.1638 5.06451 20.2711 5.06451C17.8265 5.06451 15.4254 6.00191 13.3201 7.29425C11.7541 6.52041 10.0098 5.911 8.06543 5.50559C10.9624 3.18842 15.3297 0.521503 20.0623 0.521503C22.9768 0.521503 25.8303 1.60855 28.2314 2.93787C28.4054 4.43465 28.475 6.15763 28.5315 8.15204Z" fill="url(#paint9_linear_1710_41115)"/>
</g>
<path d="M30.8989 35.9651C30.8598 35.9077 30.8206 35.8485 30.7815 35.7876C31.7906 35.0725 32.6824 34.3239 33.4523 33.6114C33.7133 33.3665 33.9699 33.1216 34.2222 32.8771C34.2788 32.9263 34.3353 32.9737 34.3875 33.0194C34.1265 33.2747 33.8612 33.5252 33.5958 33.771C32.7606 34.5462 31.8602 35.2887 30.8989 35.9651ZM8.06649 5.50561C7.97515 5.48603 7.87943 5.46689 7.78809 5.44862C11.1636 2.72039 15.5526 0.304474 20.0634 0.304474C22.8343 0.304474 25.6443 1.26883 28.1977 2.65862C28.2107 2.75083 28.2194 2.84436 28.2324 2.93789C25.8313 1.60857 22.9778 0.521523 20.0634 0.521523C15.3308 0.521523 10.9635 3.18844 8.06649 5.50561Z" fill="#592101"/>
<path d="M9.60219 30.8803C12.273 33.3602 16.2488 34.9348 20.2724 34.9348C24.3004 34.9348 27.8673 32.9234 30.5381 30.4431C31.2993 29.7354 32.0692 28.9551 32.7826 28.116C31.495 29.0903 29.8899 30.0673 27.889 30.9134C20.5421 34.027 8.0841 31.7107 5.71777 20.4876C5.71777 24.4447 6.84438 28.3191 9.60219 30.8803Z" fill="#9D3325"/>
<path d="M11.6558 8.194C10.3378 9.82477 18.3328 6.10607 17.6847 5.48578C17.0409 4.86549 12.9825 6.54627 11.6558 8.194Z" fill="#FF8C3B"/>
<path opacity="0.4" fill-rule="evenodd" clip-rule="evenodd" d="M16.6504 13.0869C16.6504 12.5346 17.0981 12.0869 17.6504 12.0869H29.6504C30.2027 12.0869 30.6504 12.5346 30.6504 13.0869C30.6504 13.6392 30.2027 14.0869 29.6504 14.0869H17.6504C17.0981 14.0869 16.6504 13.6392 16.6504 13.0869Z" fill="#631007"/>
<path fill-rule="evenodd" clip-rule="evenodd" d="M10.6504 13.0869C10.6504 12.5346 11.0981 12.0869 11.6504 12.0869H13.6504C14.2027 12.0869 14.6504 12.5346 14.6504 13.0869C14.6504 13.6392 14.2027 14.0869 13.6504 14.0869H11.6504C11.0981 14.0869 10.6504 13.6392 10.6504 13.0869Z" fill="#631007"/>
<path opacity="0.4" fill-rule="evenodd" clip-rule="evenodd" d="M16.6504 20.0869C16.6504 19.5346 17.0981 19.0869 17.6504 19.0869H29.6504C30.2027 19.0869 30.6504 19.5346 30.6504 20.0869C30.6504 20.6392 30.2027 21.0869 29.6504 21.0869H17.6504C17.0981 21.0869 16.6504 20.6392 16.6504 20.0869Z" fill="#631007"/>
<path fill-rule="evenodd" clip-rule="evenodd" d="M10.6504 20.0869C10.6504 19.5346 11.0981 19.0869 11.6504 19.0869H13.6504C14.2027 19.0869 14.6504 19.5346 14.6504 20.0869C14.6504 20.6392 14.2027 21.0869 13.6504 21.0869H11.6504C11.0981 21.0869 10.6504 20.6392 10.6504 20.0869Z" fill="#631007"/>
<path opacity="0.4" fill-rule="evenodd" clip-rule="evenodd" d="M16.6504 27.0869C16.6504 26.5346 17.0981 26.0869 17.6504 26.0869H29.6504C30.2027 26.0869 30.6504 26.5346 30.6504 27.0869C30.6504 27.6392 30.2027 28.0869 29.6504 28.0869H17.6504C17.0981 28.0869 16.6504 27.6392 16.6504 27.0869Z" fill="#631007"/>
<path fill-rule="evenodd" clip-rule="evenodd" d="M10.6504 27.0869C10.6504 26.5346 11.0981 26.0869 11.6504 26.0869H13.6504C14.2027 26.0869 14.6504 26.5346 14.6504 27.0869C14.6504 27.6392 14.2027 28.0869 13.6504 28.0869H11.6504C11.0981 28.0869 10.6504 27.6392 10.6504 27.0869Z" fill="#631007"/>
<defs>
<linearGradient id="paint0_linear_1710_41115" x1="20.9302" y1="38.5885" x2="20.9302" y2="-0.566411" gradientUnits="userSpaceOnUse">
<stop stop-color="#822330"/>
<stop offset="1" stop-color="#D15111"/>
</linearGradient>
<linearGradient id="paint1_linear_1710_41115" x1="20.9296" y1="5.06614" x2="20.9296" y2="38.8261" gradientUnits="userSpaceOnUse">
<stop stop-color="#F77111"/>
<stop offset="1" stop-color="#540D17"/>
</linearGradient>
<linearGradient id="paint2_linear_1710_41115" x1="20.9318" y1="38.5889" x2="20.9318" y2="-0.565937" gradientUnits="userSpaceOnUse">
<stop stop-color="#63171D"/>
<stop offset="1" stop-color="#9F350A"/>
</linearGradient>
<linearGradient id="paint3_linear_1710_41115" x1="20.9264" y1="5.06645" x2="20.9264" y2="38.8263" gradientUnits="userSpaceOnUse">
<stop stop-color="#BC490A"/>
<stop offset="1" stop-color="#40090E"/>
</linearGradient>
<linearGradient id="paint4_linear_1710_41115" x1="20.9291" y1="38.5889" x2="20.9291" y2="-0.566001" gradientUnits="userSpaceOnUse">
<stop stop-color="#781E27"/>
<stop offset="1" stop-color="#C0460E"/>
</linearGradient>
<linearGradient id="paint5_linear_1710_41115" x1="20.929" y1="5.06623" x2="20.929" y2="38.8262" gradientUnits="userSpaceOnUse">
<stop stop-color="#E3610E"/>
<stop offset="1" stop-color="#4D0B13"/>
</linearGradient>
<linearGradient id="paint6_linear_1710_41115" x1="20.9297" y1="38.5889" x2="20.9297" y2="-0.566073" gradientUnits="userSpaceOnUse">
<stop stop-color="#63171D"/>
<stop offset="1" stop-color="#9F350A"/>
</linearGradient>
<linearGradient id="paint7_linear_1710_41115" x1="20.9296" y1="5.06622" x2="20.9296" y2="38.8261" gradientUnits="userSpaceOnUse">
<stop stop-color="#BC490A"/>
<stop offset="1" stop-color="#40090E"/>
</linearGradient>
<linearGradient id="paint8_linear_1710_41115" x1="20.9311" y1="38.5886" x2="20.9311" y2="-0.566345" gradientUnits="userSpaceOnUse">
<stop stop-color="#781E27"/>
<stop offset="1" stop-color="#C0460E"/>
</linearGradient>
<linearGradient id="paint9_linear_1710_41115" x1="20.928" y1="5.06624" x2="20.928" y2="38.8262" gradientUnits="userSpaceOnUse">
<stop stop-color="#E3610E"/>
<stop offset="1" stop-color="#4D0B13"/>
</linearGradient>
</defs>
</svg>
