<svg width="45" height="40" viewBox="0 0 45 40" fill="none" xmlns="http://www.w3.org/2000/svg">
<mask id="mask0_1527_3886" style="mask-type:luminance" maskUnits="userSpaceOnUse" x="0" y="0" width="42" height="40">
<path d="M13.8612 39.4019H13.8144C12.3936 39.4019 11.0919 38.6847 10.3305 37.4851L1.05292 22.3254C0.253205 21.0641 0.214904 19.4596 0.950815 18.1375L2.63107 15.1232C6.82959 17.5938 15.2607 18.6335 18.0895 27.076C20.9821 35.7007 16.2943 38.6035 14.4822 39.3768L13.8612 39.4019ZM27.835 38.8395C28.137 35.9312 27.9711 28.9554 21.0841 22.3118C13.6357 15.1296 7.89307 12.3765 7.28477 6.76957L9.63713 2.5434C10.3688 1.22982 11.7428 0.424572 13.2401 0.424572L13.3422 0.42585L21.2798 0.497734C19.7612 12.2659 27.384 12.6905 33.6669 16.3692C38.176 19.0065 40.4093 22.7222 41.4217 25.0082L34.2412 36.7487C33.501 37.9569 32.2121 38.694 30.7914 38.7204L27.835 38.8395Z" fill="white"/>
</mask>
<g mask="url(#mask0_1527_3886)">
<path d="M13.8612 39.4019H13.8144C12.3936 39.4019 11.0919 38.6847 10.3305 37.4851L1.05292 22.3254C0.253205 21.0641 0.214904 19.4596 0.950815 18.1375L2.63107 15.1232C6.82959 17.5938 15.2607 18.6335 18.0895 27.076C20.9821 35.7007 16.2943 38.6035 14.4822 39.3768L13.8612 39.4019ZM27.835 38.8395C28.137 35.9312 27.9711 28.9554 21.0841 22.3118C13.6357 15.1296 7.89307 12.3765 7.28477 6.76957L9.63713 2.5434C10.3688 1.22982 11.7428 0.424572 13.2401 0.424572L13.3422 0.42585L21.2798 0.497734C19.7612 12.2659 27.384 12.6905 33.6669 16.3692C38.176 19.0065 40.4093 22.7222 41.4217 25.0082L34.2412 36.7487C33.501 37.9569 32.2121 38.694 30.7914 38.7204L27.835 38.8395Z" fill="url(#paint0_linear_1527_3886)"/>
</g>
<path d="M13.2403 0.424969C11.7429 0.424969 10.3689 1.23022 9.63727 2.5438L0.95096 18.1379C0.21505 19.46 0.253351 21.0645 1.05307 22.3258L10.3306 37.4855C11.0921 38.6851 12.3938 39.4023 13.8145 39.4023H13.8613L30.7915 38.7208C32.2123 38.6944 33.5012 37.9573 34.2413 36.7491L43.1659 22.1518C43.9784 20.8276 43.9826 19.1852 43.1786 17.8665L34.0202 2.56081C33.2843 1.35656 32.0038 0.615963 30.5916 0.582359L13.3423 0.426247L13.2403 0.424969ZM13.8145 39.8276C12.2491 39.8276 10.8113 39.036 9.96906 37.7102L0.691494 22.5504C-0.189047 21.1606 -0.23161 19.3894 0.58087 17.9307L9.26294 2.33706C10.0924 0.85503 11.6493 -0.0314636 13.3508 0.000865936L30.6001 0.156979C32.1612 0.193985 33.5735 1.01072 34.3817 2.34132L43.5445 17.6466C44.4292 19.1009 44.425 20.9126 43.5317 22.3738L34.6029 36.9708C33.7862 38.3039 32.3654 39.1173 30.8043 39.1462L13.8145 39.8276Z" fill="#612601"/>
<mask id="mask1_1527_3886" style="mask-type:luminance" maskUnits="userSpaceOnUse" x="21" y="0" width="23" height="26">
<path d="M41.4225 25.0088C40.4101 22.7228 38.1768 19.0071 33.6677 16.3697C27.3848 12.691 19.762 12.2665 21.2807 0.498276L30.5922 0.5825C32.0045 0.616106 33.2849 1.3567 34.0208 2.56095L43.1793 17.8666C43.9833 19.1853 43.979 20.8277 43.1666 22.1519L41.4225 25.0088Z" fill="white"/>
</mask>
<g mask="url(#mask1_1527_3886)">
<path d="M41.4225 25.0088C40.4101 22.7228 38.1768 19.0071 33.6677 16.3697C27.3848 12.691 19.762 12.2665 21.2807 0.498276L30.5922 0.5825C32.0045 0.616106 33.2849 1.3567 34.0208 2.56095L43.1793 17.8666C43.9833 19.1853 43.979 20.8277 43.1666 22.1519L41.4225 25.0088Z" fill="url(#paint1_linear_1527_3886)"/>
</g>
<path d="M41.5242 25.2473C41.4901 25.1695 41.4561 25.0903 41.4221 25.0087L43.1662 22.1518C43.9787 20.8276 43.9829 19.1852 43.1789 17.8665L34.0205 2.56084C33.2846 1.35658 32.0041 0.615993 30.5919 0.58239L21.2803 0.498165C21.2888 0.427977 21.2973 0.356937 21.31 0.285898L30.6004 0.370975C32.085 0.405006 33.4292 1.18346 34.2034 2.45109L43.3618 17.7563C44.2041 19.1388 44.1998 20.8701 43.3491 22.2611L41.5242 25.2473Z" fill="#592101"/>
<mask id="mask2_1527_3886" style="mask-type:luminance" maskUnits="userSpaceOnUse" x="2" y="6" width="26" height="34">
<path d="M14.4839 39.377C16.2961 38.6037 20.9838 35.7009 18.0912 27.0762C15.2624 18.6337 6.83133 17.594 2.63281 15.1234L7.28651 6.76977C7.8948 12.3767 13.6374 15.1298 21.0859 22.312C27.9728 28.9556 28.1387 35.9314 27.8367 38.8397L14.4839 39.377Z" fill="white"/>
</mask>
<g mask="url(#mask2_1527_3886)">
<path d="M14.4839 39.377C16.2961 38.6037 20.9838 35.7009 18.0912 27.0762C15.2624 18.6337 6.83133 17.594 2.63281 15.1234L7.28651 6.76977C7.8948 12.3767 13.6374 15.1298 21.0859 22.312C27.9728 28.9556 28.1387 35.9314 27.8367 38.8397L14.4839 39.377Z" fill="url(#paint2_linear_1527_3886)"/>
</g>
<path d="M13.8612 39.6167H13.8187C13.8187 39.6167 14.0782 39.5504 14.4823 39.3773L27.835 38.84C27.8265 38.9132 27.8223 38.9834 27.8138 39.0511L13.8612 39.6167ZM2.63115 15.1237C2.56734 15.0871 2.5078 15.0501 2.44824 15.0127L7.25078 6.39062C7.25929 6.51823 7.26783 6.645 7.28484 6.77007L2.63115 15.1237Z" fill="#592101"/>
<mask id="mask3_1527_3886" style="mask-type:luminance" maskUnits="userSpaceOnUse" x="4" y="4" width="35" height="32">
<path d="M38.6342 18.7089L30.586 5.26686C30.2414 4.70111 29.6331 4.34932 28.9695 4.334L13.8046 4.19618C13.0815 4.17916 12.4094 4.56371 12.0606 5.19455L10.7121 7.6103C11.682 8.21902 12.8943 9.04043 12.8943 9.04043L9.00633 10.676L4.42496 18.9029C4.0804 19.5252 4.10166 20.2875 4.48025 20.8894L12.6221 34.1907C12.9837 34.7598 13.6089 35.1019 14.2853 35.0951L29.1439 34.4969C29.8117 34.4898 30.4328 34.1389 30.7816 33.5667L31.3984 32.556L27.1361 32.3603L32.0152 31.5499L32.7341 30.3729L31.6919 29.3311L34.1209 27.8848L38.6299 20.735C39.0085 20.1135 39.0128 19.3313 38.6342 18.7089Z" fill="white"/>
</mask>
<g mask="url(#mask3_1527_3886)">
<mask id="mask4_1527_3886" style="mask-type:luminance" maskUnits="userSpaceOnUse" x="4" y="4" width="35" height="32">
<path d="M28.9685 4.33358L13.8037 4.19618C13.0805 4.17916 12.4084 4.56371 12.0596 5.19455L4.42398 18.9029C4.07942 19.5252 4.10068 20.2875 4.47927 20.8894L12.6211 34.1907C12.9827 34.7598 13.608 35.1019 14.2843 35.0951L29.1429 34.4969C29.8108 34.4898 30.4318 34.1389 30.7806 33.5667L38.6289 20.735C39.0075 20.1135 39.0118 19.3313 38.6332 18.7089L30.585 5.26686C30.2404 4.70111 29.6321 4.34974 28.9685 4.33358Z" fill="white"/>
</mask>
<g mask="url(#mask4_1527_3886)">
<path d="M14.0075 35.115V35.0725H13.7523V35.0299H13.6247V34.9874H13.5396V34.9448H13.412V34.9023H13.3269V34.8598H13.2418V34.8172H13.1993V34.7747H13.1568V34.7321H13.0717V34.6896H13.0292V34.6471H12.9441V34.6045H12.9015V34.562H12.859V34.5195H12.8165V34.4769H12.7739V34.3918H12.7314V34.3493H12.6888V34.3068H12.6463V34.2642H12.6038V34.1791H12.5612V34.0941H12.5187V34.0515H12.4762V33.9665H12.4336V33.9239H12.3911V33.8388H12.3485V33.7538H12.306V33.7112H12.2635V33.6262H12.2209V33.5411H12.1784V33.4985H12.1359V33.4135H12.0933V33.3284H12.0508V33.2858H12.0082V33.2008H11.9657V33.1582H11.9232V33.0732H11.8806V32.9881H11.8381V32.9455H11.7955V32.8605H11.753V32.7754H11.7105V32.7329H11.6679V32.6478H11.6254V32.6052H11.5829V32.5202H11.5403V32.4351H11.4978V32.3925H11.4552V32.3075H11.4127V32.2224H11.3702V32.1799H11.3276V32.0948H11.2851V32.0097H11.2426V31.9672H11.2V31.8821H11.1575V31.8395H11.1149V31.7545H11.0724V31.6694H11.0299V31.6269H10.9873V31.5418H10.9448V31.4567H10.9022V31.4142H10.8597V31.3291H10.8172V31.244H10.7746V31.2015H10.7321V31.1164H10.6896V31.0739H10.647V30.9888H10.6045V30.9037H10.5619V30.8612H10.5194V30.7761H10.4769V30.691H10.4343V30.6485H10.3918V30.5634H10.3492V30.5209H10.3067V30.4358H10.2642V30.3507H10.2216V30.3082H10.1791V30.2231H10.1366V30.138H10.094V30.0955H10.0515V30.0104H10.0089V29.9253H9.9664V29.8828H9.92387V29.7977H9.88133V29.7552H9.83879V29.6701H9.79625V29.585H9.75371V29.5425H9.71118V29.4574H9.66864V29.3723H9.6261V29.3298H9.58356V29.2447H9.54102V29.1596H9.49848V29.1171H9.45595V29.032H9.41341V28.9895H9.37087V28.9044H9.32833V28.8193H9.28579V28.7768H9.24326V28.6917H9.20072V28.6066H9.15818V28.5641H9.11564V28.479H9.0731V28.4365H9.03056V28.3514H8.98803V28.2663H8.94549V28.2238H8.90295V28.1387H8.86041V28.0536H8.81787V28.0111H8.77534V27.926H8.7328V27.841H8.69026V27.7984H8.64772V27.7133H8.60518V27.6708H8.56264V27.5857H8.52011V27.5007H8.47757V27.4581H8.43503V27.373H8.39249V27.288H8.34995V27.2454H8.30742V27.1603H8.26488V27.0753H8.22234V27.0327H8.1798V26.9477H8.13726V26.9051H8.09472V26.82H8.05219V26.735H8.00965V26.6924H7.96711V26.6074H7.92457V26.5223H7.88203V26.4797H7.83949V26.3947H7.79696V26.3096H7.75442V26.267H7.71188V26.182H7.66934V26.1394H7.6268V26.0544H7.58427V25.9693H7.54173V25.9267H7.49919V25.8417H7.45665V25.7566H7.41411V25.714H7.37157V25.629H7.32904V25.5864H7.2865V25.5014H7.24396V25.4163H7.20142V25.3737H7.15888V25.2887H7.11635V25.2036H7.07381V25.1611H7.03127V25.076H6.98873V24.9909H6.94619V24.9484H6.90365V24.8633H6.86112V24.8207H6.81858V24.7357H6.77604V24.6506H6.7335V24.6081H6.69096V24.523H6.64843V24.4379H6.60589V24.3954H6.56335V24.3103H6.52081V24.2252H6.47827V24.1827H6.43573V24.0976H6.3932V24.0551H6.35066V23.97H6.30812V23.8849H6.26558V23.8424H6.22304V23.7573H6.18051V23.6722H6.13797V23.6297H6.09543V23.5446H6.05289V23.5021H6.01035V23.417H5.96781V23.3319H5.92528V23.2894H5.88274V23.2043H5.8402V23.1192H5.79766V23.0767H5.75512V22.9916H5.71259V22.9065H5.67005V22.864H5.62751V22.7789H5.58497V22.7364H5.54243V22.6513H5.49989V22.5662H5.45736V22.5237H5.41482V22.4386H5.37228V22.3535H5.32974V22.311H5.2872V22.2259H5.24466V22.1408H5.20213V22.0983H5.15959V22.0132H5.11705V21.9707H5.07451V21.8856H5.03197V21.8005H4.98944V21.758H4.9469V21.6729H4.90436V21.5878H4.86182V21.5453H4.81928V21.4602H4.77674V21.4177H4.73421V21.3326H4.69167V21.2475H4.64913V21.205H4.60659V21.1199H4.56405V21.0348H4.52152V20.9923H4.47898V20.9072H4.43644V20.8222H4.3939V20.7796H4.35136V20.652H4.30882V20.5669H4.26629V20.4393H4.22375V20.1841H4.18121V19.9289H4.13867V19.8863H4.18121V19.4609H4.22375V19.2908H4.26629V19.1632H4.30882V19.0356H4.35136V18.9505H4.3939V18.8654H4.43644V18.7803H4.47898V18.6952H4.52152V18.6102H4.56405V18.5676H4.60659V18.4826H4.64913V18.3975H4.69167V18.3124H4.73421V18.2273H4.77674V18.1848H4.81928V18.0997H4.86182V18.0146H4.90436V17.9296H4.9469V17.887H4.98944V17.8019H5.03197V17.7169H5.07451V17.6318H5.11705V17.5467H5.15959V17.5042H5.20213V17.4191H5.24466V17.334H5.2872V17.2489H5.32974V17.1639H5.37228V17.1213H5.41482V17.0363H5.45736V16.9512H5.49989V16.8661H5.54243V16.781H5.58497V16.7385H5.62751V16.6534H5.67005V16.5683H5.71259V16.4833H5.75512V16.3982H5.79766V16.3556H5.8402V16.2706H5.88274V16.1855H5.92528V16.1004H5.96781V16.0153H6.01035V15.9728H6.05289V15.8877H6.09543V15.8026H6.13797V15.7176H6.18051V15.6325H6.22304V15.59H6.26558V15.5049H6.30812V15.4198H6.35066V15.3347H6.3932V15.2497H6.43573V15.2071H6.47827V15.122H6.52081V15.037H6.56335V14.9519H6.60589V14.8668H6.64843V14.8243H6.69096V14.7392H6.7335V14.6541H6.77604V14.569H6.81858V14.5265H6.86112V14.4414H6.90365V14.3563H6.94619V14.2713H6.98873V14.1862H7.03127V14.1437H7.07381V14.0586H7.11635V13.9735H7.15888V13.8884H7.20142V13.8034H7.24396V13.7608H7.2865V13.6757H7.32904V13.5907H7.37157V13.5056H7.41411V13.4205H7.45665V13.378H7.49919V13.2929H7.54173V13.2078H7.58427V13.1227H7.6268V13.0377H7.66934V12.9951H7.71188V12.9101H7.75442V12.825H7.79696V12.7399H7.83949V12.6548H7.88203V12.6123H7.92457V12.5272H7.96711V12.4421H8.00965V12.3571H8.05219V12.272H8.09472V12.2294H8.13726V12.1444H8.1798V12.0593H8.22234V11.9742H8.26488V11.8891H8.30742V11.8466H8.34995V11.7615H8.39249V11.6764H8.43503V11.5914H8.47757V11.5063H8.52011V11.4638H8.56264V11.3787H8.60518V11.2936H8.64772V11.2085H8.69026V11.166H8.7328V11.0809H8.77534V10.9958H8.81787V10.9108H8.86041V10.8257H8.90295V10.7831H8.94549V10.6981H8.98803V10.6555H9.03056V10.613H9.11564V10.5705H9.24326V10.5279H9.32833V10.4854H9.45595V10.4428H9.54102V10.4003H9.6261V10.3578H9.75371V10.3152H9.83879V10.2727H9.92387V10.2301H10.0515V10.1876H10.1366V10.1451H10.2642V10.1025H10.3492V10.06H10.4343V10.0175H10.5619V9.97492H10.647V9.93238H10.7321V9.88984H10.8597V9.8473H10.9448V9.80476H11.0724V9.76223H11.1575V9.71969H11.2426V9.67715H11.3702V9.63461H11.4552V9.59207H11.5403V9.54953H11.6679V9.507H11.753V9.46446H11.8806V9.42192H11.9657V9.37938H12.0508V9.33684H12.1784V9.29431H12.2635V9.25177H12.3485V9.20923H12.4762V9.16669H12.5612V9.12415H12.6888V9.08161H12.7739V9.03908H12.8165V8.99654H12.7314V8.954H12.6888V8.91146H12.6038V8.86892H12.5612V8.82639H12.4762V8.78385H12.4336V8.74131H12.3485V8.69877H12.306V8.65623H12.2209V8.6137H12.1784V8.57116H12.0933V8.52862H12.0508V8.48608H11.9657V8.44354H11.9232V8.401H11.8381V8.35847H11.7955V8.31593H11.7105V8.27339H11.6679V8.23085H11.5829V8.18831H11.5403V8.14577H11.4552V8.10324H11.4127V8.0607H11.3276V8.01816H11.2426V7.97562H11.2V7.93308H11.1149V7.89054H11.0724V7.84801H10.9873V7.80547H10.9448V7.76293H10.8597V7.72039H10.8172V7.67785H10.7321V7.63531H10.6896V7.55024H10.7321V7.46516H10.7746V7.42262H10.8172V7.33755H10.8597V7.25247H10.9022V7.16739H10.9448V7.08232H10.9873V7.03978H11.0299V6.9547H11.0724V6.86963H11.1149V6.78455H11.1575V6.69948H11.2V6.65694H11.2426V6.57186H11.2851V6.48678H11.3276V6.40171H11.3702V6.31663H11.4127V6.27409H11.4552V6.18902H11.4978V6.10394H11.5403V6.01886H11.5829V5.93379H11.6254V5.89125H11.6679V5.80617H11.7105V5.7211H11.753V5.63602H11.7955V5.55094H11.8381V5.50841H11.8806V5.42333H11.9232V5.33825H11.9657V5.25318H12.0082V5.1681H12.0508V5.12556H12.0933V5.04049H12.1359V4.99795H12.1784V4.95541H12.2209V4.87033H12.2635V4.8278H12.306V4.78526H12.3485V4.74272H12.3911V4.70018H12.4336V4.65764H12.5187V4.6151H12.5612V4.57257H12.6038V4.53003H12.6888V4.48749H12.7314V4.44495H12.7739V4.40241H12.9015V4.35987H12.9866V4.31734H13.1142V4.2748H13.1993V4.23226H13.412V4.18972H17.7934V4.23226H22.4726V4.2748H27.1518V4.31734H29.2362V4.35987H29.4489V4.40241H29.5765V4.44495H29.6616V4.48749H29.7467V4.53003H29.8743V4.57257H29.9594V4.6151H30.0019V4.65764H30.0444V4.70018H30.1295V4.74272H30.172V4.78526H30.2146V4.8278H30.2997V4.87033H30.3422V4.95541H30.3847V4.99795H30.4273V5.04049H30.4698V5.08302H30.5124V5.12556H30.5549V5.21064H30.5974V5.25318H30.64V5.33825H30.6825V5.42333H30.725V5.46587H30.7676V5.55094H30.8101V5.63602H30.8527V5.67856H30.8952V5.76364H30.9377V5.84871H30.9803V5.89125H31.0228V5.97633H31.0653V6.0614H31.1079V6.10394H31.1504V6.18902H31.193V6.27409H31.2355V6.31663H31.278V6.40171H31.3206V6.48678H31.3631V6.52932H31.4057V6.6144H31.4482V6.69948H31.4907V6.74201H31.5333V6.82709H31.5758V6.91217H31.6183V6.9547H31.6609V7.03978H31.7034V7.12486H31.746V7.16739H31.7885V7.25247H31.831V7.33755H31.8736V7.38009H31.9161V7.46516H31.9587V7.55024H32.0012V7.59278H32.0437V7.67785H32.0863V7.76293H32.1288V7.80547H32.1713V7.89054H32.2139V7.97562H32.2564V8.01816H32.299V8.10324H32.3415V8.18831H32.384V8.23085H32.4266V8.31593H32.4691V8.401H32.5116V8.44354H32.5542V8.52862H32.5967V8.6137H32.6393V8.65623H32.6818V8.74131H32.7243V8.82639H32.7669V8.91146H32.8094V8.954H32.852V9.03908H32.8945V9.12415H32.937V9.16669H32.9796V9.25177H33.0221V9.33684H33.0646V9.37938H33.1072V9.46446H33.1497V9.54953H33.1923V9.59207H33.2348V9.67715H33.2773V9.76223H33.3199V9.80476H33.3624V9.88984H33.405V9.97492H33.4475V10.0175H33.49V10.1025H33.5326V10.1876H33.5751V10.2301H33.6176V10.3152H33.6602V10.4003H33.7027V10.4428H33.7453V10.5279H33.7878V10.613H33.8303V10.6555H33.8729V10.7406H33.9154V10.8257H33.9579V10.8682H34.0005V10.9533H34.043V11.0384H34.0856V11.0809H34.1281V11.166H34.1706V11.2511H34.2132V11.2936H34.2557V11.3787H34.2983V11.4638H34.3408V11.5063H34.3833V11.5914H34.4259V11.6764H34.4684V11.719H34.5109V11.8041H34.5535V11.8891H34.596V11.9317H34.6386V12.0168H34.6811V12.1018H34.7236V12.1444H34.7662V12.2294H34.8087V12.3145H34.8512V12.3571H34.8938V12.4421H34.9363V12.5272H34.9789V12.5697H35.0214V12.6548H35.0639V12.7399H35.1065V12.7824H35.149V12.8675H35.1916V12.9526H35.2341V12.9951H35.2766V13.0802H35.3192V13.1653H35.3617V13.2078H35.4042V13.2929H35.4468V13.378H35.4893V13.4205H35.5319V13.5056H35.5744V13.5907H35.6169V13.6332H35.6595V13.7183H35.702V13.8034H35.7446V13.8459H35.7871V13.931H35.8296V14.016H35.8722V14.0586H35.9147V14.1437H35.9572V14.2287H35.9998V14.2713H36.0423V14.3563H36.0849V14.4414H36.1274V14.484H36.1699V14.569H36.2125V14.6541H36.255V14.6967H36.2975V14.7817H36.3401V14.8668H36.3826V14.9093H36.4252V14.9944H36.4677V15.0795H36.5102V15.122H36.5528V15.2071H36.5953V15.2922H36.6379V15.3347H36.6804V15.4198H36.7229V15.5049H36.7655V15.59H36.808V15.6325H36.8505V15.7176H36.8931V15.8026H36.9356V15.8452H36.9782V15.9303H37.0207V16.0153H37.0632V16.0579H37.1058V16.143H37.1483V16.228H37.1908V16.2706H37.2334V16.3556H37.2759V16.4407H37.3185V16.4833H37.361V16.5683H37.4035V16.6534H37.4461V16.696H37.4886V16.781H37.5312V16.8661H37.5737V16.9086H37.6162V16.9937H37.6588V17.0788H37.7013V17.1213H37.7438V17.2064H37.7864V17.2915H37.8289V17.334H37.8715V17.4191H37.914V17.5042H37.9565V17.5467H37.9991V17.6318H38.0416V17.7169H38.0842V17.7594H38.1267V17.8445H38.1692V17.9296H38.2118V17.9721H38.2543V18.0572H38.2968V18.1423H38.3394V18.1848H38.3819V18.2699H38.4245V18.3549H38.467V18.3975H38.5095V18.4826H38.5521V18.5676H38.5946V18.6102H38.6371V18.6952H38.6797V18.7803H38.7222V18.8654H38.7648V18.9505H38.8073V19.0781H38.8498V19.2057H38.8924V19.546H38.9349V19.8863H38.8924V20.2266H38.8498V20.3542H38.8073V20.4819H38.7648V20.5669H38.7222V20.652H38.6797V20.7371H38.6371V20.8222H38.5946V20.8647H38.5521V20.9498H38.5095V20.9923H38.467V21.0774H38.4245V21.1625H38.3819V21.205H38.3394V21.2901H38.2968V21.3326H38.2543V21.4177H38.2118V21.5028H38.1692V21.5453H38.1267V21.6304H38.0842V21.6729H38.0416V21.758H37.9991V21.8431H37.9565V21.8856H37.914V21.9707H37.8715V22.0132H37.8289V22.0983H37.7864V22.1408H37.7438V22.2259H37.7013V22.311H37.6588V22.3535H37.6162V22.4386H37.5737V22.4811H37.5312V22.5662H37.4886V22.6513H37.4461V22.6938H37.4035V22.7789H37.361V22.8215H37.3185V22.9065H37.2759V22.9491H37.2334V23.0341H37.1908V23.1192H37.1483V23.1618H37.1058V23.2468H37.0632V23.2894H37.0207V23.3744H36.9782V23.4595H36.9356V23.5021H36.8931V23.5871H36.8505V23.6297H36.808V23.7148H36.7655V23.7573H36.7229V23.8424H36.6804V23.9274H36.6379V23.97H36.5953V24.0551H36.5528V24.0976H36.5102V24.1827H36.4677V24.2678H36.4252V24.3103H36.3826V24.3954H36.3401V24.4379H36.2975V24.523H36.255V24.6081H36.2125V24.6506H36.1699V24.7357H36.1274V24.7782H36.0849V24.8633H36.0423V24.9058H35.9998V24.9909H35.9572V25.076H35.9147V25.1185H35.8722V25.2036H35.8296V25.2461H35.7871V25.3312H35.7446V25.4163H35.702V25.4588H35.6595V25.5439H35.6169V25.5864H35.5744V25.6715H35.5319V25.714H35.4893V25.7991H35.4468V25.8842H35.4042V25.9267H35.3617V26.0118H35.3192V26.0544H35.2766V26.1394H35.2341V26.2245H35.1916V26.267H35.149V26.3521H35.1065V26.3947H35.0639V26.4797H35.0214V26.5223H34.9789V26.6074H34.9363V26.6924H34.8938V26.735H34.8512V26.82H34.8087V26.8626H34.7662V26.9477H34.7236V27.0327H34.6811V27.0753H34.6386V27.1603H34.596V27.2029H34.5535V27.288H34.5109V27.373H34.4684V27.4156H34.4259V27.5007H34.3833V27.5432H34.3408V27.6283H34.2983V27.6708H34.2557V27.7559H34.2132V27.841H34.1706V27.8835H34.1281V27.926H34.0856V27.9686H34.0005V28.0111H33.9154V28.0536H33.8729V28.0962H33.7878V28.1387H33.7027V28.1813H33.6602V28.2238H33.5751V28.2663H33.49V28.3089H33.4475V28.3514H33.3624V28.394H33.2773V28.4365H33.2348V28.479H33.1497V28.5216H33.0646V28.5641H32.9796V28.6066H32.937V28.6492H32.852V28.6917H32.7669V28.7343H32.7243V28.7768H32.6393V28.8193H32.5542V28.8619H32.5116V28.9044H32.4266V28.947H32.3415V28.9895H32.299V29.032H32.2139V29.0746H32.1288V29.1171H32.0863V29.1596H32.0012V29.2022H31.9161V29.2447H31.8736V29.2873H31.7885V29.3298H31.746V29.3723H31.7885V29.4149H31.831V29.4574H31.8736V29.4999H31.9161V29.5425H31.9587V29.585H32.0012V29.6276H32.0437V29.6701H32.0863V29.7126H32.1288V29.7552H32.1713V29.7977H32.2139V29.8403H32.2564V29.8828H32.299V29.9253H32.3415V29.9679H32.384V30.0104H32.4266V30.0529H32.4691V30.0955H32.5116V30.138H32.5542V30.1806H32.5967V30.2231H32.6393V30.2656H32.6818V30.3082H32.7243V30.3507H32.7669V30.3933H32.7243V30.4783H32.6818V30.5634H32.6393V30.6059H32.5967V30.691H32.5542V30.7761H32.5116V30.8186H32.4691V30.9037H32.4266V30.9462H32.384V31.0313H32.3415V31.1164H32.299V31.1589H32.2564V31.244H32.2139V31.3291H32.1713V31.3716H32.1288V31.4567H32.0863V31.5418H32.0437V31.5843H31.831V31.6269H31.5758V31.6694H31.3206V31.7119H31.0653V31.7545H30.8101V31.797H30.5549V31.8395H30.2997V31.8821H30.0444V31.9246H29.7892V31.9672H29.534V32.0097H29.2787V32.0522H29.0235V32.0948H28.7683V32.1373H28.5131V32.1799H28.2578V32.2224H28.0026V32.2649H27.7474V32.3075H27.4921V32.35H27.875V32.3925H28.7683V32.4351H29.7041V32.4776H30.64V32.5202H31.4057V32.6478H31.3631V32.6903H31.3206V32.7754H31.278V32.8605H31.2355V32.903H31.193V32.9881H31.1504V33.0306H31.1079V33.1157H31.0653V33.2008H31.0228V33.2433H30.9803V33.3284H30.9377V33.4135H30.8952V33.456H30.8527V33.5411H30.8101V33.6262H30.7676V33.6687H30.725V33.7112H30.6825V33.7963H30.64V33.8388H30.5974V33.8814H30.5549V33.9239H30.5124V33.9665H30.4698V34.009H30.4273V34.0515H30.3422V34.0941H30.2997V34.1366H30.2571V34.1791H30.172V34.2217H30.1295V34.2642H30.0444V34.3068H29.9594V34.3493H29.8317V34.3918H29.7467V34.4344H29.6191V34.4769H29.4064V34.5195H28.5981V34.562H27.5347V34.6045H26.4712V34.6471H25.4078V34.6896H24.3869V34.7321H23.3234V34.7747H22.2599V34.8172H21.1965V34.8598H20.133V34.9023H19.0696V34.9448H18.0487V34.9874H16.9852V35.0299H15.9218V35.0725H14.8583V35.115" fill="url(#paint3_linear_1527_3886)"/>
</g>
</g>
<path d="M32 30L12 10" stroke="#631007" stroke-width="1.5" stroke-linecap="round" stroke-linejoin="round"/>
<path opacity="0.4" d="M27 18C27.6296 18.7667 28 19.7054 28 20.7195C28 21.1635 27.929 21.593 27.7963 22" stroke="#631007" stroke-width="1.5" stroke-linecap="round" stroke-linejoin="round"/>
<path opacity="0.4" d="M30 16C31.2508 17.2295 32 18.7952 32 20.5C32 21.9164 31.4829 23.2367 30.5906 24.348" stroke="#631007" stroke-width="1.5" stroke-linecap="round" stroke-linejoin="round"/>
<path d="M24 21.9975C24 25.1427 24 27.5288 23.074 27.9202C22.1481 28.3116 21.0583 27.1996 18.8787 24.9756C17.7499 23.8239 17.106 23.5688 15.5 23.5688C14.3879 23.5688 13.0275 23.7162 12.3371 22.6618C12 22.1471 12 21.4306 12 19.9975C12 18.5644 12 17.8479 12.3371 17.3332C13.0275 16.2788 14.3879 16.4262 15.5 16.4262C16.6072 16.4262 17.3569 16.4362 17.96 15.9575" stroke="#631007" stroke-width="1.5" stroke-linecap="round" stroke-linejoin="round"/>
<path opacity="0.4" d="M24 17.4995C24 14.3543 24.026 12.4682 23.1 12.0768C22.3292 11.751 21.5323 12.4672 20 13.9995" stroke="#631007" stroke-width="1.5" stroke-linecap="round" stroke-linejoin="round"/>
<defs>
<linearGradient id="paint0_linear_1527_3886" x1="22.1051" y1="0.211879" x2="22.1051" y2="39.6146" gradientUnits="userSpaceOnUse">
<stop stop-color="#E85A13"/>
<stop offset="1" stop-color="#822330"/>
</linearGradient>
<linearGradient id="paint1_linear_1527_3886" x1="22.1059" y1="0.21242" x2="22.1059" y2="39.6152" gradientUnits="userSpaceOnUse">
<stop stop-color="#D64D0F"/>
<stop offset="1" stop-color="#781E27"/>
</linearGradient>
<linearGradient id="paint2_linear_1527_3886" x1="22.1068" y1="0.212086" x2="22.1068" y2="39.6148" gradientUnits="userSpaceOnUse">
<stop stop-color="#D64D0F"/>
<stop offset="1" stop-color="#781E27"/>
</linearGradient>
<linearGradient id="paint3_linear_1527_3886" x1="21.5453" y1="4.50663" x2="21.5453" y2="34.985" gradientUnits="userSpaceOnUse">
<stop stop-color="#FFE6BF"/>
<stop offset="1" stop-color="#FABD6E"/>
</linearGradient>
</defs>
</svg>
