<svg width="53" height="48" viewBox="0 0 53 48" fill="none" xmlns="http://www.w3.org/2000/svg">
<mask id="mask0_288_10208" style="mask-type:luminance" maskUnits="userSpaceOnUse" x="0" y="0" width="50" height="48">
<path d="M16.758 47.2778H16.7021C15.0051 47.2778 13.4503 46.4212 12.5408 44.9884L1.45924 26.8809C0.504018 25.3744 0.45827 23.4579 1.33727 21.8787L3.34425 18.2784C8.35915 21.2294 18.4296 22.4712 21.8084 32.5553C25.2635 42.857 19.6642 46.3242 17.4998 47.2479L16.758 47.2778ZM33.4489 46.6062C33.8096 43.1323 33.6115 34.8001 25.3854 26.8647C16.4887 18.286 9.62941 14.9976 8.90283 8.30038L11.7126 3.25246C12.5865 1.68346 14.2277 0.721634 16.0162 0.721634L16.1381 0.72316L25.6192 0.809025C23.8053 14.8655 32.9103 15.3726 40.4149 19.7666C45.8007 22.9168 48.4682 27.355 49.6775 30.0855L41.1008 44.1088C40.2167 45.5519 38.6772 46.4323 36.9802 46.4639L33.4489 46.6062Z" fill="white"/>
</mask>
<g mask="url(#mask0_288_10208)">
<path d="M16.758 47.2778H16.7021C15.0051 47.2778 13.4503 46.4212 12.5408 44.9884L1.45924 26.8809C0.504018 25.3744 0.45827 23.4579 1.33727 21.8787L3.34425 18.2784C8.35915 21.2294 18.4296 22.4712 21.8084 32.5553C25.2635 42.857 19.6642 46.3242 17.4998 47.2479L16.758 47.2778ZM33.4489 46.6062C33.8096 43.1323 33.6115 34.8001 25.3854 26.8647C16.4887 18.286 9.62941 14.9976 8.90283 8.30038L11.7126 3.25246C12.5865 1.68346 14.2277 0.721634 16.0162 0.721634L16.1381 0.72316L25.6192 0.809025C23.8053 14.8655 32.9103 15.3726 40.4149 19.7666C45.8007 22.9168 48.4682 27.355 49.6775 30.0855L41.1008 44.1088C40.2167 45.5519 38.6772 46.4323 36.9802 46.4639L33.4489 46.6062Z" fill="url(#paint0_linear_288_10208)"/>
</g>
<path d="M16.015 0.721657C14.2265 0.721657 12.5853 1.68348 11.7114 3.25248L1.33606 21.8787C0.45706 23.4579 0.502809 25.3744 1.45803 26.8809L12.5396 44.9884C13.4491 46.4213 15.0038 47.2779 16.7009 47.2779H16.7568L36.9789 46.4639C38.676 46.4323 40.2155 45.5519 41.0996 44.1088L51.7594 26.6731C52.7299 25.0914 52.735 23.1297 51.7747 21.5546L40.8354 3.2728C39.9564 1.83438 38.427 0.949787 36.7401 0.909649L16.1369 0.723183L16.015 0.721657ZM16.7009 47.7859C14.8311 47.7859 13.1137 46.8404 12.1077 45.2568L1.02615 27.1492C-0.0256105 25.4893 -0.0764498 23.3736 0.894012 21.6313L11.2643 3.00554C12.255 1.23534 14.1147 0.176472 16.147 0.215088L36.7503 0.401554C38.615 0.445759 40.3019 1.42131 41.2673 3.01063L52.2116 21.2919C53.2685 23.0291 53.2634 25.193 52.1964 26.9383L41.5315 44.3736C40.5559 45.966 38.8589 46.9375 36.9942 46.972L16.7009 47.7859Z" fill="#612601"/>
<mask id="mask1_288_10208" style="mask-type:luminance" maskUnits="userSpaceOnUse" x="25" y="0" width="28" height="31">
<path d="M49.6758 30.0854C48.4666 27.3549 45.799 22.9167 40.4132 19.7665C32.9087 15.3725 23.8036 14.8655 25.6175 0.809004L36.7397 0.909605C38.4266 0.949745 39.956 1.83434 40.835 3.27276L51.7743 21.5545C52.7346 23.1296 52.7295 25.0914 51.759 26.6731L49.6758 30.0854Z" fill="white"/>
</mask>
<g mask="url(#mask1_288_10208)">
<path d="M49.6758 30.0854C48.4666 27.3549 45.799 22.9167 40.4132 19.7665C32.9087 15.3725 23.8036 14.8655 25.6175 0.809004L36.7397 0.909605C38.4266 0.949745 39.956 1.83434 40.835 3.27276L51.7743 21.5545C52.7346 23.1296 52.7295 25.0914 51.759 26.6731L49.6758 30.0854Z" fill="url(#paint1_linear_288_10208)"/>
</g>
<path d="M49.7984 30.3705C49.7577 30.2776 49.7171 30.1831 49.6765 30.0855L51.7597 26.6731C52.7301 25.0914 52.7352 23.1297 51.7749 21.5546L40.8356 3.27281C39.9566 1.83439 38.4272 0.9498 36.7403 0.90966L25.6182 0.809059C25.6283 0.725222 25.6384 0.640371 25.6537 0.555519L36.7505 0.657139C38.5238 0.697786 40.1293 1.6276 41.0541 3.14173L51.9934 21.423C52.9994 23.0743 52.9943 25.1422 51.9781 26.8037L49.7984 30.3705Z" fill="#592101"/>
<mask id="mask2_288_10208" style="mask-type:luminance" maskUnits="userSpaceOnUse" x="3" y="8" width="31" height="40">
<path d="M17.4983 47.2479C19.6628 46.3242 25.262 42.857 21.807 32.5553C18.4281 22.4712 8.35767 21.2294 3.34277 18.2784L8.90135 8.3004C9.62793 14.9976 16.4872 18.286 25.3839 26.8647C33.61 34.8001 33.8082 43.1323 33.4474 46.6062L17.4983 47.2479Z" fill="white"/>
</mask>
<g mask="url(#mask2_288_10208)">
<path d="M17.4983 47.2479C19.6628 46.3242 25.262 42.857 21.807 32.5553C18.4281 22.4712 8.35767 21.2294 3.34277 18.2784L8.90135 8.3004C9.62793 14.9976 16.4872 18.286 25.3839 26.8647C33.61 34.8001 33.8082 43.1323 33.4474 46.6062L17.4983 47.2479Z" fill="url(#paint2_linear_288_10208)"/>
</g>
<path d="M16.7562 47.5339H16.7054C16.7054 47.5339 17.0153 47.4547 17.498 47.2479L33.4471 46.6062C33.437 46.6936 33.4319 46.7775 33.4217 46.8583L16.7562 47.5339ZM3.34249 18.2784C3.26628 18.2347 3.19516 18.1905 3.12402 18.1458L8.86039 7.8472C8.87055 7.99963 8.88075 8.15105 8.90107 8.30043L3.34249 18.2784Z" fill="#592101"/>
<mask id="mask3_288_10208" style="mask-type:luminance" maskUnits="userSpaceOnUse" x="5" y="5" width="42" height="38">
<path d="M46.3481 22.5606L36.735 6.50481C36.3234 5.82904 35.5968 5.40885 34.8042 5.39056L16.6906 5.22594C15.8268 5.20561 15.0241 5.66493 14.6074 6.41843L12.9967 9.30391C14.1552 10.031 15.6033 11.0121 15.6033 11.0121L10.9593 12.9657L5.48711 22.7923C5.07555 23.5356 5.10095 24.4462 5.55315 25.1651L15.2781 41.0527C15.71 41.7325 16.4569 42.1411 17.2647 42.133L35.0125 41.4185C35.8102 41.41 36.552 40.9908 36.9687 40.3074L37.7054 39.1001L32.6143 38.8664L38.4421 37.8985L39.3008 36.4926L38.056 35.2483L40.9572 33.5207L46.343 24.9807C46.7952 24.2383 46.8003 23.304 46.3481 22.5606Z" fill="white"/>
</mask>
<g mask="url(#mask3_288_10208)">
<mask id="mask4_288_10208" style="mask-type:luminance" maskUnits="userSpaceOnUse" x="5" y="5" width="42" height="38">
<path d="M34.8042 5.39008L16.6906 5.22597C15.8268 5.20564 15.0241 5.66496 14.6074 6.41846L5.48711 22.7923C5.07555 23.5357 5.10095 24.4462 5.55315 25.1651L15.2781 41.0528C15.71 41.7325 16.4569 42.1412 17.2647 42.133L35.0125 41.4185C35.8102 41.41 36.552 40.9908 36.9687 40.3074L46.343 24.9807C46.7952 24.2384 46.8003 23.304 46.3481 22.5606L36.735 6.50484C36.3234 5.82907 35.5968 5.40939 34.8042 5.39008Z" fill="white"/>
</mask>
<g mask="url(#mask4_288_10208)">
<path d="M16.9343 42.1569V42.1061H16.6294V42.0553H16.477V42.0045H16.3754V41.9537H16.223V41.9028H16.1213V41.852H16.0197V41.8012H15.9689V41.7504H15.9181V41.6996H15.8165V41.6488H15.7657V41.598H15.6641V41.5472H15.6132V41.4964H15.5624V41.4456H15.5116V41.3947H15.4608V41.2931H15.41V41.2423H15.3592V41.1915H15.3084V41.1407H15.2576V41.0391H15.2068V40.9375H15.156V40.8867H15.1051V40.785H15.0543V40.7342H15.0035V40.6326H14.9527V40.531H14.9019V40.4802H14.8511V40.3786H14.8003V40.2769H14.7495V40.2261H14.6987V40.1245H14.6479V40.0229H14.5971V39.9721H14.5462V39.8705H14.4954V39.8197H14.4446V39.718H14.3938V39.6164H14.343V39.5656H14.2922V39.464H14.2414V39.3624H14.1906V39.3116H14.1398V39.2099H14.089V39.1591H14.0381V39.0575H13.9873V38.9559H13.9365V38.9051H13.8857V38.8035H13.8349V38.7018H13.7841V38.651H13.7333V38.5494H13.6825V38.4478H13.6317V38.397H13.5809V38.2954H13.5301V38.2446H13.4792V38.1429H13.4284V38.0413H13.3776V37.9905H13.3268V37.8889H13.276V37.7873H13.2252V37.7365H13.1744V37.6348H13.1236V37.5332H13.0728V37.4824H13.022V37.3808H12.9711V37.33H12.9203V37.2284H12.8695V37.1267H12.8187V37.0759H12.7679V36.9743H12.7171V36.8727H12.6663V36.8219H12.6155V36.7203H12.5647V36.6695H12.5139V36.5678H12.4631V36.4662H12.4122V36.4154H12.3614V36.3138H12.3106V36.2122H12.2598V36.1614H12.209V36.0597H12.1582V35.9581H12.1074V35.9073H12.0566V35.8057H12.0058V35.7549H11.955V35.6533H11.9041V35.5517H11.8533V35.5008H11.8025V35.3992H11.7517V35.2976H11.7009V35.2468H11.6501V35.1452H11.5993V35.0436H11.5485V34.9928H11.4977V34.8911H11.4469V34.8403H11.3961V34.7387H11.3452V34.6371H11.2944V34.5863H11.2436V34.4847H11.1928V34.383H11.142V34.3322H11.0912V34.2306H11.0404V34.1798H10.9896V34.0782H10.9388V33.9766H10.888V33.9257H10.8372V33.8241H10.7863V33.7225H10.7355V33.6717H10.6847V33.5701H10.6339V33.4685H10.5831V33.4177H10.5323V33.316H10.4815V33.2652H10.4307V33.1636H10.3799V33.062H10.3291V33.0112H10.2782V32.9096H10.2274V32.8079H10.1766V32.7571H10.1258V32.6555H10.075V32.5539H10.0242V32.5031H9.97339V32.4015H9.92258V32.3507H9.87177V32.249H9.82096V32.1474H9.77015V32.0966H9.71934V31.995H9.66853V31.8934H9.61772V31.8426H9.56691V31.7409H9.5161V31.6393H9.46529V31.5885H9.41448V31.4869H9.36367V31.4361H9.31286V31.3345H9.26205V31.2328H9.21125V31.182H9.16044V31.0804H9.10963V30.9788H9.05882V30.928H9.00801V30.8264H8.9572V30.7756H8.90639V30.6739H8.85558V30.5723H8.80477V30.5215H8.75396V30.4199H8.70315V30.3183H8.65234V30.2675H8.60153V30.1658H8.55072V30.0642H8.49991V30.0134H8.4491V29.9118H8.39829V29.861H8.34748V29.7594H8.29667V29.6578H8.24586V29.6069H8.19506V29.5053H8.14425V29.4037H8.09344V29.3529H8.04263V29.2513H7.99182V29.1497H7.94101V29.0988H7.8902V28.9972H7.83939V28.9464H7.78858V28.8448H7.73777V28.7432H7.68696V28.6924H7.63615V28.5908H7.58534V28.4891H7.53453V28.4383H7.48372V28.3367H7.43291V28.2859H7.3821V28.1843H7.33129V28.0827H7.28048V28.0318H7.22967V27.9302H7.17886V27.8286H7.12806V27.7778H7.07725V27.6762H7.02644V27.5746H6.97563V27.5238H6.92482V27.4221H6.87401V27.3713H6.8232V27.2697H6.77239V27.1681H6.72158V27.1173H6.67077V27.0157H6.61996V26.914H6.56915V26.8632H6.51834V26.7616H6.46753V26.66H6.41672V26.6092H6.36591V26.5076H6.3151V26.4568H6.26429V26.3551H6.21348V26.2535H6.16267V26.2027H6.11187V26.1011H6.06106V25.9995H6.01025V25.9487H5.95944V25.847H5.90863V25.7962H5.85782V25.6946H5.80701V25.593H5.7562V25.5422H5.70539V25.4406H5.65458V25.3389H5.60377V25.2881H5.55296V25.1865H5.50215V25.0849H5.45134V25.0341H5.40053V24.8817H5.34972V24.78H5.29891V24.6276H5.2481V24.3228H5.19729V24.0179H5.14648V23.9671H5.19729V23.459H5.2481V23.2558H5.29891V23.1033H5.34972V22.9509H5.40053V22.8493H5.45134V22.7477H5.50215V22.646H5.55296V22.5444H5.60377V22.4428H5.65458V22.392H5.70539V22.2904H5.7562V22.1888H5.80701V22.0871H5.85782V21.9855H5.90863V21.9347H5.95944V21.8331H6.01025V21.7315H6.06106V21.6298H6.11187V21.579H6.16267V21.4774H6.21348V21.3758H6.26429V21.2742H6.3151V21.1726H6.36591V21.1218H6.41672V21.0201H6.46753V20.9185H6.51834V20.8169H6.56915V20.7153H6.61996V20.6645H6.67077V20.5628H6.72158V20.4612H6.77239V20.3596H6.8232V20.258H6.87401V20.2072H6.92482V20.1056H6.97563V20.0039H7.02644V19.9023H7.07725V19.8007H7.12806V19.7499H7.17886V19.6483H7.22967V19.5467H7.28048V19.445H7.33129V19.3434H7.3821V19.2926H7.43291V19.191H7.48372V19.0894H7.53453V18.9878H7.58534V18.8861H7.63615V18.8353H7.68696V18.7337H7.73777V18.6321H7.78858V18.5305H7.83939V18.4289H7.8902V18.378H7.94101V18.2764H7.99182V18.1748H8.04263V18.0732H8.09344V17.9716H8.14425V17.9208H8.19506V17.8191H8.24586V17.7175H8.29667V17.6159H8.34748V17.5651H8.39829V17.4635H8.4491V17.3619H8.49991V17.2602H8.55072V17.1586H8.60153V17.1078H8.65234V17.0062H8.70315V16.9046H8.75396V16.8029H8.80477V16.7013H8.85558V16.6505H8.90639V16.5489H8.9572V16.4473H9.00801V16.3457H9.05882V16.244H9.10963V16.1932H9.16044V16.0916H9.21125V15.99H9.26205V15.8884H9.31286V15.7868H9.36367V15.7359H9.41448V15.6343H9.46529V15.5327H9.5161V15.4311H9.56691V15.3295H9.61772V15.2787H9.66853V15.177H9.71934V15.0754H9.77015V14.9738H9.82096V14.8722H9.87177V14.8214H9.92258V14.7198H9.97339V14.6181H10.0242V14.5165H10.075V14.4149H10.1258V14.3641H10.1766V14.2625H10.2274V14.1609H10.2782V14.0592H10.3291V13.9576H10.3799V13.9068H10.4307V13.8052H10.4815V13.7036H10.5323V13.6019H10.5831V13.5511H10.6339V13.4495H10.6847V13.3479H10.7355V13.2463H10.7863V13.1447H10.8372V13.0939H10.888V12.9922H10.9388V12.9414H10.9896V12.8906H11.0912V12.8398H11.2436V12.789H11.3452V12.7382H11.4977V12.6874H11.5993V12.6366H11.7009V12.5858H11.8533V12.5349H11.955V12.4841H12.0566V12.4333H12.209V12.3825H12.3106V12.3317H12.4631V12.2809H12.5647V12.2301H12.6663V12.1793H12.8187V12.1285H12.9203V12.0777H13.022V12.0269H13.1744V11.976H13.276V11.9252H13.4284V11.8744H13.5301V11.8236H13.6317V11.7728H13.7841V11.722H13.8857V11.6712H13.9873V11.6204H14.1398V11.5696H14.2414V11.5188H14.3938V11.4679H14.4954V11.4171H14.5971V11.3663H14.7495V11.3155H14.8511V11.2647H14.9527V11.2139H15.1051V11.1631H15.2068V11.1123H15.3592V11.0615H15.4608V11.0107H15.5116V10.9599H15.41V10.909H15.3592V10.8582H15.2576V10.8074H15.2068V10.7566H15.1051V10.7058H15.0543V10.655H14.9527V10.6042H14.9019V10.5534H14.8003V10.5026H14.7495V10.4518H14.6479V10.4009H14.5971V10.3501H14.4954V10.2993H14.4446V10.2485H14.343V10.1977H14.2922V10.1469H14.1906V10.0961H14.1398V10.0453H14.0381V9.99447H13.9873V9.94366H13.8857V9.89285H13.8349V9.84204H13.7333V9.79123H13.6317V9.74043H13.5809V9.68961H13.4792V9.63881H13.4284V9.58799H13.3268V9.53719H13.276V9.48638H13.1744V9.43557H13.1236V9.38476H13.022V9.33395H12.9711V9.23233H13.022V9.13071H13.0728V9.0799H13.1236V8.97828H13.1744V8.87666H13.2252V8.77504H13.276V8.67342H13.3268V8.62262H13.3776V8.521H13.4284V8.41938H13.4792V8.31776H13.5301V8.21614H13.5809V8.16533H13.6317V8.06371H13.6825V7.96209H13.7333V7.86047H13.7841V7.75885H13.8349V7.70804H13.8857V7.60642H13.9365V7.50481H13.9873V7.40319H14.0381V7.30157H14.089V7.25076H14.1398V7.14914H14.1906V7.04752H14.2414V6.9459H14.2922V6.84428H14.343V6.79347H14.3938V6.69185H14.4446V6.59023H14.4954V6.48861H14.5462V6.387H14.5971V6.33619H14.6479V6.23457H14.6987V6.18376H14.7495V6.13295H14.8003V6.03133H14.8511V5.98052H14.9019V5.92971H14.9527V5.8789H15.0035V5.82809H15.0543V5.77728H15.156V5.72647H15.2068V5.67566H15.2576V5.62486H15.3592V5.57404H15.41V5.52324H15.4608V5.47242H15.6132V5.42162H15.7149V5.3708H15.8673V5.32H15.9689V5.26919H16.223V5.21838H21.4563V5.26919H27.0454V5.32H32.6344V5.3708H35.1241V5.42162H35.3781V5.47242H35.5306V5.52324H35.6322V5.57404H35.7338V5.62486H35.8862V5.67566H35.9879V5.72647H36.0387V5.77728H36.0895V5.82809H36.1911V5.8789H36.2419V5.92971H36.2927V5.98052H36.3943V6.03133H36.4451V6.13295H36.496V6.18376H36.5468V6.23457H36.5976V6.28538H36.6484V6.33619H36.6992V6.43781H36.75V6.48861H36.8008V6.59023H36.8516V6.69185H36.9024V6.74266H36.9532V6.84428H37.004V6.9459H37.0549V6.99671H37.1057V7.09833H37.1565V7.19995H37.2073V7.25076H37.2581V7.35238H37.3089V7.45399H37.3597V7.50481H37.4105V7.60642H37.4613V7.70804H37.5121V7.75885H37.563V7.86047H37.6138V7.96209H37.6646V8.0129H37.7154V8.11452H37.7662V8.21614H37.817V8.26695H37.8678V8.36857H37.9186V8.47018H37.9694V8.521H38.0202V8.62262H38.071V8.72423H38.1219V8.77504H38.1727V8.87666H38.2235V8.97828H38.2743V9.02909H38.3251V9.13071H38.3759V9.23233H38.4267V9.28314H38.4775V9.38476H38.5283V9.48638H38.5791V9.53719H38.63V9.63881H38.6808V9.74043H38.7316V9.79123H38.7824V9.89285H38.8332V9.99447H38.884V10.0453H38.9348V10.1469H38.9856V10.2485H39.0364V10.2993H39.0872V10.4009H39.1381V10.5026H39.1889V10.5534H39.2397V10.655H39.2905V10.7566H39.3413V10.8582H39.3921V10.909H39.4429V11.0107H39.4937V11.1123H39.5445V11.1631H39.5953V11.2647H39.6461V11.3663H39.697V11.4171H39.7478V11.5188H39.7986V11.6204H39.8494V11.6712H39.9002V11.7728H39.951V11.8744H40.0018V11.9252H40.0526V12.0269H40.1034V12.1285H40.1542V12.1793H40.205V12.2809H40.2559V12.3825H40.3067V12.4333H40.3575V12.5349H40.4083V12.6366H40.4591V12.6874H40.5099V12.789H40.5607V12.8906H40.6115V12.9414H40.6623V13.043H40.7131V13.1447H40.764V13.1955H40.8148V13.2971H40.8656V13.3987H40.9164V13.4495H40.9672V13.5511H41.018V13.6528H41.0688V13.7036H41.1196V13.8052H41.1704V13.9068H41.2212V13.9576H41.272V14.0592H41.3229V14.1609H41.3737V14.2117H41.4245V14.3133H41.4753V14.4149H41.5261V14.4657H41.5769V14.5673H41.6277V14.6689H41.6785V14.7198H41.7293V14.8214H41.7801V14.923H41.831V14.9738H41.8818V15.0754H41.9326V15.177H41.9834V15.2278H42.0342V15.3295H42.085V15.4311H42.1358V15.4819H42.1866V15.5835H42.2374V15.6851H42.2882V15.7359H42.3391V15.8376H42.3899V15.9392H42.4407V15.99H42.4915V16.0916H42.5423V16.1932H42.5931V16.244H42.6439V16.3457H42.6947V16.4473H42.7455V16.4981H42.7963V16.5997H42.8471V16.7013H42.898V16.7521H42.9488V16.8538H42.9996V16.9554H43.0504V17.0062H43.1012V17.1078H43.152V17.2094H43.2028V17.2602H43.2536V17.3619H43.3044V17.4635H43.3552V17.5143H43.406V17.6159H43.4569V17.7175H43.5077V17.7683H43.5585V17.8699H43.6093V17.9716H43.6601V18.0224H43.7109V18.124H43.7617V18.2256H43.8125V18.2764H43.8633V18.378H43.9141V18.4797H43.965V18.5305H44.0158V18.6321H44.0666V18.7337H44.1174V18.8353H44.1682V18.8861H44.219V18.9878H44.2698V19.0894H44.3206V19.1402H44.3714V19.2418H44.4222V19.3434H44.473V19.3942H44.5239V19.4958H44.5747V19.5975H44.6255V19.6483H44.6763V19.7499H44.7271V19.8515H44.7779V19.9023H44.8287V20.0039H44.8795V20.1056H44.9303V20.1564H44.9811V20.258H45.032V20.3596H45.0828V20.4104H45.1336V20.512H45.1844V20.6137H45.2352V20.6645H45.286V20.7661H45.3368V20.8677H45.3876V20.9185H45.4384V21.0201H45.4892V21.1218H45.54V21.1726H45.5909V21.2742H45.6417V21.3758H45.6925V21.4266H45.7433V21.5282H45.7941V21.6298H45.8449V21.6807H45.8957V21.7823H45.9465V21.8839H45.9973V21.9347H46.0481V22.0363H46.099V22.1379H46.1498V22.1888H46.2006V22.2904H46.2514V22.392H46.3022V22.4428H46.353V22.5444H46.4038V22.646H46.4546V22.7477H46.5054V22.8493H46.5562V23.0017H46.607V23.1541H46.6579V23.5606H46.7087V23.9671H46.6579V24.3736H46.607V24.526H46.5562V24.6784H46.5054V24.78H46.4546V24.8817H46.4038V24.9833H46.353V25.0849H46.3022V25.1357H46.2514V25.2373H46.2006V25.2881H46.1498V25.3898H46.099V25.4914H46.0481V25.5422H45.9973V25.6438H45.9465V25.6946H45.8957V25.7962H45.8449V25.8978H45.7941V25.9487H45.7433V26.0503H45.6925V26.1011H45.6417V26.2027H45.5909V26.3043H45.54V26.3551H45.4892V26.4568H45.4384V26.5076H45.3876V26.6092H45.3368V26.66H45.286V26.7616H45.2352V26.8632H45.1844V26.914H45.1336V27.0157H45.0828V27.0665H45.032V27.1681H44.9811V27.2697H44.9303V27.3205H44.8795V27.4221H44.8287V27.4729H44.7779V27.5746H44.7271V27.6254H44.6763V27.727H44.6255V27.8286H44.5747V27.8794H44.5239V27.981H44.473V28.0318H44.4222V28.1335H44.3714V28.2351H44.3206V28.2859H44.2698V28.3875H44.219V28.4383H44.1682V28.5399H44.1174V28.5908H44.0666V28.6924H44.0158V28.794H43.965V28.8448H43.9141V28.9464H43.8633V28.9972H43.8125V29.0988H43.7617V29.2005H43.7109V29.2513H43.6601V29.3529H43.6093V29.4037H43.5585V29.5053H43.5077V29.6069H43.4569V29.6578H43.406V29.7594H43.3552V29.8102H43.3044V29.9118H43.2536V29.9626H43.2028V30.0642H43.152V30.1658H43.1012V30.2167H43.0504V30.3183H42.9996V30.3691H42.9488V30.4707H42.898V30.5723H42.8471V30.6231H42.7963V30.7248H42.7455V30.7756H42.6947V30.8772H42.6439V30.928H42.5931V31.0296H42.5423V31.1312H42.4915V31.182H42.4407V31.2837H42.3899V31.3345H42.3391V31.4361H42.2882V31.5377H42.2374V31.5885H42.1866V31.6901H42.1358V31.7409H42.085V31.8426H42.0342V31.8934H41.9834V31.995H41.9326V32.0966H41.8818V32.1474H41.831V32.249H41.7801V32.2998H41.7293V32.4015H41.6785V32.5031H41.6277V32.5539H41.5769V32.6555H41.5261V32.7063H41.4753V32.8079H41.4245V32.9096H41.3737V32.9604H41.3229V33.062H41.272V33.1128H41.2212V33.2144H41.1704V33.2652H41.1196V33.3668H41.0688V33.4685H41.018V33.5193H40.9672V33.5701H40.9164V33.6209H40.8148V33.6717H40.7131V33.7225H40.6623V33.7733H40.5607V33.8241H40.4591V33.8749H40.4083V33.9257H40.3067V33.9766H40.205V34.0274H40.1542V34.0782H40.0526V34.129H39.951V34.1798H39.9002V34.2306H39.7986V34.2814H39.697V34.3322H39.5953V34.383H39.5445V34.4338H39.4429V34.4847H39.3413V34.5355H39.2905V34.5863H39.1889V34.6371H39.0872V34.6879H39.0364V34.7387H38.9348V34.7895H38.8332V34.8403H38.7824V34.8911H38.6808V34.9419H38.5791V34.9928H38.5283V35.0436H38.4267V35.0944H38.3251V35.1452H38.2743V35.196H38.1727V35.2468H38.1219V35.2976H38.1727V35.3484H38.2235V35.3992H38.2743V35.45H38.3251V35.5008H38.3759V35.5517H38.4267V35.6025H38.4775V35.6533H38.5283V35.7041H38.5791V35.7549H38.63V35.8057H38.6808V35.8565H38.7316V35.9073H38.7824V35.9581H38.8332V36.0089H38.884V36.0597H38.9348V36.1106H38.9856V36.1614H39.0364V36.2122H39.0872V36.263H39.1381V36.3138H39.1889V36.3646H39.2397V36.4154H39.2905V36.4662H39.3413V36.517H39.2905V36.6187H39.2397V36.7203H39.1889V36.7711H39.1381V36.8727H39.0872V36.9743H39.0364V37.0251H38.9856V37.1267H38.9348V37.1776H38.884V37.2792H38.8332V37.3808H38.7824V37.4316H38.7316V37.5332H38.6808V37.6348H38.63V37.6857H38.5791V37.7873H38.5283V37.8889H38.4775V37.9397H38.2235V37.9905H37.9186V38.0413H37.6138V38.0921H37.3089V38.1429H37.004V38.1937H36.6992V38.2446H36.3943V38.2954H36.0895V38.3462H35.7846V38.397H35.4798V38.4478H35.1749V38.4986H34.8701V38.5494H34.5652V38.6002H34.2603V38.651H33.9555V38.7018H33.6506V38.7527H33.3458V38.8035H33.0409V38.8543H33.4982V38.9051H34.5652V38.9559H35.683V39.0067H36.8008V39.0575H37.7154V39.2099H37.6646V39.2607H37.6138V39.3624H37.563V39.464H37.5121V39.5148H37.4613V39.6164H37.4105V39.6672H37.3597V39.7688H37.3089V39.8705H37.2581V39.9213H37.2073V40.0229H37.1565V40.1245H37.1057V40.1753H37.0549V40.2769H37.004V40.3786H36.9532V40.4294H36.9024V40.4802H36.8516V40.5818H36.8008V40.6326H36.75V40.6834H36.6992V40.7342H36.6484V40.785H36.5976V40.8358H36.5468V40.8867H36.4451V40.9375H36.3943V40.9883H36.3435V41.0391H36.2419V41.0899H36.1911V41.1407H36.0895V41.1915H35.9879V41.2423H35.8354V41.2931H35.7338V41.3439H35.5814V41.3947H35.3273V41.4456H34.362V41.4964H33.0917V41.5472H31.8215V41.598H30.5512V41.6488H29.3318V41.6996H28.0616V41.7504H26.7913V41.8012H25.5211V41.852H24.2509V41.9028H22.9806V41.9537H21.7612V42.0045H20.491V42.0553H19.2207V42.1061H17.9505V42.1569" fill="url(#paint3_linear_288_10208)"/>
</g>
</g>
<mask id="mask5_288_10208" style="mask-type:luminance" maskUnits="userSpaceOnUse" x="11" y="13" width="18" height="21">
<path d="M27.9803 16.2064C27.4468 13.9209 26.0191 13.3422 24.9013 13.5871C21.3598 14.3604 18.6669 17.1042 17.9607 17.8983C16.3348 18.1 15.2373 18.1615 13.9518 18.3856C12.4174 18.6528 11.4418 19.8692 11.2995 21.0216C11.1319 22.3812 11.0557 22.5225 11.0557 23.6794C11.0557 24.8358 11.1319 24.9771 11.2995 26.3368C11.4418 27.4896 12.4174 28.7055 13.9518 28.9733C15.2373 29.1968 16.3348 29.2583 17.9607 29.4605C18.6669 30.2542 21.3598 32.9979 24.9013 33.7712C26.0191 34.0161 27.4468 33.4379 27.9803 31.1525C28.5596 28.6684 28.7984 26.1701 28.7984 23.6794C28.7984 21.1882 28.5596 18.6899 27.9803 16.2064Z" fill="white"/>
</mask>
<g mask="url(#mask5_288_10208)">
<path d="M27.9803 16.2064C27.4468 13.9209 26.0191 13.3422 24.9013 13.5871C21.3598 14.3604 18.6669 17.1042 17.9607 17.8983C16.3348 18.1 15.2373 18.1615 13.9518 18.3856C12.4174 18.6528 11.4418 19.8692 11.2995 21.0216C11.1319 22.3812 11.0557 22.5225 11.0557 23.6794C11.0557 24.8358 11.1319 24.9771 11.2995 26.3368C11.4418 27.4896 12.4174 28.7055 13.9518 28.9733C15.2373 29.1968 16.3348 29.2583 17.9607 29.4605C18.6669 30.2542 21.3598 32.9979 24.9013 33.7712C26.0191 34.0161 27.4468 33.4379 27.9803 31.1525C28.5596 28.6684 28.7984 26.1701 28.7984 23.6794C28.7984 21.1882 28.5596 18.6899 27.9803 16.2064Z" fill="url(#paint4_linear_288_10208)"/>
</g>
<mask id="mask6_288_10208" style="mask-type:luminance" maskUnits="userSpaceOnUse" x="31" y="19" width="5" height="9">
<path d="M31.1303 26.7915C31.0186 26.442 31.0795 26.0599 31.2878 25.756C31.5216 25.4171 31.6689 25.1214 31.7655 24.8328C31.9077 24.436 31.9687 24.0006 31.9738 23.6794C31.9687 23.3578 31.9077 22.9224 31.7655 22.5256C31.6689 22.237 31.5216 21.9418 31.2878 21.6024C31.0795 21.2985 31.0186 20.9164 31.1303 20.5674C31.3234 19.9902 31.9331 19.6386 32.5174 19.8073C33.0967 19.9749 33.6606 20.3072 34.1078 20.7757C34.8343 21.5424 35.2611 22.5494 35.2764 23.6794C35.2611 24.8089 34.8343 25.8165 34.1078 26.5827C33.6606 27.0512 33.0967 27.384 32.5174 27.5511C31.9331 27.7198 31.3234 27.3682 31.1303 26.7915Z" fill="white"/>
</mask>
<g mask="url(#mask6_288_10208)">
<path d="M31.1303 26.7915C31.0186 26.442 31.0795 26.0599 31.2878 25.756C31.5216 25.4171 31.6689 25.1214 31.7655 24.8328C31.9077 24.436 31.9687 24.0006 31.9738 23.6794C31.9687 23.3578 31.9077 22.9224 31.7655 22.5256C31.6689 22.237 31.5216 21.9418 31.2878 21.6024C31.0795 21.2985 31.0186 20.9164 31.1303 20.5674C31.3234 19.9902 31.9331 19.6386 32.5174 19.8073C33.0967 19.9749 33.6606 20.3072 34.1078 20.7757C34.8343 21.5424 35.2611 22.5494 35.2764 23.6794C35.2611 24.8089 34.8343 25.8165 34.1078 26.5827C33.6606 27.0512 33.0967 27.384 32.5174 27.5511C31.9331 27.7198 31.3234 27.3682 31.1303 26.7915Z" fill="url(#paint5_linear_288_10208)"/>
</g>
<mask id="mask7_288_10208" style="mask-type:luminance" maskUnits="userSpaceOnUse" x="34" y="16" width="8" height="15">
<path d="M34.6561 29.9849C34.5036 29.517 34.6408 29.0002 35.0067 28.67C35.7485 28.0013 36.3074 27.3281 36.6935 26.5842C37.1864 25.6702 37.4404 24.6062 37.4506 23.6795C37.4404 22.7522 37.1864 21.6887 36.6935 20.7742C36.3074 20.0303 35.7485 19.3571 35.0067 18.6884C34.6408 18.3582 34.5036 17.8414 34.6561 17.3735C34.8593 16.7668 35.4894 16.398 36.1092 16.5448C37.3846 16.8461 38.6344 17.563 39.5693 18.6214C40.7888 19.9902 41.4899 21.7573 41.5153 23.6795C41.4899 25.6011 40.7888 27.3682 39.5693 28.737C38.6344 29.7954 37.3846 30.5123 36.1092 30.8141C35.4894 30.961 34.8593 30.5916 34.6561 29.9849Z" fill="white"/>
</mask>
<g mask="url(#mask7_288_10208)">
<path d="M34.6561 29.9849C34.5036 29.517 34.6408 29.0002 35.0067 28.67C35.7485 28.0013 36.3074 27.3281 36.6935 26.5842C37.1864 25.6702 37.4404 24.6062 37.4506 23.6795C37.4404 22.7522 37.1864 21.6887 36.6935 20.7742C36.3074 20.0303 35.7485 19.3571 35.0067 18.6884C34.6408 18.3582 34.5036 17.8414 34.6561 17.3735C34.8593 16.7668 35.4894 16.398 36.1092 16.5448C37.3846 16.8461 38.6344 17.563 39.5693 18.6214C40.7888 19.9902 41.4899 21.7573 41.5153 23.6795C41.4899 25.6011 40.7888 27.3682 39.5693 28.737C38.6344 29.7954 37.3846 30.5123 36.1092 30.8141C35.4894 30.961 34.8593 30.5916 34.6561 29.9849Z" fill="url(#paint6_linear_288_10208)"/>
</g>
<path d="M25.5567 32.0223C21.8527 31.3171 19.0277 28.8132 18.291 28.0887C16.5888 27.9042 15.4405 27.8488 14.089 27.6441C12.4783 27.4002 11.4621 26.2905 11.3097 25.2388C11.1624 24.187 11.0811 23.9299 11.0608 23.2333C11.0557 23.3725 11.0557 23.5219 11.0557 23.7018C11.0557 24.8587 11.1319 24.9999 11.2995 26.3591C11.4418 27.5125 12.4174 28.7284 13.9518 28.9956C15.2373 29.2197 16.3348 29.2807 17.9607 29.4829C18.6669 30.277 21.3598 33.0202 24.9013 33.7936C26.014 34.0369 27.4265 33.4658 27.9651 31.219C27.269 31.9822 26.3443 32.1717 25.5567 32.0223Z" fill="#FFE6BF"/>
<defs>
<linearGradient id="paint0_linear_288_10208" x1="26.6049" y1="0.467584" x2="26.6049" y2="47.532" gradientUnits="userSpaceOnUse">
<stop stop-color="#E85A13"/>
<stop offset="1" stop-color="#822330"/>
</linearGradient>
<linearGradient id="paint1_linear_288_10208" x1="26.6032" y1="0.467565" x2="26.6032" y2="47.532" gradientUnits="userSpaceOnUse">
<stop stop-color="#D64D0F"/>
<stop offset="1" stop-color="#781E27"/>
</linearGradient>
<linearGradient id="paint2_linear_288_10208" x1="26.6034" y1="0.467605" x2="26.6034" y2="47.532" gradientUnits="userSpaceOnUse">
<stop stop-color="#D64D0F"/>
<stop offset="1" stop-color="#781E27"/>
</linearGradient>
<linearGradient id="paint3_linear_288_10208" x1="25.9377" y1="5.59691" x2="25.9377" y2="42.0016" gradientUnits="userSpaceOnUse">
<stop stop-color="#FFE6BF"/>
<stop offset="1" stop-color="#FABD6E"/>
</linearGradient>
<linearGradient id="paint4_linear_288_10208" x1="19.927" y1="37.5839" x2="19.927" y2="17.1952" gradientUnits="userSpaceOnUse">
<stop stop-color="#E85A13"/>
<stop offset="1" stop-color="#731724"/>
</linearGradient>
<linearGradient id="paint5_linear_288_10208" x1="33.1779" y1="18.5131" x2="33.1779" y2="34.7725" gradientUnits="userSpaceOnUse">
<stop stop-color="#731724"/>
<stop offset="1" stop-color="#E85A13"/>
</linearGradient>
<linearGradient id="paint6_linear_288_10208" x1="38.0552" y1="16.1759" x2="38.0552" y2="38.1407" gradientUnits="userSpaceOnUse">
<stop stop-color="#731724"/>
<stop offset="1" stop-color="#E85A13"/>
</linearGradient>
</defs>
</svg>
