<svg width="125" height="123" viewBox="0 0 125 123" fill="none" xmlns="http://www.w3.org/2000/svg">
<mask id="mask0_334_745" style="mask-type:luminance" maskUnits="userSpaceOnUse" x="16" y="22" width="94" height="83">
<path d="M76.725 104.147C75.2317 100.882 73.9117 97.2575 72.9117 93.2668C69.7784 80.7255 57.605 72.2562 41.5784 72.2562C34.3384 72.2562 26.3117 73.9868 17.9784 77.8522C16.6984 73.2188 16.125 68.2842 16.125 63.3055C16.125 60.7562 16.285 58.2162 16.6184 55.7228C22.9784 54.1495 26.925 53.4548 26.925 53.4548C24.005 52.8455 20.685 52.0095 17.485 50.9522C19.245 43.4162 22.7383 36.5441 28.2716 31.4095C31.4849 28.4281 35.2716 25.4188 39.4316 22.8642C64.3383 35.1575 74.8183 61.0322 82.0049 84.1802C83.7249 89.7282 85.3784 94.3455 86.9517 98.1882C83.805 100.512 80.3783 102.56 76.725 104.147ZM95.4049 90.7068C91.9783 84.2375 88.9516 74.9775 87.8049 61.8028C86.5249 47.1882 86.3383 35.2762 86.0583 25.4948C88.965 27.5388 91.6317 29.7308 93.925 31.8722C101.445 38.8455 107.805 48.5468 109.138 59.1282C107.778 59.9855 106.698 60.6028 106.205 60.8615C105.498 61.2308 105.538 61.3522 106.072 61.3522C106.658 61.3522 107.832 61.2122 109.325 61.0935C109.365 61.7775 109.392 62.4668 109.392 63.1575C109.392 73.7522 102.725 83.2428 95.4049 90.7068Z" fill="white"/>
</mask>
<g mask="url(#mask0_334_745)">
<path d="M76.725 104.147C75.2317 100.882 73.9117 97.2575 72.9117 93.2668C69.7784 80.7255 57.605 72.2562 41.5784 72.2562C34.3384 72.2562 26.3117 73.9868 17.9784 77.8522C16.6984 73.2188 16.125 68.2842 16.125 63.3055C16.125 60.7562 16.285 58.2162 16.6184 55.7228C22.9784 54.1495 26.925 53.4548 26.925 53.4548C24.005 52.8455 20.685 52.0095 17.485 50.9522C19.245 43.4162 22.7383 36.5441 28.2716 31.4095C31.4849 28.4281 35.2716 25.4188 39.4316 22.8642C64.3383 35.1575 74.8183 61.0322 82.0049 84.1802C83.7249 89.7282 85.3784 94.3455 86.9517 98.1882C83.805 100.512 80.3783 102.56 76.725 104.147ZM95.4049 90.7068C91.9783 84.2375 88.9516 74.9775 87.8049 61.8028C86.5249 47.1882 86.3383 35.2762 86.0583 25.4948C88.965 27.5388 91.6317 29.7308 93.925 31.8722C101.445 38.8455 107.805 48.5468 109.138 59.1282C107.778 59.9855 106.698 60.6028 106.205 60.8615C105.498 61.2308 105.538 61.3522 106.072 61.3522C106.658 61.3522 107.832 61.2122 109.325 61.0935C109.365 61.7775 109.392 62.4668 109.392 63.1575C109.392 73.7522 102.725 83.2428 95.4049 90.7068Z" fill="url(#paint0_linear_334_745)"/>
</g>
<mask id="mask1_334_745" style="mask-type:luminance" maskUnits="userSpaceOnUse" x="1" y="9" width="123" height="107">
<path d="M83.6842 115.764C81.2709 112.584 78.8176 108.717 76.7242 104.147C80.3776 102.56 83.8043 100.512 86.9509 98.188C89.1509 103.569 91.1776 107.429 92.9509 110.203C90.1509 112.195 87.0443 114.101 83.6842 115.764ZM103.498 101.283C101.018 99.1027 98.0842 95.7534 95.4042 90.7067C102.724 83.2427 109.391 73.752 109.391 63.1574C109.391 62.4667 109.364 61.7774 109.324 61.0934C110.178 61.0254 111.124 60.9654 112.124 60.9414C112.124 61.1681 112.244 61.3814 112.431 61.5014C112.924 61.8 114.231 61.848 117.564 61.9C119.524 61.9294 121.751 61.964 123.018 62.1334C123.324 62.1747 123.564 62.4574 123.578 62.7934C123.578 63.056 123.578 63.3214 123.578 63.5854C123.578 75.764 117.004 88.1187 103.498 101.283ZM7.60417 83.7067C7.11083 83.5201 6.53758 83.2934 5.95091 83.028C4.83091 82.5227 4.00417 81.5201 3.7375 80.3494C2.60417 75.4774 2.00417 70.2654 1.9375 64.8454C3.2575 61.8481 5.75086 58.6214 10.4975 57.3187C12.7242 56.7107 14.7642 56.18 16.6176 55.7227C16.2842 58.216 16.1242 60.7561 16.1242 63.3054C16.1242 68.284 16.6976 73.2187 17.9776 77.852C14.5643 79.4347 11.0842 81.3787 7.60417 83.7067ZM109.138 59.128C107.804 48.5467 101.444 38.8454 93.9242 31.872C91.6309 29.7307 88.9642 27.5387 86.0576 25.4947C85.8842 19.3814 85.6708 14.1 85.1375 9.51202C93.8308 14.3267 100.578 20.1814 103.418 22.8107C111.644 30.4614 117.778 39.5641 120.991 48.8121C119.071 52.4147 112.964 56.7214 109.138 59.128ZM17.4842 50.952C11.8709 49.0867 6.67091 46.532 4.88424 43.3147C7.55091 34.7587 11.8576 27.664 17.7242 22.2027C19.2976 20.744 21.1776 19.0934 23.3242 17.3814C29.2842 18.624 34.6309 20.492 39.4309 22.864C35.2709 25.4187 31.4842 28.428 28.2708 31.4094C22.7375 36.544 19.2442 43.416 17.4842 50.952Z" fill="white"/>
</mask>
<g mask="url(#mask1_334_745)">
<path d="M83.6842 115.764C81.2709 112.584 78.8176 108.717 76.7242 104.147C80.3776 102.56 83.8043 100.512 86.9509 98.188C89.1509 103.569 91.1776 107.429 92.9509 110.203C90.1509 112.195 87.0443 114.101 83.6842 115.764ZM103.498 101.283C101.018 99.1027 98.0842 95.7534 95.4042 90.7067C102.724 83.2427 109.391 73.752 109.391 63.1574C109.391 62.4667 109.364 61.7774 109.324 61.0934C110.178 61.0254 111.124 60.9654 112.124 60.9414C112.124 61.1681 112.244 61.3814 112.431 61.5014C112.924 61.8 114.231 61.848 117.564 61.9C119.524 61.9294 121.751 61.964 123.018 62.1334C123.324 62.1747 123.564 62.4574 123.578 62.7934C123.578 63.056 123.578 63.3214 123.578 63.5854C123.578 75.764 117.004 88.1187 103.498 101.283ZM7.60417 83.7067C7.11083 83.5201 6.53758 83.2934 5.95091 83.028C4.83091 82.5227 4.00417 81.5201 3.7375 80.3494C2.60417 75.4774 2.00417 70.2654 1.9375 64.8454C3.2575 61.8481 5.75086 58.6214 10.4975 57.3187C12.7242 56.7107 14.7642 56.18 16.6176 55.7227C16.2842 58.216 16.1242 60.7561 16.1242 63.3054C16.1242 68.284 16.6976 73.2187 17.9776 77.852C14.5643 79.4347 11.0842 81.3787 7.60417 83.7067ZM109.138 59.128C107.804 48.5467 101.444 38.8454 93.9242 31.872C91.6309 29.7307 88.9642 27.5387 86.0576 25.4947C85.8842 19.3814 85.6708 14.1 85.1375 9.51202C93.8308 14.3267 100.578 20.1814 103.418 22.8107C111.644 30.4614 117.778 39.5641 120.991 48.8121C119.071 52.4147 112.964 56.7214 109.138 59.128ZM17.4842 50.952C11.8709 49.0867 6.67091 46.532 4.88424 43.3147C7.55091 34.7587 11.8576 27.664 17.7242 22.2027C19.2976 20.744 21.1776 19.0934 23.3242 17.3814C29.2842 18.624 34.6309 20.492 39.4309 22.864C35.2709 25.4187 31.4842 28.428 28.2708 31.4094C22.7375 36.544 19.2442 43.416 17.4842 50.952Z" fill="url(#paint1_linear_334_745)"/>
</g>
<mask id="mask2_334_745" style="mask-type:luminance" maskUnits="userSpaceOnUse" x="105" y="59" width="5" height="3">
<path d="M106.071 61.3521C105.538 61.3521 105.498 61.2307 106.204 60.8614C106.698 60.6027 107.778 59.9854 109.138 59.1281C109.218 59.7814 109.284 60.4347 109.324 61.0934C107.831 61.2121 106.658 61.3521 106.071 61.3521Z" fill="white"/>
</mask>
<g mask="url(#mask2_334_745)">
<path d="M106.071 61.3521C105.538 61.3521 105.498 61.2307 106.204 60.8614C106.698 60.6027 107.778 59.9854 109.138 59.1281C109.218 59.7814 109.284 60.4347 109.324 61.0934C107.831 61.2121 106.658 61.3521 106.071 61.3521Z" fill="url(#paint2_linear_334_745)"/>
</g>
<mask id="mask3_334_745" style="mask-type:luminance" maskUnits="userSpaceOnUse" x="109" y="48" width="14" height="14">
<path d="M109.324 61.0934C109.284 60.4347 109.218 59.7814 109.138 59.1281C112.964 56.7214 119.071 52.4147 120.991 48.8121C121.458 50.1734 121.871 51.5361 122.218 52.8987C122.671 54.7267 121.738 56.6547 119.991 57.484C116.204 59.276 112.644 60.28 112.604 60.2907C112.351 60.3614 112.164 60.5774 112.124 60.8401C112.124 60.8747 112.124 60.9081 112.124 60.9414C111.124 60.9654 110.178 61.0254 109.324 61.0934Z" fill="white"/>
</mask>
<g mask="url(#mask3_334_745)">
<path d="M109.324 61.0934C109.284 60.4347 109.218 59.7814 109.138 59.1281C112.964 56.7214 119.071 52.4147 120.991 48.8121C121.458 50.1734 121.871 51.5361 122.218 52.8987C122.671 54.7267 121.738 56.6547 119.991 57.484C116.204 59.276 112.644 60.28 112.604 60.2907C112.351 60.3614 112.164 60.5774 112.124 60.8401C112.124 60.8747 112.124 60.9081 112.124 60.9414C111.124 60.9654 110.178 61.0254 109.324 61.0934Z" fill="url(#paint3_linear_334_745)"/>
</g>
<mask id="mask4_334_745" style="mask-type:luminance" maskUnits="userSpaceOnUse" x="17" y="72" width="60" height="36">
<path d="M60.7384 107.589C48.4051 107.589 36.2184 102.763 28.0318 95.1615C23.0451 90.5335 19.8052 84.5055 17.9785 77.8521C26.3118 73.9868 34.3385 72.2561 41.5785 72.2561C57.6052 72.2561 69.7785 80.7255 72.9118 93.2668C73.9118 97.2575 75.2318 100.882 76.7251 104.147C71.7785 106.29 66.4051 107.589 60.7384 107.589Z" fill="white"/>
</mask>
<g mask="url(#mask4_334_745)">
<path d="M60.7384 107.589C48.4051 107.589 36.2184 102.763 28.0318 95.1615C23.0451 90.5335 19.8052 84.5055 17.9785 77.8521C26.3118 73.9868 34.3385 72.2561 41.5785 72.2561C57.6052 72.2561 69.7785 80.7255 72.9118 93.2668C73.9118 97.2575 75.2318 100.882 76.7251 104.147C71.7785 106.29 66.4051 107.589 60.7384 107.589Z" fill="url(#paint4_linear_334_745)"/>
</g>
<mask id="mask5_334_745" style="mask-type:luminance" maskUnits="userSpaceOnUse" x="7" y="77" width="77" height="45">
<path d="M60.0976 121.515C44.3109 121.515 28.351 115.453 17.4176 105.3C13.2843 101.464 9.89757 96.7134 7.36424 91.1788C6.4709 89.2228 7.28421 86.8441 9.20421 85.7641L9.60421 85.5441C9.83088 85.4121 9.96421 85.1494 9.93754 84.8814C9.89754 84.6134 9.71093 84.3921 9.4576 84.3201C9.44426 84.3174 8.67088 84.1028 7.60421 83.7068C11.0842 81.3788 14.5643 79.4347 17.9776 77.8521C19.8043 84.5054 23.0442 90.5334 28.0309 95.1614C36.2176 102.763 48.4042 107.589 60.7375 107.589C66.4042 107.589 71.7776 106.289 76.7243 104.147C78.8176 108.717 81.271 112.584 83.6843 115.764C76.8443 119.147 68.9109 121.515 60.0976 121.515Z" fill="white"/>
</mask>
<g mask="url(#mask5_334_745)">
<path d="M60.0976 121.515C44.3109 121.515 28.351 115.453 17.4176 105.3C13.2843 101.464 9.89757 96.7134 7.36424 91.1788C6.4709 89.2228 7.28421 86.8441 9.20421 85.7641L9.60421 85.5441C9.83088 85.4121 9.96421 85.1494 9.93754 84.8814C9.89754 84.6134 9.71093 84.3921 9.4576 84.3201C9.44426 84.3174 8.67088 84.1028 7.60421 83.7068C11.0842 81.3788 14.5643 79.4347 17.9776 77.8521C19.8043 84.5054 23.0442 90.5334 28.0309 95.1614C36.2176 102.763 48.4042 107.589 60.7375 107.589C66.4042 107.589 71.7776 106.289 76.7243 104.147C78.8176 108.717 81.271 112.584 83.6843 115.764C76.8443 119.147 68.9109 121.515 60.0976 121.515Z" fill="url(#paint5_linear_334_745)"/>
</g>
<path d="M10.1245 52.8441C9.20448 52.9961 7.57776 53.1134 5.93776 53.1974C5.69776 53.2094 5.4712 53.2508 5.24453 53.2974C4.8312 53.4188 4.4445 53.5494 4.08451 53.7014C2.67117 54.4094 1.65786 55.7974 1.5112 57.4548C1.33786 59.5481 1.25781 61.6574 1.25781 63.7734C1.25781 64.6601 1.29781 65.5441 1.32448 66.4281C2.43115 63.0708 4.89779 58.8548 10.4978 57.3188C20.3511 54.6134 26.9245 53.4548 26.9245 53.4548C21.0845 53.2974 14.7778 53.5988 10.1245 52.8441Z" fill="#FF8C3B"/>
<mask id="mask6_334_745" style="mask-type:luminance" maskUnits="userSpaceOnUse" x="16" y="50" width="11" height="4">
<path d="M26.9245 53.4547C23.6312 53.3654 20.2045 53.4227 16.9912 53.3547C17.1379 52.548 17.3112 51.7454 17.4846 50.952C20.6846 52.0094 24.0045 52.8454 26.9245 53.4547Z" fill="white"/>
</mask>
<g mask="url(#mask6_334_745)">
<path d="M26.9245 53.4547C23.6312 53.3654 20.2045 53.4227 16.9912 53.3547C17.1379 52.548 17.3112 51.7454 17.4846 50.952C20.6846 52.0094 24.0045 52.8454 26.9245 53.4547Z" fill="url(#paint6_linear_334_745)"/>
</g>
<mask id="mask7_334_745" style="mask-type:luminance" maskUnits="userSpaceOnUse" x="4" y="43" width="14" height="11">
<path d="M16.9913 53.3547C15.0046 53.3121 13.1112 53.2227 11.4046 53.0201C11.4846 52.8881 11.5246 52.7254 11.4979 52.5614C11.4579 52.3001 11.2713 52.0854 11.018 52.0148C11.0046 52.0094 8.96467 51.4401 6.51134 50.4041C4.68467 49.6361 3.6979 47.6201 4.20457 45.7147C4.4179 44.9027 4.64465 44.1027 4.88465 43.3147C6.67131 46.5321 11.8713 49.0867 17.4846 50.9521C17.3113 51.7454 17.138 52.5481 16.9913 53.3547Z" fill="white"/>
</mask>
<g mask="url(#mask7_334_745)">
<path d="M16.9913 53.3547C15.0046 53.3121 13.1112 53.2227 11.4046 53.0201C11.4846 52.8881 11.5246 52.7254 11.4979 52.5614C11.4579 52.3001 11.2713 52.0854 11.018 52.0148C11.0046 52.0094 8.96467 51.4401 6.51134 50.4041C4.68467 49.6361 3.6979 47.6201 4.20457 45.7147C4.4179 44.9027 4.64465 44.1027 4.88465 43.3147C6.67131 46.5321 11.8713 49.0867 17.4846 50.9521C17.3113 51.7454 17.138 52.5481 16.9913 53.3547Z" fill="url(#paint7_linear_334_745)"/>
</g>
<path d="M26.9249 53.4547C21.6049 53.312 15.8849 53.552 11.3916 53.024C11.3916 53.0227 11.4049 53.0214 11.4049 53.02C13.1115 53.2227 15.0049 53.312 16.9916 53.3547C20.2049 53.4227 23.6316 53.3654 26.9249 53.4547Z" fill="#C25B24"/>
<path d="M7.53763 52.2494C7.01763 52.0854 6.53766 51.8947 6.09766 51.6787C6.60432 51.8894 7.0843 52.0801 7.53763 52.2494Z" fill="#C2A69B"/>
<path d="M113.071 61.8093C121.271 63.0333 120.778 64.24 120.938 68.1533C121.085 71.612 119.711 82.376 116.431 86.9613C122.351 77.9773 125.311 67.052 123.751 61.752C119.111 61.076 115.458 61.0853 113.071 61.8093Z" fill="#FF8C3B"/>
<path d="M60.0984 2.10399C42.0851 2.10399 25.8185 14.6973 17.7251 22.2027C11.3118 28.1667 6.76508 36.0787 4.20508 45.7147C3.69841 47.62 4.68518 49.636 6.51185 50.404C8.96518 51.44 11.0052 52.0094 11.0185 52.0147C11.2718 52.0854 11.4584 52.3 11.4984 52.5613C11.5384 52.824 11.4185 53.0827 11.1918 53.2227C10.9651 53.364 10.5384 53.6267 5.9651 53.864C3.9651 53.9667 2.33852 55.5334 2.17852 57.5094C2.01852 59.564 1.92513 61.672 1.92513 63.7733C1.92513 69.5787 2.53841 75.156 3.73841 80.3494C4.00508 81.52 4.83182 82.5227 5.95182 83.028C7.77849 83.8547 9.4318 84.316 9.45846 84.32C9.7118 84.392 9.89841 84.6134 9.93841 84.8814C9.96508 85.1494 9.83174 85.412 9.60508 85.544L9.20508 85.764C7.28508 86.844 6.47177 89.2227 7.3651 91.1787C9.89844 96.7134 13.2852 101.464 17.4185 105.3C28.3518 115.453 44.3118 121.515 60.0984 121.515C78.0051 121.515 92.2985 111.736 101.125 103.532C116.245 89.5213 123.579 76.4547 123.579 63.5853C123.579 63.3213 123.579 63.056 123.579 62.7933C123.565 62.4573 123.325 62.1747 123.018 62.1333C121.752 61.964 119.525 61.9293 117.565 61.9C114.232 61.848 112.925 61.8 112.432 61.5013C112.205 61.3627 112.085 61.104 112.125 60.84C112.165 60.5774 112.352 60.3613 112.605 60.2907C112.645 60.28 116.205 59.276 119.992 57.484C121.738 56.6547 122.672 54.7267 122.218 52.8987C119.538 42.272 112.858 31.5867 103.418 22.8107C98.1785 17.9534 79.5784 2.10399 60.0984 2.10399ZM60.0984 122.848C43.9784 122.848 27.6852 116.653 16.5118 106.277C12.2452 102.321 8.76516 97.428 6.15182 91.7333C5.11182 89.456 5.81846 86.748 7.72513 85.1693C7.08513 84.944 6.27174 84.6334 5.40508 84.2427C3.91174 83.5667 2.8051 82.224 2.43177 80.6494C1.21844 75.3587 0.591797 69.68 0.591797 63.7733C0.591797 61.6347 0.685182 59.4907 0.845182 57.4C1.07185 54.7627 3.23177 52.6693 5.89844 52.532C6.7251 52.4893 7.39182 52.4467 7.95182 52.4053C7.35182 52.1867 6.68513 51.928 5.9918 51.6333C3.5518 50.6067 2.23185 47.916 2.91185 45.372C5.53852 35.4893 10.2185 27.364 16.8185 21.2253C25.0585 13.5853 41.6318 0.770653 60.0984 0.770653C79.5251 0.770653 97.4985 15.5 104.325 21.8334C113.952 30.7827 120.765 41.7 123.512 52.5733C124.125 55.0147 122.885 57.588 120.565 58.688C118.952 59.4547 117.392 60.0747 116.112 60.54C116.619 60.5507 117.125 60.5587 117.592 60.5667C119.685 60.5987 121.845 60.632 123.205 60.812C124.165 60.9427 124.885 61.7627 124.912 62.764C124.912 63.0333 124.912 63.3107 124.912 63.5853C124.912 76.8467 117.432 90.2334 102.032 104.509C93.0318 112.876 78.4451 122.848 60.0984 122.848Z" fill="#612601"/>
<mask id="mask8_334_745" style="mask-type:luminance" maskUnits="userSpaceOnUse" x="39" y="16" width="57" height="83">
<path d="M86.9517 98.1881C85.3784 94.3454 83.7249 89.7281 82.0049 84.1801C74.8183 61.0321 64.3383 35.1575 39.4316 22.8641C45.885 18.9028 53.2449 16.0295 60.7383 16.0295C69.6049 16.0295 78.6317 20.2815 86.0583 25.4948C86.3383 35.2761 86.5249 47.1881 87.8049 61.8028C88.9516 74.9775 91.9783 84.2375 95.4049 90.7068C94.3516 91.7881 93.2716 92.8281 92.2049 93.8214C90.5649 95.3481 88.805 96.8161 86.9517 98.1881Z" fill="white"/>
</mask>
<g mask="url(#mask8_334_745)">
<path d="M86.9517 98.1881C85.3784 94.3454 83.7249 89.7281 82.0049 84.1801C74.8183 61.0321 64.3383 35.1575 39.4316 22.8641C45.885 18.9028 53.2449 16.0295 60.7383 16.0295C69.6049 16.0295 78.6317 20.2815 86.0583 25.4948C86.3383 35.2761 86.5249 47.1881 87.8049 61.8028C88.9516 74.9775 91.9783 84.2375 95.4049 90.7068C94.3516 91.7881 93.2716 92.8281 92.2049 93.8214C90.5649 95.3481 88.805 96.8161 86.9517 98.1881Z" fill="url(#paint8_linear_334_745)"/>
</g>
<mask id="mask9_334_745" style="mask-type:luminance" maskUnits="userSpaceOnUse" x="23" y="2" width="81" height="109">
<path d="M92.9509 110.203C91.1776 107.429 89.1509 103.569 86.9509 98.1881C88.8042 96.8161 90.5642 95.3481 92.2042 93.8214C93.2708 92.8281 94.3508 91.7881 95.4042 90.7068C98.0842 95.7534 101.018 99.1028 103.498 101.283C102.724 102.031 101.938 102.78 101.124 103.532C98.7776 105.716 96.0443 108.011 92.9509 110.203ZM86.0576 25.4948C78.6309 20.2814 69.6042 16.0295 60.7375 16.0295C53.2442 16.0295 45.8842 18.9028 39.4309 22.8641C34.6309 20.4921 29.2842 18.6241 23.3242 17.3814C32.2042 10.2787 45.5909 2.10406 60.0975 2.10406C69.0309 2.10406 77.7775 5.43607 85.1375 9.51208C85.6708 14.1001 85.8842 19.3814 86.0576 25.4948Z" fill="white"/>
</mask>
<g mask="url(#mask9_334_745)">
<path d="M92.9509 110.203C91.1776 107.429 89.1509 103.569 86.9509 98.1881C88.8042 96.8161 90.5642 95.3481 92.2042 93.8214C93.2708 92.8281 94.3508 91.7881 95.4042 90.7068C98.0842 95.7534 101.018 99.1028 103.498 101.283C102.724 102.031 101.938 102.78 101.124 103.532C98.7776 105.716 96.0443 108.011 92.9509 110.203ZM86.0576 25.4948C78.6309 20.2814 69.6042 16.0295 60.7375 16.0295C53.2442 16.0295 45.8842 18.9028 39.4309 22.8641C34.6309 20.4921 29.2842 18.6241 23.3242 17.3814C32.2042 10.2787 45.5909 2.10406 60.0975 2.10406C69.0309 2.10406 77.7775 5.43607 85.1375 9.51208C85.6708 14.1001 85.8842 19.3814 86.0576 25.4948Z" fill="url(#paint9_linear_334_745)"/>
</g>
<path d="M93.3114 110.747C93.1914 110.569 93.0714 110.388 92.9514 110.203C96.0447 108.011 98.778 105.716 101.125 103.532C101.938 102.78 102.725 102.031 103.498 101.283C103.671 101.433 103.831 101.577 104.005 101.717C103.205 102.5 102.391 103.268 101.578 104.021C99.0181 106.397 96.2447 108.673 93.3114 110.747ZM23.3247 17.3813C23.0447 17.3213 22.7513 17.2627 22.458 17.2067C32.8047 8.844 46.2713 1.43871 60.098 1.43871C68.5913 1.43871 77.2047 4.39339 85.0313 8.65472C85.0713 8.93872 85.098 9.22401 85.138 9.51201C77.778 5.43601 69.0313 2.104 60.098 2.104C45.5913 2.104 32.2047 10.2787 23.3247 17.3813Z" fill="#592101"/>
<path d="M28.0316 95.1615C36.2183 102.763 48.4049 107.589 60.7383 107.589C73.0849 107.589 84.0183 101.424 92.2049 93.8215C94.5383 91.6521 96.885 89.2601 99.085 86.6881C95.1384 89.6748 90.205 92.6695 84.085 95.2628C61.5517 104.807 23.365 97.7068 16.125 63.3055C16.125 75.4348 19.5783 87.3108 28.0316 95.1615Z" fill="#9D3325"/>
<path d="M34.3111 25.6228C30.2844 30.6214 54.791 19.2228 52.8043 17.3215C50.831 15.4201 38.3911 20.5721 34.3111 25.6228Z" fill="#FF8C3B"/>
<path d="M78.6448 28.7174C76.6181 27.9481 69.1914 34.9135 61.0448 43.7775C53.5914 35.8175 47.0447 29.8548 45.1514 30.5708C40.1381 32.4668 28.1914 46.5281 31.7914 51.2361C32.8847 52.6628 38.1914 57.2281 44.8448 62.7081C39.2048 69.7721 35.1781 75.4828 35.2181 76.7561C35.3247 80.6841 43.6047 88.1121 45.9247 86.8668C46.8047 86.3974 53.0714 81.5841 60.7247 75.5334C69.418 82.4281 76.9113 88.2028 77.8713 88.7188C80.1913 89.9654 88.4714 82.5375 88.5781 78.6095C88.6181 77.2028 83.7113 70.3974 77.1647 62.3294C84.6447 56.2081 90.818 50.9361 92.0047 49.3841C95.6047 44.6761 83.6581 30.6148 78.6448 28.7174Z" fill="#631007"/>
<path d="M44.591 58.9028C37.951 54.0068 32.8843 50.1068 31.791 48.8321C31.5243 48.5268 31.3643 48.1708 31.2577 47.7828C30.991 49.1641 31.1243 50.3628 31.791 51.2361C32.7777 52.5281 39.0711 57.9161 44.8444 62.7081C44.8711 61.0041 44.871 59.8815 44.591 58.9028Z" fill="#FF8C3B"/>
<path d="M88.4977 78.1761C88.4577 78.0468 88.4044 77.9081 88.3244 77.7468L88.2977 77.6895C88.2177 77.5095 88.1243 77.3121 88.0043 77.0855C87.871 76.8508 87.7244 76.5961 87.5644 76.3228C85.7777 79.3695 80.351 84.0308 76.6977 86.0521L60.4844 73.0668C60.4844 73.0668 50.6577 80.6055 46.8577 83.3482C43.2977 81.5628 38.1511 77.6108 36.0844 74.7228C35.9511 74.9615 35.8178 75.1828 35.7111 75.4081C35.1778 76.4241 35.1511 77.2521 35.6178 78.3188C36.5644 80.5228 38.1511 82.4241 39.9511 83.9855C41.1778 85.0441 42.5777 86.3948 44.1644 86.8521C46.3644 87.4881 48.8844 84.7495 50.4977 83.5081C53.4444 81.2615 56.3511 78.9815 59.2577 76.6935C59.7377 76.3121 60.2311 75.9255 60.7244 75.5335C67.2711 80.7201 73.1244 85.2721 76.031 87.4281C76.991 88.1348 77.631 88.5921 77.871 88.7188C78.0177 88.7961 78.1911 88.8401 78.3778 88.8535C78.7511 88.8801 79.2044 88.7828 79.7111 88.5855C81.2311 87.9935 83.2177 86.5028 84.9244 84.7548C86.3511 83.2988 87.5777 81.6641 88.1911 80.2228C88.4311 79.6455 88.5644 79.1001 88.5778 78.6095C88.5778 78.5148 88.5644 78.3961 88.5244 78.2548L88.4977 78.1761Z" fill="#FF8C3B"/>
<path d="M92.0043 47.1775C90.8176 48.5641 84.6443 53.2748 77.1643 58.7441C77.0043 60.0481 76.5777 61.6361 77.1643 62.3295C83.8043 56.8628 90.9243 50.8068 92.0043 49.3841C92.6576 48.5361 92.791 47.3815 92.5643 46.0535C92.4577 46.4708 92.2843 46.8508 92.0043 47.1775Z" fill="#FF8C3B"/>
<defs>
<linearGradient id="paint0_linear_334_745" x1="62.7517" y1="118.79" x2="62.7517" y2="-1.22944" gradientUnits="userSpaceOnUse">
<stop stop-color="#822330"/>
<stop offset="1" stop-color="#D15111"/>
</linearGradient>
<linearGradient id="paint1_linear_334_745" x1="62.7509" y1="16.0334" x2="62.7509" y2="119.515" gradientUnits="userSpaceOnUse">
<stop stop-color="#F77111"/>
<stop offset="1" stop-color="#540D17"/>
</linearGradient>
<linearGradient id="paint2_linear_334_745" x1="62.7503" y1="118.789" x2="62.7503" y2="-1.22929" gradientUnits="userSpaceOnUse">
<stop stop-color="#63171D"/>
<stop offset="1" stop-color="#9F350A"/>
</linearGradient>
<linearGradient id="paint3_linear_334_745" x1="62.7508" y1="16.0335" x2="62.7508" y2="119.515" gradientUnits="userSpaceOnUse">
<stop stop-color="#BC490A"/>
<stop offset="1" stop-color="#40090E"/>
</linearGradient>
<linearGradient id="paint4_linear_334_745" x1="62.7518" y1="118.789" x2="62.7518" y2="-1.22945" gradientUnits="userSpaceOnUse">
<stop stop-color="#781E27"/>
<stop offset="1" stop-color="#C0460E"/>
</linearGradient>
<linearGradient id="paint5_linear_334_745" x1="62.7509" y1="16.0334" x2="62.7509" y2="119.515" gradientUnits="userSpaceOnUse">
<stop stop-color="#E3610E"/>
<stop offset="1" stop-color="#4D0B13"/>
</linearGradient>
<linearGradient id="paint6_linear_334_745" x1="62.7512" y1="118.789" x2="62.7512" y2="-1.22962" gradientUnits="userSpaceOnUse">
<stop stop-color="#63171D"/>
<stop offset="1" stop-color="#9F350A"/>
</linearGradient>
<linearGradient id="paint7_linear_334_745" x1="62.7515" y1="16.0334" x2="62.7515" y2="119.515" gradientUnits="userSpaceOnUse">
<stop stop-color="#BC490A"/>
<stop offset="1" stop-color="#40090E"/>
</linearGradient>
<linearGradient id="paint8_linear_334_745" x1="62.7516" y1="118.789" x2="62.7516" y2="-1.22944" gradientUnits="userSpaceOnUse">
<stop stop-color="#781E27"/>
<stop offset="1" stop-color="#C0460E"/>
</linearGradient>
<linearGradient id="paint9_linear_334_745" x1="62.7509" y1="16.0334" x2="62.7509" y2="119.515" gradientUnits="userSpaceOnUse">
<stop stop-color="#E3610E"/>
<stop offset="1" stop-color="#4D0B13"/>
</linearGradient>
</defs>
</svg>
