<svg width="45" height="40" viewBox="0 0 45 40" fill="none" xmlns="http://www.w3.org/2000/svg">
<mask id="mask0_1692_39905" style="mask-type:luminance" maskUnits="userSpaceOnUse" x="1" y="0" width="42" height="40">
<path d="M14.5633 39.4883H14.5165C13.0958 39.4883 11.7941 38.7711 11.0326 37.5716L1.75507 22.4118C0.955353 21.1505 0.917052 19.546 1.65296 18.2239L3.33322 15.2096C7.53174 17.6803 15.9628 18.7199 18.7916 27.1625C21.6842 35.7871 16.9965 38.6899 15.1843 39.4632L14.5633 39.4883ZM28.5371 38.926C28.8391 36.0176 28.6732 29.0418 21.7863 22.3982C14.3378 15.216 8.59521 12.463 7.98692 6.856L10.3393 2.62983C11.0709 1.31625 12.4449 0.510998 13.9423 0.510998L14.0443 0.512276L21.982 0.58416C20.4634 12.3524 28.0862 12.7769 34.3691 16.4556C38.8781 19.093 41.1114 22.8087 42.1238 25.0947L34.9433 36.8351C34.2032 38.0433 32.9143 38.7804 31.4935 38.8069L28.5371 38.926Z" fill="white"/>
</mask>
<g mask="url(#mask0_1692_39905)">
<path d="M14.5633 39.4883H14.5165C13.0958 39.4883 11.7941 38.7711 11.0326 37.5716L1.75507 22.4118C0.955353 21.1505 0.917052 19.546 1.65296 18.2239L3.33322 15.2096C7.53174 17.6803 15.9628 18.7199 18.7916 27.1625C21.6842 35.7871 16.9965 38.6899 15.1843 39.4632L14.5633 39.4883ZM28.5371 38.926C28.8391 36.0176 28.6732 29.0418 21.7863 22.3982C14.3378 15.216 8.59521 12.463 7.98692 6.856L10.3393 2.62983C11.0709 1.31625 12.4449 0.510998 13.9423 0.510998L14.0443 0.512276L21.982 0.58416C20.4634 12.3524 28.0862 12.7769 34.3691 16.4556C38.8781 19.093 41.1114 22.8087 42.1238 25.0947L34.9433 36.8351C34.2032 38.0433 32.9143 38.7804 31.4935 38.8069L28.5371 38.926Z" fill="url(#paint0_linear_1692_39905)"/>
</g>
<path d="M13.9424 0.51115C12.4451 0.51115 11.0711 1.3164 10.3394 2.62998L1.65311 18.2241C0.917198 19.5461 0.955499 21.1507 1.75522 22.4119L11.0328 37.5717C11.7942 38.7713 13.0959 39.4884 14.5167 39.4884H14.5635L31.4937 38.807C32.9144 38.7806 34.2033 38.0435 34.9435 36.8353L43.868 22.238C44.6805 20.9137 44.6848 19.2713 43.8808 17.9527L34.7223 2.64699C33.9864 1.44274 32.706 0.702145 31.2937 0.668541L14.0445 0.512428L13.9424 0.51115ZM14.5167 39.9138C12.9513 39.9138 11.5135 39.1222 10.6712 37.7964L1.39364 22.6365C0.513102 21.2468 0.470539 19.4755 1.28302 18.0169L9.96509 2.42324C10.7946 0.941212 12.3515 0.054718 14.053 0.0870476L31.3022 0.24316C32.8634 0.280167 34.2757 1.0969 35.0839 2.4275L44.2466 17.7327C45.1314 19.1871 45.1272 20.9988 44.2338 22.46L35.3051 37.057C34.4883 38.3901 33.0676 39.2035 31.5064 39.2324L14.5167 39.9138Z" fill="#612601"/>
<mask id="mask1_1692_39905" style="mask-type:luminance" maskUnits="userSpaceOnUse" x="21" y="0" width="24" height="26">
<path d="M42.1246 25.095C41.1122 22.809 38.8789 19.0933 34.3699 16.4559C28.087 12.7772 20.4642 12.3526 21.9828 0.584457L31.2944 0.668682C32.7067 0.702288 33.9871 1.44288 34.723 2.64713L43.8815 17.9528C44.6854 19.2715 44.6812 20.9139 43.8687 22.2381L42.1246 25.095Z" fill="white"/>
</mask>
<g mask="url(#mask1_1692_39905)">
<path d="M42.1246 25.095C41.1122 22.809 38.8789 19.0933 34.3699 16.4559C28.087 12.7772 20.4642 12.3526 21.9828 0.584457L31.2944 0.668682C32.7067 0.702288 33.9871 1.44288 34.723 2.64713L43.8815 17.9528C44.6854 19.2715 44.6812 20.9139 43.8687 22.2381L42.1246 25.095Z" fill="url(#paint1_linear_1692_39905)"/>
</g>
<path d="M42.2263 25.3335C42.1923 25.2557 42.1583 25.1765 42.1243 25.0949L43.8683 22.238C44.6808 20.9138 44.685 19.2714 43.8811 17.9527L34.7226 2.64702C33.9867 1.44277 32.7063 0.702175 31.294 0.668571L21.9824 0.584347C21.9909 0.514158 21.9994 0.443119 22.0122 0.37208L31.3025 0.457157C32.7871 0.491188 34.1313 1.26964 34.9055 2.53728L44.064 17.8425C44.9062 19.225 44.902 20.9563 44.0512 22.3473L42.2263 25.3335Z" fill="#592101"/>
<mask id="mask2_1692_39905" style="mask-type:luminance" maskUnits="userSpaceOnUse" x="3" y="6" width="26" height="34">
<path d="M15.1861 39.4631C16.9982 38.6898 21.686 35.7871 18.7934 27.1624C15.9646 18.7199 7.53348 17.6802 3.33496 15.2096L7.98866 6.85595C8.59695 12.4629 14.3396 15.216 21.788 22.3981C28.675 29.0417 28.8409 36.0175 28.5388 38.9259L15.1861 39.4631Z" fill="white"/>
</mask>
<g mask="url(#mask2_1692_39905)">
<path d="M15.1861 39.4631C16.9982 38.6898 21.686 35.7871 18.7934 27.1624C15.9646 18.7199 7.53348 17.6802 3.33496 15.2096L7.98866 6.85595C8.59695 12.4629 14.3396 15.216 21.788 22.3981C28.675 29.0417 28.8409 36.0175 28.5388 38.9259L15.1861 39.4631Z" fill="url(#paint2_linear_1692_39905)"/>
</g>
<path d="M14.5634 39.7029H14.5208C14.5208 39.7029 14.7803 39.6366 15.1844 39.4634L28.5372 38.9262C28.5287 38.9993 28.5244 39.0696 28.5159 39.1373L14.5634 39.7029ZM3.3333 15.2099C3.26949 15.1733 3.20994 15.1363 3.15039 15.0989L7.95293 6.4768C7.96144 6.60442 7.96998 6.73118 7.98699 6.85625L3.3333 15.2099Z" fill="#592101"/>
<mask id="mask3_1692_39905" style="mask-type:luminance" maskUnits="userSpaceOnUse" x="4" y="4" width="36" height="32">
<path d="M39.3363 18.7951L31.2881 5.35304C30.9435 4.78729 30.3352 4.4355 29.6716 4.42019L14.5068 4.28236C13.7836 4.26535 13.1115 4.64989 12.7627 5.28073L11.4142 7.69648C12.3841 8.3052 13.5964 9.12661 13.5964 9.12661L9.70848 10.7622L5.12711 18.9891C4.78255 19.6114 4.80381 20.3737 5.1824 20.9756L13.3242 34.2769C13.6858 34.846 14.3111 35.1881 14.9875 35.1813L29.846 34.5831C30.5139 34.576 31.1349 34.225 31.4838 33.6529L32.1006 32.6421L27.8382 32.4465L32.7174 31.6361L33.4363 30.4591L32.3941 29.4173L34.823 27.971L39.3321 20.8212C39.7106 20.1997 39.7149 19.4174 39.3363 18.7951Z" fill="white"/>
</mask>
<g mask="url(#mask3_1692_39905)">
<mask id="mask4_1692_39905" style="mask-type:luminance" maskUnits="userSpaceOnUse" x="4" y="4" width="36" height="32">
<path d="M29.6707 4.41976L14.5058 4.28236C13.7827 4.26535 13.1105 4.64989 12.7617 5.28073L5.12613 18.9891C4.78157 19.6114 4.80283 20.3737 5.18142 20.9756L13.3232 34.2769C13.6848 34.846 14.3101 35.1881 14.9865 35.1813L29.8451 34.5831C30.5129 34.576 31.134 34.225 31.4828 33.6529L39.3311 20.8212C39.7097 20.1997 39.7139 19.4174 39.3354 18.7951L31.2871 5.35304C30.9426 4.78729 30.3343 4.43592 29.6707 4.41976Z" fill="white"/>
</mask>
<g mask="url(#mask4_1692_39905)">
<path d="M14.7097 35.2012V35.1586H14.4545V35.1161H14.3268V35.0736H14.2418V35.031H14.1141V34.9885H14.0291V34.9459H13.944V34.9034H13.9015V34.8609H13.8589V34.8183H13.7738V34.7758H13.7313V34.7333H13.6462V34.6907H13.6037V34.6482H13.5612V34.6056H13.5186V34.5631H13.4761V34.478H13.4335V34.4355H13.391V34.3929H13.3485V34.3504H13.3059V34.2653H13.2634V34.1803H13.2208V34.1377H13.1783V34.0526H13.1358V34.0101H13.0932V33.925H13.0507V33.8399H13.0082V33.7974H12.9656V33.7123H12.9231V33.6273H12.8805V33.5847H12.838V33.4996H12.7955V33.4146H12.7529V33.372H12.7104V33.287H12.6678V33.2444H12.6253V33.1593H12.5828V33.0743H12.5402V33.0317H12.4977V32.9466H12.4552V32.8616H12.4126V32.819H12.3701V32.734H12.3275V32.6914H12.285V32.6063H12.2425V32.5213H12.1999V32.4787H12.1574V32.3937H12.1149V32.3086H12.0723V32.266H12.0298V32.181H11.9872V32.0959H11.9447V32.0533H11.9022V31.9683H11.8596V31.9257H11.8171V31.8407H11.7745V31.7556H11.732V31.713H11.6895V31.628H11.6469V31.5429H11.6044V31.5003H11.5619V31.4153H11.5193V31.3302H11.4768V31.2877H11.4342V31.2026H11.3917V31.16H11.3492V31.075H11.3066V30.9899H11.2641V30.9474H11.2215V30.8623H11.179V30.7772H11.1365V30.7347H11.0939V30.6496H11.0514V30.607H11.0089V30.522H10.9663V30.4369H10.9238V30.3944H10.8812V30.3093H10.8387V30.2242H10.7962V30.1817H10.7536V30.0966H10.7111V30.0115H10.6686V29.969H10.626V29.8839H10.5835V29.8414H10.5409V29.7563H10.4984V29.6712H10.4559V29.6287H10.4133V29.5436H10.3708V29.4585H10.3282V29.416H10.2857V29.3309H10.2432V29.2458H10.2006V29.2033H10.1581V29.1182H10.1156V29.0757H10.073V28.9906H10.0305V28.9055H9.98794V28.863H9.9454V28.7779H9.90287V28.6928H9.86033V28.6503H9.81779V28.5652H9.77525V28.5227H9.73271V28.4376H9.69017V28.3525H9.64764V28.31H9.6051V28.2249H9.56256V28.1398H9.52002V28.0973H9.47748V28.0122H9.43495V27.9271H9.39241V27.8846H9.34987V27.7995H9.30733V27.757H9.26479V27.6719H9.22225V27.5868H9.17972V27.5443H9.13718V27.4592H9.09464V27.3741H9.0521V27.3316H9.00956V27.2465H8.96703V27.1615H8.92449V27.1189H8.88195V27.0338H8.83941V26.9913H8.79687V26.9062H8.75433V26.8211H8.7118V26.7786H8.66926V26.6935H8.62672V26.6085H8.58418V26.5659H8.54164V26.4808H8.49911V26.3958H8.45657V26.3532H8.41403V26.2682H8.37149V26.2256H8.32895V26.1405H8.28641V26.0555H8.24388V26.0129H8.20134V25.9278H8.1588V25.8428H8.11626V25.8002H8.07372V25.7152H8.03118V25.6726H7.98865V25.5875H7.94611V25.5025H7.90357V25.4599H7.86103V25.3748H7.81849V25.2898H7.77596V25.2472H7.73342V25.1622H7.69088V25.0771H7.64834V25.0345H7.6058V24.9495H7.56326V24.9069H7.52073V24.8219H7.47819V24.7368H7.43565V24.6942H7.39311V24.6092H7.35057V24.5241H7.30804V24.4815H7.2655V24.3965H7.22296V24.3114H7.18042V24.2689H7.13788V24.1838H7.09534V24.1412H7.05281V24.0562H7.01027V23.9711H6.96773V23.9285H6.92519V23.8435H6.88265V23.7584H6.84012V23.7159H6.79758V23.6308H6.75504V23.5882H6.7125V23.5032H6.66996V23.4181H6.62742V23.3756H6.58489V23.2905H6.54235V23.2054H6.49981V23.1629H6.45727V23.0778H6.41473V22.9927H6.3722V22.9502H6.32966V22.8651H6.28712V22.8226H6.24458V22.7375H6.20204V22.6524H6.1595V22.6099H6.11697V22.5248H6.07443V22.4397H6.03189V22.3972H5.98935V22.3121H5.94681V22.227H5.90428V22.1845H5.86174V22.0994H5.8192V22.0569H5.77666V21.9718H5.73412V21.8867H5.69158V21.8442H5.64905V21.7591H5.60651V21.674H5.56397V21.6315H5.52143V21.5464H5.47889V21.5039H5.43636V21.4188H5.39382V21.3337H5.35128V21.2912H5.30874V21.2061H5.2662V21.121H5.22366V21.0785H5.18113V20.9934H5.13859V20.9083H5.09605V20.8658H5.05351V20.7382H5.01097V20.6531H4.96843V20.5255H4.9259V20.2703H4.88336V20.015H4.84082V19.9725H4.88336V19.5471H4.9259V19.377H4.96843V19.2493H5.01097V19.1217H5.05351V19.0367H5.09605V18.9516H5.13859V18.8665H5.18113V18.7814H5.22366V18.6964H5.2662V18.6538H5.30874V18.5687H5.35128V18.4837H5.39382V18.3986H5.43636V18.3135H5.47889V18.271H5.52143V18.1859H5.56397V18.1008H5.60651V18.0157H5.64905V17.9732H5.69158V17.8881H5.73412V17.803H5.77666V17.718H5.8192V17.6329H5.86174V17.5904H5.90428V17.5053H5.94681V17.4202H5.98935V17.3351H6.03189V17.2501H6.07443V17.2075H6.11697V17.1224H6.1595V17.0374H6.20204V16.9523H6.24458V16.8672H6.28712V16.8247H6.32966V16.7396H6.3722V16.6545H6.41473V16.5694H6.45727V16.4844H6.49981V16.4418H6.54235V16.3568H6.58489V16.2717H6.62742V16.1866H6.66996V16.1015H6.7125V16.059H6.75504V15.9739H6.79758V15.8888H6.84012V15.8038H6.88265V15.7187H6.92519V15.6761H6.96773V15.5911H7.01027V15.506H7.05281V15.4209H7.09534V15.3358H7.13788V15.2933H7.18042V15.2082H7.22296V15.1231H7.2655V15.0381H7.30804V14.953H7.35057V14.9105H7.39311V14.8254H7.43565V14.7403H7.47819V14.6552H7.52073V14.6127H7.56326V14.5276H7.6058V14.4425H7.64834V14.3575H7.69088V14.2724H7.73342V14.2298H7.77596V14.1448H7.81849V14.0597H7.86103V13.9746H7.90357V13.8895H7.94611V13.847H7.98865V13.7619H8.03118V13.6768H8.07372V13.5918H8.11626V13.5067H8.1588V13.4642H8.20134V13.3791H8.24388V13.294H8.28641V13.2089H8.32895V13.1238H8.37149V13.0813H8.41403V12.9962H8.45657V12.9112H8.49911V12.8261H8.54164V12.741H8.58418V12.6985H8.62672V12.6134H8.66926V12.5283H8.7118V12.4432H8.75433V12.3582H8.79687V12.3156H8.83941V12.2305H8.88195V12.1455H8.92449V12.0604H8.96703V11.9753H9.00956V11.9328H9.0521V11.8477H9.09464V11.7626H9.13718V11.6775H9.17972V11.5925H9.22225V11.5499H9.26479V11.4649H9.30733V11.3798H9.34987V11.2947H9.39241V11.2522H9.43495V11.1671H9.47748V11.082H9.52002V10.9969H9.56256V10.9119H9.6051V10.8693H9.64764V10.7842H9.69017V10.7417H9.73271V10.6992H9.81779V10.6566H9.9454V10.6141H10.0305V10.5716H10.1581V10.529H10.2432V10.4865H10.3282V10.4439H10.4559V10.4014H10.5409V10.3589H10.626V10.3163H10.7536V10.2738H10.8387V10.2313H10.9663V10.1887H11.0514V10.1462H11.1365V10.1036H11.2641V10.0611H11.3492V10.0186H11.4342V9.97602H11.5619V9.93348H11.6469V9.89095H11.7745V9.84841H11.8596V9.80587H11.9447V9.76333H12.0723V9.72079H12.1574V9.67826H12.2425V9.63572H12.3701V9.59318H12.4552V9.55064H12.5828V9.5081H12.6678V9.46556H12.7529V9.42303H12.8805V9.38049H12.9656V9.33795H13.0507V9.29541H13.1783V9.25287H13.2634V9.21033H13.391V9.1678H13.4761V9.12526H13.5186V9.08272H13.4335V9.04018H13.391V8.99764H13.3059V8.9551H13.2634V8.91257H13.1783V8.87003H13.1358V8.82749H13.0507V8.78495H13.0082V8.74241H12.9231V8.69988H12.8805V8.65734H12.7955V8.6148H12.7529V8.57226H12.6678V8.52972H12.6253V8.48718H12.5402V8.44465H12.4977V8.40211H12.4126V8.35957H12.3701V8.31703H12.285V8.27449H12.2425V8.23196H12.1574V8.18942H12.1149V8.14688H12.0298V8.10434H11.9447V8.0618H11.9022V8.01926H11.8171V7.97673H11.7745V7.93419H11.6895V7.89165H11.6469V7.84911H11.5619V7.80657H11.5193V7.76404H11.4342V7.7215H11.3917V7.63642H11.4342V7.55134H11.4768V7.50881H11.5193V7.42373H11.5619V7.33865H11.6044V7.25358H11.6469V7.1685H11.6895V7.12596H11.732V7.04089H11.7745V6.95581H11.8171V6.87073H11.8596V6.78566H11.9022V6.74312H11.9447V6.65804H11.9872V6.57297H12.0298V6.48789H12.0723V6.40281H12.1149V6.36028H12.1574V6.2752H12.1999V6.19012H12.2425V6.10505H12.285V6.01997H12.3275V5.97743H12.3701V5.89235H12.4126V5.80728H12.4552V5.7222H12.4977V5.63713H12.5402V5.59459H12.5828V5.50951H12.6253V5.42443H12.6678V5.33936H12.7104V5.25428H12.7529V5.21174H12.7955V5.12667H12.838V5.08413H12.8805V5.04159H12.9231V4.95651H12.9656V4.91398H13.0082V4.87144H13.0507V4.8289H13.0932V4.78636H13.1358V4.74382H13.2208V4.70129H13.2634V4.65875H13.3059V4.61621H13.391V4.57367H13.4335V4.53113H13.4761V4.48859H13.6037V4.44606H13.6888V4.40352H13.8164V4.36098H13.9015V4.31844H14.1141V4.2759H18.4956V4.31844H23.1748V4.36098H27.854V4.40352H29.9384V4.44606H30.151V4.48859H30.2787V4.53113H30.3637V4.57367H30.4488V4.61621H30.5764V4.65875H30.6615V4.70129H30.704V4.74382H30.7466V4.78636H30.8317V4.8289H30.8742V4.87144H30.9167V4.91398H31.0018V4.95651H31.0443V5.04159H31.0869V5.08413H31.1294V5.12667H31.172V5.1692H31.2145V5.21174H31.257V5.29682H31.2996V5.33936H31.3421V5.42443H31.3847V5.50951H31.4272V5.55205H31.4697V5.63713H31.5123V5.7222H31.5548V5.76474H31.5973V5.84982H31.6399V5.93489H31.6824V5.97743H31.725V6.06251H31.7675V6.14758H31.81V6.19012H31.8526V6.2752H31.8951V6.36028H31.9377V6.40281H31.9802V6.48789H32.0227V6.57297H32.0653V6.61551H32.1078V6.70058H32.1503V6.78566H32.1929V6.8282H32.2354V6.91327H32.278V6.99835H32.3205V7.04089H32.363V7.12596H32.4056V7.21104H32.4481V7.25358H32.4906V7.33865H32.5332V7.42373H32.5757V7.46627H32.6183V7.55134H32.6608V7.63642H32.7033V7.67896H32.7459V7.76404H32.7884V7.84911H32.831V7.89165H32.8735V7.97673H32.916V8.0618H32.9586V8.10434H33.0011V8.18942H33.0436V8.27449H33.0862V8.31703H33.1287V8.40211H33.1713V8.48718H33.2138V8.52972H33.2563V8.6148H33.2989V8.69988H33.3414V8.74241H33.3839V8.82749H33.4265V8.91257H33.469V8.99764H33.5116V9.04018H33.5541V9.12526H33.5966V9.21033H33.6392V9.25287H33.6817V9.33795H33.7243V9.42303H33.7668V9.46556H33.8093V9.55064H33.8519V9.63572H33.8944V9.67826H33.9369V9.76333H33.9795V9.84841H34.022V9.89095H34.0646V9.97602H34.1071V10.0611H34.1496V10.1036H34.1922V10.1887H34.2347V10.2738H34.2773V10.3163H34.3198V10.4014H34.3623V10.4865H34.4049V10.529H34.4474V10.6141H34.4899V10.6992H34.5325V10.7417H34.575V10.8268H34.6176V10.9119H34.6601V10.9544H34.7026V11.0395H34.7452V11.1246H34.7877V11.1671H34.8302V11.2522H34.8728V11.3372H34.9153V11.3798H34.9579V11.4649H35.0004V11.5499H35.0429V11.5925H35.0855V11.6775H35.128V11.7626H35.1706V11.8052H35.2131V11.8902H35.2556V11.9753H35.2982V12.0179H35.3407V12.1029H35.3832V12.188H35.4258V12.2305H35.4683V12.3156H35.5109V12.4007H35.5534V12.4432H35.5959V12.5283H35.6385V12.6134H35.681V12.6559H35.7236V12.741H35.7661V12.8261H35.8086V12.8686H35.8512V12.9537H35.8937V13.0388H35.9362V13.0813H35.9788V13.1664H36.0213V13.2515H36.0639V13.294H36.1064V13.3791H36.1489V13.4642H36.1915V13.5067H36.234V13.5918H36.2765V13.6768H36.3191V13.7194H36.3616V13.8045H36.4042V13.8895H36.4467V13.9321H36.4892V14.0172H36.5318V14.1022H36.5743V14.1448H36.6169V14.2298H36.6594V14.3149H36.7019V14.3575H36.7445V14.4425H36.787V14.5276H36.8295V14.5701H36.8721V14.6552H36.9146V14.7403H36.9572V14.7828H36.9997V14.8679H37.0422V14.953H37.0848V14.9955H37.1273V15.0806H37.1698V15.1657H37.2124V15.2082H37.2549V15.2933H37.2975V15.3784H37.34V15.4209H37.3825V15.506H37.4251V15.5911H37.4676V15.6761H37.5102V15.7187H37.5527V15.8038H37.5952V15.8888H37.6378V15.9314H37.6803V16.0164H37.7228V16.1015H37.7654V16.1441H37.8079V16.2291H37.8505V16.3142H37.893V16.3568H37.9355V16.4418H37.9781V16.5269H38.0206V16.5694H38.0632V16.6545H38.1057V16.7396H38.1482V16.7821H38.1908V16.8672H38.2333V16.9523H38.2758V16.9948H38.3184V17.0799H38.3609V17.165H38.4035V17.2075H38.446V17.2926H38.4885V17.3777H38.5311V17.4202H38.5736V17.5053H38.6161V17.5904H38.6587V17.6329H38.7012V17.718H38.7438V17.803H38.7863V17.8456H38.8288V17.9307H38.8714V18.0157H38.9139V18.0583H38.9565V18.1434H38.999V18.2284H39.0415V18.271H39.0841V18.356H39.1266V18.4411H39.1691V18.4837H39.2117V18.5687H39.2542V18.6538H39.2968V18.6964H39.3393V18.7814H39.3818V18.8665H39.4244V18.9516H39.4669V19.0367H39.5094V19.1643H39.552V19.2919H39.5945V19.6322H39.6371V19.9725H39.5945V20.3128H39.552V20.4404H39.5094V20.568H39.4669V20.6531H39.4244V20.7382H39.3818V20.8233H39.3393V20.9083H39.2968V20.9509H39.2542V21.036H39.2117V21.0785H39.1691V21.1636H39.1266V21.2486H39.0841V21.2912H39.0415V21.3763H38.999V21.4188H38.9565V21.5039H38.9139V21.5889H38.8714V21.6315H38.8288V21.7166H38.7863V21.7591H38.7438V21.8442H38.7012V21.9293H38.6587V21.9718H38.6161V22.0569H38.5736V22.0994H38.5311V22.1845H38.4885V22.227H38.446V22.3121H38.4035V22.3972H38.3609V22.4397H38.3184V22.5248H38.2758V22.5673H38.2333V22.6524H38.1908V22.7375H38.1482V22.78H38.1057V22.8651H38.0632V22.9076H38.0206V22.9927H37.9781V23.0352H37.9355V23.1203H37.893V23.2054H37.8505V23.2479H37.8079V23.333H37.7654V23.3756H37.7228V23.4606H37.6803V23.5457H37.6378V23.5882H37.5952V23.6733H37.5527V23.7159H37.5102V23.8009H37.4676V23.8435H37.4251V23.9285H37.3825V24.0136H37.34V24.0562H37.2975V24.1412H37.2549V24.1838H37.2124V24.2689H37.1698V24.3539H37.1273V24.3965H37.0848V24.4815H37.0422V24.5241H36.9997V24.6092H36.9572V24.6942H36.9146V24.7368H36.8721V24.8219H36.8295V24.8644H36.787V24.9495H36.7445V24.992H36.7019V25.0771H36.6594V25.1622H36.6169V25.2047H36.5743V25.2898H36.5318V25.3323H36.4892V25.4174H36.4467V25.5025H36.4042V25.545H36.3616V25.6301H36.3191V25.6726H36.2765V25.7577H36.234V25.8002H36.1915V25.8853H36.1489V25.9704H36.1064V26.0129H36.0639V26.098H36.0213V26.1405H35.9788V26.2256H35.9362V26.3107H35.8937V26.3532H35.8512V26.4383H35.8086V26.4808H35.7661V26.5659H35.7236V26.6085H35.681V26.6935H35.6385V26.7786H35.5959V26.8211H35.5534V26.9062H35.5109V26.9488H35.4683V27.0338H35.4258V27.1189H35.3832V27.1615H35.3407V27.2465H35.2982V27.2891H35.2556V27.3741H35.2131V27.4592H35.1706V27.5018H35.128V27.5868H35.0855V27.6294H35.0429V27.7144H35.0004V27.757H34.9579V27.8421H34.9153V27.9271H34.8728V27.9697H34.8302V28.0122H34.7877V28.0548H34.7026V28.0973H34.6176V28.1398H34.575V28.1824H34.4899V28.2249H34.4049V28.2674H34.3623V28.31H34.2773V28.3525H34.1922V28.3951H34.1496V28.4376H34.0646V28.4801H33.9795V28.5227H33.9369V28.5652H33.8519V28.6078H33.7668V28.6503H33.6817V28.6928H33.6392V28.7354H33.5541V28.7779H33.469V28.8204H33.4265V28.863H33.3414V28.9055H33.2563V28.9481H33.2138V28.9906H33.1287V29.0331H33.0436V29.0757H33.0011V29.1182H32.916V29.1607H32.831V29.2033H32.7884V29.2458H32.7033V29.2884H32.6183V29.3309H32.5757V29.3734H32.4906V29.416H32.4481V29.4585H32.4906V29.5011H32.5332V29.5436H32.5757V29.5861H32.6183V29.6287H32.6608V29.6712H32.7033V29.7137H32.7459V29.7563H32.7884V29.7988H32.831V29.8414H32.8735V29.8839H32.916V29.9264H32.9586V29.969H33.0011V30.0115H33.0436V30.054H33.0862V30.0966H33.1287V30.1391H33.1713V30.1817H33.2138V30.2242H33.2563V30.2667H33.2989V30.3093H33.3414V30.3518H33.3839V30.3944H33.4265V30.4369H33.469V30.4794H33.4265V30.5645H33.3839V30.6496H33.3414V30.6921H33.2989V30.7772H33.2563V30.8623H33.2138V30.9048H33.1713V30.9899H33.1287V31.0324H33.0862V31.1175H33.0436V31.2026H33.0011V31.2451H32.9586V31.3302H32.916V31.4153H32.8735V31.4578H32.831V31.5429H32.7884V31.628H32.7459V31.6705H32.5332V31.713H32.278V31.7556H32.0227V31.7981H31.7675V31.8407H31.5123V31.8832H31.257V31.9257H31.0018V31.9683H30.7466V32.0108H30.4914V32.0533H30.2361V32.0959H29.9809V32.1384H29.7257V32.181H29.4704V32.2235H29.2152V32.266H28.96V32.3086H28.7047V32.3511H28.4495V32.3937H28.1943V32.4362H28.5771V32.4787H29.4704V32.5213H30.4063V32.5638H31.3421V32.6063H32.1078V32.734H32.0653V32.7765H32.0227V32.8616H31.9802V32.9466H31.9377V32.9892H31.8951V33.0743H31.8526V33.1168H31.81V33.2019H31.7675V33.287H31.725V33.3295H31.6824V33.4146H31.6399V33.4996H31.5973V33.5422H31.5548V33.6273H31.5123V33.7123H31.4697V33.7549H31.4272V33.7974H31.3847V33.8825H31.3421V33.925H31.2996V33.9676H31.257V34.0101H31.2145V34.0526H31.172V34.0952H31.1294V34.1377H31.0443V34.1803H31.0018V34.2228H30.9593V34.2653H30.8742V34.3079H30.8317V34.3504H30.7466V34.3929H30.6615V34.4355H30.5339V34.478H30.4488V34.5206H30.3212V34.5631H30.1085V34.6056H29.3003V34.6482H28.2368V34.6907H27.1734V34.7333H26.1099V34.7758H25.089V34.8183H24.0255V34.8609H22.9621V34.9034H21.8986V34.9459H20.8352V34.9885H19.7717V35.031H18.7508V35.0736H17.6874V35.1161H16.6239V35.1586H15.5604V35.2012" fill="url(#paint3_linear_1692_39905)"/>
</g>
</g>
<path d="M25 22.8067V17.1796C25 14.0344 25 12.4618 24.0747 12.0705C23.1494 11.6791 22.0603 12.7911 19.8823 15.0151C18.7544 16.1668 18.1109 16.4219 16.506 16.4219C15.1026 16.4219 14.4008 16.4219 13.8968 16.7658C12.8504 17.4797 13.0085 18.8752 13.0085 19.9932C13.0085 21.1112 12.8504 22.5066 13.8968 23.2206C14.4008 23.5645 15.1026 23.5645 16.506 23.5645C18.1109 23.5645 18.7544 23.8196 19.8823 24.9713C22.0603 27.1953 23.1494 28.3073 24.0747 27.9159C25 27.5245 25 25.9519 25 22.8067Z" stroke="#631007" stroke-width="1.5" stroke-linecap="round" stroke-linejoin="round"/>
<path opacity="0.4" d="M28 16.9932C28.6254 17.8128 29 18.8566 29 19.9932C29 21.1298 28.6254 22.1735 28 22.9932" stroke="#631007" stroke-width="1.5" stroke-linecap="round" stroke-linejoin="round"/>
<path opacity="0.4" d="M31 14.9932C32.2508 16.3593 33 18.0989 33 19.9932C33 21.8875 32.2508 23.6271 31 24.9932" stroke="#631007" stroke-width="1.5" stroke-linecap="round" stroke-linejoin="round"/>
<defs>
<linearGradient id="paint0_linear_1692_39905" x1="22.8072" y1="0.298305" x2="22.8072" y2="39.7011" gradientUnits="userSpaceOnUse">
<stop stop-color="#E85A13"/>
<stop offset="1" stop-color="#822330"/>
</linearGradient>
<linearGradient id="paint1_linear_1692_39905" x1="22.808" y1="0.298601" x2="22.808" y2="39.7014" gradientUnits="userSpaceOnUse">
<stop stop-color="#D64D0F"/>
<stop offset="1" stop-color="#781E27"/>
</linearGradient>
<linearGradient id="paint2_linear_1692_39905" x1="22.8089" y1="0.298268" x2="22.8089" y2="39.701" gradientUnits="userSpaceOnUse">
<stop stop-color="#D64D0F"/>
<stop offset="1" stop-color="#781E27"/>
</linearGradient>
<linearGradient id="paint3_linear_1692_39905" x1="22.2474" y1="4.59281" x2="22.2474" y2="35.0712" gradientUnits="userSpaceOnUse">
<stop stop-color="#FFE6BF"/>
<stop offset="1" stop-color="#FABD6E"/>
</linearGradient>
</defs>
</svg>
