<svg width="93" height="100" viewBox="0 0 93 100" fill="none" xmlns="http://www.w3.org/2000/svg">
<g clip-path="url(#clip0_1527_2397)">
<path d="M53.8608 3.79494L53.8633 3.79642L83.0795 20.4946C83.0796 20.4947 83.0798 20.4948 83.0799 20.4949C87.7112 23.1436 90.5403 28.019 90.5403 33.285V66.6985C90.5403 71.961 87.6973 76.8385 83.0792 79.4889C83.0786 79.4893 83.078 79.4897 83.0773 79.49L53.8627 96.204L53.8608 96.2051C49.2446 98.8535 43.534 98.8535 38.9178 96.2051L38.9159 96.204L9.70124 79.49C9.70075 79.4898 9.70025 79.4895 9.69976 79.4892C5.08143 76.8388 2.23829 71.9612 2.23829 66.6985V33.285C2.23829 28.0222 5.08145 23.1446 9.6998 20.4942C9.70028 20.4939 9.70076 20.4937 9.70124 20.4934L38.9152 3.79642L38.9178 3.79494C43.534 1.1465 49.2446 1.1465 53.8608 3.79494Z" fill="#CE4F12" stroke="black" stroke-width="3.61721"/>
<circle cx="34.9201" cy="29.9682" r="6.45621" fill="#631007"/>
<circle cx="34.9201" cy="49.7673" r="6.45621" fill="#631007"/>
<circle cx="34.9201" cy="69.5666" r="6.45621" fill="#631007"/>
<circle cx="58.2726" cy="29.9682" r="6.45621" fill="#631007"/>
<circle cx="58.2726" cy="49.7673" r="6.45621" fill="#631007"/>
<circle cx="58.2726" cy="69.5666" r="6.45621" fill="#631007"/>
</g>
<defs>
<clipPath id="clip0_1527_2397">
<rect width="91.9192" height="100" fill="white" transform="translate(0.429688)"/>
</clipPath>
</defs>
</svg>
