<svg width="118" height="27" viewBox="0 0 118 27" fill="none" xmlns="http://www.w3.org/2000/svg">
<g filter="url(#filter0_d_1748_9656)">
<mask id="path-1-outside-1_1748_9656" maskUnits="userSpaceOnUse" x="-0.129883" y="-0.280029" width="116" height="26" fill="black">
<rect fill="white" x="-0.129883" y="-0.280029" width="116" height="26"/>
<path d="M8.31413 17.6221L13.329 15.9592L13.381 21.052H3.74096C3.44647 17.83 3.13467 14.6253 2.80554 11.438C2.49373 8.2506 2.18192 5.04591 1.87012 1.82391C3.34254 1.82391 4.79764 1.82391 6.23542 1.82391C7.69052 1.80658 9.16294 1.79792 10.6527 1.79792L8.31413 17.6221Z"/>
<path d="M21.0609 16.8686L21.7105 16.8946L26.6474 5.14985L30.8568 5.43567L29.5576 21.104L25.5041 20.8441L25.7899 17.6481L24.3868 20.9741L16.9294 20.8961C16.5137 18.367 16.0893 15.8552 15.6562 13.3608C15.2405 10.849 14.8247 8.31989 14.409 5.77346C15.7255 5.68685 17.0334 5.6089 18.3326 5.53961C19.6491 5.45299 20.9656 5.36638 22.2821 5.27977L21.0609 16.8686Z"/>
<path d="M37.7344 11.5159L36.0195 13.0749L36.0455 15.5694L38.1761 16.6607L42.1257 15.0757L43.6328 18.7654L37.9683 21.052L32.0699 17.9339L31.94 11.5939L34.7982 6.39708L38.6439 5.30575C39.5273 5.4963 40.3934 5.69551 41.2423 5.90338C42.1084 6.09393 42.9832 6.29314 43.8666 6.50101C43.3816 7.69627 42.9052 8.89153 42.4375 10.0868C41.9698 11.2647 41.4848 12.46 40.9824 13.6726L37.7344 11.5159Z"/>
<path d="M52.4691 13.2308L58.8612 18.0898L56.4187 21.3378L51.066 17.2584L50.6503 21.078C50.044 21.1126 49.429 21.13 48.8054 21.13C48.1991 21.1473 47.5842 21.1646 46.9605 21.1819C46.5968 17.9599 46.233 14.7552 45.8692 11.5679C45.5228 8.36319 45.1676 5.14985 44.8039 1.92784C46.1377 1.8932 47.4542 1.85855 48.7534 1.82391C50.0699 1.78926 51.3778 1.75462 52.677 1.71997L51.9495 8.42382L56.6006 4.76009L59.147 7.93013L52.4691 13.2308Z"/>
<path d="M74.5823 5.12387C74.4264 6.21519 74.2705 7.51438 74.1145 9.02145C73.9586 10.5285 73.8027 12.0789 73.6468 13.6726C73.4909 15.2489 73.3264 16.7993 73.1531 18.3237C72.9972 19.8308 72.8413 21.13 72.6854 22.2213L70.5547 24.1961L63.1753 23.4945C63.158 22.9055 63.1407 22.3252 63.1234 21.7536C63.106 21.1819 63.0974 20.6103 63.0974 20.0386L67.6186 20.0127L67.5146 17.9859L62.006 17.882L59.7974 5.04591L64.0848 4.99394L65.228 13.8545L67.2548 13.9064L66.7871 4.81206L74.5823 5.12387Z"/>
<path d="M84.4545 6.44905L90.119 8.96948L89.6773 18.0898L85.6238 20.7662L80.7128 19.9347L80.5829 20.8182C79.9766 20.8182 79.3617 20.8182 78.7381 20.8182C78.1145 20.8182 77.4995 20.8268 76.8932 20.8441C76.5987 17.6741 76.3042 14.5214 76.0098 11.386C75.7326 8.2506 75.4468 5.09788 75.1523 1.92784H83.0254L82.3238 7.3325L84.4545 6.44905ZM84.9742 10.7884L81.7262 11.9317L81.2325 15.8812L84.9222 16.4009L85.7797 15.8552L84.9742 10.7884Z"/>
<path d="M101.429 14.9458L102.962 18.6875L97.2713 21.052L91.3989 17.882L91.269 11.386L94.1792 6.05929L99.8177 5.30575L102.338 6.94274L101.559 13.6206C100.71 13.7419 99.8957 13.8631 99.1162 13.9844C98.4406 14.0883 97.7477 14.1923 97.0374 14.2962C96.3272 14.4001 95.7469 14.4781 95.2965 14.53L95.3745 15.4395L97.4792 16.5568L101.429 14.9458ZM95.1666 12.5293L99.0122 11.7498L97.0634 10.0868L95.1666 12.5293Z"/>
<path d="M112.172 8.60571L114.432 8.44981L114.328 12.4773L111.756 12.4253L111.002 18.7135L113.965 19.1292C113.947 19.7528 113.93 20.3764 113.913 21C113.895 21.6237 113.869 22.2386 113.835 22.8449C112.986 22.8795 112.146 22.9055 111.314 22.9228C110.483 22.9575 109.643 22.9921 108.794 23.0268L106.195 20.2725C106.161 19.5103 106.109 18.6961 106.039 17.83C105.987 17.0851 105.927 16.2363 105.858 15.2836C105.806 14.3135 105.754 13.3088 105.702 12.2694L103.779 12.2175L103.857 9.12539L105.52 9.04744L105.078 1.87587C106.395 1.91052 107.711 1.9365 109.028 1.95383C110.344 1.97115 111.652 1.97981 112.951 1.97981L112.172 8.60571Z"/>
</mask>
<path d="M8.31413 17.6221L13.329 15.9592L13.381 21.052H3.74096C3.44647 17.83 3.13467 14.6253 2.80554 11.438C2.49373 8.2506 2.18192 5.04591 1.87012 1.82391C3.34254 1.82391 4.79764 1.82391 6.23542 1.82391C7.69052 1.80658 9.16294 1.79792 10.6527 1.79792L8.31413 17.6221Z" fill="url(#paint0_linear_1748_9656)"/>
<path d="M21.0609 16.8686L21.7105 16.8946L26.6474 5.14985L30.8568 5.43567L29.5576 21.104L25.5041 20.8441L25.7899 17.6481L24.3868 20.9741L16.9294 20.8961C16.5137 18.367 16.0893 15.8552 15.6562 13.3608C15.2405 10.849 14.8247 8.31989 14.409 5.77346C15.7255 5.68685 17.0334 5.6089 18.3326 5.53961C19.6491 5.45299 20.9656 5.36638 22.2821 5.27977L21.0609 16.8686Z" fill="url(#paint1_linear_1748_9656)"/>
<path d="M37.7344 11.5159L36.0195 13.0749L36.0455 15.5694L38.1761 16.6607L42.1257 15.0757L43.6328 18.7654L37.9683 21.052L32.0699 17.9339L31.94 11.5939L34.7982 6.39708L38.6439 5.30575C39.5273 5.4963 40.3934 5.69551 41.2423 5.90338C42.1084 6.09393 42.9832 6.29314 43.8666 6.50101C43.3816 7.69627 42.9052 8.89153 42.4375 10.0868C41.9698 11.2647 41.4848 12.46 40.9824 13.6726L37.7344 11.5159Z" fill="url(#paint2_linear_1748_9656)"/>
<path d="M52.4691 13.2308L58.8612 18.0898L56.4187 21.3378L51.066 17.2584L50.6503 21.078C50.044 21.1126 49.429 21.13 48.8054 21.13C48.1991 21.1473 47.5842 21.1646 46.9605 21.1819C46.5968 17.9599 46.233 14.7552 45.8692 11.5679C45.5228 8.36319 45.1676 5.14985 44.8039 1.92784C46.1377 1.8932 47.4542 1.85855 48.7534 1.82391C50.0699 1.78926 51.3778 1.75462 52.677 1.71997L51.9495 8.42382L56.6006 4.76009L59.147 7.93013L52.4691 13.2308Z" fill="url(#paint3_linear_1748_9656)"/>
<path d="M74.5823 5.12387C74.4264 6.21519 74.2705 7.51438 74.1145 9.02145C73.9586 10.5285 73.8027 12.0789 73.6468 13.6726C73.4909 15.2489 73.3264 16.7993 73.1531 18.3237C72.9972 19.8308 72.8413 21.13 72.6854 22.2213L70.5547 24.1961L63.1753 23.4945C63.158 22.9055 63.1407 22.3252 63.1234 21.7536C63.106 21.1819 63.0974 20.6103 63.0974 20.0386L67.6186 20.0127L67.5146 17.9859L62.006 17.882L59.7974 5.04591L64.0848 4.99394L65.228 13.8545L67.2548 13.9064L66.7871 4.81206L74.5823 5.12387Z" fill="url(#paint4_linear_1748_9656)"/>
<path d="M84.4545 6.44905L90.119 8.96948L89.6773 18.0898L85.6238 20.7662L80.7128 19.9347L80.5829 20.8182C79.9766 20.8182 79.3617 20.8182 78.7381 20.8182C78.1145 20.8182 77.4995 20.8268 76.8932 20.8441C76.5987 17.6741 76.3042 14.5214 76.0098 11.386C75.7326 8.2506 75.4468 5.09788 75.1523 1.92784H83.0254L82.3238 7.3325L84.4545 6.44905ZM84.9742 10.7884L81.7262 11.9317L81.2325 15.8812L84.9222 16.4009L85.7797 15.8552L84.9742 10.7884Z" fill="url(#paint5_linear_1748_9656)"/>
<path d="M101.429 14.9458L102.962 18.6875L97.2713 21.052L91.3989 17.882L91.269 11.386L94.1792 6.05929L99.8177 5.30575L102.338 6.94274L101.559 13.6206C100.71 13.7419 99.8957 13.8631 99.1162 13.9844C98.4406 14.0883 97.7477 14.1923 97.0374 14.2962C96.3272 14.4001 95.7469 14.4781 95.2965 14.53L95.3745 15.4395L97.4792 16.5568L101.429 14.9458ZM95.1666 12.5293L99.0122 11.7498L97.0634 10.0868L95.1666 12.5293Z" fill="url(#paint6_linear_1748_9656)"/>
<path d="M112.172 8.60571L114.432 8.44981L114.328 12.4773L111.756 12.4253L111.002 18.7135L113.965 19.1292C113.947 19.7528 113.93 20.3764 113.913 21C113.895 21.6237 113.869 22.2386 113.835 22.8449C112.986 22.8795 112.146 22.9055 111.314 22.9228C110.483 22.9575 109.643 22.9921 108.794 23.0268L106.195 20.2725C106.161 19.5103 106.109 18.6961 106.039 17.83C105.987 17.0851 105.927 16.2363 105.858 15.2836C105.806 14.3135 105.754 13.3088 105.702 12.2694L103.779 12.2175L103.857 9.12539L105.52 9.04744L105.078 1.87587C106.395 1.91052 107.711 1.9365 109.028 1.95383C110.344 1.97115 111.652 1.97981 112.951 1.97981L112.172 8.60571Z" fill="url(#paint7_linear_1748_9656)"/>
<path d="M8.31413 17.6221L13.329 15.9592L13.381 21.052H3.74096C3.44647 17.83 3.13467 14.6253 2.80554 11.438C2.49373 8.2506 2.18192 5.04591 1.87012 1.82391C3.34254 1.82391 4.79764 1.82391 6.23542 1.82391C7.69052 1.80658 9.16294 1.79792 10.6527 1.79792L8.31413 17.6221Z" stroke="black" stroke-width="2" mask="url(#path-1-outside-1_1748_9656)"/>
<path d="M21.0609 16.8686L21.7105 16.8946L26.6474 5.14985L30.8568 5.43567L29.5576 21.104L25.5041 20.8441L25.7899 17.6481L24.3868 20.9741L16.9294 20.8961C16.5137 18.367 16.0893 15.8552 15.6562 13.3608C15.2405 10.849 14.8247 8.31989 14.409 5.77346C15.7255 5.68685 17.0334 5.6089 18.3326 5.53961C19.6491 5.45299 20.9656 5.36638 22.2821 5.27977L21.0609 16.8686Z" stroke="black" stroke-width="2" mask="url(#path-1-outside-1_1748_9656)"/>
<path d="M37.7344 11.5159L36.0195 13.0749L36.0455 15.5694L38.1761 16.6607L42.1257 15.0757L43.6328 18.7654L37.9683 21.052L32.0699 17.9339L31.94 11.5939L34.7982 6.39708L38.6439 5.30575C39.5273 5.4963 40.3934 5.69551 41.2423 5.90338C42.1084 6.09393 42.9832 6.29314 43.8666 6.50101C43.3816 7.69627 42.9052 8.89153 42.4375 10.0868C41.9698 11.2647 41.4848 12.46 40.9824 13.6726L37.7344 11.5159Z" stroke="black" stroke-width="2" mask="url(#path-1-outside-1_1748_9656)"/>
<path d="M52.4691 13.2308L58.8612 18.0898L56.4187 21.3378L51.066 17.2584L50.6503 21.078C50.044 21.1126 49.429 21.13 48.8054 21.13C48.1991 21.1473 47.5842 21.1646 46.9605 21.1819C46.5968 17.9599 46.233 14.7552 45.8692 11.5679C45.5228 8.36319 45.1676 5.14985 44.8039 1.92784C46.1377 1.8932 47.4542 1.85855 48.7534 1.82391C50.0699 1.78926 51.3778 1.75462 52.677 1.71997L51.9495 8.42382L56.6006 4.76009L59.147 7.93013L52.4691 13.2308Z" stroke="black" stroke-width="2" mask="url(#path-1-outside-1_1748_9656)"/>
<path d="M74.5823 5.12387C74.4264 6.21519 74.2705 7.51438 74.1145 9.02145C73.9586 10.5285 73.8027 12.0789 73.6468 13.6726C73.4909 15.2489 73.3264 16.7993 73.1531 18.3237C72.9972 19.8308 72.8413 21.13 72.6854 22.2213L70.5547 24.1961L63.1753 23.4945C63.158 22.9055 63.1407 22.3252 63.1234 21.7536C63.106 21.1819 63.0974 20.6103 63.0974 20.0386L67.6186 20.0127L67.5146 17.9859L62.006 17.882L59.7974 5.04591L64.0848 4.99394L65.228 13.8545L67.2548 13.9064L66.7871 4.81206L74.5823 5.12387Z" stroke="black" stroke-width="2" mask="url(#path-1-outside-1_1748_9656)"/>
<path d="M84.4545 6.44905L90.119 8.96948L89.6773 18.0898L85.6238 20.7662L80.7128 19.9347L80.5829 20.8182C79.9766 20.8182 79.3617 20.8182 78.7381 20.8182C78.1145 20.8182 77.4995 20.8268 76.8932 20.8441C76.5987 17.6741 76.3042 14.5214 76.0098 11.386C75.7326 8.2506 75.4468 5.09788 75.1523 1.92784H83.0254L82.3238 7.3325L84.4545 6.44905ZM84.9742 10.7884L81.7262 11.9317L81.2325 15.8812L84.9222 16.4009L85.7797 15.8552L84.9742 10.7884Z" stroke="black" stroke-width="2" mask="url(#path-1-outside-1_1748_9656)"/>
<path d="M101.429 14.9458L102.962 18.6875L97.2713 21.052L91.3989 17.882L91.269 11.386L94.1792 6.05929L99.8177 5.30575L102.338 6.94274L101.559 13.6206C100.71 13.7419 99.8957 13.8631 99.1162 13.9844C98.4406 14.0883 97.7477 14.1923 97.0374 14.2962C96.3272 14.4001 95.7469 14.4781 95.2965 14.53L95.3745 15.4395L97.4792 16.5568L101.429 14.9458ZM95.1666 12.5293L99.0122 11.7498L97.0634 10.0868L95.1666 12.5293Z" stroke="black" stroke-width="2" mask="url(#path-1-outside-1_1748_9656)"/>
<path d="M112.172 8.60571L114.432 8.44981L114.328 12.4773L111.756 12.4253L111.002 18.7135L113.965 19.1292C113.947 19.7528 113.93 20.3764 113.913 21C113.895 21.6237 113.869 22.2386 113.835 22.8449C112.986 22.8795 112.146 22.9055 111.314 22.9228C110.483 22.9575 109.643 22.9921 108.794 23.0268L106.195 20.2725C106.161 19.5103 106.109 18.6961 106.039 17.83C105.987 17.0851 105.927 16.2363 105.858 15.2836C105.806 14.3135 105.754 13.3088 105.702 12.2694L103.779 12.2175L103.857 9.12539L105.52 9.04744L105.078 1.87587C106.395 1.91052 107.711 1.9365 109.028 1.95383C110.344 1.97115 111.652 1.97981 112.951 1.97981L112.172 8.60571Z" stroke="black" stroke-width="2" mask="url(#path-1-outside-1_1748_9656)"/>
</g>
<defs>
<filter id="filter0_d_1748_9656" x="0.768555" y="0.689697" width="116.327" height="26.1796" filterUnits="userSpaceOnUse" color-interpolation-filters="sRGB">
<feFlood flood-opacity="0" result="BackgroundImageFix"/>
<feColorMatrix in="SourceAlpha" type="matrix" values="0 0 0 0 0 0 0 0 0 0 0 0 0 0 0 0 0 0 127 0" result="hardAlpha"/>
<feOffset dx="1.30832" dy="1.30832"/>
<feGaussianBlur stdDeviation="0.16354"/>
<feComposite in2="hardAlpha" operator="out"/>
<feColorMatrix type="matrix" values="0 0 0 0 0 0 0 0 0 0 0 0 0 0 0 0 0 0 0.25 0"/>
<feBlend mode="normal" in2="BackgroundImageFix" result="effect1_dropShadow_1748_9656"/>
<feBlend mode="normal" in="SourceGraphic" in2="effect1_dropShadow_1748_9656" result="shape"/>
</filter>
<linearGradient id="paint0_linear_1748_9656" x1="41.0068" y1="0.63968" x2="58.9537" y2="41.8048" gradientUnits="userSpaceOnUse">
<stop stop-color="#CA4D13"/>
<stop offset="0.554215" stop-color="#FFA022"/>
<stop offset="1" stop-color="#CA4D13"/>
</linearGradient>
<linearGradient id="paint1_linear_1748_9656" x1="41.0068" y1="0.63968" x2="58.9537" y2="41.8048" gradientUnits="userSpaceOnUse">
<stop stop-color="#CA4D13"/>
<stop offset="0.554215" stop-color="#FFA022"/>
<stop offset="1" stop-color="#CA4D13"/>
</linearGradient>
<linearGradient id="paint2_linear_1748_9656" x1="41.0068" y1="0.63968" x2="58.9537" y2="41.8048" gradientUnits="userSpaceOnUse">
<stop stop-color="#CA4D13"/>
<stop offset="0.554215" stop-color="#FFA022"/>
<stop offset="1" stop-color="#CA4D13"/>
</linearGradient>
<linearGradient id="paint3_linear_1748_9656" x1="41.0068" y1="0.63968" x2="58.9537" y2="41.8048" gradientUnits="userSpaceOnUse">
<stop stop-color="#CA4D13"/>
<stop offset="0.554215" stop-color="#FFA022"/>
<stop offset="1" stop-color="#CA4D13"/>
</linearGradient>
<linearGradient id="paint4_linear_1748_9656" x1="41.0068" y1="0.63968" x2="58.9537" y2="41.8048" gradientUnits="userSpaceOnUse">
<stop stop-color="#CA4D13"/>
<stop offset="0.554215" stop-color="#FFA022"/>
<stop offset="1" stop-color="#CA4D13"/>
</linearGradient>
<linearGradient id="paint5_linear_1748_9656" x1="41.0068" y1="0.63968" x2="58.9537" y2="41.8048" gradientUnits="userSpaceOnUse">
<stop stop-color="#CA4D13"/>
<stop offset="0.554215" stop-color="#FFA022"/>
<stop offset="1" stop-color="#CA4D13"/>
</linearGradient>
<linearGradient id="paint6_linear_1748_9656" x1="41.0068" y1="0.63968" x2="58.9537" y2="41.8048" gradientUnits="userSpaceOnUse">
<stop stop-color="#CA4D13"/>
<stop offset="0.554215" stop-color="#FFA022"/>
<stop offset="1" stop-color="#CA4D13"/>
</linearGradient>
<linearGradient id="paint7_linear_1748_9656" x1="41.0068" y1="0.63968" x2="58.9537" y2="41.8048" gradientUnits="userSpaceOnUse">
<stop stop-color="#CA4D13"/>
<stop offset="0.554215" stop-color="#FFA022"/>
<stop offset="1" stop-color="#CA4D13"/>
</linearGradient>
</defs>
</svg>
