<svg width="86" height="117" viewBox="0 0 86 117" fill="none" xmlns="http://www.w3.org/2000/svg">
<path d="M78.1676 17.7892L50.8324 2.09261C45.992 -0.697538 40.008 -0.697538 35.1676 2.09261L7.83242 17.7892C2.99199 20.5793 0 25.7232 0 31.2879V62.6965C0 68.2613 2.99199 73.4051 7.83242 76.1953L35.1676 91.9074C40.008 94.6975 45.992 94.6975 50.8324 91.9074L78.1676 76.1953C83.008 73.4051 86 68.2613 86 62.6965V31.2879C86 25.7232 83.0237 20.5793 78.1676 17.7892ZM64.6958 50.1175L56.5658 64.1306C55.4536 66.0634 53.3858 67.2481 51.1457 67.2481H34.8699C32.6299 67.2481 30.5621 66.0634 29.4499 64.1306L21.3042 50.1175C20.192 48.1846 20.192 45.8154 21.3042 43.8825L29.4342 29.8694C30.5464 27.9366 32.6142 26.7519 34.8543 26.7519H51.1144C53.3545 26.7519 55.4222 27.9366 56.5344 29.8694L64.6645 43.8825C65.808 45.8154 65.808 48.1846 64.6958 50.1175Z" fill="#8D2817"/>
<path d="M38.0903 110.06L42.9637 116.625H46.6762L40.7749 108.802C40.4605 108.367 40.3154 108.053 40.3154 107.726C40.3154 107.4 40.521 107.11 40.9079 106.674L46.5674 100.302H42.8307L38.0177 105.731C37.2801 106.578 36.9415 107.17 36.9415 107.738C36.9415 108.488 37.3526 109.08 38.0903 110.06ZM63.8481 108.512C63.8481 103.76 67.1737 100 72.1196 100C77.0656 100 80.5 103.555 80.5 108.512C80.5 113.469 76.981 116.952 72.1438 116.952C66.956 116.952 63.8481 113.349 63.8481 108.512ZM77.2833 108.488C77.2833 105.163 75.2396 102.696 72.1317 102.696C69.0239 102.696 67.0527 105.115 67.0527 108.488C67.0527 111.861 69.1569 114.304 72.1317 114.304C75.2759 114.304 77.2833 111.801 77.2833 108.488ZM54.851 116.637H49.0585V113.941H55.4194C57.2454 113.941 58.1886 113.457 58.1886 112.188C58.1886 111.051 57.451 110.688 55.4678 110.132L53.5692 109.612C50.026 108.633 48.8288 107.496 48.8288 104.8C48.8288 102.104 50.425 100.326 54.2947 100.326H60.0872V103.059H54.2464C52.6259 103.059 51.8157 103.422 51.8157 104.583C51.8157 105.683 52.5534 106.203 54.4278 106.686L56.3989 107.182C59.7003 108.028 61.2481 109.213 61.2481 111.861C61.2602 114.932 59.5672 116.637 54.851 116.637ZM26.2997 117C22.1156 117 19.5882 114.763 19.5882 110.386V100.339H22.6598V110.193C22.6598 112.563 23.4216 114.304 26.2997 114.304C29.1778 114.304 29.9397 112.683 29.9397 110.169V100.314H33.0113V110.35C33.0113 114.691 30.496 117 26.2997 117ZM8.59578 100.339H5.5V113.53C5.5 115.718 6.41906 116.637 8.26927 116.637H16.952V113.965H9.75669C8.86182 113.965 8.59578 113.687 8.59578 112.829V100.339Z" fill="#631007"/>
</svg>
