<svg width="113" height="14" viewBox="0 0 113 14" fill="none" xmlns="http://www.w3.org/2000/svg">
<path d="M4.95213 7.808L5.99213 5.152L8.79213 5.52L9.36812 8.976L10.4721 2.384L12.9361 2.8L11.4161 11.856L7.38413 11.936L6.95213 9.584L6.08813 11.904L2.63213 11.936C2.22679 10.4107 1.82679 8.90667 1.43213 7.424C1.04813 5.93067 0.658792 4.42133 0.264125 2.896C1.06413 2.75733 1.86413 2.624 2.66413 2.496C3.46413 2.368 4.26946 2.23467 5.08013 2.096L4.95213 7.808ZM18.4563 4.528L17.9283 9.712L19.0963 9.664L19.8163 4.608L18.4563 4.528ZM15.3203 12.064C15.0429 10.5173 14.7656 8.98667 14.4883 7.472C14.2109 5.95733 13.9336 4.432 13.6562 2.896L16.1523 2.08L22.6323 2.448L21.2883 11.872L15.3203 12.064ZM28.0485 2.592L28.8165 1.776L32.7525 2.784L31.5525 7.936L29.1365 7.376L30.1765 3.904L27.6005 6.048L26.8805 11.984C26.4965 11.9947 26.1125 12.0053 25.7285 12.016C25.3445 12.0267 24.9658 12.0427 24.5925 12.064C24.3792 10.3253 24.1605 8.60267 23.9365 6.896C23.7232 5.18933 23.5098 3.472 23.2965 1.744C24.1072 1.72267 24.9125 1.70133 25.7125 1.68C26.5232 1.65867 27.3392 1.63733 28.1605 1.616L28.0485 2.592ZM33.3277 0.256C34.1278 0.234666 34.9278 0.213332 35.7278 0.191999C36.5278 0.170666 37.3384 0.149333 38.1598 0.127999C37.9464 2.144 37.7384 4.16 37.5358 6.176C37.3331 8.18133 37.1251 10.192 36.9118 12.208L33.9518 11.536L33.3277 0.256ZM43.7111 0.143999C44.5325 0.165333 45.3431 0.191999 46.1431 0.223999C46.9538 0.245333 47.7645 0.266666 48.5751 0.287999C48.2551 2.24 47.9351 4.18667 47.6151 6.128C47.3058 8.06933 46.9911 10.0267 46.6711 12C46.2871 11.9787 45.9031 11.9627 45.5191 11.952C45.1351 11.9413 44.7565 11.9253 44.3831 11.904L44.3991 10.112L42.7351 12.032L39.0071 10.944L38.6711 4.208L42.3031 2.336L43.8871 2.944L43.7111 0.143999ZM44.1431 7.696L44.0311 5.648L42.4311 4.992L41.4071 5.712L42.3031 9.152L44.1431 7.696ZM54.9905 3.648C55.8012 3.648 56.6065 3.65333 57.4065 3.664C58.2172 3.664 59.0332 3.664 59.8545 3.664C59.6518 5.008 59.4545 6.352 59.2625 7.696C59.0705 9.02933 58.8785 10.3627 58.6865 11.696L57.3745 12.944L54.0465 12.624C54.0358 12.2507 54.0305 11.8933 54.0305 11.552C54.0198 11.2107 54.0038 10.864 53.9825 10.512L55.5665 10.352L54.9905 3.648ZM55.8865 2.96L55.6305 0.575999H59.3425L59.1185 2.96H55.8865ZM66.9476 2.336L68.5156 3.584L67.3956 11.856L65.1076 11.824V11.696L62.8676 12.016L60.8196 10.8L60.5316 7.952L62.5796 5.808L64.4516 5.92L64.3556 5.008L61.5396 5.2L61.4436 2.16L66.9476 2.336ZM64.8036 9.216L64.7236 8.432L63.5716 8.352L63.1076 8.832L63.1876 9.456L64.8036 9.216ZM72.629 6.16L71.573 7.12L71.589 8.656L72.901 9.328L75.333 8.352L76.261 10.624L72.773 12.032L69.141 10.112L69.061 6.208L70.821 3.008L73.189 2.336C73.733 2.45333 74.2663 2.576 74.789 2.704C75.3223 2.82133 75.861 2.944 76.405 3.072C76.1063 3.808 75.813 4.544 75.525 5.28C75.237 6.00533 74.9383 6.74133 74.629 7.488L72.629 6.16ZM81.7021 7.216L85.6381 10.208L84.1341 12.208L80.8381 9.696L80.5821 12.048C80.2088 12.0693 79.8301 12.08 79.4461 12.08C79.0728 12.0907 78.6941 12.1013 78.3101 12.112C78.0861 10.128 77.8621 8.15467 77.6381 6.192C77.4248 4.21867 77.2061 2.24 76.9821 0.256C77.8035 0.234666 78.6141 0.213332 79.4141 0.191999C80.2248 0.170666 81.0301 0.149333 81.8301 0.127999L81.3821 4.256L84.2461 2L85.8141 3.952L81.7021 7.216ZM90.8226 4.288L90.3426 7.808L91.4946 8.128L93.1106 6.672L92.2146 3.984L90.8226 4.288ZM89.9906 10.32L89.4786 13.888L87.2066 13.856C87.0573 11.7973 86.9133 9.75467 86.7746 7.728C86.636 5.70133 86.492 3.664 86.3426 1.616C87.132 1.63733 87.916 1.65333 88.6946 1.664C89.4733 1.664 90.2626 1.66933 91.0626 1.68L93.8626 1.088L95.9906 7.44L92.1506 10.912L89.9906 10.32ZM101.488 4.528L100.96 9.712L102.128 9.664L102.848 4.608L101.488 4.528ZM98.3515 12.064C98.0742 10.5173 97.7968 8.98667 97.5195 7.472C97.2422 5.95733 96.9648 4.432 96.6875 2.896L99.1835 2.08L105.664 2.448L104.32 11.872L98.3515 12.064ZM111.512 4.368L112.904 4.272L112.84 6.752L111.256 6.72L110.792 10.592L112.616 10.848C112.605 11.232 112.594 11.616 112.584 12C112.573 12.384 112.557 12.7627 112.536 13.136C112.013 13.1573 111.496 13.1733 110.984 13.184C110.472 13.2053 109.954 13.2267 109.432 13.248L107.832 11.552C107.81 11.0827 107.778 10.5813 107.736 10.048C107.704 9.58933 107.666 9.06667 107.624 8.48C107.592 7.88267 107.56 7.264 107.528 6.624L106.344 6.592L106.392 4.688L107.416 4.64L107.144 0.223999C107.954 0.245333 108.765 0.261333 109.576 0.271999C110.386 0.282666 111.192 0.287999 111.992 0.287999L111.512 4.368Z" fill="#F3BAA2"/>
</svg>
