<svg width="360" height="800" viewBox="0 0 360 800" fill="none" xmlns="http://www.w3.org/2000/svg">
<path d="M222.951 397.777C222.951 399.148 222.886 400.504 222.761 401.842C222.51 404.508 222.015 407.103 221.299 409.605C220.678 411.775 219.89 413.874 218.951 415.888C217.394 419.224 215.422 422.327 213.099 425.129C210.891 427.792 208.368 430.184 205.586 432.247C203.093 434.095 200.393 435.679 197.527 436.957C193.703 438.663 189.583 439.825 185.266 440.344C183.57 440.548 181.844 440.653 180.093 440.653C178.342 440.653 176.616 440.548 174.921 440.344C170.603 439.825 166.483 438.663 162.659 436.957C159.216 435.422 156.014 433.445 153.122 431.1C150.919 429.313 148.897 427.312 147.087 425.129C144.092 421.515 141.678 417.401 139.989 412.931C138.921 410.105 138.144 407.135 137.692 404.06C137.391 402.009 137.235 399.911 137.235 397.777C137.235 396.405 137.3 395.049 137.425 393.711C137.676 391.045 138.171 388.45 138.887 385.948C139.939 382.273 141.469 378.799 143.406 375.599C145.147 372.723 147.216 370.069 149.561 367.687C152.257 364.949 155.317 362.573 158.664 360.636C161.108 359.222 163.705 358.042 166.423 357.127C169.144 356.212 171.987 355.562 174.921 355.209C176.616 355.005 178.342 354.9 180.093 354.9C181.844 354.9 183.57 355.005 185.266 355.209C188.2 355.562 191.042 356.212 193.763 357.127C196.481 358.042 199.078 359.222 201.522 360.636C204.178 362.173 206.655 363.988 208.911 366.04C210.986 367.927 212.875 370.014 214.548 372.272C216.251 374.571 217.729 377.046 218.951 379.665C219.89 381.679 220.678 383.779 221.299 385.948C222.015 388.45 222.51 391.045 222.761 393.711C222.886 395.049 222.951 396.405 222.951 397.777Z" fill="#9A311B" fill-opacity="0.29"/>
<path d="M304.233 -82L193.763 357.127C196.481 358.042 199.078 359.222 201.522 360.636L436.87 -82H304.233Z" fill="#9A311B" fill-opacity="0.29"/>
<path d="M180.093 354.9C181.844 354.9 183.57 355.005 185.266 355.209V-82H68.515L174.921 355.209C176.616 355.005 178.342 354.9 180.093 354.9Z" fill="#9A311B" fill-opacity="0.29"/>
<path d="M-114 48.8481L158.664 360.636C161.108 359.222 163.705 358.042 166.423 357.127L-64.1224 -82H-114V48.8481Z" fill="#9A311B" fill-opacity="0.29"/>
<path d="M-114 265.45L143.406 375.599C145.147 372.723 147.216 370.069 149.561 367.687L-114 178.957V265.45Z" fill="#9A311B" fill-opacity="0.29"/>
<path d="M-114 401.842L137.425 393.711C137.676 391.045 138.171 388.45 138.887 385.948L-114 337.897V401.842Z" fill="#9A311B" fill-opacity="0.29"/>
<path d="M-114 534.169L139.989 412.931C138.921 410.105 138.144 407.135 137.692 404.06L-114 460.613V534.169Z" fill="#9A311B" fill-opacity="0.29"/>
<path d="M-114 754.467L153.122 431.1C150.919 429.313 148.897 427.312 147.087 425.129L-114 621.401V754.467Z" fill="#9A311B" fill-opacity="0.29"/>
<path d="M84.4019 821L174.921 440.344C170.603 439.825 166.483 438.663 162.659 436.957L-30.5012 821H84.4019Z" fill="#9A311B" fill-opacity="0.29"/>
<path d="M293.888 821L197.527 436.957C193.703 438.663 189.583 439.825 185.266 440.344V821H293.888Z" fill="#9A311B" fill-opacity="0.29"/>
<path d="M208.911 366.04C210.986 367.927 212.875 370.014 214.548 372.272L474.079 184.497V59.7898L208.911 366.04Z" fill="#9A311B" fill-opacity="0.29"/>
<path d="M218.951 379.665C219.89 381.679 220.678 383.779 221.299 385.948L474.079 334.926V268.85L218.951 379.665Z" fill="#9A311B" fill-opacity="0.29"/>
<path d="M222.761 393.711C222.886 395.049 222.951 396.405 222.951 397.777C222.951 399.148 222.886 400.504 222.761 401.842L474.079 455.807V395.509L222.761 393.711Z" fill="#9A311B" fill-opacity="0.29"/>
<path d="M221.299 409.605C220.678 411.775 219.89 413.874 218.951 415.888L474.079 608.175V524.61L221.299 409.605Z" fill="#9A311B" fill-opacity="0.29"/>
<path d="M213.099 425.129C210.891 427.792 208.368 430.184 205.586 432.247L407.683 821H474.079V728.2L213.099 425.129Z" fill="#9A311B" fill-opacity="0.29"/>
</svg>
