<svg width="292" height="130" viewBox="0 0 292 130" fill="none" xmlns="http://www.w3.org/2000/svg">
<mask id="mask0_288_10013" style="mask-type:luminance" maskUnits="userSpaceOnUse" x="1" y="0" width="290" height="129">
<path d="M101.977 128.069C83.5371 127.42 62.8011 126.109 46.2531 123.705C57.4211 121.581 68.5784 117.264 79.1411 111.093C95.2437 112.729 113.664 113.452 127.992 113.685C118.361 119.875 109.146 124.677 101.977 128.069ZM198.026 127.761C199.122 123.261 199.714 118.216 199.974 112.757C214.041 111.997 228.454 110.732 239.521 108.72C238.744 114.833 237.116 120.287 235.04 125.084C223.301 126.361 210.366 127.215 198.026 127.761ZM243.91 124C244.929 118.801 245.738 113.156 246.508 107.227C251.494 105.965 255.286 104.477 257.332 102.721C260.554 99.9548 263.316 93.8028 265.484 86.0588C268.082 86.4428 276.318 86.4868 281.44 88.4774C280.344 87.5774 278.992 86.9495 277.466 86.7228C282.362 87.4495 285.466 92.3081 284.052 97.0495C281.526 105.512 278.386 112.181 274.761 115.292C270.224 119.187 258.538 121.996 243.91 124ZM265.673 85.3735C270.905 66.1428 272.532 37.6495 268.586 26.4441C271.573 22.1815 275.026 18.2188 279.036 14.6455C269.105 10.3375 251.39 7.12012 230.553 4.87079C230.452 7.06412 230.428 9.54813 230.474 12.2775C221.866 11.1108 212.309 10.1801 202.381 9.46812C203.053 7.14545 203.816 4.86943 204.68 2.65076C197.068 2.1441 189.304 1.74279 181.578 1.44012C182.389 3.51746 183.105 5.82677 183.68 8.39344C172.378 7.89611 161.077 7.65878 150.582 7.65878C147.866 7.65878 145.093 7.67479 142.282 7.70679C142.394 5.40412 142.444 3.08413 142.426 0.745461C137.042 0.769463 131.508 0.842789 125.886 0.970787C125.63 3.46945 125.22 5.84679 124.662 8.11213C84.1344 9.5108 41.4117 14.2094 34.2464 23.2001C32.0051 26.0108 30.7984 32.4655 30.4757 40.5695C25.6371 39.3015 7.18759 33.0508 4.81933 21.2628C4.81679 21.2654 4.8136 21.2668 4.81107 21.2695C4.1324 22.6215 3.5568 24.3161 3.0808 26.2934C3.80107 23.3028 4.748 20.9588 5.93653 19.4668C16.4624 6.25878 90.6664 0.73745 146.126 0.73745C201.585 0.73745 275.788 6.25878 286.316 19.4668C291.724 26.2534 292.136 50.6615 288.98 73.3855C288.98 73.3855 288.978 73.3855 288.978 73.3841C281.301 83.3935 269.2 84.6481 265.673 85.3735ZM30.5064 50.9828C21.1997 50.8095 12.5001 50.1815 5.1324 49.4388C3.9964 48.4295 3.06 47.3015 2.39587 46.0495C3.78813 45.5095 5.21053 45.3695 6.78293 45.3695C7.63294 45.3695 8.52613 45.4108 9.4824 45.4521C10.4381 45.4921 11.4579 45.5335 12.5584 45.5335C16.8384 45.5335 22.3557 44.9174 30.2264 41.2841C30.3051 41.2694 30.3797 41.2548 30.4517 41.2401C30.3491 44.3001 30.3704 47.5815 30.5064 50.9828ZM1.2896 45.4614C1.2944 44.2894 2.2224 43.3348 3.39227 43.2815C10.3371 42.9681 21.5944 42.3228 21.6011 41.4481C21.5997 41.7721 20.0557 42.0641 17.7597 42.3201C14.9251 42.6361 10.9444 42.8961 7.30213 43.0894C5.92347 43.1628 4.59334 43.2268 3.39227 43.2815C3.85627 43.3535 4.48547 43.3975 5.24587 43.4161C3.67293 43.7361 2.5084 44.1814 1.86 44.8508C1.7876 44.6534 1.72146 44.4535 1.662 44.2495C1.42813 44.5961 1.2912 45.0134 1.2896 45.4614Z" fill="white"/>
</mask>
<g mask="url(#mask0_288_10013)">
<path d="M101.977 128.069C83.5371 127.42 62.8011 126.109 46.2531 123.705C57.4211 121.581 68.5784 117.264 79.1411 111.093C95.2437 112.729 113.664 113.452 127.992 113.685C118.361 119.875 109.146 124.677 101.977 128.069ZM198.026 127.761C199.122 123.261 199.714 118.216 199.974 112.757C214.041 111.997 228.454 110.732 239.521 108.72C238.744 114.833 237.116 120.287 235.04 125.084C223.301 126.361 210.366 127.215 198.026 127.761ZM243.91 124C244.929 118.801 245.738 113.156 246.508 107.227C251.494 105.965 255.286 104.477 257.332 102.721C260.554 99.9548 263.316 93.8028 265.484 86.0588C268.082 86.4428 276.318 86.4868 281.44 88.4774C280.344 87.5774 278.992 86.9495 277.466 86.7228C282.362 87.4495 285.466 92.3081 284.052 97.0495C281.526 105.512 278.386 112.181 274.761 115.292C270.224 119.187 258.538 121.996 243.91 124ZM265.673 85.3735C270.905 66.1428 272.532 37.6495 268.586 26.4441C271.573 22.1815 275.026 18.2188 279.036 14.6455C269.105 10.3375 251.39 7.12012 230.553 4.87079C230.452 7.06412 230.428 9.54813 230.474 12.2775C221.866 11.1108 212.309 10.1801 202.381 9.46812C203.053 7.14545 203.816 4.86943 204.68 2.65076C197.068 2.1441 189.304 1.74279 181.578 1.44012C182.389 3.51746 183.105 5.82677 183.68 8.39344C172.378 7.89611 161.077 7.65878 150.582 7.65878C147.866 7.65878 145.093 7.67479 142.282 7.70679C142.394 5.40412 142.444 3.08413 142.426 0.745461C137.042 0.769463 131.508 0.842789 125.886 0.970787C125.63 3.46945 125.22 5.84679 124.662 8.11213C84.1344 9.5108 41.4117 14.2094 34.2464 23.2001C32.0051 26.0108 30.7984 32.4655 30.4757 40.5695C25.6371 39.3015 7.18759 33.0508 4.81933 21.2628C4.81679 21.2654 4.8136 21.2668 4.81107 21.2695C4.1324 22.6215 3.5568 24.3161 3.0808 26.2934C3.80107 23.3028 4.748 20.9588 5.93653 19.4668C16.4624 6.25878 90.6664 0.73745 146.126 0.73745C201.585 0.73745 275.788 6.25878 286.316 19.4668C291.724 26.2534 292.136 50.6615 288.98 73.3855C288.98 73.3855 288.978 73.3855 288.978 73.3841C281.301 83.3935 269.2 84.6481 265.673 85.3735ZM30.5064 50.9828C21.1997 50.8095 12.5001 50.1815 5.1324 49.4388C3.9964 48.4295 3.06 47.3015 2.39587 46.0495C3.78813 45.5095 5.21053 45.3695 6.78293 45.3695C7.63294 45.3695 8.52613 45.4108 9.4824 45.4521C10.4381 45.4921 11.4579 45.5335 12.5584 45.5335C16.8384 45.5335 22.3557 44.9174 30.2264 41.2841C30.3051 41.2694 30.3797 41.2548 30.4517 41.2401C30.3491 44.3001 30.3704 47.5815 30.5064 50.9828ZM1.2896 45.4614C1.2944 44.2894 2.2224 43.3348 3.39227 43.2815C10.3371 42.9681 21.5944 42.3228 21.6011 41.4481C21.5997 41.7721 20.0557 42.0641 17.7597 42.3201C14.9251 42.6361 10.9444 42.8961 7.30213 43.0894C5.92347 43.1628 4.59334 43.2268 3.39227 43.2815C3.85627 43.3535 4.48547 43.3975 5.24587 43.4161C3.67293 43.7361 2.5084 44.1814 1.86 44.8508C1.7876 44.6534 1.72146 44.4535 1.662 44.2495C1.42813 44.5961 1.2912 45.0134 1.2896 45.4614Z" fill="url(#paint0_linear_288_10013)"/>
</g>
<mask id="mask1_288_10013" style="mask-type:luminance" maskUnits="userSpaceOnUse" x="30" y="7" width="241" height="107">
<path d="M127.991 113.685C113.663 113.452 95.2431 112.729 79.1405 111.093C112.62 91.5347 140.046 53.3948 142.282 7.70677C145.092 7.67477 147.866 7.65875 150.582 7.65875C161.076 7.65875 172.378 7.89609 183.679 8.39342C185.939 18.5134 185.964 32.6041 180.564 51.9521C172.95 79.2387 149.438 99.9014 127.991 113.685ZM199.974 112.757C201.376 83.2428 193.071 41.6921 202.38 9.46809C212.308 10.1801 221.866 11.1108 230.474 12.2774C230.792 30.8108 234.363 60.7748 239.08 89.5108C240.228 96.5054 240.259 102.911 239.52 108.72C228.454 110.732 214.04 111.997 199.974 112.757ZM246.507 107.227C249.9 81.0708 252.494 49.4108 268.586 26.4441C272.531 37.6494 270.904 66.1428 265.673 85.3734C265.156 85.4788 264.824 85.5734 264.716 85.6828C264.547 85.8508 264.846 85.9654 265.483 86.0588C263.315 93.8027 260.554 99.9548 257.331 102.721C255.286 104.477 251.494 105.965 246.507 107.227ZM35.5365 51.0308C33.8445 51.0308 32.1632 51.0134 30.5058 50.9828C30.3698 47.5814 30.3485 44.3001 30.4511 41.2401C31.4391 41.0374 31.8165 40.8694 31.3152 40.7694C31.1192 40.7308 30.8352 40.6641 30.4752 40.5694C30.7978 32.4654 32.0045 26.0108 34.2458 23.2001C41.4112 14.2094 84.1338 9.51077 124.662 8.11211C115.998 43.3161 72.2378 51.0321 35.5365 51.0308Z" fill="white"/>
</mask>
<g mask="url(#mask1_288_10013)">
<path d="M127.991 113.685C113.663 113.452 95.2431 112.729 79.1405 111.093C112.62 91.5347 140.046 53.3948 142.282 7.70677C145.092 7.67477 147.866 7.65875 150.582 7.65875C161.076 7.65875 172.378 7.89609 183.679 8.39342C185.939 18.5134 185.964 32.6041 180.564 51.9521C172.95 79.2387 149.438 99.9014 127.991 113.685ZM199.974 112.757C201.376 83.2428 193.071 41.6921 202.38 9.46809C212.308 10.1801 221.866 11.1108 230.474 12.2774C230.792 30.8108 234.363 60.7748 239.08 89.5108C240.228 96.5054 240.259 102.911 239.52 108.72C228.454 110.732 214.04 111.997 199.974 112.757ZM246.507 107.227C249.9 81.0708 252.494 49.4108 268.586 26.4441C272.531 37.6494 270.904 66.1428 265.673 85.3734C265.156 85.4788 264.824 85.5734 264.716 85.6828C264.547 85.8508 264.846 85.9654 265.483 86.0588C263.315 93.8027 260.554 99.9548 257.331 102.721C255.286 104.477 251.494 105.965 246.507 107.227ZM35.5365 51.0308C33.8445 51.0308 32.1632 51.0134 30.5058 50.9828C30.3698 47.5814 30.3485 44.3001 30.4511 41.2401C31.4391 41.0374 31.8165 40.8694 31.3152 40.7694C31.1192 40.7308 30.8352 40.6641 30.4752 40.5694C30.7978 32.4654 32.0045 26.0108 34.2458 23.2001C41.4112 14.2094 84.1338 9.51077 124.662 8.11211C115.998 43.3161 72.2378 51.0321 35.5365 51.0308Z" fill="url(#paint1_linear_288_10013)"/>
</g>
<mask id="mask2_288_10013" style="mask-type:luminance" maskUnits="userSpaceOnUse" x="1" y="0" width="290" height="129">
<path d="M275.744 86.0254C276.474 85.5881 278.662 85.1294 281.37 84.6294C284.971 83.9627 287.79 81.1014 288.367 77.4841C292.167 53.6761 292.051 26.6628 286.315 19.4668C275.787 6.25876 201.584 0.737427 146.126 0.737427C90.6656 0.737427 16.4616 6.25876 5.93574 19.4668C4.74721 20.9588 3.80028 23.3027 3.08001 26.2934C1.66908 32.1467 5.61227 37.9614 11.5388 39.0281C16.1576 39.8587 20.3136 40.5881 21.4576 41.2761C23.0629 42.2388 10.7836 42.9481 3.39148 43.2814C2.22161 43.3348 1.29361 44.2894 1.28881 45.4614C1.28467 46.8494 1.29828 48.2668 1.33001 49.7068C1.38108 51.9668 3.02374 53.8854 5.24774 54.2854C7.37321 54.6681 9.21748 55.0094 9.75401 55.3307C9.91961 55.4307 9.7936 55.5254 9.456 55.6121C4.96494 56.7828 1.856 60.8561 2.32267 65.4734C4.48987 86.9014 9.93734 108.811 17.4896 115.292C32.8203 128.449 129.762 129.224 145.892 128.373C146.055 128.364 146.195 128.364 146.358 128.373C162.488 129.224 259.431 128.449 274.76 115.292C278.386 112.181 281.526 105.512 284.051 97.0494C285.466 92.3081 282.362 87.4494 277.466 86.7228C276.06 86.5134 275.319 86.2801 275.744 86.0254Z" fill="white"/>
</mask>
<g mask="url(#mask2_288_10013)">
<mask id="mask3_288_10013" style="mask-type:luminance" maskUnits="userSpaceOnUse" x="230" y="4" width="50" height="122">
<path d="M235.039 125.084C237.115 120.287 238.743 114.833 239.521 108.72C242.038 108.261 244.381 107.765 246.507 107.227C245.738 113.156 244.929 118.801 243.91 124C241.054 124.392 238.087 124.752 235.039 125.084ZM268.586 26.4441C268.113 25.0975 267.558 24.0014 266.919 23.2001C263.073 18.3734 248.975 14.7828 230.474 12.2775C230.427 9.54813 230.451 7.06412 230.553 4.87078C251.39 7.12012 269.105 10.3375 279.035 14.6455C275.026 18.2188 271.573 22.1815 268.586 26.4441Z" fill="white"/>
</mask>
<g mask="url(#mask3_288_10013)">
<path d="M234.991 125.133V124.867H235.124V124.467H235.258V124.2H235.391V123.933H235.524V123.533H235.658V123.133H235.791V122.867H235.924V122.467H236.058V122.067H236.191V121.8H236.324V121.4H236.458V121H236.591V120.6H236.724V120.2H236.858V119.8H236.991V119.4H237.124V118.867H237.258V118.467H237.391V118.067H237.524V117.667H237.658V117.267H237.791V116.733H237.924V116.067H238.058V115.533H238.191V115H238.324V114.467H238.458V113.933H238.591V113.4H238.724V112.733H238.858V111.933H238.991V111.133H239.124V110.467H239.258V109.667H239.391V108.6H240.058V108.467H240.724V108.333H241.391V108.2H242.058V108.067H242.724V107.933H243.391V107.8H243.924V107.667H244.591V107.533H245.124V107.4H245.791V107.267H246.324V107.133H246.591V107.667H246.458V108.733H246.324V109.667H246.191V110.6H246.058V111.533H245.924V112.467H245.791V113.4H245.658V114.333H245.524V115.267H245.391V116.2H245.258V117H245.124V117.8H244.991V118.6H244.858V119.4H244.724V120.2H244.591V121H244.458V121.8H244.324V122.6H244.191V123.267H244.058V123.933H243.924V124.067H243.391V124.2H242.458V124.333H241.391V124.467H240.191V124.6H239.124V124.733H238.058V124.867H236.991V125H235.791V125.133H234.991ZM268.458 26.4668V26.2001H268.324V25.8001H268.191V25.5334H268.058V25.2668H267.924V25.0001H267.791V24.6001H267.658V24.4668H267.524V24.2001H267.391V23.9334H267.258V23.8001H267.124V23.5334H266.991V23.4001H266.858V23.1334H266.724V23.0001H266.591V22.8668H266.458V22.7334H266.324V22.6001H266.191V22.4668H266.058V22.3334H265.924V22.2001H265.658V22.0668H265.524V21.9334H265.391V21.8001H265.258V21.6668H264.991V21.5334H264.858V21.4001H264.724V21.2668H264.458V21.1334H264.191V21.0001H264.058V20.8668H263.791V20.7334H263.658V20.6001H263.391V20.4668H263.124V20.3334H262.858V20.2001H262.591V20.0668H262.324V19.9334H262.058V19.8001H261.791V19.6668H261.524V19.5334H261.258V19.4001H260.991V19.2668H260.591V19.1334H260.324V19.0001H260.058V18.8668H259.658V18.7334H259.258V18.6001H258.991V18.4668H258.591V18.3334H258.324V18.2001H257.924V18.0668H257.524V17.9334H257.124V17.8001H256.724V17.6668H256.324V17.5334H255.924V17.4001H255.391V17.2668H254.991V17.1334H254.591V17.0001H254.058V16.8668H253.658V16.7334H253.124V16.6001H252.591V16.4668H252.191V16.3334H251.658V16.2001H251.124V16.0668H250.591V15.9334H250.058V15.8001H249.524V15.6668H248.991V15.5334H248.324V15.4001H247.658V15.2668H247.124V15.1334H246.458V15.0001H245.924V14.8668H245.258V14.7334H244.591V14.6001H243.924V14.4668H243.258V14.3334H242.458V14.2001H241.791V14.0668H240.991V13.9334H240.324V13.8001H239.524V13.6668H238.724V13.5334H237.924V13.4001H237.124V13.2668H236.191V13.1334H235.391V13.0001H234.458V12.8668H233.658V12.7334H232.724V12.6001H231.791V12.4668H230.858V12.3334H230.458V8.46677H230.324V8.33343H230.458V4.86676H231.791V5.0001H232.991V5.13343H234.058V5.26676H235.258V5.40009H236.324V5.53343H237.524V5.66676H238.591V5.80009H239.524V5.93343H240.591V6.06676H241.524V6.2001H242.591V6.33343H243.524V6.46677H244.591V6.6001H245.524V6.73343H246.458V6.86676H247.258V7.0001H248.058V7.13343H248.991V7.26676H249.791V7.40009H250.724V7.53343H251.524V7.66676H252.324V7.80009H253.124V7.93343H253.924V8.06676H254.591V8.2001H255.391V8.33343H256.058V8.46677H256.858V8.6001H257.524V8.73343H258.324V8.86676H258.991V9.0001H259.658V9.13343H260.324V9.26676H260.858V9.40009H261.524V9.53343H262.191V9.66676H262.724V9.80009H263.391V9.93343H264.058V10.0668H264.591V10.2001H265.258V10.3334H265.791V10.4668H266.324V10.6001H266.724V10.7334H267.258V10.8668H267.791V11.0001H268.324V11.1334H268.858V11.2668H269.391V11.4001H269.924V11.5334H270.458V11.6668H270.858V11.8001H271.258V11.9334H271.791V12.0668H272.191V12.2001H272.591V12.3334H272.991V12.4668H273.524V12.6001H273.924V12.7334H274.324V12.8668H274.724V13.0001H275.124V13.1334H275.524V13.2668H275.924V13.4001H276.191V13.5334H276.591V13.6668H276.991V13.8001H277.391V13.9334H277.658V14.0668H277.924V14.2001H278.324V14.3334H278.591V14.4668H278.991V14.6001H279.124V14.7334H278.991V14.8668H278.858V15.0001H278.724V15.1334H278.591V15.2668H278.458V15.4001H278.324V15.5334H278.191V15.6668H277.924V15.8001H277.791V15.9334H277.658V16.0668H277.524V16.2001H277.391V16.3334H277.258V16.4668H277.124V16.6001H276.991V16.7334H276.858V16.8668H276.724V17.0001H276.591V17.1334H276.458V17.2668H276.324V17.4001H276.191V17.5334H276.058V17.6668H275.924V17.8001H275.791V17.9334H275.658V18.0668H275.524V18.2001H275.391V18.3334H275.258V18.6001H275.124V18.7334H274.991V18.8668H274.858V19.0001H274.724V19.1334H274.591V19.2668H274.458V19.4001H274.324V19.5334H274.191V19.6668H274.058V19.8001H273.924V19.9334H273.791V20.0668H273.658V20.2001H273.524V20.3334H273.391V20.6001H273.258V20.7334H273.124V20.8668H272.991V21.0001H272.858V21.1334H272.724V21.4001H272.591V21.5334H272.458V21.6668H272.324V21.8001H272.191V21.9334H272.058V22.2001H271.924V22.3334H271.791V22.4668H271.658V22.6001H271.524V22.7334H271.391V23.0001H271.258V23.1334H271.124V23.2668H270.991V23.4001H270.858V23.6668H270.724V23.8001H270.591V23.9334H270.458V24.2001H270.324V24.3334H270.191V24.4668H270.058V24.7334H269.924V24.8668H269.791V25.0001H269.658V25.2668H269.524V25.4001H269.391V25.5334H269.258V25.8001H269.124V25.9334H268.991V26.0668H268.858V26.3334H268.724V26.4668" fill="url(#paint2_linear_288_10013)"/>
</g>
</g>
<mask id="mask4_288_10013" style="mask-type:luminance" maskUnits="userSpaceOnUse" x="1" y="0" width="290" height="129">
<path d="M275.744 86.0254C276.474 85.5881 278.662 85.1294 281.37 84.6294C284.971 83.9627 287.79 81.1014 288.367 77.4841C292.167 53.6761 292.051 26.6628 286.315 19.4668C275.787 6.25876 201.584 0.737427 146.126 0.737427C90.6656 0.737427 16.4616 6.25876 5.93574 19.4668C4.74721 20.9588 3.80028 23.3027 3.08001 26.2934C1.66908 32.1467 5.61227 37.9614 11.5388 39.0281C16.1576 39.8587 20.3136 40.5881 21.4576 41.2761C23.0629 42.2388 10.7836 42.9481 3.39148 43.2814C2.22161 43.3348 1.29361 44.2894 1.28881 45.4614C1.28467 46.8494 1.29828 48.2668 1.33001 49.7068C1.38108 51.9668 3.02374 53.8854 5.24774 54.2854C7.37321 54.6681 9.21748 55.0094 9.75401 55.3307C9.91961 55.4307 9.7936 55.5254 9.456 55.6121C4.96494 56.7828 1.856 60.8561 2.32267 65.4734C4.48987 86.9014 9.93734 108.811 17.4896 115.292C32.8203 128.449 129.762 129.224 145.892 128.373C146.055 128.364 146.195 128.364 146.358 128.373C162.488 129.224 259.431 128.449 274.76 115.292C278.386 112.181 281.526 105.512 284.051 97.0494C285.466 92.3081 282.362 87.4494 277.466 86.7228C276.06 86.5134 275.319 86.2801 275.744 86.0254Z" fill="white"/>
</mask>
<g mask="url(#mask4_288_10013)">
<mask id="mask5_288_10013" style="mask-type:luminance" maskUnits="userSpaceOnUse" x="230" y="12" width="39" height="97">
<path d="M239.52 108.72C240.259 102.911 240.228 96.5054 239.08 89.5108C234.363 60.7748 230.792 30.8108 230.474 12.2774C248.975 14.7828 263.072 18.3734 266.919 23.2001C267.558 24.0014 268.112 25.0974 268.586 26.4441C252.494 49.4108 249.9 81.0708 246.507 107.227C244.38 107.765 242.038 108.261 239.52 108.72Z" fill="white"/>
</mask>
<g mask="url(#mask5_288_10013)">
<path d="M239.391 108.733V108.6H239.525V107.533H239.658V105.933H239.791V104.2H239.925V98.0667H239.791V95.6667H239.658V94.0667H239.525V92.8667H239.391V91.6667H239.258V90.6001H239.125V89.8001H238.991V89.0001H238.858V88.2001H238.725V87.4001H238.591V86.6001H238.458V85.6667H238.325V84.8667H238.191V84.0667H238.058V83.1334H237.925V82.3334H237.791V81.5334H237.658V80.6001H237.525V79.8001H237.391V78.8667H237.258V78.0667H237.125V77.1334H236.991V76.2001H236.858V75.4001H236.725V74.4667H236.591V73.5334H236.458V72.6001H236.325V71.6667H236.191V70.7334H236.058V69.8001H235.925V68.8667H235.791V67.9334H235.658V67.0001H235.525V66.0667H235.391V65.1334H235.258V64.0667H235.125V63.1334H234.991V62.2001H234.858V61.1334H234.725V60.0667H234.591V59.1334H234.458V58.0667H234.325V57.0001H234.191V55.9334H234.058V54.8667H233.925V53.8001H233.791V52.7334H233.658V51.6667H233.525V50.4667H233.391V49.4001H233.258V48.2001H233.125V47.1334H232.991V45.9334H232.858V44.7334H232.725V43.4001H232.591V42.2001H232.458V41.0001H232.325V39.6667H232.191V38.3334H232.058V37.0001H231.925V35.5334H231.791V34.0667H231.658V32.6001H231.525V31.0001H231.391V29.4001H231.258V27.8001H231.125V25.9334H230.991V24.0667H230.858V21.8001H230.725V19.4001H230.591V16.3334H230.458V12.2001H230.991V12.3334H231.925V12.4667H232.858V12.6001H233.791V12.7334H234.591V12.8667H235.525V13.0001H236.325V13.1334H237.258V13.2667H238.058V13.4001H238.858V13.5334H239.658V13.6667H240.458V13.8001H241.125V13.9334H241.925V14.0667H242.591V14.2001H243.391V14.3334H244.058V14.4667H244.725V14.6001H245.391V14.7334H246.058V14.8667H246.591V15.0001H247.258V15.1334H247.791V15.2667H248.458V15.4001H249.125V15.5334H249.658V15.6667H250.191V15.8001H250.725V15.9334H251.258V16.0667H251.791V16.2001H252.325V16.3334H252.725V16.4667H253.258V16.6001H253.791V16.7334H254.191V16.8667H254.725V17.0001H255.125V17.1334H255.525V17.2667H256.058V17.4001H256.458V17.5334H256.858V17.6667H257.258V17.8001H257.658V17.9334H258.058V18.0667H258.458V18.2001H258.725V18.3334H259.125V18.4667H259.391V18.6001H259.791V18.7334H260.191V18.8667H260.458V19.0001H260.725V19.1334H261.125V19.2667H261.391V19.4001H261.658V19.5334H261.925V19.6667H262.191V19.8001H262.458V19.9334H262.725V20.0667H262.991V20.2001H263.258V20.3334H263.525V20.4667H263.791V20.6001H263.925V20.7334H264.191V20.8667H264.325V21.0001H264.591V21.1334H264.858V21.2667H264.991V21.4001H265.125V21.5334H265.391V21.6667H265.525V21.8001H265.658V21.9334H265.791V22.0667H266.058V22.2001H266.191V22.3334H266.325V22.4667H266.458V22.6001H266.591V22.7334H266.725V22.8667H266.858V23.0001H266.991V23.2667H267.125V23.4001H267.258V23.6667H267.391V23.8001H267.525V24.0667H267.658V24.3334H267.791V24.4667H267.925V24.8667H268.058V25.1334H268.191V25.4001H268.325V25.6667H268.458V26.0667H268.591V26.7334H268.458V26.8667H268.325V27.1334H268.191V27.2667H268.058V27.4001H267.925V27.6667H267.791V27.8001H267.658V28.0667H267.525V28.3334H267.391V28.4667H267.258V28.7334H267.125V28.8667H266.991V29.1334H266.858V29.4001H266.725V29.5334H266.591V29.8001H266.458V29.9334H266.325V30.2001H266.191V30.3334H266.058V30.6001H265.925V30.8667H265.791V31.0001H265.658V31.2667H265.525V31.5334H265.391V31.8001H265.258V31.9334H265.125V32.2001H264.991V32.4667H264.858V32.7334H264.725V33.0001H264.591V33.1334H264.458V33.4001H264.325V33.6667H264.191V33.9334H264.058V34.0667H263.925V34.3334H263.791V34.6001H263.658V34.8667H263.525V35.1334H263.391V35.2667H263.258V35.5334H263.125V35.8001H262.991V36.0667H262.858V36.3334H262.725V36.7334H262.591V37.0001H262.458V37.2667H262.325V37.5334H262.191V37.8001H262.058V38.0667H261.925V38.3334H261.791V38.6001H261.658V38.8667H261.525V39.1334H261.391V39.4001H261.258V39.6667H261.125V39.9334H260.991V40.2001H260.858V40.6001H260.725V40.8667H260.591V41.2667H260.458V41.5334H260.325V41.8001H260.191V42.2001H260.058V42.4667H259.925V42.8667H259.791V43.1334H259.658V43.4001H259.525V43.8001H259.391V44.0667H259.258V44.4667H259.125V44.7334H258.991V45.0001H258.858V45.4001H258.725V45.8001H258.591V46.2001H258.458V46.4667H258.325V46.8667H258.191V47.2667H258.058V47.6667H257.925V48.0667H257.791V48.3334H257.658V48.7334H257.525V49.1334H257.391V49.5334H257.258V49.8001H257.125V50.2001H256.991V50.7334H256.858V51.1334H256.725V51.5334H256.591V51.9334H256.458V52.3334H256.325V52.8667H256.191V53.2667H256.058V53.6667H255.925V54.0667H255.791V54.4667H255.658V55.0001H255.525V55.4001H255.391V55.9334H255.258V56.3334H255.125V56.8667H254.991V57.4001H254.858V57.8001H254.725V58.3334H254.591V58.8667H254.458V59.2667H254.325V59.8001H254.191V60.3334H254.058V60.8667H253.925V61.4001H253.791V61.9334H253.658V62.6001H253.525V63.1334H253.391V63.6667H253.258V64.2001H253.125V64.8667H252.991V65.4001H252.858V65.9334H252.725V66.6001H252.591V67.2667H252.458V67.9334H252.325V68.6001H252.191V69.2667H252.058V69.9334H251.925V70.6001H251.791V71.2667H251.658V71.9334H251.525V72.7334H251.391V73.4001H251.258V74.2001H251.125V74.8667H250.991V75.6667H250.858V76.3334H250.725V77.2667H250.591V78.0667H250.458V78.8667H250.325V79.6667H250.191V80.6001H250.058V81.4001H249.925V82.3334H249.791V83.1334H249.658V84.0667H249.525V85.0001H249.391V85.9334H249.258V86.8667H249.125V87.9334H248.991V88.8667H248.858V89.8001H248.725V90.8667H248.591V91.8001H248.458V92.8667H248.325V93.9334H248.191V95.0001H248.058V96.0667H247.925V97.1334H247.791V98.2001H247.658V99.2667H247.525V100.333H247.391V101.4H247.258V102.467H247.125V103.533H246.991V104.6H246.858V105.667H246.725V106.6H246.591V107.267H246.458V107.4H245.925V107.533H245.258V107.667H244.725V107.8H244.058V107.933H243.525V108.067H242.858V108.2H242.191V108.333H241.525V108.467H240.858V108.6H240.191V108.733" fill="url(#paint3_linear_288_10013)"/>
</g>
</g>
<mask id="mask6_288_10013" style="mask-type:luminance" maskUnits="userSpaceOnUse" x="1" y="0" width="290" height="129">
<path d="M275.744 86.0254C276.474 85.5881 278.662 85.1294 281.37 84.6294C284.971 83.9627 287.79 81.1014 288.367 77.4841C292.167 53.6761 292.051 26.6628 286.315 19.4668C275.787 6.25876 201.584 0.737427 146.126 0.737427C90.6656 0.737427 16.4616 6.25876 5.93574 19.4668C4.74721 20.9588 3.80028 23.3027 3.08001 26.2934C1.66908 32.1467 5.61227 37.9614 11.5388 39.0281C16.1576 39.8587 20.3136 40.5881 21.4576 41.2761C23.0629 42.2388 10.7836 42.9481 3.39148 43.2814C2.22161 43.3348 1.29361 44.2894 1.28881 45.4614C1.28467 46.8494 1.29828 48.2668 1.33001 49.7068C1.38108 51.9668 3.02374 53.8854 5.24774 54.2854C7.37321 54.6681 9.21748 55.0094 9.75401 55.3307C9.91961 55.4307 9.7936 55.5254 9.456 55.6121C4.96494 56.7828 1.856 60.8561 2.32267 65.4734C4.48987 86.9014 9.93734 108.811 17.4896 115.292C32.8203 128.449 129.762 129.224 145.892 128.373C146.055 128.364 146.195 128.364 146.358 128.373C162.488 129.224 259.431 128.449 274.76 115.292C278.386 112.181 281.526 105.512 284.051 97.0494C285.466 92.3081 282.362 87.4494 277.466 86.7228C276.06 86.5134 275.319 86.2801 275.744 86.0254Z" fill="white"/>
</mask>
<g mask="url(#mask6_288_10013)">
<mask id="mask7_288_10013" style="mask-type:luminance" maskUnits="userSpaceOnUse" x="101" y="1" width="104" height="128">
<path d="M160.585 128.613C154.075 128.613 149.07 128.516 146.358 128.373C146.277 128.368 146.202 128.365 146.126 128.365C146.05 128.365 145.974 128.368 145.893 128.373C143.179 128.516 138.181 128.613 131.666 128.613C123.601 128.613 113.217 128.464 101.977 128.069C109.146 124.677 118.361 119.875 127.991 113.685C131.863 113.748 135.437 113.775 138.585 113.775C144.149 113.775 148.379 113.689 150.582 113.565C152.785 113.689 157.019 113.775 162.581 113.775C172.249 113.776 185.938 113.517 199.974 112.757C199.714 118.216 199.122 123.261 198.026 127.761C183.859 128.389 170.477 128.613 160.585 128.613ZM202.381 9.46808C196.242 9.02808 189.958 8.67074 183.679 8.39341C183.105 5.82674 182.389 3.51742 181.578 1.44009C189.303 1.74275 197.067 2.14407 204.679 2.65073C203.815 4.8694 203.053 7.14542 202.381 9.46808Z" fill="white"/>
</mask>
<g mask="url(#mask7_288_10013)">
<path d="M127.791 128.733V128.6H116.858V128.467H110.725V128.333H105.925V128.2H101.925V127.933H102.191V127.8H102.458V127.667H102.725V127.533H102.991V127.4H103.258V127.267H103.525V127.133H103.925V127H104.191V126.867H104.458V126.733H104.725V126.6H104.991V126.467H105.258V126.333H105.525V126.2H105.791V126.067H106.058V125.933H106.325V125.8H106.591V125.667H106.858V125.533H107.125V125.4H107.391V125.267H107.658V125.133H107.925V125H108.191V124.867H108.458V124.733H108.725V124.6H108.991V124.467H109.125V124.333H109.391V124.2H109.658V124.067H109.925V123.933H110.191V123.8H110.458V123.667H110.725V123.533H110.991V123.4H111.258V123.267H111.525V123.133H111.791V123H111.925V122.867H112.191V122.733H112.458V122.6H112.725V122.467H112.991V122.333H113.258V122.2H113.525V122.067H113.791V121.933H113.925V121.8H114.191V121.667H114.458V121.533H114.725V121.4H114.991V121.267H115.125V121.133H115.391V121H115.658V120.867H115.925V120.733H116.191V120.6H116.325V120.467H116.591V120.333H116.858V120.2H117.125V120.067H117.391V119.933H117.525V119.8H117.791V119.667H118.058V119.533H118.325V119.4H118.458V119.267H118.725V119.133H118.991V119H119.125V118.867H119.391V118.733H119.658V118.6H119.925V118.467H120.058V118.333H120.325V118.2H120.591V118.067H120.858V117.933H120.991V117.8H121.258V117.667H121.525V117.533H121.658V117.4H121.925V117.267H122.191V117.133H122.325V117H122.591V116.867H122.858V116.733H122.991V116.6H123.258V116.467H123.525V116.333H123.658V116.2H123.925V116.067H124.191V115.933H124.325V115.8H124.591V115.667H124.725V115.533H124.991V115.4H125.258V115.267H125.391V115.133H125.658V115H125.791V114.867H126.058V114.733H126.325V114.6H126.458V114.467H126.725V114.333H126.858V114.2H127.125V114.067H127.391V113.933H127.525V113.8H127.791V113.667H147.791V113.533H153.391V113.667H174.058V113.533H180.191V113.4H184.858V113.267H188.725V113.133H191.925V113H195.125V112.867H197.791V112.733H200.058V113.8H199.925V115.8H199.791V117.4H199.658V118.6H199.525V119.933H199.391V121H199.258V121.933H199.125V122.867H198.991V123.667H198.858V124.467H198.725V125.133H198.591V125.8H198.458V126.467H198.325V127.133H198.191V127.667H198.058V127.8H197.125V127.933H193.925V128.067H190.325V128.2H186.325V128.333H181.525V128.467H175.391V128.6H164.591V128.733H156.725V128.6H148.725V128.467H143.525V128.6H135.525V128.733H127.791ZM201.391 9.53341V9.40007H199.258V9.26674H197.258V9.13341H195.125V9.00007H192.991V8.86674H190.458V8.73341H187.791V8.60007H185.258V8.46674H183.658V8.3334H183.525V7.80007H183.391V7.26674H183.258V6.73341H183.125V6.3334H182.991V5.80007H182.858V5.26674H182.725V4.86674H182.591V4.46674H182.458V4.06674H182.325V3.66674H182.191V3.26674H182.058V2.86674H181.925V2.46674H181.791V2.06674H181.658V1.66674H181.525V1.40007H183.925V1.53341H186.725V1.66674H189.658V1.80007H192.458V1.9334H194.991V2.06674H197.258V2.20007H199.525V2.3334H201.791V2.46674H203.925V2.60007H204.725V3.00008H204.591V3.26674H204.458V3.66674H204.325V4.06674H204.191V4.46674H204.058V4.86674H203.925V5.26674H203.791V5.66674H203.658V6.06674H203.525V6.46674H203.391V6.86674H203.258V7.26674H203.125V7.66674H202.991V8.06674H202.858V8.46674H202.725V8.86674H202.591V9.26674H202.458V9.53341" fill="url(#paint4_linear_288_10013)"/>
</g>
</g>
<mask id="mask8_288_10013" style="mask-type:luminance" maskUnits="userSpaceOnUse" x="1" y="0" width="290" height="129">
<path d="M275.744 86.0254C276.474 85.5881 278.662 85.1294 281.37 84.6294C284.971 83.9627 287.79 81.1014 288.367 77.4841C292.167 53.6761 292.051 26.6628 286.315 19.4668C275.787 6.25876 201.584 0.737427 146.126 0.737427C90.6656 0.737427 16.4616 6.25876 5.93574 19.4668C4.74721 20.9588 3.80028 23.3027 3.08001 26.2934C1.66908 32.1467 5.61227 37.9614 11.5388 39.0281C16.1576 39.8587 20.3136 40.5881 21.4576 41.2761C23.0629 42.2388 10.7836 42.9481 3.39148 43.2814C2.22161 43.3348 1.29361 44.2894 1.28881 45.4614C1.28467 46.8494 1.29828 48.2668 1.33001 49.7068C1.38108 51.9668 3.02374 53.8854 5.24774 54.2854C7.37321 54.6681 9.21748 55.0094 9.75401 55.3307C9.91961 55.4307 9.7936 55.5254 9.456 55.6121C4.96494 56.7828 1.856 60.8561 2.32267 65.4734C4.48987 86.9014 9.93734 108.811 17.4896 115.292C32.8203 128.449 129.762 129.224 145.892 128.373C146.055 128.364 146.195 128.364 146.358 128.373C162.488 129.224 259.431 128.449 274.76 115.292C278.386 112.181 281.526 105.512 284.051 97.0494C285.466 92.3081 282.362 87.4494 277.466 86.7228C276.06 86.5134 275.319 86.2801 275.744 86.0254Z" fill="white"/>
</mask>
<g mask="url(#mask8_288_10013)">
<mask id="mask9_288_10013" style="mask-type:luminance" maskUnits="userSpaceOnUse" x="127" y="8" width="76" height="106">
<path d="M162.581 113.775C157.019 113.775 152.785 113.689 150.582 113.565C148.379 113.689 144.149 113.775 138.585 113.775C135.437 113.775 131.863 113.748 127.991 113.685C149.438 99.9014 172.95 79.2388 180.565 51.9521C185.965 32.6041 185.939 18.5134 183.679 8.39343C189.958 8.67076 196.242 9.02811 202.381 9.4681C193.071 41.6921 201.377 83.2428 199.974 112.757C185.938 113.517 172.249 113.776 162.581 113.775Z" fill="white"/>
</mask>
<g mask="url(#mask9_288_10013)">
<path d="M127.925 113.8V113.533H128.191V113.4H128.325V113.267H128.591V113.133H128.725V113H128.991V112.867H129.125V112.733H129.391V112.6H129.525V112.467H129.791V112.333H130.058V112.2H130.191V112.067H130.458V111.933H130.591V111.8H130.858V111.667H130.991V111.533H131.258V111.4H131.391V111.267H131.658V111.133H131.791V111H132.058V110.867H132.191V110.733H132.325V110.6H132.591V110.467H132.725V110.333H132.991V110.2H133.125V110.067H133.391V109.933H133.525V109.8H133.658V109.667H133.925V109.533H134.058V109.4H134.325V109.267H134.458V109.133H134.725V109H134.858V108.867H135.125V108.733H135.258V108.6H135.391V108.467H135.658V108.333H135.791V108.2H136.058V108.067H136.191V107.933H136.325V107.8H136.591V107.667H136.725V107.533H136.991V107.4H137.125V107.267H137.258V107.133H137.525V107H137.658V106.867H137.791V106.733H138.058V106.6H138.191V106.467H138.325V106.333H138.591V106.2H138.725V106.067H138.858V105.933H139.125V105.8H139.258V105.667H139.525V105.533H139.658V105.4H139.791V105.267H140.058V105.133H140.191V105H140.325V104.867H140.591V104.733H140.725V104.6H140.858V104.467H140.991V104.333H141.258V104.2H141.391V104.067H141.525V103.933H141.658V103.8H141.925V103.667H142.058V103.533H142.191V103.4H142.458V103.267H142.591V103.133H142.725V103H142.858V102.867H143.125V102.733H143.258V102.6H143.391V102.467H143.658V102.333H143.791V102.2H143.925V102.067H144.058V101.933H144.325V101.8H144.458V101.667H144.591V101.533H144.725V101.4H144.858V101.267H145.125V101.133H145.258V101H145.391V100.867H145.525V100.733H145.658V100.6H145.925V100.467H146.058V100.333H146.191V100.2H146.325V100.067H146.458V99.9334H146.725V99.8001H146.858V99.6668H146.991V99.5334H147.125V99.4001H147.258V99.2668H147.525V99.1334H147.658V99.0001H147.791V98.8668H147.925V98.7334H148.058V98.6001H148.325V98.4668H148.458V98.3334H148.591V98.2001H148.725V98.0668H148.858V97.9334H148.991V97.8001H149.125V97.6668H149.258V97.5334H149.525V97.4001H149.658V97.2668H149.791V97.1334H149.925V97.0001H150.058V96.8668H150.191V96.7334H150.325V96.6001H150.458V96.4668H150.591V96.3334H150.858V96.2001H150.991V96.0668H151.125V95.9334H151.258V95.8001H151.391V95.6668H151.525V95.5334H151.658V95.4001H151.791V95.2668H152.058V95.1334H152.191V95.0001H152.325V94.8668H152.458V94.7334H152.591V94.6001H152.725V94.4668H152.858V94.3334H152.991V94.2001H153.125V94.0668H153.258V93.9334H153.391V93.8001H153.525V93.6668H153.658V93.5334H153.791V93.4001H153.925V93.2668H154.058V93.1334H154.191V93.0001H154.325V92.8668H154.458V92.7334H154.591V92.6001H154.725V92.4668H154.858V92.3334H155.125V92.2001H155.258V92.0668H155.391V91.9334H155.525V91.8001H155.658V91.6668H155.791V91.5334H155.925V91.4001H156.058V91.2668H156.191V91.1334H156.325V91.0001H156.458V90.8668H156.591V90.6001H156.725V90.4668H156.858V90.3334H156.991V90.2001H157.125V90.0668H157.258V89.9334H157.391V89.8001H157.525V89.6668H157.658V89.5334H157.791V89.4001H157.925V89.2668H158.058V89.1334H158.191V89.0001H158.325V88.8668H158.458V88.7334H158.591V88.6001H158.725V88.4668H158.858V88.3334H158.991V88.2001H159.125V88.0668H159.258V87.9334H159.391V87.8001H159.525V87.5334H159.658V87.4001H159.791V87.2668H159.925V87.1334H160.058V87.0001H160.191V86.8668H160.325V86.7334H160.458V86.6001H160.591V86.3334H160.725V86.2001H160.858V86.0668H160.991V85.9334H161.125V85.8001H161.258V85.6668H161.391V85.5334H161.525V85.2668H161.658V85.1334H161.791V85.0001H161.925V84.8668H162.058V84.7334H162.191V84.6001H162.325V84.4668H162.458V84.3334H162.591V84.0668H162.725V83.9334H162.858V83.8001H162.991V83.6668H163.125V83.5334H163.258V83.2668H163.391V83.1334H163.525V83.0001H163.658V82.8668H163.791V82.6001H163.925V82.4668H164.058V82.3334H164.191V82.2001H164.325V81.9334H164.458V81.8001H164.591V81.6668H164.725V81.5334H164.858V81.2668H164.991V81.1334H165.125V81.0001H165.258V80.8668H165.391V80.6001H165.525V80.4668H165.658V80.3334H165.791V80.2001H165.925V80.0668H166.058V79.8001H166.191V79.6668H166.325V79.5334H166.458V79.2668H166.591V79.1334H166.725V78.8668H166.858V78.7334H166.991V78.6001H167.125V78.3334H167.258V78.2001H167.391V77.9334H167.525V77.8001H167.658V77.6668H167.791V77.4001H167.925V77.2668H168.058V77.1334H168.191V76.8668H168.325V76.7334H168.458V76.4668H168.591V76.3334H168.725V76.2001H168.858V75.9334H168.991V75.8001H169.125V75.5334H169.258V75.4001H169.391V75.1334H169.525V75.0001H169.658V74.7334H169.791V74.6001H169.925V74.3334H170.058V74.2001H170.191V73.9334H170.325V73.8001H170.458V73.5334H170.591V73.2668H170.725V73.1334H170.858V72.8668H170.991V72.7334H171.125V72.4668H171.258V72.3334H171.391V72.0668H171.525V71.9334H171.658V71.6668H171.791V71.4001H171.925V71.2668H172.058V71.0001H172.191V70.8668H172.325V70.6001H172.458V70.3334H172.591V70.0668H172.725V69.8001H172.858V69.6668H172.991V69.4001H173.125V69.1334H173.258V68.8668H173.391V68.6001H173.525V68.4668H173.658V68.2001H173.791V67.9334H173.925V67.6668H174.058V67.5334H174.191V67.2668H174.325V67.0001H174.458V66.7334H174.591V66.4668H174.725V66.2001H174.858V65.9334H174.991V65.6668H175.125V65.4001H175.258V65.1334H175.391V64.8668H175.525V64.6001H175.658V64.3334H175.791V64.0668H175.925V63.8001H176.058V63.5334H176.191V63.2668H176.325V62.8668H176.458V62.6001H176.591V62.3334H176.725V62.0668H176.858V61.8001H176.991V61.5334H177.125V61.1334H177.258V60.8668H177.391V60.4668H177.525V60.2001H177.658V59.8001H177.791V59.5334H177.925V59.1334H178.058V58.8668H178.191V58.4668H178.325V58.2001H178.458V57.8001H178.591V57.5334H178.725V57.1334H178.858V56.8668H178.991V56.4668H179.125V56.0668H179.258V55.6668H179.391V55.2668H179.525V54.8668H179.658V54.4668H179.791V54.0668H179.925V53.6668H180.058V53.2668H180.191V52.7334H180.325V52.3334H180.458V51.8001H180.591V51.2668H180.725V50.8668H180.858V50.3334H180.991V49.8001H181.125V49.2668H181.258V48.7334H181.391V48.2001H181.525V47.6668H181.658V47.1334H181.791V46.6001H181.925V46.0668H182.058V45.5334H182.191V45.0001H182.325V44.3335H182.458V43.6668H182.591V43.0001H182.725V42.3335H182.858V41.6668H182.991V41.0001H183.125V40.3335H183.258V39.6668H183.391V39.0001H183.525V38.2001H183.658V37.4001H183.791V36.4668H183.925V35.5334H184.058V34.6001H184.191V33.6668H184.325V32.7334H184.458V31.4001H184.591V29.8001H184.725V28.2001H184.858V26.7335H184.991V18.7335H184.858V16.3335H184.725V15.1334H184.591V14.0668H184.458V12.8668H184.325V11.9334H184.191V11.1334H184.058V10.3335H183.925V9.53345H183.791V9.00011H183.658V8.33345H185.391V8.46678H187.925V8.60011H190.458V8.73345H193.125V8.86678H195.258V9.00011H197.391V9.13345H199.391V9.26678H201.525V9.40012H202.458V9.66679H202.325V10.2001H202.191V10.6001H202.058V11.1334H201.925V11.6668H201.791V12.2001H201.658V12.7335H201.525V13.4001H201.391V13.9334H201.258V14.4668H201.125V15.0001H200.991V15.5334H200.858V16.3335H200.725V17.0001H200.591V17.6668H200.458V18.4668H200.325V19.1334H200.191V19.9334H200.058V20.6001H199.925V21.2668H199.791V22.0668H199.658V23.1334H199.525V24.0668H199.391V25.1334H199.258V26.2001H199.125V27.1334H198.991V28.2001H198.858V29.6668H198.725V31.2668H198.591V32.8668H198.458V34.4668H198.325V37.0001H198.191V40.0668H198.058V46.3335H197.925V50.4668H198.058V57.4001H198.191V61.4001H198.325V64.4668H198.458V67.2668H198.591V69.9334H198.725V72.4668H198.858V74.8668H198.991V77.1334H199.125V79.5334H199.258V81.8001H199.391V84.2001H199.525V86.6001H199.658V89.1334H199.791V92.2001H199.925V95.1334H200.058V99.6668H200.191V110.6H200.058V112.867H197.925V113H195.258V113.133H192.058V113.267H188.858V113.4H184.991V113.533H180.325V113.667H174.191V113.8H153.258V113.667H147.925V113.8" fill="url(#paint5_linear_288_10013)"/>
</g>
</g>
<mask id="mask10_288_10013" style="mask-type:luminance" maskUnits="userSpaceOnUse" x="1" y="0" width="290" height="129">
<path d="M275.744 86.0254C276.474 85.5881 278.662 85.1294 281.37 84.6294C284.971 83.9627 287.79 81.1014 288.367 77.4841C292.167 53.6761 292.051 26.6628 286.315 19.4668C275.787 6.25876 201.584 0.737427 146.126 0.737427C90.6656 0.737427 16.4616 6.25876 5.93574 19.4668C4.74721 20.9588 3.80028 23.3027 3.08001 26.2934C1.66908 32.1467 5.61227 37.9614 11.5388 39.0281C16.1576 39.8587 20.3136 40.5881 21.4576 41.2761C23.0629 42.2388 10.7836 42.9481 3.39148 43.2814C2.22161 43.3348 1.29361 44.2894 1.28881 45.4614C1.28467 46.8494 1.29828 48.2668 1.33001 49.7068C1.38108 51.9668 3.02374 53.8854 5.24774 54.2854C7.37321 54.6681 9.21748 55.0094 9.75401 55.3307C9.91961 55.4307 9.7936 55.5254 9.456 55.6121C4.96494 56.7828 1.856 60.8561 2.32267 65.4734C4.48987 86.9014 9.93734 108.811 17.4896 115.292C32.8203 128.449 129.762 129.224 145.892 128.373C146.055 128.364 146.195 128.364 146.358 128.373C162.488 129.224 259.431 128.449 274.76 115.292C278.386 112.181 281.526 105.512 284.051 97.0494C285.466 92.3081 282.362 87.4494 277.466 86.7228C276.06 86.5134 275.319 86.2801 275.744 86.0254Z" fill="white"/>
</mask>
<g mask="url(#mask10_288_10013)">
<mask id="mask11_288_10013" style="mask-type:luminance" maskUnits="userSpaceOnUse" x="2" y="0" width="141" height="124">
<path d="M46.2527 123.705C32.61 121.724 21.8087 118.999 17.49 115.292C9.93774 108.811 4.49027 86.9014 2.32307 65.4734C2.29241 65.1668 2.27734 64.8628 2.27734 64.5614C2.27574 61.0574 4.32201 57.9721 7.40494 56.3934C8.50121 56.4774 9.64401 56.5174 10.744 56.5174C15.3553 56.5174 19.2033 55.8148 15.5953 54.7428C11.6383 53.5668 7.82521 51.8335 5.13201 49.4388C12.4997 50.1814 21.1993 50.8095 30.506 50.9828C31.3247 71.4735 36.3273 96.2788 43.8327 102.721C48.558 106.777 62.634 109.416 79.1407 111.093C68.578 117.264 57.4207 121.581 46.2527 123.705ZM124.662 8.11212C125.219 5.84679 125.63 3.46945 125.886 0.970787C131.507 0.842781 137.042 0.769455 142.426 0.745461C142.443 3.08412 142.394 5.40412 142.282 7.70679C136.535 7.77212 130.623 7.90679 124.662 8.11212Z" fill="white"/>
</mask>
<g mask="url(#mask11_288_10013)">
<path d="M45.9247 123.8V123.667H45.1247V123.533H44.1914V123.4H43.3914V123.267H42.4581V123.133H41.6581V123H40.8581V122.867H40.1914V122.733H39.3914V122.6H38.7247V122.467H37.9247V122.333H37.2581V122.2H36.5914V122.067H35.9247V121.933H35.2581V121.8H34.5914V121.667H34.0581V121.533H33.3914V121.4H32.7247V121.267H32.1914V121.133H31.6581V121H31.1247V120.867H30.5914V120.733H30.0581V120.6H29.5247V120.467H28.9914V120.333H28.5914V120.2H28.0581V120.067H27.6581V119.933H27.2581V119.8H26.7247V119.667H26.3247V119.533H25.9247V119.4H25.5247V119.267H25.1247V119.133H24.7247V119H24.3247V118.867H23.9247V118.733H23.6581V118.6H23.2581V118.467H22.9914V118.333H22.5914V118.2H22.3247V118.067H21.9247V117.933H21.6581V117.8H21.3914V117.667H21.1247V117.533H20.8581V117.4H20.5914V117.267H20.3247V117.133H20.0581V117H19.7914V116.867H19.5247V116.733H19.2581V116.6H19.1247V116.467H18.8581V116.333H18.7247V116.2H18.4581V116.067H18.3247V115.933H18.0581V115.8H17.9247V115.667H17.6581V115.533H17.5247V115.4H17.3914V115.267H17.2581V115.133H17.1247V115H16.9914V114.867H16.8581V114.733H16.7247V114.6H16.5914V114.467H16.4581V114.333H16.3247V114.2H16.1914V114.067H16.0581V113.933H15.9247V113.8H15.7914V113.533H15.6581V113.4H15.5247V113.267H15.3914V113H15.2581V112.867H15.1247V112.733H14.9914V112.6H14.8581V112.333H14.7247V112.2H14.5914V111.933H14.4581V111.8H14.3247V111.533H14.1914V111.4H14.0581V111.133H13.9247V110.867H13.7914V110.733H13.6581V110.467H13.5247V110.333H13.3914V110.067H13.2581V109.8H13.1247V109.533H12.9914V109.267H12.8581V109H12.7247V108.733H12.5914V108.467H12.4581V108.333H12.3247V108.067H12.1914V107.8H12.0581V107.4H11.9247V107.133H11.7914V106.867H11.6581V106.6H11.5247V106.333H11.3914V105.933H11.2581V105.667H11.1247V105.4H10.9914V105H10.8581V104.733H10.7247V104.333H10.5914V104.067H10.4581V103.667H10.3247V103.4H10.1914V103H10.0581V102.733H9.92474V102.333H9.79141V101.933H9.65807V101.533H9.52474V101.133H9.39141V100.733H9.25807V100.467H9.12474V100.067H8.99141V99.6668H8.85807V99.2668H8.72474V98.7334H8.59141V98.3334H8.45807V97.9334H8.32474V97.5334H8.19141V97.0001H8.05807V96.6001H7.92474V96.2001H7.79141V95.6668H7.65807V95.2668H7.52474V94.7334H7.39141V94.2001H7.25807V93.6668H7.12474V93.2668H6.99141V92.7334H6.85807V92.2001H6.72474V91.6668H6.59141V91.1334H6.45807V90.6001H6.32474V90.0668H6.19141V89.4001H6.05807V88.8668H5.92474V88.3334H5.79141V87.6668H5.65807V87.0001H5.52474V86.4668H5.39141V85.8001H5.25807V85.1334H5.12474V84.4668H4.99141V83.8001H4.85807V83.1334H4.72474V82.3334H4.59141V81.6668H4.45807V81.0001H4.32474V80.2001H4.19141V79.4001H4.05807V78.6001H3.92474V77.8001H3.79141V77.0001H3.65807V76.0668H3.52474V75.1334H3.39141V74.2001H3.25807V73.4001H3.12474V72.3334H2.99141V71.2668H2.85807V70.2001H2.72474V69.1334H2.59141V68.0668H2.45807V66.8668H2.32474V65.5334H2.19141V63.6668H2.32474V62.8668H2.45807V62.2001H2.59141V61.8001H2.72474V61.4001H2.85807V61.1334H2.99141V60.7334H3.12474V60.4668H3.25807V60.2001H3.39141V60.0668H3.52474V59.8001H3.65807V59.5334H3.79141V59.4001H3.92474V59.1334H4.05807V59.0001H4.19141V58.8668H4.32474V58.7334H4.45807V58.6001H4.59141V58.3335H4.72474V58.2001H4.85807V58.0668H4.99141V57.9334H5.12474V57.8001H5.25807V57.6668H5.52474V57.5334H5.65807V57.4001H5.79141V57.2668H5.92474V57.1334H6.19141V57.0001H6.32474V56.8668H6.59141V56.7334H6.72474V56.6001H6.99141V56.4668H7.25807V56.3335H8.85807V56.4668H12.7247V56.3335H14.3247V56.2001H15.3914V56.0668H16.0581V55.9334H16.4581V55.8001H16.7247V55.6668H16.8581V55.4001H16.7247V55.2668H16.5914V55.1334H16.1914V55.0001H15.9247V54.8668H15.5247V54.7334H14.9914V54.6001H14.5914V54.4668H14.1914V54.3335H13.9247V54.2001H13.5247V54.0668H13.1247V53.9334H12.7247V53.8001H12.4581V53.6668H12.0581V53.5334H11.7914V53.4001H11.5247V53.2668H11.1247V53.1334H10.8581V53.0001H10.5914V52.8668H10.1914V52.7334H9.92474V52.6001H9.65807V52.4668H9.39141V52.3335H9.25807V52.2001H8.99141V52.0668H8.72474V51.9334H8.45807V51.8001H8.32474V51.6668H8.05807V51.5334H7.79141V51.4001H7.52474V51.2668H7.25807V51.1334H7.12474V51.0001H6.99141V50.8668H6.72474V50.7334H6.59141V50.6001H6.32474V50.4668H6.19141V50.3335H6.05807V50.2001H5.79141V50.0668H5.65807V49.9334H5.52474V49.8001H5.25807V49.6668H5.12474V49.4001H6.19141V49.5334H7.52474V49.6668H9.12474V49.8001H10.5914V49.9334H12.3247V50.0668H14.0581V50.2001H15.9247V50.3335H17.9247V50.4668H20.4581V50.6001H22.9914V50.7334H26.4581V50.8668H30.5914V52.7334H30.7247V55.0001H30.8581V56.8668H30.9914V58.6001H31.1247V59.9334H31.2581V61.4001H31.3914V62.7334H31.5247V63.8001H31.6581V64.8668H31.7914V66.0668H31.9247V67.0001H32.0581V67.9334H32.1914V68.8668H32.3247V69.8001H32.4581V70.7334H32.5914V71.5334H32.7247V72.3334H32.8581V73.1334H32.9914V73.9334H33.1247V74.7334H33.2581V75.4001H33.3914V76.0668H33.5247V76.7334H33.6581V77.4001H33.7914V78.0668H33.9247V78.7334H34.0581V79.4001H34.1914V79.9334H34.3247V80.6001H34.4581V81.1334H34.5914V81.8001H34.7247V82.3334H34.8581V82.8668H34.9914V83.4001H35.1247V83.8001H35.2581V84.3334H35.3914V84.8668H35.5247V85.4001H35.6581V85.9334H35.7914V86.3334H35.9247V86.7334H36.0581V87.2668H36.1914V87.6668H36.3247V88.2001H36.4581V88.6001H36.5914V89.0001H36.7247V89.4001H36.8581V89.8001H36.9914V90.2001H37.1247V90.6001H37.2581V91.0001H37.3914V91.4001H37.5247V91.8001H37.6581V92.0668H37.7914V92.4668H37.9247V92.7334H38.0581V93.1334H38.1914V93.4001H38.3247V93.8001H38.4581V94.0668H38.5914V94.4668H38.7247V94.7334H38.8581V95.1334H38.9914V95.4001H39.1247V95.6668H39.2581V95.9334H39.3914V96.2001H39.5247V96.4668H39.6581V96.7334H39.7914V97.0001H39.9247V97.2668H40.0581V97.5334H40.1914V97.8001H40.3247V98.0668H40.4581V98.2001H40.5914V98.4668H40.7247V98.7334H40.8581V99.0001H40.9914V99.1334H41.1247V99.4001H41.2581V99.5334H41.3914V99.8001H41.5247V99.9334H41.6581V100.2H41.7914V100.333H41.9247V100.467H42.0581V100.733H42.1914V100.867H42.3247V101H42.4581V101.267H42.5914V101.4H42.7247V101.533H42.8581V101.667H42.9914V101.8H43.1247V101.933H43.2581V102.067H43.3914V102.2H43.5247V102.333H43.6581V102.467H43.7914V102.6H43.9247V102.733H44.0581V102.867H44.1914V103H44.3247V103.133H44.5914V103.267H44.8581V103.4H44.9914V103.533H45.2581V103.667H45.5247V103.8H45.6581V103.933H45.9247V104.067H46.1914V104.2H46.4581V104.333H46.7247V104.467H46.9914V104.6H47.3914V104.733H47.6581V104.867H47.9247V105H48.1914V105.133H48.5914V105.267H48.8581V105.4H49.1247V105.533H49.5247V105.667H50.0581V105.8H50.4581V105.933H50.8581V106.067H51.2581V106.2H51.6581V106.333H52.0581V106.467H52.4581V106.6H52.8581V106.733H53.3914V106.867H53.9247V107H54.4581V107.133H54.9914V107.267H55.5247V107.4H56.0581V107.533H56.5914V107.667H57.1247V107.8H57.7914V107.933H58.4581V108.067H59.1247V108.2H59.7914V108.333H60.4581V108.467H61.1247V108.6H61.7914V108.733H62.5914V108.867H63.3914V109H64.1914V109.133H64.9914V109.267H65.9247V109.4H66.7247V109.533H67.5247V109.667H68.4581V109.8H69.5247V109.933H70.4581V110.067H71.5247V110.2H72.4581V110.333H73.5247V110.467H74.7247V110.6H75.9247V110.733H76.9914V110.867H78.3247V111H79.2581V111.133H79.1247V111.267H78.8581V111.4H78.7247V111.533H78.4581V111.667H78.1914V111.8H78.0581V111.933H77.7914V112.067H77.5247V112.2H77.2581V112.333H77.1247V112.467H76.8581V112.6H76.5914V112.733H76.3247V112.867H76.0581V113H75.7914V113.133H75.5247V113.267H75.2581V113.4H74.9914V113.533H74.7247V113.667H74.4581V113.8H74.1914V113.933H73.9247V114.067H73.6581V114.2H73.3914V114.333H73.1247V114.467H72.9914V114.6H72.7247V114.733H72.4581V114.867H72.1914V115H71.9247V115.133H71.6581V115.267H71.3914V115.4H71.1247V115.533H70.8581V115.667H70.4581V115.8H70.1914V115.933H69.9247V116.067H69.5247V116.2H69.2581V116.333H68.9914V116.467H68.5914V116.6H68.3247V116.733H68.0581V116.867H67.6581V117H67.3914V117.133H67.1247V117.267H66.8581V117.4H66.4581V117.533H66.1914V117.667H65.9247V117.8H65.5247V117.933H65.2581V118.067H64.9914V118.2H64.5914V118.333H64.3247V118.467H64.0581V118.6H63.6581V118.733H63.3914V118.867H63.1247V119H62.7247V119.133H62.3247V119.267H61.9247V119.4H61.5247V119.533H61.1247V119.667H60.7247V119.8H60.3247V119.933H59.9247V120.067H59.5247V120.2H59.1247V120.333H58.7247V120.467H58.3247V120.6H57.9247V120.733H57.5247V120.867H57.1247V121H56.7247V121.133H56.3247V121.267H56.0581V121.4H55.6581V121.533H55.2581V121.667H54.8581V121.8H54.3247V121.933H53.7914V122.067H53.2581V122.2H52.7247V122.333H52.1914V122.467H51.6581V122.6H51.1247V122.733H50.7247V122.867H50.1914V123H49.6581V123.133H49.1247V123.267H48.5914V123.4H47.9247V123.533H47.2581V123.667H46.4581V123.8H45.9247ZM124.591 8.20012V7.80012H124.725V7.13345H124.858V6.60012H124.991V5.93345H125.125V5.26678H125.258V4.46678H125.391V3.66679H125.525V2.73345H125.658V1.80012H125.791V0.866783H131.391V0.733452H142.458V6.46678H142.325V7.80012H136.725V7.93345H130.858V8.06678H126.058V8.20012" fill="url(#paint6_linear_288_10013)"/>
</g>
</g>
<mask id="mask12_288_10013" style="mask-type:luminance" maskUnits="userSpaceOnUse" x="1" y="0" width="290" height="129">
<path d="M275.744 86.0254C276.474 85.5881 278.662 85.1294 281.37 84.6294C284.971 83.9627 287.79 81.1014 288.367 77.4841C292.167 53.6761 292.051 26.6628 286.315 19.4668C275.787 6.25876 201.584 0.737427 146.126 0.737427C90.6656 0.737427 16.4616 6.25876 5.93574 19.4668C4.74721 20.9588 3.80028 23.3027 3.08001 26.2934C1.66908 32.1467 5.61227 37.9614 11.5388 39.0281C16.1576 39.8587 20.3136 40.5881 21.4576 41.2761C23.0629 42.2388 10.7836 42.9481 3.39148 43.2814C2.22161 43.3348 1.29361 44.2894 1.28881 45.4614C1.28467 46.8494 1.29828 48.2668 1.33001 49.7068C1.38108 51.9668 3.02374 53.8854 5.24774 54.2854C7.37321 54.6681 9.21748 55.0094 9.75401 55.3307C9.91961 55.4307 9.7936 55.5254 9.456 55.6121C4.96494 56.7828 1.856 60.8561 2.32267 65.4734C4.48987 86.9014 9.93734 108.811 17.4896 115.292C32.8203 128.449 129.762 129.224 145.892 128.373C146.055 128.364 146.195 128.364 146.358 128.373C162.488 129.224 259.431 128.449 274.76 115.292C278.386 112.181 281.526 105.512 284.051 97.0494C285.466 92.3081 282.362 87.4494 277.466 86.7228C276.06 86.5134 275.319 86.2801 275.744 86.0254Z" fill="white"/>
</mask>
<g mask="url(#mask12_288_10013)">
<mask id="mask13_288_10013" style="mask-type:luminance" maskUnits="userSpaceOnUse" x="30" y="7" width="113" height="105">
<path d="M79.1405 111.093C62.6339 109.416 48.5579 106.777 43.8325 102.721C36.3272 96.2787 31.3245 71.4734 30.5059 50.9827C32.1632 51.0134 33.8445 51.0307 35.5365 51.0307C72.2379 51.0321 115.998 43.3161 124.662 8.11206C130.623 7.90673 136.535 7.77206 142.282 7.70673C140.046 53.3947 112.621 91.5347 79.1405 111.093Z" fill="white"/>
</mask>
<g mask="url(#mask13_288_10013)">
<path d="M78.1913 111.133V111H76.858V110.867H75.7913V110.733H74.5913V110.6H73.3913V110.467H72.3247V110.333H71.3913V110.2H70.3247V110.067H69.3913V109.933H68.458V109.8H67.3913V109.667H66.5913V109.533H65.7913V109.4H64.858V109.267H64.058V109.133H63.258V109H62.458V108.867H61.658V108.733H60.9913V108.6H60.3247V108.467H59.658V108.333H58.9913V108.2H58.3247V108.067H57.658V107.933H56.9913V107.8H56.458V107.667H55.9247V107.533H55.3913V107.4H54.858V107.267H54.3247V107.133H53.7913V107H53.258V106.867H52.7247V106.733H52.3247V106.6H51.9247V106.467H51.5247V106.333H51.1247V106.2H50.7247V106.067H50.3247V105.933H49.9247V105.8H49.3913V105.667H48.9913V105.533H48.7247V105.4H48.458V105.267H48.058V105.133H47.7913V105H47.5247V104.867H47.258V104.733H46.858V104.6H46.5913V104.467H46.3247V104.333H46.058V104.2H45.7913V104.067H45.5247V103.933H45.3913V103.8H45.1247V103.667H44.858V103.533H44.7247V103.4H44.458V103.267H44.1913V103.133H44.058V103H43.9247V102.867H43.7913V102.733H43.658V102.6H43.5247V102.467H43.3913V102.333H43.258V102.2H43.1247V102.067H42.9913V101.933H42.858V101.8H42.7247V101.667H42.5913V101.533H42.458V101.4H42.3247V101.133H42.1913V101H42.058V100.867H41.9247V100.6H41.7913V100.467H41.658V100.333H41.5247V100.067H41.3913V99.9334H41.258V99.6668H41.1247V99.5334H40.9913V99.2668H40.858V99.0001H40.7247V98.8668H40.5913V98.6001H40.458V98.3334H40.3247V98.2001H40.1913V97.9334H40.058V97.6668H39.9247V97.4001H39.7913V97.1334H39.658V96.8668H39.5247V96.6001H39.3913V96.3334H39.258V96.0668H39.1247V95.8001H38.9913V95.5334H38.858V95.2668H38.7247V94.8668H38.5913V94.6001H38.458V94.2001H38.3247V93.9334H38.1913V93.5334H38.058V93.2668H37.9247V92.8668H37.7913V92.6001H37.658V92.2001H37.5247V91.9334H37.3913V91.5334H37.258V91.1334H37.1247V90.7334H36.9913V90.3334H36.858V89.9334H36.7247V89.5334H36.5913V89.1334H36.458V88.7334H36.3247V88.3334H36.1913V87.8001H36.058V87.4001H35.9247V86.8668H35.7913V86.4668H35.658V86.0668H35.5247V85.5334H35.3913V85.0001H35.258V84.4668H35.1247V83.9334H34.9913V83.5334H34.858V83.0001H34.7247V82.4668H34.5913V81.9334H34.458V81.2668H34.3247V80.7334H34.1913V80.0668H34.058V79.5334H33.9247V78.8668H33.7913V78.2001H33.658V77.5334H33.5247V76.8668H33.3913V76.2001H33.258V75.5334H33.1247V74.8668H32.9913V74.0668H32.858V73.2668H32.7247V72.4668H32.5913V71.6668H32.458V70.8668H32.3247V69.9334H32.1913V69.0001H32.058V68.0668H31.9247V67.1334H31.7913V66.2001H31.658V65.0001H31.5247V63.9334H31.3913V62.8668H31.258V61.4001H31.1247V60.0668H30.9913V58.7334H30.858V56.8668H30.7247V55.1334H30.5913V52.8668H30.458V50.8668H31.7913V51.0001H39.258V50.8668H44.3247V50.7334H47.5247V50.6001H49.9247V50.4668H51.9247V50.3334H53.658V50.2001H55.258V50.0668H56.7247V49.9334H58.058V49.8001H59.3913V49.6668H60.5913V49.5334H61.658V49.4001H62.7247V49.2668H63.7913V49.1334H64.5913V49.0001H65.5247V48.8668H66.458V48.7334H67.3913V48.6001H68.058V48.4668H68.858V48.3334H69.658V48.2001H70.458V48.0668H71.1247V47.9334H71.7913V47.8001H72.5913V47.6668H73.258V47.5334H73.9247V47.4001H74.5913V47.2668H75.1247V47.1334H75.658V47.0001H76.3247V46.8668H76.858V46.7334H77.5247V46.6001H78.058V46.4668H78.5913V46.3334H79.1247V46.2001H79.658V46.0668H80.1913V45.9334H80.7247V45.8001H81.1247V45.6668H81.658V45.5334H82.058V45.4001H82.5913V45.2668H82.9913V45.1334H83.5247V45.0001H83.9247V44.8668H84.458V44.7334H84.858V44.6001H85.258V44.4668H85.658V44.3334H86.058V44.2001H86.458V44.0668H86.858V43.9334H87.258V43.8001H87.658V43.6668H88.058V43.5334H88.458V43.4001H88.858V43.2668H89.1247V43.1334H89.5247V43.0001H89.9247V42.8668H90.3247V42.7334H90.5913V42.6001H90.9913V42.4668H91.258V42.3334H91.658V42.2001H91.9247V42.0668H92.3247V41.9334H92.5913V41.8001H92.9913V41.6668H93.258V41.5334H93.658V41.4001H93.9247V41.2668H94.1913V41.1334H94.458V41.0001H94.858V40.8668H95.1247V40.7334H95.3913V40.6001H95.658V40.4668H95.9247V40.3334H96.3247V40.2001H96.5913V40.0668H96.858V39.9334H97.1247V39.8001H97.3913V39.6668H97.658V39.5334H97.9247V39.4001H98.1913V39.2668H98.458V39.1334H98.7247V39.0001H98.9913V38.8668H99.258V38.7334H99.5247V38.6001H99.658V38.4668H99.9247V38.3334H100.191V38.2001H100.458V38.0668H100.725V37.9334H100.858V37.8001H101.125V37.6668H101.391V37.5334H101.658V37.4001H101.791V37.2668H102.058V37.1334H102.325V37.0001H102.458V36.8668H102.725V36.7334H102.991V36.6001H103.125V36.4668H103.391V36.3334H103.525V36.2001H103.791V36.0668H104.058V35.9334H104.191V35.8001H104.458V35.6668H104.591V35.5334H104.858V35.4001H104.991V35.2668H105.258V35.1334H105.391V35.0001H105.658V34.8668H105.791V34.7334H105.925V34.6001H106.191V34.4668H106.325V34.3334H106.591V34.2001H106.725V34.0668H106.858V33.9334H107.125V33.8001H107.258V33.6668H107.525V33.5334H107.658V33.4001H107.791V33.2668H107.925V33.1334H108.191V33.0001H108.325V32.8668H108.458V32.7334H108.591V32.6001H108.858V32.4668H108.991V32.3334H109.125V32.2001H109.258V32.0668H109.525V31.9334H109.658V31.8001H109.791V31.6668H109.925V31.5334H110.058V31.4001H110.325V31.2668H110.458V31.1334H110.591V31.0001H110.725V30.8668H110.858V30.7334H110.991V30.6001H111.125V30.4668H111.258V30.3334H111.391V30.2001H111.525V30.0668H111.791V29.9334H111.925V29.8001H112.058V29.6668H112.191V29.5334H112.325V29.4001H112.458V29.2668H112.591V29.1334H112.725V29.0001H112.858V28.8668H112.991V28.7334H113.125V28.6001H113.258V28.4668H113.391V28.3334H113.525V28.2001H113.658V28.0668H113.791V27.9334H113.925V27.8001H114.058V27.6668H114.191V27.4001H114.325V27.2668H114.458V27.1334H114.591V27.0001H114.725V26.8668H114.858V26.7334H114.991V26.6001H115.125V26.3334H115.258V26.2001H115.391V26.0668H115.525V25.9334H115.658V25.8001H115.791V25.5334H115.925V25.4001H116.058V25.2668H116.191V25.1334H116.325V25.0001H116.458V24.7334H116.591V24.6001H116.725V24.4668H116.858V24.2001H116.991V24.0668H117.125V23.9334H117.258V23.6668H117.391V23.5334H117.525V23.2668H117.658V23.1334H117.791V23.0001H117.925V22.7334H118.058V22.6001H118.191V22.3334H118.325V22.2001H118.458V21.9334H118.591V21.8001H118.725V21.5334H118.858V21.4001H118.991V21.1334H119.125V20.8668H119.258V20.7334H119.391V20.4668H119.525V20.3334H119.658V20.0668H119.791V19.8001H119.925V19.6668H120.058V19.4001H120.191V19.1334H120.325V18.8668H120.458V18.6001H120.591V18.3334H120.725V18.0668H120.858V17.9334H120.991V17.6668H121.125V17.4001H121.258V17.1334H121.391V16.8668H121.525V16.4668H121.658V16.2001H121.791V15.9334H121.925V15.6668H122.058V15.2668H122.191V15.0001H122.325V14.7334H122.458V14.4668H122.591V14.0668H122.725V13.6668H122.858V13.4001H122.991V13.0001H123.125V12.6001H123.258V12.2001H123.391V11.9334H123.525V11.5334H123.658V11.1334H123.791V10.7334H123.925V10.2001H124.058V9.80009H124.191V9.26676H124.325V8.86676H124.458V8.33343H124.591V8.06676H125.925V7.93343H130.725V7.80009H136.591V7.66676H142.325V9.66676H142.191V11.1334H142.058V12.6001H141.925V13.9334H141.791V15.4001H141.658V16.6001H141.525V17.4001H141.391V18.3334H141.258V19.1334H141.125V20.0668H140.991V20.8668H140.858V21.8001H140.725V22.6001H140.591V23.5334H140.458V24.3334H140.325V25.0001H140.191V25.6668H140.058V26.2001H139.925V26.8668H139.791V27.4001H139.658V27.9334H139.525V28.6001H139.391V29.1334H139.258V29.8001H139.125V30.3334H138.991V31.0001H138.858V31.5334H138.725V32.2001H138.591V32.7334H138.458V33.1334H138.325V33.6668H138.191V34.0668H138.058V34.6001H137.925V35.0001H137.791V35.4001H137.658V35.9334H137.525V36.3334H137.391V36.7334H137.258V37.2668H137.125V37.6668H136.991V38.2001H136.858V38.6001H136.725V39.0001H136.591V39.5334H136.458V39.9334H136.325V40.4668H136.191V40.7334H136.058V41.1334H135.925V41.5334H135.791V41.9334H135.658V42.2001H135.525V42.6001H135.391V43.0001H135.258V43.2668H135.125V43.6668H134.991V44.0668H134.858V44.4668H134.725V44.7334H134.591V45.1334H134.458V45.5334H134.325V45.9334H134.191V46.2001H134.058V46.6001H133.925V47.0001H133.791V47.2668H133.658V47.6668H133.525V48.0668H133.391V48.3334H133.258V48.6001H133.125V49.0001H132.991V49.2668H132.858V49.5334H132.725V49.9334H132.591V50.2001H132.458V50.4668H132.325V50.7334H132.191V51.1334H132.058V51.4001H131.925V51.6668H131.791V51.9334H131.658V52.3334H131.525V52.6001H131.391V52.8668H131.258V53.1334H131.125V53.5334H130.991V53.8001H130.858V54.0668H130.725V54.4668H130.591V54.7334H130.458V55.0001H130.325V55.2668H130.191V55.5334H130.058V55.8001H129.925V56.0668H129.791V56.3334H129.658V56.6001H129.525V56.8668H129.391V57.1334H129.258V57.4001H129.125V57.6668H128.991V57.9334H128.858V58.2001H128.725V58.4668H128.591V58.7334H128.458V58.8668H128.325V59.1334H128.191V59.4001H128.058V59.6668H127.925V59.9334H127.791V60.2001H127.658V60.4668H127.525V60.7334H127.391V61.0001H127.258V61.2668H127.125V61.5334H126.991V61.8001H126.858V62.0668H126.725V62.3334H126.591V62.4668H126.458V62.7334H126.325V63.0001H126.191V63.1334H126.058V63.4001H125.925V63.6668H125.791V63.8001H125.658V64.0668H125.525V64.3334H125.391V64.4668H125.258V64.7334H125.125V65.0001H124.991V65.2668H124.858V65.4001H124.725V65.6668H124.591V65.9334H124.458V66.0668H124.325V66.3334H124.191V66.6001H124.058V66.7334H123.925V67.0001H123.791V67.2668H123.658V67.4001H123.525V67.6668H123.391V67.9334H123.258V68.0668H123.125V68.3334H122.991V68.6001H122.858V68.7334H122.725V69.0001H122.591V69.2668H122.458V69.4001H122.325V69.6668H122.191V69.8001H122.058V70.0668H121.925V70.2001H121.791V70.3334H121.658V70.6001H121.525V70.7334H121.391V71.0001H121.258V71.1334H121.125V71.4001H120.991V71.5334H120.858V71.8001H120.725V71.9334H120.591V72.2001H120.458V72.3334H120.325V72.6001H120.191V72.7334H120.058V72.8668H119.925V73.1334H119.791V73.2668H119.658V73.5334H119.525V73.6668H119.391V73.9334H119.258V74.0668H119.125V74.3334H118.991V74.4668H118.858V74.7334H118.725V74.8668H118.591V75.1334H118.458V75.2668H118.325V75.5334H118.191V75.6668H118.058V75.8001H117.925V76.0668H117.791V76.2001H117.658V76.3334H117.525V76.6001H117.391V76.7334H117.258V76.8668H117.125V77.0001H116.991V77.2668H116.858V77.4001H116.725V77.5334H116.591V77.8001H116.458V77.9334H116.325V78.0668H116.191V78.2001H116.058V78.4668H115.925V78.6001H115.791V78.7334H115.658V79.0001H115.525V79.1334H115.391V79.2668H115.258V79.4001H115.125V79.6668H114.991V79.8001H114.858V79.9334H114.725V80.2001H114.591V80.3334H114.458V80.4668H114.325V80.7334H114.191V80.8668H114.058V81.0001H113.925V81.1334H113.791V81.4001H113.658V81.5334H113.525V81.6668H113.391V81.9334H113.258V82.0668H113.125V82.2001H112.991V82.3334H112.858V82.4668H112.725V82.6001H112.591V82.7334H112.458V83.0001H112.325V83.1334H112.191V83.2668H112.058V83.4001H111.925V83.5334H111.791V83.6668H111.658V83.9334H111.525V84.0668H111.391V84.2001H111.258V84.3334H111.125V84.4668H110.991V84.6001H110.858V84.7334H110.725V85.0001H110.591V85.1334H110.458V85.2668H110.325V85.4001H110.191V85.5334H110.058V85.6668H109.925V85.8001H109.791V86.0668H109.658V86.2001H109.525V86.3334H109.391V86.4668H109.258V86.6001H109.125V86.7334H108.991V86.8668H108.858V87.1334H108.725V87.2668H108.591V87.4001H108.458V87.5334H108.325V87.6668H108.191V87.8001H108.058V87.9334H107.925V88.0668H107.791V88.2001H107.658V88.3334H107.525V88.4668H107.391V88.6001H107.258V88.7334H107.125V88.8668H106.991V89.0001H106.858V89.1334H106.725V89.2668H106.591V89.4001H106.458V89.5334H106.325V89.8001H106.191V89.9334H106.058V90.0668H105.925V90.2001H105.791V90.3334H105.658V90.4668H105.525V90.6001H105.391V90.7334H105.258V90.8668H105.125V91.0001H104.991V91.1334H104.858V91.2668H104.725V91.4001H104.591V91.5334H104.458V91.6668H104.325V91.8001H104.191V91.9334H104.058V92.0668H103.925V92.2001H103.791V92.3334H103.658V92.4668H103.525V92.6001H103.391V92.7334H103.258V92.8668H103.125V93.0001H102.991V93.1334H102.858V93.2668H102.725V93.4001H102.591V93.5334H102.458V93.6668H102.325V93.8001H102.191V93.9334H101.925V94.0668H101.791V94.2001H101.658V94.3334H101.525V94.4668H101.391V94.6001H101.258V94.7334H101.125V94.8668H100.991V95.0001H100.858V95.1334H100.591V95.2668H100.458V95.4001H100.325V95.5334H100.191V95.6668H100.058V95.8001H99.9247V95.9334H99.7913V96.0668H99.658V96.2001H99.5247V96.3334H99.3913V96.4668H99.1247V96.6001H98.9913V96.7334H98.858V96.8668H98.7247V97.0001H98.5913V97.1334H98.458V97.2668H98.3247V97.4001H98.1913V97.5334H98.058V97.6668H97.9247V97.8001H97.658V97.9334H97.5247V98.0668H97.3913V98.2001H97.258V98.3334H97.1247V98.4668H96.9913V98.6001H96.7247V98.7334H96.5913V98.8668H96.458V99.0001H96.3247V99.1334H96.058V99.2668H95.9247V99.4001H95.7913V99.5334H95.658V99.6668H95.5247V99.8001H95.258V99.9334H95.1247V100.067H94.9913V100.2H94.858V100.333H94.5913V100.467H94.458V100.6H94.3247V100.733H94.1913V100.867H93.9247V101H93.7913V101.133H93.658V101.267H93.5247V101.4H93.258V101.533H93.1247V101.667H92.9913V101.8H92.858V101.933H92.5913V102.067H92.458V102.2H92.3247V102.333H92.1913V102.467H91.9247V102.6H91.7913V102.733H91.658V102.867H91.5247V103H91.258V103.133H91.1247V103.267H90.9913V103.4H90.7247V103.533H90.5913V103.667H90.3247V103.8H90.1913V103.933H90.058V104.067H89.7913V104.2H89.658V104.333H89.3913V104.467H89.258V104.6H89.1247V104.733H88.858V104.867H88.7247V105H88.458V105.133H88.3247V105.267H88.1913V105.4H87.9247V105.533H87.7913V105.667H87.5247V105.8H87.3913V105.933H87.258V106.067H86.9913V106.2H86.858V106.333H86.5913V106.467H86.458V106.6H86.3247V106.733H86.058V106.867H85.9247V107H85.658V107.133H85.5247V107.267H85.258V107.4H85.1247V107.533H84.858V107.667H84.7247V107.8H84.458V107.933H84.3247V108.067H84.058V108.2H83.9247V108.333H83.658V108.467H83.3913V108.6H83.258V108.733H82.9913V108.867H82.858V109H82.5913V109.133H82.458V109.267H82.1913V109.4H81.9247V109.533H81.7913V109.667H81.5247V109.8H81.3913V109.933H81.1247V110.067H80.9913V110.2H80.7247V110.333H80.458V110.467H80.3247V110.6H80.058V110.733H79.7913V110.867H79.658V111H79.3913V111.133" fill="url(#paint7_linear_288_10013)"/>
</g>
</g>
<mask id="mask14_288_10013" style="mask-type:luminance" maskUnits="userSpaceOnUse" x="1" y="0" width="290" height="129">
<path d="M275.744 86.0254C276.474 85.5881 278.662 85.1294 281.37 84.6294C284.971 83.9627 287.79 81.1014 288.367 77.4841C292.167 53.6761 292.051 26.6628 286.315 19.4668C275.787 6.25876 201.584 0.737427 146.126 0.737427C90.6656 0.737427 16.4616 6.25876 5.93574 19.4668C4.74721 20.9588 3.80028 23.3027 3.08001 26.2934C1.66908 32.1467 5.61227 37.9614 11.5388 39.0281C16.1576 39.8587 20.3136 40.5881 21.4576 41.2761C23.0629 42.2388 10.7836 42.9481 3.39148 43.2814C2.22161 43.3348 1.29361 44.2894 1.28881 45.4614C1.28467 46.8494 1.29828 48.2668 1.33001 49.7068C1.38108 51.9668 3.02374 53.8854 5.24774 54.2854C7.37321 54.6681 9.21748 55.0094 9.75401 55.3307C9.91961 55.4307 9.7936 55.5254 9.456 55.6121C4.96494 56.7828 1.856 60.8561 2.32267 65.4734C4.48987 86.9014 9.93734 108.811 17.4896 115.292C32.8203 128.449 129.762 129.224 145.892 128.373C146.055 128.364 146.195 128.364 146.358 128.373C162.488 129.224 259.431 128.449 274.76 115.292C278.386 112.181 281.526 105.512 284.051 97.0494C285.466 92.3081 282.362 87.4494 277.466 86.7228C276.06 86.5134 275.319 86.2801 275.744 86.0254Z" fill="white"/>
</mask>
<g mask="url(#mask14_288_10013)">
<mask id="mask15_288_10013" style="mask-type:luminance" maskUnits="userSpaceOnUse" x="3" y="43" width="5" height="1">
<path d="M5.2452 43.4161C4.4848 43.3974 3.8556 43.3534 3.3916 43.2814C4.59267 43.2267 5.9228 43.1627 7.30146 43.0894C6.55666 43.1827 5.86813 43.2894 5.2452 43.4161Z" fill="white"/>
</mask>
<g mask="url(#mask15_288_10013)">
<path d="M4.72396 43.5334V43.4001H3.39062V43.2668H3.65729V43.1334H6.45729V43.0001H7.39062V43.1334H6.99063V43.2668H6.19063V43.4001H5.39062V43.5334" fill="url(#paint8_linear_288_10013)"/>
</g>
</g>
<mask id="mask16_288_10013" style="mask-type:luminance" maskUnits="userSpaceOnUse" x="1" y="0" width="290" height="129">
<path d="M275.744 86.0254C276.474 85.5881 278.662 85.1294 281.37 84.6294C284.971 83.9627 287.79 81.1014 288.367 77.4841C292.167 53.6761 292.051 26.6628 286.315 19.4668C275.787 6.25876 201.584 0.737427 146.126 0.737427C90.6656 0.737427 16.4616 6.25876 5.93574 19.4668C4.74721 20.9588 3.80028 23.3027 3.08001 26.2934C1.66908 32.1467 5.61227 37.9614 11.5388 39.0281C16.1576 39.8587 20.3136 40.5881 21.4576 41.2761C23.0629 42.2388 10.7836 42.9481 3.39148 43.2814C2.22161 43.3348 1.29361 44.2894 1.28881 45.4614C1.28467 46.8494 1.29828 48.2668 1.33001 49.7068C1.38108 51.9668 3.02374 53.8854 5.24774 54.2854C7.37321 54.6681 9.21748 55.0094 9.75401 55.3307C9.91961 55.4307 9.7936 55.5254 9.456 55.6121C4.96494 56.7828 1.856 60.8561 2.32267 65.4734C4.48987 86.9014 9.93734 108.811 17.4896 115.292C32.8203 128.449 129.762 129.224 145.892 128.373C146.055 128.364 146.195 128.364 146.358 128.373C162.488 129.224 259.431 128.449 274.76 115.292C278.386 112.181 281.526 105.512 284.051 97.0494C285.466 92.3081 282.362 87.4494 277.466 86.7228C276.06 86.5134 275.319 86.2801 275.744 86.0254Z" fill="white"/>
</mask>
<g mask="url(#mask16_288_10013)">
<mask id="mask17_288_10013" style="mask-type:luminance" maskUnits="userSpaceOnUse" x="2" y="21" width="29" height="22">
<path d="M17.7594 42.3201C20.0554 42.0641 21.5994 41.7721 21.6007 41.4481C21.602 41.3921 21.5554 41.3348 21.458 41.2761C20.314 40.5881 16.158 39.8587 11.5392 39.0281C6.42311 38.1067 2.78458 33.6481 2.79298 28.6801C2.79445 27.8934 2.88725 27.0934 3.08045 26.2934C3.55645 24.3161 4.13205 22.6214 4.81072 21.2694C4.81325 21.2668 4.81644 21.2654 4.81898 21.2627C7.18724 33.0507 25.6367 39.3014 30.4754 40.5694C30.4714 40.6868 30.466 40.8041 30.462 40.9214C26.022 41.6881 21.6807 42.0587 17.7594 42.3201ZM30.226 41.2841C30.302 41.2494 30.378 41.2148 30.4527 41.1788C30.4527 41.1988 30.4514 41.2201 30.4514 41.2401C30.3794 41.2548 30.3047 41.2694 30.226 41.2841Z" fill="white"/>
</mask>
<g mask="url(#mask17_288_10013)">
<path d="M17.6579 42.3334V42.2H18.7246V42.0667H19.6579V41.9334H20.3246V41.8H20.8579V41.6667H21.2579V41.5334H21.5246V41.4H21.3913V41.2667H21.1246V41.1334H20.7246V41H20.3246V40.8667H19.9246V40.7334H19.3913V40.6H18.8579V40.4667H18.3246V40.3334H17.6579V40.2H16.9913V40.0667H16.3246V39.9334H15.6579V39.8H14.9913V39.6667H14.3246V39.5334H13.5246V39.4H12.8579V39.2667H12.0579V39.1334H11.2579V39H10.7246V38.8667H10.3246V38.7334H9.92461V38.6H9.52461V38.4667H9.25794V38.3334H8.99128V38.2H8.72461V38.0667H8.45794V37.9334H8.19128V37.8H7.92461V37.6667H7.65794V37.5334H7.52461V37.4H7.25794V37.2667H7.12461V37.1334H6.99128V37H6.72461V36.8667H6.59128V36.7334H6.45794V36.6H6.32461V36.4667H6.19128V36.3334H6.05794V36.2H5.92461V36.0667H5.79128V35.9334H5.65794V35.8H5.52461V35.6667H5.39128V35.5334H5.25794V35.4H5.12461V35.2667H4.99128V35H4.85794V34.8667H4.72461V34.7334H4.59128V34.4667H4.45794V34.3334H4.32461V34.0667H4.19128V33.8H4.05794V33.5334H3.92461V33.4H3.79128V33.1334H3.65794V32.7334H3.52461V32.4667H3.39128V32.0667H3.25794V31.6667H3.12461V31.1334H2.99128V30.7334H2.85794V29.2667H2.72461V27.9334H2.85794V26.7334H2.99128V26.0667H3.12461V25.5334H3.25794V25.1334H3.39128V24.6H3.52461V24.2H3.65794V23.8H3.79128V23.4H3.92461V23H4.05794V22.7334H4.19128V22.3334H4.32461V22.0667H4.45794V21.6667H4.59128V21.4H4.72461V21.1334H4.85794V21.4H4.99128V21.9334H5.12461V22.3334H5.25794V22.7334H5.39128V23.1334H5.52461V23.5334H5.65794V23.8H5.79128V24.0667H5.92461V24.3334H6.05794V24.6H6.19128V24.8667H6.32461V25.1334H6.45794V25.4H6.59128V25.6667H6.72461V25.8H6.85794V26.0667H6.99128V26.2H7.12461V26.4667H7.25794V26.6H7.39128V26.8667H7.52461V27H7.65794V27.2667H7.79128V27.4H7.92461V27.5334H8.05794V27.6667H8.19128V27.9334H8.32461V28.0667H8.45794V28.2H8.59128V28.3334H8.72461V28.4667H8.85794V28.7334H8.99128V28.8667H9.12461V29H9.25794V29.1334H9.39128V29.2667H9.52461V29.4H9.65794V29.5334H9.79128V29.6667H9.92461V29.8H10.0579V29.9334H10.1913V30.0667H10.3246V30.2H10.4579V30.3334H10.7246V30.4667H10.8579V30.6H10.9913V30.7334H11.1246V30.8667H11.2579V31H11.3913V31.1334H11.6579V31.2667H11.7913V31.4H11.9246V31.5334H12.0579V31.6667H12.1913V31.8H12.4579V31.9334H12.5913V32.0667H12.7246V32.2H12.9913V32.3334H13.1246V32.4667H13.2579V32.6H13.5246V32.7334H13.6579V32.8667H13.9246V33H14.0579V33.1334H14.3246V33.2667H14.4579V33.4H14.5913V33.5334H14.8579V33.6667H15.1246V33.8H15.2579V33.9334H15.5246V34.0667H15.6579V34.2H15.9246V34.3334H16.1913V34.4667H16.3246V34.6H16.5913V34.7334H16.8579V34.8667H16.9913V35H17.2579V35.1334H17.5246V35.2667H17.7913V35.4H18.0579V35.5334H18.1913V35.6667H18.4579V35.8H18.7246V35.9334H18.9913V36.0667H19.2579V36.2H19.5246V36.3334H19.7913V36.4667H20.0579V36.6H20.3246V36.7334H20.5913V36.8667H20.8579V37H21.2579V37.1334H21.5246V37.2667H21.7913V37.4H22.0579V37.5334H22.3246V37.6667H22.7246V37.8H22.9913V37.9334H23.2579V38.0667H23.6579V38.2H23.9246V38.3334H24.3246V38.4667H24.5913V38.6H24.9913V38.7334H25.3913V38.8667H25.6579V39H26.0579V39.1334H26.4579V39.2667H26.8579V39.4H27.1246V39.5334H27.5246V39.6667H27.9246V39.8H28.3246V39.9334H28.8579V40.0667H29.2579V40.2H29.6579V40.3334H30.1913V40.4667H30.5913V41H30.0579V41.1334H29.2579V41.2667H28.3246V41.4H27.3913V41.5334H26.3246V41.6667H25.2579V41.8H24.0579V41.9334H22.5913V42.0667H21.2579V42.2H19.5246V42.3334H17.6579ZM30.1913 41.4V41.1334H30.4579V41.2667H30.3246V41.4" fill="url(#paint9_linear_288_10013)"/>
</g>
</g>
<mask id="mask18_288_10013" style="mask-type:luminance" maskUnits="userSpaceOnUse" x="1" y="0" width="290" height="129">
<path d="M275.744 86.0254C276.474 85.5881 278.662 85.1294 281.37 84.6294C284.971 83.9627 287.79 81.1014 288.367 77.4841C292.167 53.6761 292.051 26.6628 286.315 19.4668C275.787 6.25876 201.584 0.737427 146.126 0.737427C90.6656 0.737427 16.4616 6.25876 5.93574 19.4668C4.74721 20.9588 3.80028 23.3027 3.08001 26.2934C1.66908 32.1467 5.61227 37.9614 11.5388 39.0281C16.1576 39.8587 20.3136 40.5881 21.4576 41.2761C23.0629 42.2388 10.7836 42.9481 3.39148 43.2814C2.22161 43.3348 1.29361 44.2894 1.28881 45.4614C1.28467 46.8494 1.29828 48.2668 1.33001 49.7068C1.38108 51.9668 3.02374 53.8854 5.24774 54.2854C7.37321 54.6681 9.21748 55.0094 9.75401 55.3307C9.91961 55.4307 9.7936 55.5254 9.456 55.6121C4.96494 56.7828 1.856 60.8561 2.32267 65.4734C4.48987 86.9014 9.93734 108.811 17.4896 115.292C32.8203 128.449 129.762 129.224 145.892 128.373C146.055 128.364 146.195 128.364 146.358 128.373C162.488 129.224 259.431 128.449 274.76 115.292C278.386 112.181 281.526 105.512 284.051 97.0494C285.466 92.3081 282.362 87.4494 277.466 86.7228C276.06 86.5134 275.319 86.2801 275.744 86.0254Z" fill="white"/>
</mask>
<g mask="url(#mask18_288_10013)">
<mask id="mask19_288_10013" style="mask-type:luminance" maskUnits="userSpaceOnUse" x="30" y="40" width="2" height="2">
<path d="M30.4512 41.2401C30.4512 41.2201 30.4525 41.1988 30.4525 41.1788C30.7378 41.0468 31.0245 40.9108 31.3152 40.7694C31.0312 40.8214 30.7458 40.8721 30.4618 40.9214C30.4658 40.8041 30.4712 40.6868 30.4752 40.5694C30.8352 40.6641 31.1192 40.7308 31.3152 40.7694C31.8165 40.8694 31.4392 41.0374 30.4512 41.2401Z" fill="white"/>
</mask>
<g mask="url(#mask19_288_10013)">
<path d="M30.3242 41.2667V41.1334H30.4576V40.4667H30.7242V40.6001H31.2576V40.7334H31.6576V40.8667H31.5242V41.0001H31.3909V41.1334H30.9909V41.2667" fill="url(#paint10_linear_288_10013)"/>
</g>
</g>
<mask id="mask20_288_10013" style="mask-type:luminance" maskUnits="userSpaceOnUse" x="1" y="0" width="290" height="129">
<path d="M275.744 86.0254C276.474 85.5881 278.662 85.1294 281.37 84.6294C284.971 83.9627 287.79 81.1014 288.367 77.4841C292.167 53.6761 292.051 26.6628 286.315 19.4668C275.787 6.25876 201.584 0.737427 146.126 0.737427C90.6656 0.737427 16.4616 6.25876 5.93574 19.4668C4.74721 20.9588 3.80028 23.3027 3.08001 26.2934C1.66908 32.1467 5.61227 37.9614 11.5388 39.0281C16.1576 39.8587 20.3136 40.5881 21.4576 41.2761C23.0629 42.2388 10.7836 42.9481 3.39148 43.2814C2.22161 43.3348 1.29361 44.2894 1.28881 45.4614C1.28467 46.8494 1.29828 48.2668 1.33001 49.7068C1.38108 51.9668 3.02374 53.8854 5.24774 54.2854C7.37321 54.6681 9.21748 55.0094 9.75401 55.3307C9.91961 55.4307 9.7936 55.5254 9.456 55.6121C4.96494 56.7828 1.856 60.8561 2.32267 65.4734C4.48987 86.9014 9.93734 108.811 17.4896 115.292C32.8203 128.449 129.762 129.224 145.892 128.373C146.055 128.364 146.195 128.364 146.358 128.373C162.488 129.224 259.431 128.449 274.76 115.292C278.386 112.181 281.526 105.512 284.051 97.0494C285.466 92.3081 282.362 87.4494 277.466 86.7228C276.06 86.5134 275.319 86.2801 275.744 86.0254Z" fill="white"/>
</mask>
<g mask="url(#mask20_288_10013)">
<path d="M1.28785 46.5681C3.78891 45.1788 6.28371 45.3148 9.48118 45.4521C14.3238 45.6588 20.7799 45.8655 31.3145 40.7695C15.5359 43.6695 0.72798 41.3748 1.28785 46.5681Z" fill="#FF8C3B"/>
</g>
<mask id="mask21_288_10013" style="mask-type:luminance" maskUnits="userSpaceOnUse" x="1" y="0" width="290" height="129">
<path d="M275.744 86.0254C276.474 85.5881 278.662 85.1294 281.37 84.6294C284.971 83.9627 287.79 81.1014 288.367 77.4841C292.167 53.6761 292.051 26.6628 286.315 19.4668C275.787 6.25876 201.584 0.737427 146.126 0.737427C90.6656 0.737427 16.4616 6.25876 5.93574 19.4668C4.74721 20.9588 3.80028 23.3027 3.08001 26.2934C1.66908 32.1467 5.61227 37.9614 11.5388 39.0281C16.1576 39.8587 20.3136 40.5881 21.4576 41.2761C23.0629 42.2388 10.7836 42.9481 3.39148 43.2814C2.22161 43.3348 1.29361 44.2894 1.28881 45.4614C1.28467 46.8494 1.29828 48.2668 1.33001 49.7068C1.38108 51.9668 3.02374 53.8854 5.24774 54.2854C7.37321 54.6681 9.21748 55.0094 9.75401 55.3307C9.91961 55.4307 9.7936 55.5254 9.456 55.6121C4.96494 56.7828 1.856 60.8561 2.32267 65.4734C4.48987 86.9014 9.93734 108.811 17.4896 115.292C32.8203 128.449 129.762 129.224 145.892 128.373C146.055 128.364 146.195 128.364 146.358 128.373C162.488 129.224 259.431 128.449 274.76 115.292C278.386 112.181 281.526 105.512 284.051 97.0494C285.466 92.3081 282.362 87.4494 277.466 86.7228C276.06 86.5134 275.319 86.2801 275.744 86.0254Z" fill="white"/>
</mask>
<g mask="url(#mask21_288_10013)">
<mask id="mask22_288_10013" style="mask-type:luminance" maskUnits="userSpaceOnUse" x="265" y="73" width="24" height="16">
<path d="M281.439 88.4774C276.318 86.4868 268.082 86.4427 265.483 86.0587C265.546 85.8321 265.61 85.6028 265.673 85.3734C269.199 84.6481 281.301 83.3934 288.978 73.3841C288.978 73.3854 288.979 73.3854 288.979 73.3854C288.789 74.7601 288.585 76.1268 288.367 77.4841C287.79 81.1014 284.971 83.9628 281.37 84.6294C278.662 85.1294 276.474 85.5881 275.745 86.0254C275.665 86.0734 275.626 86.1201 275.626 86.1668C275.621 86.3668 276.323 86.5521 277.466 86.7228C278.991 86.9494 280.343 87.5774 281.439 88.4774Z" fill="white"/>
</mask>
<g mask="url(#mask22_288_10013)">
<path d="M281.392 88.4668H281.525V88.6001H281.392V88.4668ZM280.992 88.4668V88.3334H280.592V88.2001H280.192V88.0668H279.658V87.9334H279.258V87.8001H278.592V87.6668H278.058V87.5334H277.525V87.4001H276.858V87.2668H275.925V87.1334H275.125V87.0001H274.192V86.8668H272.992V86.7334H271.658V86.6001H270.192V86.4668H268.458V86.3334H266.725V86.2001H265.525V86.0668H265.392V85.8001H265.525V85.4001H265.658V85.2668H266.192V85.1334H266.858V85.0001H267.658V84.8668H268.325V84.7334H268.992V84.6001H269.658V84.4668H270.192V84.3334H270.858V84.2001H271.392V84.0668H271.925V83.9334H272.325V83.8001H272.858V83.6668H273.258V83.5334H273.658V83.4001H274.192V83.2668H274.592V83.1334H274.858V83.0001H275.258V82.8668H275.658V82.7334H276.058V82.6001H276.325V82.4668H276.725V82.3334H276.992V82.2001H277.392V82.0668H277.658V81.9334H277.925V81.8001H278.192V81.6668H278.458V81.5334H278.725V81.4001H279.125V81.2668H279.258V81.1334H279.525V81.0001H279.792V80.8668H280.058V80.7334H280.325V80.6001H280.592V80.4668H280.858V80.3334H280.992V80.2001H281.258V80.0668H281.392V79.9334H281.658V79.8001H281.792V79.6668H282.058V79.5334H282.325V79.4001H282.458V79.2668H282.725V79.1334H282.858V79.0001H282.992V78.8668H283.258V78.7334H283.392V78.6001H283.525V78.4668H283.792V78.3334H283.925V78.2001H284.192V78.0668H284.325V77.9334H284.458V77.8001H284.592V77.6668H284.725V77.5334H284.992V77.4001H285.125V77.2668H285.258V77.1334H285.392V77.0001H285.525V76.8668H285.658V76.7334H285.925V76.6001H286.058V76.4668H286.192V76.2001H286.325V76.0668H286.458V75.9334H286.592V75.8001H286.725V75.6668H286.858V75.5334H286.992V75.4001H287.125V75.2668H287.258V75.1334H287.392V75.0001H287.525V74.8668H287.658V74.7334H287.792V74.6001H287.925V74.4668H288.058V74.3334H288.192V74.0668H288.325V73.9334H288.458V73.8001H288.592V73.6668H288.725V73.5334H288.858V73.2668H288.992V74.3334H288.858V75.1334H288.725V76.0668H288.592V77.0001H288.458V77.8001H288.325V78.3334H288.192V78.8668H288.058V79.1334H287.925V79.5334H287.792V79.8001H287.658V80.0668H287.525V80.3334H287.392V80.6001H287.258V80.7334H287.125V81.0001H286.992V81.2668H286.858V81.4001H286.725V81.5334H286.592V81.6668H286.458V81.8001H286.325V82.0668H286.192V82.2001H286.058V82.3334H285.925V82.4668H285.658V82.6001H285.525V82.7334H285.392V82.8668H285.258V83.0001H285.125V83.1334H284.858V83.2668H284.725V83.4001H284.458V83.5334H284.325V83.6668H284.058V83.8001H283.792V83.9334H283.525V84.0668H283.258V84.2001H282.992V84.3334H282.592V84.4668H282.058V84.6001H281.658V84.7334H280.858V84.8668H280.192V85.0001H279.525V85.1334H278.858V85.2668H278.325V85.4001H277.658V85.5334H277.258V85.6668H276.725V85.8001H276.325V85.9334H275.925V86.0668H275.792V86.2001H275.925V86.3334H276.192V86.4668H276.858V86.6001H277.658V86.7334H278.192V86.8668H278.592V87.0001H278.992V87.1334H279.392V87.2668H279.658V87.4001H279.925V87.5334H280.192V87.6668H280.458V87.8001H280.725V87.9334H280.858V88.0668H281.125V88.2001H281.258V88.3334H281.392V88.4668" fill="url(#paint11_linear_288_10013)"/>
</g>
</g>
<mask id="mask23_288_10013" style="mask-type:luminance" maskUnits="userSpaceOnUse" x="1" y="0" width="290" height="129">
<path d="M275.744 86.0254C276.474 85.5881 278.662 85.1294 281.37 84.6294C284.971 83.9627 287.79 81.1014 288.367 77.4841C292.167 53.6761 292.051 26.6628 286.315 19.4668C275.787 6.25876 201.584 0.737427 146.126 0.737427C90.6656 0.737427 16.4616 6.25876 5.93574 19.4668C4.74721 20.9588 3.80028 23.3027 3.08001 26.2934C1.66908 32.1467 5.61227 37.9614 11.5388 39.0281C16.1576 39.8587 20.3136 40.5881 21.4576 41.2761C23.0629 42.2388 10.7836 42.9481 3.39148 43.2814C2.22161 43.3348 1.29361 44.2894 1.28881 45.4614C1.28467 46.8494 1.29828 48.2668 1.33001 49.7068C1.38108 51.9668 3.02374 53.8854 5.24774 54.2854C7.37321 54.6681 9.21748 55.0094 9.75401 55.3307C9.91961 55.4307 9.7936 55.5254 9.456 55.6121C4.96494 56.7828 1.856 60.8561 2.32267 65.4734C4.48987 86.9014 9.93734 108.811 17.4896 115.292C32.8203 128.449 129.762 129.224 145.892 128.373C146.055 128.364 146.195 128.364 146.358 128.373C162.488 129.224 259.431 128.449 274.76 115.292C278.386 112.181 281.526 105.512 284.051 97.0494C285.466 92.3081 282.362 87.4494 277.466 86.7228C276.06 86.5134 275.319 86.2801 275.744 86.0254Z" fill="white"/>
</mask>
<g mask="url(#mask23_288_10013)">
<mask id="mask24_288_10013" style="mask-type:luminance" maskUnits="userSpaceOnUse" x="264" y="85" width="2" height="2">
<path d="M265.483 86.0587C264.846 85.9654 264.547 85.8507 264.717 85.6827C264.825 85.5734 265.157 85.4787 265.673 85.3734C265.61 85.6027 265.546 85.832 265.483 86.0587Z" fill="white"/>
</mask>
<g mask="url(#mask24_288_10013)">
<path d="M264.858 86.0667V85.9334H264.592V85.6667H264.725V85.5334H264.992V85.4H265.525V85.2667H265.792V85.5334H265.658V85.9334H265.525V86.0667" fill="url(#paint12_linear_288_10013)"/>
</g>
</g>
<mask id="mask25_288_10013" style="mask-type:luminance" maskUnits="userSpaceOnUse" x="1" y="0" width="290" height="129">
<path d="M275.744 86.0254C276.474 85.5881 278.662 85.1294 281.37 84.6294C284.971 83.9627 287.79 81.1014 288.367 77.4841C292.167 53.6761 292.051 26.6628 286.315 19.4668C275.787 6.25876 201.584 0.737427 146.126 0.737427C90.6656 0.737427 16.4616 6.25876 5.93574 19.4668C4.74721 20.9588 3.80028 23.3027 3.08001 26.2934C1.66908 32.1467 5.61227 37.9614 11.5388 39.0281C16.1576 39.8587 20.3136 40.5881 21.4576 41.2761C23.0629 42.2388 10.7836 42.9481 3.39148 43.2814C2.22161 43.3348 1.29361 44.2894 1.28881 45.4614C1.28467 46.8494 1.29828 48.2668 1.33001 49.7068C1.38108 51.9668 3.02374 53.8854 5.24774 54.2854C7.37321 54.6681 9.21748 55.0094 9.75401 55.3307C9.91961 55.4307 9.7936 55.5254 9.456 55.6121C4.96494 56.7828 1.856 60.8561 2.32267 65.4734C4.48987 86.9014 9.93734 108.811 17.4896 115.292C32.8203 128.449 129.762 129.224 145.892 128.373C146.055 128.364 146.195 128.364 146.358 128.373C162.488 129.224 259.431 128.449 274.76 115.292C278.386 112.181 281.526 105.512 284.051 97.0494C285.466 92.3081 282.362 87.4494 277.466 86.7228C276.06 86.5134 275.319 86.2801 275.744 86.0254Z" fill="white"/>
</mask>
<g mask="url(#mask25_288_10013)">
<path d="M269.653 86.4161C278.777 89.0775 279.803 92.8948 280.161 99.7975C280.521 106.701 276.984 112.863 276.984 112.863C276.984 112.863 288.241 96.1455 282.775 89.8908C281.16 86.9188 269.653 86.4161 269.653 86.4161Z" fill="#FF8C3B"/>
</g>
<mask id="mask26_288_10013" style="mask-type:luminance" maskUnits="userSpaceOnUse" x="1" y="0" width="290" height="129">
<path d="M275.744 86.0254C276.474 85.5881 278.662 85.1294 281.37 84.6294C284.971 83.9627 287.79 81.1014 288.367 77.4841C292.167 53.6761 292.051 26.6628 286.315 19.4668C275.787 6.25876 201.584 0.737427 146.126 0.737427C90.6656 0.737427 16.4616 6.25876 5.93574 19.4668C4.74721 20.9588 3.80028 23.3027 3.08001 26.2934C1.66908 32.1467 5.61227 37.9614 11.5388 39.0281C16.1576 39.8587 20.3136 40.5881 21.4576 41.2761C23.0629 42.2388 10.7836 42.9481 3.39148 43.2814C2.22161 43.3348 1.29361 44.2894 1.28881 45.4614C1.28467 46.8494 1.29828 48.2668 1.33001 49.7068C1.38108 51.9668 3.02374 53.8854 5.24774 54.2854C7.37321 54.6681 9.21748 55.0094 9.75401 55.3307C9.91961 55.4307 9.7936 55.5254 9.456 55.6121C4.96494 56.7828 1.856 60.8561 2.32267 65.4734C4.48987 86.9014 9.93734 108.811 17.4896 115.292C32.8203 128.449 129.762 129.224 145.892 128.373C146.055 128.364 146.195 128.364 146.358 128.373C162.488 129.224 259.431 128.449 274.76 115.292C278.386 112.181 281.526 105.512 284.051 97.0494C285.466 92.3081 282.362 87.4494 277.466 86.7228C276.06 86.5134 275.319 86.2801 275.744 86.0254Z" fill="white"/>
</mask>
<g mask="url(#mask26_288_10013)">
<mask id="mask27_288_10013" style="mask-type:luminance" maskUnits="userSpaceOnUse" x="1" y="46" width="5" height="4">
<path d="M5.13133 49.4388C3.8152 49.3068 2.5428 49.1708 1.31613 49.0334C1.30106 48.2028 1.29226 47.3801 1.28906 46.5681C1.6568 46.3628 2.02507 46.1921 2.3948 46.0495C3.05893 47.3015 3.99533 48.4294 5.13133 49.4388Z" fill="white"/>
</mask>
<g mask="url(#mask27_288_10013)">
<path d="M4.72448 49.5334V49.4001H3.39115V49.2668H2.19115V49.1334H1.25781V46.4668H1.39115V46.3334H1.65781V46.2001H2.05781V46.0668H2.32448V45.9334H2.45781V46.0668H2.59115V46.3334H2.72448V46.4668H2.85781V46.7334H2.99115V46.8668H3.12448V47.1334H3.25781V47.2668H3.39115V47.5334H3.52448V47.6668H3.65781V47.8001H3.79115V47.9334H3.92448V48.0668H4.05781V48.3334H4.19115V48.4668H4.32448V48.6001H4.45781V48.7334H4.59115V48.8668H4.72448V49.0001H4.85781V49.1334H4.99115V49.2668H5.12448V49.4001H5.25781V49.5334" fill="url(#paint13_linear_288_10013)"/>
</g>
</g>
<mask id="mask28_288_10013" style="mask-type:luminance" maskUnits="userSpaceOnUse" x="1" y="0" width="290" height="129">
<path d="M275.744 86.0254C276.474 85.5881 278.662 85.1294 281.37 84.6294C284.971 83.9627 287.79 81.1014 288.367 77.4841C292.167 53.6761 292.051 26.6628 286.315 19.4668C275.787 6.25876 201.584 0.737427 146.126 0.737427C90.6656 0.737427 16.4616 6.25876 5.93574 19.4668C4.74721 20.9588 3.80028 23.3027 3.08001 26.2934C1.66908 32.1467 5.61227 37.9614 11.5388 39.0281C16.1576 39.8587 20.3136 40.5881 21.4576 41.2761C23.0629 42.2388 10.7836 42.9481 3.39148 43.2814C2.22161 43.3348 1.29361 44.2894 1.28881 45.4614C1.28467 46.8494 1.29828 48.2668 1.33001 49.7068C1.38108 51.9668 3.02374 53.8854 5.24774 54.2854C7.37321 54.6681 9.21748 55.0094 9.75401 55.3307C9.91961 55.4307 9.7936 55.5254 9.456 55.6121C4.96494 56.7828 1.856 60.8561 2.32267 65.4734C4.48987 86.9014 9.93734 108.811 17.4896 115.292C32.8203 128.449 129.762 129.224 145.892 128.373C146.055 128.364 146.195 128.364 146.358 128.373C162.488 129.224 259.431 128.449 274.76 115.292C278.386 112.181 281.526 105.512 284.051 97.0494C285.466 92.3081 282.362 87.4494 277.466 86.7228C276.06 86.5134 275.319 86.2801 275.744 86.0254Z" fill="white"/>
</mask>
<g mask="url(#mask28_288_10013)">
<mask id="mask29_288_10013" style="mask-type:luminance" maskUnits="userSpaceOnUse" x="1" y="44" width="1" height="3">
<path d="M1.28809 46.0254C1.28809 46.0107 1.28809 45.9974 1.28809 45.9827C1.28809 45.8094 1.28809 45.6347 1.28862 45.4614C1.29022 45.0134 1.42715 44.5961 1.66102 44.2494C1.72049 44.4534 1.78663 44.6534 1.85903 44.8507C1.53663 45.1827 1.34182 45.5707 1.28809 46.0254Z" fill="white"/>
</mask>
<g mask="url(#mask29_288_10013)">
<path d="M1.25781 46.0668V44.8668H1.39115V44.4668H1.52448V44.2001H1.79115V44.6001H1.92448V45.0001H1.79115V45.1334H1.65781V45.4001H1.52448V45.6668H1.39115V46.0668" fill="url(#paint14_linear_288_10013)"/>
</g>
</g>
<mask id="mask30_288_10013" style="mask-type:luminance" maskUnits="userSpaceOnUse" x="1" y="0" width="290" height="129">
<path d="M275.744 86.0254C276.474 85.5881 278.662 85.1294 281.37 84.6294C284.971 83.9627 287.79 81.1014 288.367 77.4841C292.167 53.6761 292.051 26.6628 286.315 19.4668C275.787 6.25876 201.584 0.737427 146.126 0.737427C90.6656 0.737427 16.4616 6.25876 5.93574 19.4668C4.74721 20.9588 3.80028 23.3027 3.08001 26.2934C1.66908 32.1467 5.61227 37.9614 11.5388 39.0281C16.1576 39.8587 20.3136 40.5881 21.4576 41.2761C23.0629 42.2388 10.7836 42.9481 3.39148 43.2814C2.22161 43.3348 1.29361 44.2894 1.28881 45.4614C1.28467 46.8494 1.29828 48.2668 1.33001 49.7068C1.38108 51.9668 3.02374 53.8854 5.24774 54.2854C7.37321 54.6681 9.21748 55.0094 9.75401 55.3307C9.91961 55.4307 9.7936 55.5254 9.456 55.6121C4.96494 56.7828 1.856 60.8561 2.32267 65.4734C4.48987 86.9014 9.93734 108.811 17.4896 115.292C32.8203 128.449 129.762 129.224 145.892 128.373C146.055 128.364 146.195 128.364 146.358 128.373C162.488 129.224 259.431 128.449 274.76 115.292C278.386 112.181 281.526 105.512 284.051 97.0494C285.466 92.3081 282.362 87.4494 277.466 86.7228C276.06 86.5134 275.319 86.2801 275.744 86.0254Z" fill="white"/>
</mask>
<g mask="url(#mask30_288_10013)">
<mask id="mask31_288_10013" style="mask-type:luminance" maskUnits="userSpaceOnUse" x="1" y="49" width="17" height="8">
<path d="M10.7436 56.5174C9.64361 56.5174 8.50081 56.4774 7.40454 56.3934C8.04614 56.0641 8.73307 55.8001 9.45601 55.6121C9.69307 55.5508 9.82588 55.4854 9.82641 55.4187C9.82641 55.3894 9.80295 55.3601 9.75401 55.3307C9.21748 55.0094 7.37321 54.6681 5.24775 54.2854C3.02375 53.8854 1.38108 51.9668 1.33001 49.7067C1.32535 49.4814 1.32067 49.2574 1.31641 49.0334C2.54307 49.1707 3.81547 49.3067 5.13161 49.4387C7.82481 51.8334 11.6379 53.5668 15.5949 54.7428C19.2029 55.8148 15.3549 56.5174 10.7436 56.5174Z" fill="white"/>
</mask>
<g mask="url(#mask31_288_10013)">
<path d="M8.72448 56.6001V56.4668H7.39115V56.3334H7.52448V56.2001H7.79115V56.0668H8.05781V55.9334H8.45781V55.8001H8.72448V55.6668H9.12448V55.5334H9.65781V55.4001H9.52448V55.2668H9.25781V55.1334H8.72448V55.0001H8.19115V54.8668H7.52448V54.7334H6.85781V54.6001H6.19115V54.4668H5.39115V54.3334H4.85781V54.2001H4.32448V54.0668H4.05781V53.9334H3.79115V53.8001H3.52448V53.6668H3.39115V53.5334H3.12448V53.4001H2.99115V53.2668H2.85781V53.1334H2.72448V53.0001H2.59115V52.8668H2.45781V52.7334H2.32448V52.6001H2.19115V52.3334H2.05781V52.2001H1.92448V51.9334H1.79115V51.6668H1.65781V51.4001H1.52448V51.0001H1.39115V50.3334H1.25781V49.0001H2.32448V49.1334H3.52448V49.2668H4.85781V49.4001H5.25781V49.5334H5.39115V49.6668H5.65781V49.8001H5.79115V49.9334H5.92448V50.0668H6.19115V50.2001H6.32448V50.3334H6.45781V50.4668H6.72448V50.6001H6.85781V50.7334H7.12448V50.8668H7.25781V51.0001H7.39115V51.1334H7.65781V51.2668H7.92448V51.4001H8.19115V51.5334H8.45781V51.6668H8.59115V51.8001H8.85781V51.9334H9.12448V52.0668H9.39115V52.2001H9.52448V52.3334H9.79115V52.4668H10.0578V52.6001H10.3245V52.7334H10.7245V52.8668H10.9911V53.0001H11.2578V53.1334H11.6578V53.2668H11.9245V53.4001H12.1911V53.5334H12.5911V53.6668H12.8578V53.8001H13.2578V53.9334H13.6578V54.0668H14.0578V54.2001H14.3245V54.3334H14.7245V54.4668H15.1245V54.6001H15.6578V54.7334H16.0578V54.8668H16.3245V55.0001H16.7245V55.1334H16.8578V55.2668H16.9911V55.4001H17.1245V55.5334H16.9911V55.8001H16.8578V55.9334H16.5911V56.0668H16.1911V56.2001H15.5245V56.3334H14.4578V56.4668H12.8578V56.6001" fill="url(#paint15_linear_288_10013)"/>
</g>
</g>
<mask id="mask32_288_10013" style="mask-type:luminance" maskUnits="userSpaceOnUse" x="1" y="0" width="290" height="129">
<path d="M275.744 86.0254C276.474 85.5881 278.662 85.1294 281.37 84.6294C284.971 83.9627 287.79 81.1014 288.367 77.4841C292.167 53.6761 292.051 26.6628 286.315 19.4668C275.787 6.25876 201.584 0.737427 146.126 0.737427C90.6656 0.737427 16.4616 6.25876 5.93574 19.4668C4.74721 20.9588 3.80028 23.3027 3.08001 26.2934C1.66908 32.1467 5.61227 37.9614 11.5388 39.0281C16.1576 39.8587 20.3136 40.5881 21.4576 41.2761C23.0629 42.2388 10.7836 42.9481 3.39148 43.2814C2.22161 43.3348 1.29361 44.2894 1.28881 45.4614C1.28467 46.8494 1.29828 48.2668 1.33001 49.7068C1.38108 51.9668 3.02374 53.8854 5.24774 54.2854C7.37321 54.6681 9.21748 55.0094 9.75401 55.3307C9.91961 55.4307 9.7936 55.5254 9.456 55.6121C4.96494 56.7828 1.856 60.8561 2.32267 65.4734C4.48987 86.9014 9.93734 108.811 17.4896 115.292C32.8203 128.449 129.762 129.224 145.892 128.373C146.055 128.364 146.195 128.364 146.358 128.373C162.488 129.224 259.431 128.449 274.76 115.292C278.386 112.181 281.526 105.512 284.051 97.0494C285.466 92.3081 282.362 87.4494 277.466 86.7228C276.06 86.5134 275.319 86.2801 275.744 86.0254Z" fill="white"/>
</mask>
<g mask="url(#mask32_288_10013)">
<path d="M1.28915 46.5681C1.28862 46.3868 1.28809 46.2054 1.28809 46.0254C1.34182 45.5708 1.53663 45.1828 1.85903 44.8508C2.01009 45.2628 2.18916 45.6615 2.39489 46.0495C2.02516 46.1921 1.65689 46.3628 1.28915 46.5681Z" fill="#C25B24"/>
<path d="M16.6854 55.8721C7.64698 59.1628 6.50631 60.5894 6.36417 71.5668C6.22137 82.5454 9.10577 99.9281 9.10577 99.9281C9.10577 99.9281 -2.61863 65.8641 -0.337428 59.7334C1.94377 53.6014 11.1798 57.0001 16.6854 55.8721Z" fill="#FF8C3B"/>
</g>
<path d="M125.036 109.872C77.8911 106.451 36.4484 100.368 28.8444 74.8934L28.7178 75.0174C31.0471 87.7014 34.7298 98.7334 39.3778 102.721C52.1618 113.695 133.342 114.288 146.126 113.565C151.298 113.859 167.662 113.933 186.163 113.196C177.267 112.973 157.746 112.247 125.036 109.872Z" fill="#9D3325"/>
<path d="M146.125 127.7L146.395 127.707C166.699 128.772 259.929 127.144 274.327 114.785C277.611 111.968 280.754 105.768 283.413 96.8601C284.03 94.7894 283.722 92.5614 282.567 90.7467C281.41 88.9281 279.515 87.7014 277.369 87.3814C275.623 87.1227 275.086 86.8827 274.973 86.3161C274.947 86.1894 274.905 85.7521 275.402 85.4534C276.202 84.9734 278.233 84.5307 281.249 83.9747C284.582 83.3574 287.178 80.7067 287.71 77.3787C291.817 51.6401 290.975 26.3827 285.794 19.8814C276.125 7.75207 208.213 1.40406 146.126 1.40406C84.0379 1.40406 16.1259 7.75207 6.45736 19.8814C5.3663 21.2521 4.44856 23.4614 3.72816 26.4494C3.10216 29.0467 3.5715 31.7254 5.05003 33.9907C6.54963 36.2894 8.95737 37.8854 11.6568 38.3721L12.1167 38.4547C17.3699 39.3987 20.6486 40.0121 21.8019 40.7054C22.3486 41.0334 22.2779 41.5001 22.2446 41.6374C22.0779 42.2961 21.8712 43.1161 3.4219 43.9467C2.6027 43.9841 1.95896 44.6507 1.9563 45.4641C1.95163 46.8454 1.96523 48.2587 1.9975 49.6934C2.0407 51.6307 3.45737 53.2867 5.36577 53.6294C7.8975 54.0854 9.4787 54.388 10.0975 54.76C10.3272 54.8974 10.5246 55.2547 10.486 55.52C10.4095 56.0547 9.83856 56.2027 9.62296 56.2587C5.35483 57.3707 2.5631 61.2174 2.9871 65.4054C5.4459 89.7254 11.309 109.108 17.9246 114.785C32.3219 127.143 125.554 128.776 145.858 127.707L146.125 127.7ZM160.371 129.269C153.849 129.269 148.902 129.175 146.323 129.039C146.186 129.032 146.069 129.032 145.93 129.039C130.694 129.845 32.7166 129.239 17.0552 115.799C8.7199 108.644 3.55163 84.2534 1.66003 65.5401C1.22043 61.1894 3.76057 57.1614 7.83603 55.4574C6.99803 55.2774 5.98083 55.0947 5.12923 54.9414C2.60003 54.4867 0.7219 52.292 0.664166 49.7227C0.6319 48.276 0.618297 46.8534 0.622964 45.4587C0.628164 43.9334 1.83083 42.6854 3.36097 42.6161C12.5188 42.2027 17.6112 41.7467 19.8286 41.3734C18.0406 40.8734 14.9219 40.3134 11.8808 39.7654L11.421 39.684C8.3615 39.1334 5.63296 37.324 3.93336 34.72C2.2527 32.144 1.7183 29.0947 2.43137 26.1374C3.19804 22.9574 4.20164 20.5734 5.4147 19.0507C17.3806 4.03738 102.689 0.0707245 146.126 0.0707245C189.562 0.0707245 274.87 4.03738 286.837 19.0507C293.077 26.88 292.622 55.0547 289.026 77.5907C288.406 81.4734 285.378 84.5654 281.491 85.2841C280.597 85.4494 278.93 85.7587 277.653 86.0774C280.145 86.4734 282.343 87.9107 283.693 90.0321C285.054 92.1707 285.418 94.8001 284.69 97.2401C281.919 106.527 278.725 112.769 275.195 115.799C262.187 126.963 192.37 129.269 160.371 129.269Z" fill="#612601"/>
<path d="M198.267 9.54133C200.591 15.772 229.721 14.088 227.635 12.0813C225.549 10.0733 197.525 7.552 198.267 9.54133Z" fill="#FF8D3B"/>
<path d="M229.833 12.5387C228.645 13.4573 233.24 15.5346 235.565 14.2506C237.892 12.968 231.496 11.2573 229.833 12.5387Z" fill="#FF8D3B"/>
<path d="M240.479 14.6574C253.595 18.1001 263.792 36.0654 266.322 50.8934C266.322 25.2294 268.141 18.2028 240.479 14.6574Z" fill="#F77111"/>
<path d="M49.2435 10.224C48.4822 12.9306 49.4328 18.064 56.6568 20.3453C52.8408 14.6507 49.2435 10.224 49.2435 10.224Z" fill="#FF8C3B"/>
<path d="M49.2432 10.224C49.2432 10.224 54.2912 12.0613 55.1885 14.0053C56.0858 15.9493 56.6565 20.3453 56.6565 20.3453L49.2432 10.224Z" fill="#A43723"/>
<path d="M196.602 102.216C195.358 105.772 194.958 111.693 195.868 113.043C196.779 114.393 205.135 119.727 205.135 119.727C205.135 119.727 207.979 109.327 196.602 102.216Z" fill="#591D05"/>
<path d="M196.602 102.216C195.358 105.771 194.958 111.693 195.868 113.043C196.779 114.393 205.135 119.727 205.135 119.727C197.624 114.216 196.602 102.216 196.602 102.216Z" fill="#9D3325"/>
<defs>
<linearGradient id="paint0_linear_288_10013" x1="146.126" y1="16.6441" x2="146.126" y2="123.462" gradientUnits="userSpaceOnUse">
<stop stop-color="#F77111"/>
<stop offset="1" stop-color="#540D17"/>
</linearGradient>
<linearGradient id="paint1_linear_288_10013" x1="150.582" y1="122.519" x2="150.582" y2="14.5741" gradientUnits="userSpaceOnUse">
<stop stop-color="#822330"/>
<stop offset="1" stop-color="#D15111"/>
</linearGradient>
<linearGradient id="paint2_linear_288_10013" x1="146.126" y1="16.6441" x2="146.126" y2="123.462" gradientUnits="userSpaceOnUse">
<stop stop-color="#E3610E"/>
<stop offset="1" stop-color="#4D0B13"/>
</linearGradient>
<linearGradient id="paint3_linear_288_10013" x1="150.582" y1="122.519" x2="150.582" y2="14.5741" gradientUnits="userSpaceOnUse">
<stop stop-color="#781E27"/>
<stop offset="1" stop-color="#C0460E"/>
</linearGradient>
<linearGradient id="paint4_linear_288_10013" x1="146.126" y1="16.6441" x2="146.126" y2="123.462" gradientUnits="userSpaceOnUse">
<stop stop-color="#E3610E"/>
<stop offset="1" stop-color="#4D0B13"/>
</linearGradient>
<linearGradient id="paint5_linear_288_10013" x1="150.582" y1="122.519" x2="150.582" y2="14.5741" gradientUnits="userSpaceOnUse">
<stop stop-color="#781E27"/>
<stop offset="1" stop-color="#C0460E"/>
</linearGradient>
<linearGradient id="paint6_linear_288_10013" x1="146.126" y1="16.6441" x2="146.126" y2="123.462" gradientUnits="userSpaceOnUse">
<stop stop-color="#E3610E"/>
<stop offset="1" stop-color="#4D0B13"/>
</linearGradient>
<linearGradient id="paint7_linear_288_10013" x1="150.582" y1="122.519" x2="150.582" y2="14.5741" gradientUnits="userSpaceOnUse">
<stop stop-color="#781E27"/>
<stop offset="1" stop-color="#C0460E"/>
</linearGradient>
<linearGradient id="paint8_linear_288_10013" x1="146.125" y1="16.6441" x2="146.125" y2="123.462" gradientUnits="userSpaceOnUse">
<stop stop-color="#BC490A"/>
<stop offset="1" stop-color="#40090E"/>
</linearGradient>
<linearGradient id="paint9_linear_288_10013" x1="146.126" y1="16.644" x2="146.126" y2="123.462" gradientUnits="userSpaceOnUse">
<stop stop-color="#BC490A"/>
<stop offset="1" stop-color="#40090E"/>
</linearGradient>
<linearGradient id="paint10_linear_288_10013" x1="150.582" y1="122.519" x2="150.582" y2="14.5741" gradientUnits="userSpaceOnUse">
<stop stop-color="#63171D"/>
<stop offset="1" stop-color="#9F350A"/>
</linearGradient>
<linearGradient id="paint11_linear_288_10013" x1="146.126" y1="16.6441" x2="146.126" y2="123.462" gradientUnits="userSpaceOnUse">
<stop stop-color="#BC490A"/>
<stop offset="1" stop-color="#40090E"/>
</linearGradient>
<linearGradient id="paint12_linear_288_10013" x1="150.582" y1="122.519" x2="150.582" y2="14.574" gradientUnits="userSpaceOnUse">
<stop stop-color="#63171D"/>
<stop offset="1" stop-color="#9F350A"/>
</linearGradient>
<linearGradient id="paint13_linear_288_10013" x1="146.126" y1="16.6441" x2="146.126" y2="123.462" gradientUnits="userSpaceOnUse">
<stop stop-color="#BC490A"/>
<stop offset="1" stop-color="#40090E"/>
</linearGradient>
<linearGradient id="paint14_linear_288_10013" x1="146.126" y1="16.6441" x2="146.126" y2="123.462" gradientUnits="userSpaceOnUse">
<stop stop-color="#BC490A"/>
<stop offset="1" stop-color="#40090E"/>
</linearGradient>
<linearGradient id="paint15_linear_288_10013" x1="146.126" y1="16.6441" x2="146.126" y2="123.462" gradientUnits="userSpaceOnUse">
<stop stop-color="#AD3F08"/>
<stop offset="1" stop-color="#3B070B"/>
</linearGradient>
</defs>
</svg>
